<?xml version="1.0" encoding="utf-8"?>
<!-- Generator: Adobe Illustrator 17.0.0, SVG Export Plug-In . SVG Version: 6.00 Build 0)  -->
<!DOCTYPE svg PUBLIC "-//W3C//DTD SVG 1.1//EN" "http://www.w3.org/Graphics/SVG/1.1/DTD/svg11.dtd">
<svg version="1.1" id="Layer_1" xmlns="http://www.w3.org/2000/svg" xmlns:xlink="http://www.w3.org/1999/xlink" x="0px" y="0px"
	 width="1446px" height="379px" viewBox="0 0 1446 379" enable-background="new 0 0 1446 379" xml:space="preserve">
<g>
	<path fill="#FFFFFF" stroke="#FFFFFF" stroke-width="9" stroke-miterlimit="10" d="M334.579,100.675l-59.096-34.598
		c-1.147-0.662-4.125-0.662-5.272,0L243.5,80.589V51.436v-0.177c0-1.323,1.343-2.547,0.196-3.209l-58.979-34.598
		c-1.147-0.662-1.909-0.662-3.056,0l-61.695,34.598c-1.146,0.662-3.467,1.885-3.467,3.209v0.044c0,0,0,0.001,0,0.001
		s0,0.001,0,0.001v30.806L90.988,66.077c-1.147-0.662-1.403-0.662-2.55,0l-61.527,34.598c-1.146,0.662-3.412,1.885-3.412,3.209
		v0.044c0,0,0,0,0,0.001s0,0.001,0,0.001v69.151c0,1.322,2.827,2.545,3.972,3.207l23.582,13.025l-24.142,12.983
		c-1.146,0.662-3.412,1.885-3.412,3.209v0.044c0,0,0,0.001,0,0.001s0,0.001,0,0.001v69.151c0,1.322,2.827,2.544,3.972,3.207
		l58.135,33.066c0.528,0.629,1.812,1.169,2.444,1.534c0.574,0.331,2.257,0.497,2.897,0.497c0.639,0,1.451-0.165,2.024-0.495
		c0.051-0.029-2.084-0.065-2.035-0.097l25.562-15.988v27.271c0,1.322,2.601,2.545,3.745,3.207l58.587,33.455
		c0.424,0.461,1.496,0.857,1.993,1.145c0.574,0.331,2.031,0.497,2.671,0.497c0.639,0,1.678-0.165,2.25-0.496
		c0.214-0.123,0.488-0.272,0.684-0.431l57.184-34.167c1.148-0.662-0.114-1.885-0.114-3.21v-25.576l25.321,13.463
		c0.355,0.367,1.891,0.684,2.308,0.925c0.574,0.331,2.178,0.497,2.819,0.497c0.639,0,1.952-0.165,2.525-0.495
		c0.289-0.166,0.715-0.369,0.981-0.599l56.993-33.999c1.148-0.662,0.055-1.885,0.055-3.21v-69.02v-0.177
		c0-1.324,1.226-2.547,0.079-3.209l-21.538-13.02l20.911-12.985c1.148-0.662,0.547-1.885,0.547-3.21v-69.02v-0.177
		C334.5,102.561,335.726,101.337,334.579,100.675z M123.5,261.483l51,29.753v60.633l-51-30.309V261.483z M236.5,84.649
		l-27.635,16.027c-1.146,0.662-1.365,1.885-1.365,3.209v0.044c0,0,0,0.001,0,0.001s0,0,0,0.001v26.201l-24-13.815V88.053l53-30.216
		V84.649z M243.5,188.179v-35.122v-0.177c0-1.323-0.907-2.547-2.054-3.209L214.5,134.16v-23.224l51,29.684v60.633L243.5,188.179z
		 M236.5,219.935l-53,30.327v-60.589l53-30.216V219.935z M236.524,254.575l-52.541,30.166l-52.522-30.272l20.664-11.935
		l27.832,16.205c0.424,0.461,0.933,0.857,1.43,1.145c0.574,0.331,1.75,0.497,2.39,0.497c0.639,0,1.537-0.165,2.11-0.495
		c0.214-0.123,0.418-0.272,0.614-0.431l29.295-16.851L236.524,254.575z M123.5,219.94v-60.077l51,29.753v60.633L123.5,219.94z
		 M90.5,140.678l53-30.216v24.437l-25.502,14.773c-1.146,0.662-1.498,1.885-1.498,3.209v0.044c0,0,0,0,0,0.001s0,0.001,0,0.001
		v33.464l-26,14.877V140.678z M236.524,152.954l-52.541,30.166l-52.522-30.272l52.44-30.288L236.524,152.954z M274.813,134.086
		l-52.581-30.255l52.402-30.266l52.632,30.399L274.813,134.086z M183.983,81.499l-52.522-30.272l52.44-30.288l52.624,30.394
		L183.983,81.499z M174.5,87.996v28.945l-24,13.903v-26.782v-0.177c0-1.323-0.709-2.547-1.856-3.209L123.5,86.153V58.242
		L174.5,87.996z M143.962,103.95l-52.648,30.212l-34.605-19.95l-17.86-10.323l52.504-30.325L143.962,103.95z M31.5,111.335
		l50,29.286v60.633l-50-30.309V111.335z M86.732,209.354c0.528,0.629,1.25,1.168,1.882,1.534c0.574,0.331,1.976,0.497,2.616,0.497
		c0.639,0,1.311-0.165,1.883-0.495c0.05-0.029-2.154-0.065-2.106-0.096l25.492-15.988v23.942l-27.436,17.036l-33.48-19.95
		L38.287,205.51l20.952-11.939L86.732,209.354z M31.5,212.956l50,29.286v60.633l-50-30.309V212.956z M90.5,242.298l30.908-16.338
		l22.356,12.361l-24.078,12.971c-1.146,0.662-3.186,1.885-3.186,3.209v0.044c0,0,0,0.001,0,0.001s0,0.001,0,0.001v33.464l-26,14.877
		V242.298z M183.5,351.883v-60.589l53-30.216v60.478L183.5,351.883z M243.5,254.677V254.5c0-1.324,1.343-2.547,0.196-3.209
		l-21.495-13.021l18.356-11.529l24.942,15.5v60.633l-22-13.075V254.677z M274.5,302.887v-60.589l52-30.216v60.478L274.5,302.887z
		 M272.563,235.707L243.5,220.278V196.5l25.321,13.463c0.355,0.367,1.891,0.684,2.308,0.925c0.574,0.331,2.178,0.497,2.819,0.497
		c0.639,0,1.952-0.165,2.525-0.495c0.289-0.166,0.715-0.369,0.981-0.599l29.055-16.654l19.597,11.948L272.563,235.707z
		 M274.5,201.267v-60.589l52-30.216v60.478L274.5,201.267z"/>
</g>
<g>
	<g>
		<path fill="#FFFFFF" stroke="#FFFFFF" stroke-width="21" stroke-linecap="round" stroke-miterlimit="10" d="M623.797,133.849
			c19.01,0,35.222,7.671,48.635,23.014c13.413,15.345,20.121,33.873,20.121,55.586v79.902h-23.161v-79.902
			c0-15.247-4.438-28.322-13.315-39.228c-8.879-10.807-19.638-16.211-32.279-16.211c-12.546,0-23.257,5.404-32.135,16.211
			c-8.879,10.905-13.317,23.98-13.317,39.228v79.902h-23.16v-79.902c0-15.247-4.487-28.322-13.461-39.228
			c-8.88-10.807-19.592-16.211-32.135-16.211c-12.546,0-23.305,5.404-32.28,16.211c-8.879,10.81-13.317,23.836-13.317,39.083v80.047
			h-23.16c0,0,0-37.148,0-79.619s23.16-59.051,23.16-59.051c13.027-13.22,28.226-19.832,45.596-19.832
			c11.675,0,22.628,3.185,32.858,9.554c9.844,6.274,17.949,14.764,24.319,25.476c6.272-10.712,14.33-19.202,24.173-25.476
			C601.167,137.034,612.12,133.849,623.797,133.849z"/>
		<path fill="#FFFFFF" stroke="#FFFFFF" stroke-width="21" stroke-linecap="round" stroke-miterlimit="10" d="M837.304,273.968
			c-13.029,13.222-28.227,19.83-45.597,19.83c-18.913,0-35.126-7.671-48.635-23.014c-13.413-15.343-20.121-33.871-20.121-55.583
			v-80.338h23.161V215.2c0,15.343,4.438,28.42,13.318,39.225c8.973,10.81,19.732,16.213,32.277,16.213s23.257-5.404,32.135-16.213
			c8.976-10.805,13.462-23.833,13.462-39.081v-80.047h23.159c0,0,0,45.212,0,79.524
			C860.463,253.528,837.304,273.968,837.304,273.968z"/>
		<path fill="#FFFFFF" stroke="#FFFFFF" stroke-width="21" stroke-linecap="round" stroke-miterlimit="10" d="M971.198,133.704
			c21.617,0,40.145,7.816,55.586,23.451c15.343,15.632,23.014,34.547,23.014,56.74c0,22.002-7.671,40.821-23.014,56.454
			c-15.441,15.73-33.969,23.593-55.586,23.593c-21.519,0-39.951-7.671-55.294-23.014c0,0-23.595-22.212-23.595-57.36
			c0-47.492,0-132.554,0-132.554h23.595v75.705C931.247,141.376,949.679,133.704,971.198,133.704z M971.198,270.205
			c15.149,0,28.129-5.502,38.938-16.503c10.712-11.001,16.066-24.267,16.066-39.806c0-15.534-5.355-28.899-16.066-40.096
			c-10.81-11.001-23.789-16.5-38.938-16.5c-15.247,0-28.276,5.499-39.083,16.5c-10.807,11.197-16.211,24.561-16.211,40.096
			c0,15.539,5.404,28.805,16.211,39.806C942.922,264.703,955.951,270.205,971.198,270.205z"/>
		<path fill="#FFFFFF" stroke="#FFFFFF" stroke-width="21" stroke-linecap="round" stroke-miterlimit="10" d="M1161.058,133.704
			c21.615,0,40.145,7.816,55.583,23.451c15.345,15.73,23.017,34.643,23.017,56.74c0,22.002-7.671,40.87-23.017,56.598
			c-15.438,15.632-33.969,23.448-55.583,23.448c-21.811,0-40.434-7.816-55.872-23.448c-15.345-15.728-23.017-34.596-23.017-56.598
			c0-22.097,7.671-41.01,23.017-56.74C1120.624,141.521,1139.247,133.704,1161.058,133.704z M1161.058,270.349
			c15.149,0,28.129-5.548,38.938-16.647c10.712-11.001,16.066-24.267,16.066-39.806c0-15.534-5.355-28.852-16.066-39.951
			c-10.81-11.097-23.789-16.645-38.938-16.645c-15.247,0-28.276,5.548-39.083,16.645c-10.807,11.099-16.211,24.417-16.211,39.951
			c0,15.539,5.404,28.805,16.211,39.806C1132.782,264.801,1145.811,270.349,1161.058,270.349z"/>
		<path fill="#FFFFFF" stroke="#FFFFFF" stroke-width="21" stroke-linecap="round" stroke-miterlimit="10" d="M1277.003,135.298
			l50.807,64.993l50.518-64.993h29.384l-62.965,81.059l60.217,75.994h-29.386l-47.767-59.928l-47.767,59.928h-29.529l60.362-75.994
			l-63.257-81.059H1277.003z"/>
	</g>
</g>
</svg>
