<?xml version="1.0" encoding="utf-8"?>
<!-- Generator: Adobe Illustrator 17.0.0, SVG Export Plug-In . SVG Version: 6.00 Build 0)  -->
<!DOCTYPE svg PUBLIC "-//W3C//DTD SVG 1.1//EN" "http://www.w3.org/Graphics/SVG/1.1/DTD/svg11.dtd">
<svg version="1.1" id="Layer_1" xmlns="http://www.w3.org/2000/svg" xmlns:xlink="http://www.w3.org/1999/xlink" x="0px" y="0px"
	 width="399.667px" height="400px" viewBox="0 0 399.667 400" enable-background="new 0 0 399.667 400" xml:space="preserve">
<g>
	<path fill="#333333" d="M352.829,113.333l-60.221-34.598c-1.147-0.662-2.438-0.662-3.585,0L264,93.247V64.094v-0.177
		c0-1.323-0.907-2.547-2.054-3.209L201.842,26.11c-1.147-0.662-2.471-0.662-3.618,0l-59.726,34.598
		C137.352,61.37,137,62.593,137,63.917v0.044c0,0,0,0.001,0,0.001s0,0.001,0,0.001v30.806l-27.762-16.034
		c-1.147-0.662-2.528-0.662-3.675,0l-59.839,34.598c-1.146,0.662-1.725,1.885-1.725,3.209v0.044c0,0,0,0,0,0.001s0,0.001,0,0.001
		v69.151c0,1.322,0.577,2.545,1.722,3.207l22.457,13.025l-22.455,12.983c-1.146,0.662-1.725,1.885-1.725,3.209v0.044
		c0,0,0,0.001,0,0.001s0,0.001,0,0.001v69.151c0,1.322,0.577,2.544,1.722,3.207l57.01,33.066c0.528,0.629,1.25,1.169,1.882,1.534
		c0.574,0.331,1.976,0.497,2.616,0.497c0.639,0,1.311-0.165,1.883-0.495c0.051-0.029,0.096-0.065,0.145-0.097L137,309.083v27.271
		c0,1.322,0.351,2.545,1.495,3.207l57.462,33.455c0.424,0.461,0.933,0.857,1.43,1.145c0.574,0.331,1.75,0.497,2.39,0.497
		c0.639,0,1.537-0.165,2.11-0.496c0.214-0.123,0.418-0.272,0.614-0.431l59.398-34.167c1.148-0.662,2.101-1.885,2.101-3.21v-25.576
		l23.071,13.463c0.355,0.367,0.766,0.684,1.183,0.925c0.574,0.331,1.616,0.497,2.256,0.497c0.639,0,1.671-0.165,2.243-0.495
		c0.289-0.166,0.574-0.369,0.84-0.599l59.172-33.999c1.148-0.662,2.234-1.885,2.234-3.21v-69.02v-0.177
		c0-1.324-1.024-2.547-2.171-3.209l-22.663-13.02l22.599-12.985c1.148-0.662,2.234-1.885,2.234-3.21v-69.02v-0.177
		C355,115.218,353.976,113.995,352.829,113.333z M144,274.141l51,29.753v60.633l-51-30.309V274.141z M257,97.306l-27.635,16.027
		c-1.146,0.662-1.365,1.885-1.365,3.209v0.044c0,0,0,0.001,0,0.001s0,0,0,0.001v26.201l-24-13.815V100.71l53-30.216V97.306z
		 M264,200.836v-35.122v-0.177c0-1.323-0.907-2.547-2.054-3.209L235,146.817v-23.224l51,29.684v60.633L264,200.836z M257,232.593
		l-53,30.327v-60.589l53-30.216V232.593z M252.524,267.233l-52.541,30.166l-52.522-30.272l20.664-11.935l27.832,16.205
		c0.424,0.461,0.933,0.857,1.43,1.145c0.574,0.331,1.75,0.497,2.39,0.497c0.639,0,1.537-0.165,2.11-0.495
		c0.214-0.123,0.418-0.272,0.614-0.431l29.295-16.851L252.524,267.233z M144,232.597V172.52l51,29.753v60.633L144,232.597z
		 M111,153.335l53-30.216v24.437l-25.502,14.773c-1.146,0.662-1.498,1.885-1.498,3.209v0.044c0,0,0,0,0,0.001s0,0.001,0,0.001
		v33.464l-26,14.877V153.335z M252.524,165.612l-52.541,30.166l-52.522-30.272l52.44-30.288L252.524,165.612z M290.813,146.743
		l-52.581-30.255l52.402-30.266l52.632,30.399L290.813,146.743z M199.983,94.157l-52.522-30.272l52.44-30.288l52.624,30.394
		L199.983,94.157z M195,100.653v28.945l-24,13.903v-26.782v-0.177c0-1.323-0.709-2.547-1.856-3.209L144,98.811V70.9L195,100.653z
		 M159.962,116.607l-52.648,30.212l-34.605-19.95l-17.86-10.323l52.504-30.325L159.962,116.607z M52,123.992l50,29.286v60.633
		l-50-30.309V123.992z M102.732,222.011c0.528,0.629,1.25,1.168,1.882,1.534c0.574,0.331,1.976,0.497,2.616,0.497
		c0.639,0,1.311-0.165,1.883-0.495c0.05-0.029,0.096-0.065,0.144-0.096L137,207.462v23.942l-29.686,17.036l-34.605-19.95
		l-17.86-10.323l20.671-11.939L102.732,222.011z M52,225.613l50,29.286v60.633l-50-30.309V225.613z M111,254.956l28.658-16.338
		l21.231,12.361l-22.391,12.971c-1.146,0.662-1.498,1.885-1.498,3.209v0.044c0,0,0,0.001,0,0.001s0,0.001,0,0.001v33.464l-26,14.877
		V254.956z M204,364.541v-60.589l53-30.216v60.478L204,364.541z M264,267.335v-0.177c0-1.324-0.907-2.547-2.054-3.209l-22.62-13.021
		l20.044-11.529l26.63,15.5v60.633l-22-13.075V267.335z M295,315.545v-60.589l52-30.216v60.478L295,315.545z M290.813,248.364
		L264,232.936v-23.778l23.071,13.463c0.355,0.367,0.766,0.684,1.183,0.925c0.574,0.331,1.616,0.497,2.256,0.497
		c0.639,0,1.671-0.165,2.243-0.495c0.289-0.166,0.574-0.369,0.84-0.599l28.985-16.654l20.687,11.948L290.813,248.364z M295,213.924
		v-60.589l52-30.216v60.478L295,213.924z"/>
</g>
<g>
	<g>
		<path fill="#333333" stroke="#333333" stroke-linecap="round" stroke-miterlimit="10" d="M114.528-151.56
			c9.536,0,17.669,3.848,24.398,11.545c6.729,7.698,10.094,16.993,10.094,27.885v40.083h-11.619v-40.083
			c0-7.649-2.226-14.208-6.68-19.679c-4.454-5.421-9.852-8.132-16.193-8.132c-6.294,0-11.667,2.711-16.121,8.132
			c-4.454,5.471-6.68,12.03-6.68,19.679v40.083H80.108v-40.083c0-7.649-2.251-14.208-6.753-19.679
			c-4.455-5.421-9.828-8.132-16.121-8.132c-6.294,0-11.691,2.711-16.193,8.132c-4.454,5.423-6.68,11.957-6.68,19.606v40.156H22.743
			c0,0,0-18.635,0-39.941s11.618-29.623,11.618-29.623c6.535-6.632,14.159-9.949,22.873-9.949c5.857,0,11.352,1.598,16.483,4.793
			c4.938,3.147,9.004,7.407,12.2,12.78c3.146-5.374,7.189-9.633,12.126-12.78C103.175-149.963,108.67-151.56,114.528-151.56z"/>
		<path fill="#333333" stroke="#333333" stroke-linecap="round" stroke-miterlimit="10" d="M221.634-81.269
			c-6.536,6.633-14.16,9.948-22.874,9.948c-9.488,0-17.621-3.848-24.398-11.545c-6.729-7.697-10.094-16.991-10.094-27.884v-40.302
			h11.619v40.302c0,7.697,2.226,14.257,6.681,19.678c4.502,5.423,9.898,8.133,16.192,8.133c6.294,0,11.667-2.711,16.121-8.133
			c4.503-5.42,6.753-11.956,6.753-19.605v-40.156h11.618c0,0,0,22.681,0,39.894C233.252-91.523,221.634-81.269,221.634-81.269z"/>
		<path fill="#333333" stroke="#333333" stroke-linecap="round" stroke-miterlimit="10" d="M288.803-151.633
			c10.844,0,20.139,3.921,27.885,11.764c7.697,7.842,11.545,17.331,11.545,28.464c0,11.037-3.848,20.478-11.545,28.32
			c-7.746,7.891-17.041,11.836-27.885,11.836c-10.795,0-20.042-3.848-27.738-11.545c0,0-11.837-11.143-11.837-28.775
			c0-23.824,0-66.496,0-66.496h11.837v37.978C268.761-147.784,278.008-151.633,288.803-151.633z M288.803-83.157
			c7.6,0,14.111-2.76,19.534-8.279c5.374-5.519,8.06-12.174,8.06-19.969c0-7.793-2.686-14.497-8.06-20.114
			c-5.423-5.519-11.934-8.277-19.534-8.277c-7.649,0-14.185,2.759-19.606,8.277c-5.421,5.617-8.132,12.321-8.132,20.114
			c0,7.795,2.711,14.45,8.132,19.969C274.618-85.917,281.154-83.157,288.803-83.157z"/>
		<path fill="#333333" stroke="#333333" stroke-linecap="round" stroke-miterlimit="10" d="M376.522-151.633
			c10.843,0,20.139,3.921,27.884,11.764c7.698,7.891,11.547,17.379,11.547,28.464c0,11.037-3.848,20.503-11.547,28.393
			c-7.745,7.842-17.041,11.763-27.884,11.763c-10.941,0-20.284-3.921-28.029-11.763c-7.698-7.89-11.547-17.355-11.547-28.393
			c0-11.085,3.848-20.573,11.547-28.464C356.238-147.712,365.581-151.633,376.522-151.633z M376.522-83.084
			c7.6,0,14.111-2.783,19.534-8.351c5.374-5.519,8.06-12.174,8.06-19.969c0-7.793-2.686-14.474-8.06-20.042
			c-5.423-5.567-11.934-8.35-19.534-8.35c-7.649,0-14.185,2.783-19.606,8.35c-5.421,5.568-8.132,12.249-8.132,20.042
			c0,7.795,2.711,14.45,8.132,19.969C362.337-85.868,368.873-83.084,376.522-83.084z"/>
		<path fill="#333333" stroke="#333333" stroke-linecap="round" stroke-miterlimit="10" d="M434.686-150.833l25.488,32.604
			l25.343-32.604h14.741L468.67-110.17l30.208,38.123h-14.742l-23.963-30.063l-23.963,30.063h-14.813l30.281-38.123l-31.733-40.664
			H434.686z"/>
	</g>
	<g>
		<path fill="#333333" d="M260.262-36.713v-14.635h4.561c0,0,0,18.791,0,25.62s-4.561,11.093-4.561,11.093
			c-2.966,2.966-6.52,4.449-10.661,4.449c-4.197,0-7.789-1.52-10.773-4.561c-2.966-3.022-4.449-6.66-4.449-10.913
			c0-4.29,1.483-7.947,4.449-10.969c2.985-3.022,6.576-4.533,10.773-4.533C253.742-41.162,257.296-39.679,260.262-36.713z
			 M257.128-17.965c2.089-2.127,3.134-4.692,3.134-7.695c0-3.003-1.045-5.587-3.134-7.751c-2.071-2.127-4.58-3.19-7.527-3.19
			c-2.929,0-5.448,1.063-7.555,3.19c-2.071,2.164-3.106,4.748-3.106,7.751c0,3.004,1.035,5.569,3.106,7.695
			c2.108,2.127,4.626,3.19,7.555,3.19C252.548-14.775,255.057-15.838,257.128-17.965z"/>
		<path fill="#333333" d="M285.251-41.162c4.178,0,7.76,1.511,10.745,4.533c2.966,3.041,4.449,6.697,4.449,10.969v2.295h-25.66
			c0.522,2.482,1.753,4.533,3.694,6.156c1.959,1.642,4.216,2.462,6.772,2.462c1.977,0,3.815-0.522,5.513-1.567
			c1.679-1.063,2.985-2.499,3.918-4.309l4.085,2.071c-1.325,2.593-3.2,4.636-5.625,6.128c-2.406,1.493-5.037,2.239-7.891,2.239
			c-4.216,0-7.817-1.511-10.801-4.533C271.483-17.759,270-21.407,270-25.66c0-4.272,1.483-7.928,4.449-10.969
			C277.434-39.651,281.034-41.162,285.251-41.162z M295.66-27.955c-0.523-2.481-1.754-4.533-3.694-6.156
			c-1.959-1.66-4.197-2.49-6.716-2.49c-2.556,0-4.813,0.831-6.772,2.49c-1.94,1.623-3.172,3.675-3.694,6.156H295.66z"/>
		<path fill="#333333" d="M307.161-40.855l10.158,23.757l10.158-23.757h4.869l-12.984,30.361h-4.113l-12.956-30.361H307.161"/>
		<path fill="#333333" d="M349.723-41.162c4.178,0,7.76,1.511,10.745,4.533c2.966,3.041,4.449,6.697,4.449,10.969v2.295h-25.66
			c0.522,2.482,1.753,4.533,3.694,6.156c1.959,1.642,4.216,2.462,6.772,2.462c1.977,0,3.815-0.522,5.513-1.567
			c1.679-1.063,2.985-2.499,3.918-4.309l4.085,2.071c-1.325,2.593-3.2,4.636-5.625,6.128c-2.406,1.493-5.037,2.239-7.891,2.239
			c-4.216,0-7.817-1.511-10.801-4.533c-2.966-3.041-4.449-6.688-4.449-10.941c0-4.272,1.483-7.928,4.449-10.969
			C341.906-39.651,345.506-41.162,349.723-41.162z M360.132-27.955c-0.523-2.481-1.754-4.533-3.694-6.156
			c-1.959-1.66-4.197-2.49-6.716-2.49c-2.556,0-4.813,0.831-6.772,2.49c-1.94,1.623-3.172,3.675-3.694,6.156H360.132z"/>
		<path fill="#333333" d="M370.374-51.348h4.477v40.855h-4.477V-51.348z"/>
		<path fill="#333333" d="M395.278-41.162c4.178,0,7.76,1.511,10.745,4.533c2.966,3.041,4.449,6.697,4.449,10.969
			c0,4.253-1.483,7.901-4.449,10.941c-2.985,3.022-6.567,4.533-10.745,4.533c-4.216,0-7.817-1.511-10.801-4.533
			c-2.966-3.041-4.449-6.688-4.449-10.941c0-4.272,1.483-7.928,4.449-10.969C387.462-39.651,391.062-41.162,395.278-41.162z
			 M395.278-14.747c2.929,0,5.438-1.072,7.527-3.218c2.071-2.127,3.106-4.692,3.106-7.695c0-3.003-1.035-5.577-3.106-7.723
			c-2.09-2.145-4.599-3.218-7.527-3.218c-2.948,0-5.466,1.073-7.555,3.218c-2.09,2.146-3.134,4.72-3.134,7.723
			c0,3.004,1.044,5.569,3.134,7.695C389.812-15.819,392.331-14.747,395.278-14.747z"/>
		<path fill="#333333" d="M430.341-41.246c4.178,0,7.76,1.521,10.745,4.561c2.966,3.022,4.449,6.669,4.449,10.941
			c0,4.272-1.483,7.919-4.449,10.941c-2.985,3.022-6.567,4.533-10.745,4.533c-4.16,0-7.723-1.474-10.689-4.421V0h-4.561
			c0,0,0-18.374,0-25.728s4.561-11.041,4.561-11.041C422.617-39.754,426.18-41.246,430.341-41.246z M430.341-14.831
			c2.929,0,5.438-1.063,7.527-3.19c2.071-2.145,3.106-4.72,3.106-7.723c0-3.003-1.035-5.577-3.106-7.723
			c-2.09-2.127-4.599-3.19-7.527-3.19c-2.948,0-5.466,1.063-7.555,3.19c-2.09,2.127-3.134,4.692-3.134,7.695v0.028
			c0,3.004,1.044,5.578,3.134,7.723C424.874-15.894,427.393-14.831,430.341-14.831z"/>
		<path fill="#333333" d="M464.703-41.162c4.178,0,7.76,1.511,10.745,4.533c2.966,3.041,4.449,6.697,4.449,10.969v2.295h-25.66
			c0.522,2.482,1.753,4.533,3.694,6.156c1.959,1.642,4.216,2.462,6.772,2.462c1.977,0,3.815-0.522,5.513-1.567
			c1.679-1.063,2.985-2.499,3.918-4.309l4.085,2.071c-1.325,2.593-3.2,4.636-5.625,6.128c-2.407,1.493-5.037,2.239-7.891,2.239
			c-4.216,0-7.817-1.511-10.801-4.533c-2.966-3.041-4.449-6.688-4.449-10.941c0-4.272,1.483-7.928,4.449-10.969
			C456.887-39.651,460.487-41.162,464.703-41.162z M475.113-27.955c-0.523-2.481-1.754-4.533-3.694-6.156
			c-1.959-1.66-4.197-2.49-6.716-2.49c-2.556,0-4.813,0.831-6.772,2.49c-1.94,1.623-3.172,3.675-3.694,6.156H475.113z"/>
		<path fill="#333333" d="M488.824-36.378c2.667-3.078,6.269-4.477,9.907-4.477h0.28v4.477h-0.28c-2.612,0-4.841,1.045-6.688,3.134
			c-1.847,2.462-2.77,5.168-2.77,8.115v14.635h-4.477c0,0,0-8.596,0-14.614C484.795-32.605,488.824-36.378,488.824-36.378z"/>
	</g>
</g>
</svg>
