<?xml version="1.0" encoding="utf-8"?>
<!-- Generator: Adobe Illustrator 17.0.0, SVG Export Plug-In . SVG Version: 6.00 Build 0)  -->
<!DOCTYPE svg PUBLIC "-//W3C//DTD SVG 1.1//EN" "http://www.w3.org/Graphics/SVG/1.1/DTD/svg11.dtd">
<svg version="1.1" id="Layer_1" xmlns="http://www.w3.org/2000/svg" xmlns:xlink="http://www.w3.org/1999/xlink" x="0px" y="0px"
	 width="511.37px" height="511px" viewBox="0 0 511.37 511" enable-background="new 0 0 511.37 511" xml:space="preserve">
<g>
	<g>
		<path fill="#FBB03B" d="M481.059,269.544c4.76-3.592,13.623-10.278,13.623-13.328c0-3.05-8.862-9.736-13.623-13.328
			c-8.799-6.638-17.896-13.502-19.555-22.982c-1.706-9.735,4.607-19.464,10.712-28.874c2.942-4.531,9.061-13.962,8.118-16.552
			c-1.006-2.76-11.53-5.975-17.185-7.703c-10.609-3.241-21.579-6.591-26.444-14.998c-4.91-8.488-2.33-19.739,0.165-30.62
			c1.309-5.712,3.748-16.345,1.92-18.521c-0.14-0.168-1.615-1.645-9.729-1.645c-2.788,0-5.761,0.154-8.91,0.317
			c-3.22,0.166-6.551,0.339-9.77,0.339c-6.454,0-14.599-0.62-20.358-5.458c-7.466-6.271-8.866-17.687-10.218-28.728
			c-0.715-5.849-2.05-16.737-4.56-18.19c-0.059-0.033-0.394-0.2-1.333-0.2c-3.941,0-10.609,2.819-16.491,5.306
			c-7.753,3.277-15.767,6.667-23.173,6.667c-2.521,0-4.883-0.395-7.022-1.174c-9.084-3.307-14.281-13.434-19.307-23.282
			C305.219,31.303,300.196,21,297.255,21c-0.002,0-0.003,0-0.005,0c-3.157,0-10.143,6.456-14.767,10.766
			c-8.243,7.682-16.766,15.598-26.719,15.598c-9.953,0-18.477-7.958-26.72-15.641c-4.625-4.311-11.616-10.834-14.683-10.834
			c-3.03,0.522-8.053,10.361-10.752,15.649c-5.026,9.848-10.222,20.029-19.306,23.336c-2.14,0.779-4.502,1.173-7.022,1.173
			c-7.406,0-15.423-3.39-23.175-6.668c-5.882-2.487-12.549-5.307-16.489-5.307c-0.728,0-1.173,0.108-1.333,0.201
			c-2.51,1.452-3.844,12.339-4.56,18.189c-1.353,11.04-2.751,22.456-10.217,28.728c-5.759,4.837-13.904,5.457-20.357,5.457
			c-3.219,0-6.551-0.172-9.772-0.339c-3.149-0.163-6.122-0.317-8.91-0.317c-8.113,0-9.588,1.477-9.73,1.645
			c-1.827,2.176,0.611,12.809,1.921,18.522c2.495,10.881,5.075,22.131,0.163,30.62c-4.863,8.407-15.833,11.758-26.442,14.998
			c-5.655,1.727-16.181,4.943-17.186,7.703c-0.943,2.59,5.177,12.021,8.118,16.553c6.105,9.409,12.418,19.138,10.714,28.875
			c-1.661,9.479-10.758,16.343-19.556,22.981c-4.761,3.592-13.624,10.278-13.624,13.328c0,3.05,8.862,9.736,13.624,13.328
			c8.798,6.638,17.896,13.502,19.556,22.98c1.705,9.737-4.608,19.466-10.713,28.875c-2.941,4.532-9.06,13.962-8.118,16.553
			c1.005,2.76,11.531,5.975,17.186,7.703c10.609,3.241,21.578,6.591,26.442,14.998c4.911,8.488,2.331,19.739-0.163,30.619
			c-1.31,5.713-3.748,16.347-1.921,18.522c0.142,0.168,1.616,1.644,9.729,1.644c2.788,0,5.762-0.153,8.91-0.316
			c3.222-0.168,6.553-0.339,9.773-0.339c6.453,0,14.599,0.619,20.357,5.458c7.466,6.271,8.865,17.687,10.217,28.727
			c0.716,5.849,2.05,16.737,4.56,18.189c0.16,0.093,0.605,0.2,1.333,0.2c3.941,0,10.609-2.818,16.492-5.306
			c7.752-3.277,15.767-6.665,23.173-6.665c2.52,0,4.883,0.394,7.022,1.173c9.084,3.307,14.281,13.718,19.307,23.566
			c2.699,5.288,7.722,15.874,10.664,15.874h0.002c3.156,0,10.143-6.739,14.768-11.048c8.243-7.682,16.767-15.819,26.721-15.819
			c9.953,0,18.476,7.927,26.719,15.61c4.625,4.311,11.617,10.817,14.684,10.817c0.046,0,0.073-0.008,0.088-0.009
			c2.942-0.515,7.964-10.361,10.663-15.649c5.026-9.848,10.223-20.033,19.307-23.34c2.138-0.779,4.501-1.174,7.021-1.174
			c7.407,0,15.422,3.39,23.174,6.667c5.882,2.489,12.55,5.308,16.489,5.306c0.73,0,1.175-0.108,1.335-0.201
			c2.51-1.452,3.843-12.34,4.56-18.189c1.353-11.041,2.749-22.457,10.217-28.728c5.759-4.837,13.905-5.458,20.357-5.458
			c3.219,0,6.55,0.173,9.772,0.339c3.149,0.163,6.121,0.318,8.91,0.318c8.114,0,9.589-1.478,9.729-1.646
			c1.829-2.176-0.61-12.809-1.92-18.521c-2.495-10.881-5.073-22.131-0.163-30.62c4.865-8.407,15.834-11.758,26.442-14.998
			c5.655-1.728,16.181-4.943,17.187-7.704c0.944-2.59-5.176-12.021-8.118-16.553c-6.105-9.408-12.418-19.138-10.714-28.873
			C463.162,283.046,472.261,276.182,481.059,269.544z"/>
		<path fill="#FF931E" d="M491.11,282.866c9.961-7.515,20.26-15.285,20.26-26.65c0-11.364-10.3-19.134-20.26-26.65
			c-5.034-3.798-12.643-9.539-13.168-12.538c-0.574-3.276,4.751-11.482,8.276-16.912c6.679-10.294,13.585-20.939,9.798-31.345
			c-3.851-10.58-16.123-14.328-27.992-17.954c-6.092-1.861-15.298-4.673-16.872-7.396c-1.623-2.804,0.548-12.269,1.985-18.532
			c2.756-12.018,5.605-24.446-1.568-32.984c-5.658-6.736-15.001-7.6-22.508-7.6c-3.22,0-6.551,0.173-9.773,0.339
			c-3.147,0.163-6.12,0.317-8.906,0.317c-7.024,0-9.071-1.083-9.625-1.548c-2.435-2.044-3.61-11.634-4.387-17.978
			c-1.504-12.286-3.061-24.989-12.767-30.605c-2.803-1.622-6.064-2.445-9.69-2.445c-7.324,0-15.288,3.367-22.99,6.624
			c-5.931,2.507-12.651,5.35-16.674,5.35c-0.745,0-1.144-0.105-1.314-0.167c-2.914-1.061-7.27-9.596-10.151-15.243
			c-5.657-11.085-11.507-22.547-22.65-24.499c-0.97-0.169-1.969-0.256-2.968-0.256c-9.638,0-17.987,7.782-26.061,15.308
			c-4.762,4.438-11.959,11.146-15.34,11.146c-3.382,0-10.579-6.708-15.341-11.147C232.349,11.976,224,4.194,214.361,4.194
			c-0.999,0-1.997,0.086-2.968,0.257c-11.142,1.952-16.992,13.413-22.649,24.499c-2.882,5.648-7.238,14.182-10.151,15.243
			c-0.171,0.062-0.57,0.167-1.314,0.167c-4.023,0-10.745-2.842-16.676-5.35c-7.701-3.256-15.665-6.624-22.989-6.624
			c-3.627,0-6.887,0.822-9.69,2.445c-9.707,5.616-11.263,18.32-12.767,30.605c-0.777,6.344-1.952,15.934-4.386,17.978
			c-0.554,0.465-2.601,1.547-9.623,1.547c-2.787,0-5.761-0.154-8.909-0.317c-3.222-0.166-6.553-0.339-9.773-0.339
			c-7.507,0-16.85,0.864-22.509,7.6c-7.172,8.539-4.322,20.966-1.567,32.984c1.437,6.264,3.607,15.729,1.984,18.533
			c-1.574,2.722-10.78,5.534-16.872,7.396c-11.868,3.625-24.14,7.374-27.992,17.954c-3.788,10.406,3.119,21.052,9.799,31.346
			c3.524,5.43,8.848,13.637,8.275,16.912c-0.525,2.999-8.134,8.739-13.169,12.538c-9.961,7.515-20.26,15.285-20.26,26.65
			s10.3,19.135,20.26,26.65c5.035,3.799,12.644,9.539,13.169,12.537c0.574,3.276-4.751,11.482-8.275,16.912
			c-6.679,10.295-13.587,20.94-9.799,31.346c3.852,10.58,16.123,14.328,27.992,17.954c6.092,1.861,15.297,4.673,16.872,7.396
			c1.622,2.803-0.548,12.268-1.984,18.532c-2.756,12.018-5.605,24.446,1.566,32.985c5.658,6.736,15.001,7.599,22.507,7.599
			c3.22,0,6.551-0.171,9.773-0.339c3.148-0.163,6.121-0.316,8.909-0.316c7.023,0,9.07,1.082,9.624,1.549
			c2.435,2.044,3.609,11.633,4.386,17.978c1.504,12.286,3.061,24.991,12.767,30.607c2.804,1.622,6.064,2.447,9.691,2.445
			c7.324,0,15.287-3.362,22.989-6.618c5.93-2.508,12.652-5.339,16.674-5.339c0.744,0,1.142,0.124,1.314,0.186
			c2.914,1.061,7.269,9.634,10.151,15.281c5.657,11.085,11.507,22.852,22.65,24.803c0.969,0.169,1.966,0.637,2.963,0.637
			c0.002,0,0.002,0,0.004,0c9.636,0,17.985-8.163,26.059-15.687c4.763-4.439,11.96-11.415,15.343-11.415
			c3.382,0,10.578,6.651,15.34,11.091c8.075,7.524,16.424,15.278,26.062,15.278c0.999,0,1.996-0.1,2.966-0.27
			c11.142-1.951,16.993-13.421,22.65-24.506c2.881-5.647,7.238-14.185,10.15-15.246c0.173-0.062,0.57-0.168,1.314-0.168
			c4.022,0,10.745,2.841,16.674,5.348c7.704,3.258,15.668,6.626,22.992,6.624c3.628,0,6.887-0.822,9.69-2.443
			c9.707-5.616,11.263-18.321,12.767-30.606c0.777-6.346,1.951-15.935,4.386-17.979c0.554-0.466,2.601-1.548,9.623-1.548
			c2.787,0,5.761,0.153,8.908,0.318c3.222,0.166,6.553,0.339,9.773,0.339c7.508,0,16.851-0.864,22.508-7.601
			c7.172-8.538,4.324-20.965,1.568-32.984c-1.436-6.264-3.607-15.729-1.983-18.533c1.574-2.722,10.781-5.534,16.872-7.396
			c11.867-3.625,24.139-7.374,27.992-17.954c3.789-10.406-3.119-21.052-9.799-31.347c-3.523-5.43-8.849-13.637-8.276-16.911
			C478.465,292.406,486.074,286.665,491.11,282.866z M472.217,321.4c2.942,4.532,9.061,13.963,8.118,16.553
			c-1.006,2.761-11.532,5.976-17.187,7.704c-10.608,3.24-21.577,6.591-26.442,14.998c-4.91,8.488-2.332,19.739,0.163,30.62
			c1.31,5.712,3.748,16.345,1.92,18.521c-0.14,0.168-1.615,1.646-9.729,1.646c-2.788,0-5.761-0.155-8.91-0.318
			c-3.222-0.166-6.553-0.339-9.772-0.339c-6.452,0-14.597,0.621-20.357,5.458c-7.467,6.271-8.864,17.687-10.217,28.728
			c-0.717,5.849-2.05,16.737-4.56,18.189c-0.16,0.093-0.605,0.2-1.335,0.2c-3.939,0.002-10.608-2.818-16.489-5.306
			c-7.753-3.277-15.767-6.667-23.174-6.667c-2.52,0-4.883,0.394-7.021,1.173c-9.084,3.307-14.281,13.491-19.307,23.339
			c-2.699,5.288-7.722,15.132-10.663,15.647c-0.015,0.002-0.042,0.005-0.088,0.005c-3.067,0-10.059-6.516-14.684-10.826
			c-8.243-7.682-16.766-15.627-26.719-15.627c-9.953,0-18.478,8.172-26.721,15.854C224.419,485.261,217.432,492,214.277,492h-0.003
			c-2.942,0-7.965-10.586-10.664-15.874c-5.026-9.848-10.223-20.225-19.307-23.531c-2.14-0.779-4.502-1.191-7.022-1.191
			c-7.405,0-15.421,3.379-23.173,6.657c-5.883,2.489-12.55,5.302-16.492,5.302c-0.728,0-1.173-0.11-1.333-0.203
			c-2.51-1.452-3.844-12.341-4.56-18.19c-1.353-11.04-2.751-22.456-10.217-28.727c-5.759-4.839-13.905-5.458-20.357-5.458
			c-3.219,0-6.551,0.171-9.773,0.339c-3.148,0.163-6.121,0.316-8.91,0.316c-8.113,0-9.587-1.477-9.729-1.644
			c-1.827-2.176,0.611-12.81,1.921-18.522c2.494-10.88,5.074-22.131,0.163-30.619c-4.864-8.407-15.833-11.758-26.442-14.998
			c-5.655-1.727-16.181-4.943-17.186-7.703c-0.943-2.59,5.177-12.021,8.118-16.553c6.105-9.409,12.418-19.138,10.713-28.875
			c-1.66-9.478-10.758-16.343-19.556-22.98c-4.761-3.592-13.624-10.278-13.624-13.328c0-3.05,8.862-9.736,13.624-13.328
			c8.798-6.638,17.896-13.502,19.556-22.981c1.705-9.737-4.609-19.466-10.714-28.875c-2.941-4.532-9.06-13.962-8.118-16.553
			c1.005-2.76,11.531-5.975,17.186-7.703c10.609-3.241,21.579-6.591,26.442-14.998c4.912-8.488,2.332-19.739-0.163-30.62
			c-1.309-5.713-3.748-16.346-1.921-18.522c0.142-0.169,1.617-1.645,9.73-1.645c2.788,0,5.761,0.154,8.91,0.317
			c3.221,0.167,6.553,0.339,9.772,0.339c6.453,0,14.598-0.62,20.357-5.457c7.466-6.271,8.865-17.687,10.217-28.728
			c0.716-5.85,2.05-16.737,4.56-18.189c0.16-0.093,0.605-0.201,1.333-0.201c3.941,0,10.607,2.82,16.489,5.307
			c7.753,3.278,15.769,6.669,23.175,6.669c2.52,0,4.883-0.392,7.022-1.171c9.084-3.307,14.28-13.484,19.306-23.332
			c2.699-5.288,7.722-15.12,10.752-15.641c3.067,0,10.058,6.538,14.683,10.85c8.243,7.683,16.766,15.673,26.72,15.673
			c9.953,0,18.476-7.979,26.719-15.662C287.107,27.456,294.093,21,297.25,21c0.002,0,0.003,0,0.005,0
			c2.942,0,7.964,10.303,10.663,15.591c5.026,9.848,10.223,19.911,19.307,23.219c2.14,0.779,4.501,1.206,7.022,1.206
			c7.405,0,15.42-3.374,23.173-6.651c5.882-2.488,12.55-5.298,16.491-5.298c0.939,0,1.274,0.171,1.333,0.204
			c2.51,1.453,3.844,12.343,4.56,18.192c1.353,11.04,2.753,22.458,10.218,28.729c5.759,4.838,13.905,5.458,20.358,5.458
			c3.219,0,6.55-0.173,9.77-0.339c3.149-0.163,6.121-0.317,8.91-0.317c8.114,0,9.589,1.477,9.729,1.645
			c1.829,2.176-0.611,12.809-1.92,18.521c-2.495,10.881-5.075,22.131-0.165,30.62c4.865,8.407,15.834,11.758,26.444,14.998
			c5.655,1.727,16.18,4.943,17.185,7.703c0.944,2.59-5.176,12.021-8.118,16.552c-6.105,9.41-12.418,19.139-10.712,28.874
			c1.659,9.48,10.756,16.344,19.555,22.982c4.76,3.592,13.623,10.278,13.623,13.328c0,3.05-8.862,9.736-13.623,13.328
			c-8.799,6.638-17.897,13.502-19.556,22.982C459.798,302.262,466.112,311.991,472.217,321.4z"/>
	</g>
	<linearGradient id="SVGID_1_" gradientUnits="userSpaceOnUse" x1="456.6344" y1="381.0007" x2="244.9576" y2="264.7194">
		<stop  offset="0" style="stop-color:#FBB03B;stop-opacity:0"/>
		<stop  offset="1" style="stop-color:#FF931E"/>
	</linearGradient>
	<path fill="url(#SVGID_1_)" d="M287.863,157.745l-52.367,157.776l-39.64,46.223l107.623,65.666c0,0,43.829-3.14,90.764-59.878
		s39.159-114.876,39.159-114.876L287.863,157.745z"/>
	<g>
		<path fill="#FFFFFF" d="M288.159,315.74V157.745h-30.045c-4.698,6.806-12.508,12.7-23.434,17.683
			c-10.736,4.888-22.38,7.332-34.934,7.332c-1.247,0-2.445-0.047-3.594-0.144v30.686c5.482,0.552,16.616,1.167,23.604-1.89
			l4.163,14.064c0.23-0.055,0.476-0.105,0.699-0.162v2.523v87.904h-28.465v46.004h119.61V315.74H288.159z"/>
		<path fill="#E6E6E6" d="M196.152,213.302v13.593c1.916,0.288,4.313,0.431,7.188,0.431c8.621,0,15.468-0.62,20.579-1.85
			l-4.163-14.064C212.767,214.47,201.634,213.854,196.152,213.302z"/>
	</g>
	<g>
		<path fill="#FF931E" d="M255.764,438.901c-100.734,0-182.686-81.952-182.686-182.685c0-100.734,81.952-182.686,182.686-182.686
			c100.732,0,182.685,81.952,182.685,182.686C438.449,356.949,356.496,438.901,255.764,438.901z M255.764,83.543
			c-95.212,0-172.673,77.461-172.673,172.673c0,95.211,77.461,172.672,172.673,172.672s172.672-77.461,172.672-172.672
			C428.436,161.004,350.976,83.543,255.764,83.543z"/>
	</g>
</g>
<g>
	<g>
		<g>
			<path fill="#FFFFFF" d="M152.578,137.723c-11.356,10.833-19.388,23.15-22.854,33.14c-1.77,4.977-2.417,9.316-2.249,12.445
				c0.046,0.786,0.115,1.49,0.245,2.121c0.145,0.635,0.323,1.189,0.531,1.661c0.417,0.944,0.959,1.559,1.619,1.849
				c0,0,0.117-0.381,0.337-1.096c0.212-0.716,0.523-1.766,1.034-3.087c0.968-2.646,2.601-6.402,5.102-10.722
				c4.903-8.686,13.492-19.4,23.397-28.864c9.875-9.502,20.906-17.831,29.587-23.221c4.33-2.721,8.05-4.742,10.673-6.061
				c1.311-0.668,2.349-1.155,3.059-1.475c0.708-0.328,1.086-0.504,1.086-0.504c-0.771-1.196-2.857-1.82-6.012-1.599
				c-3.152,0.204-7.372,1.218-12.232,3.15C176.182,119.297,163.908,126.839,152.578,137.723z"/>
		</g>
	</g>
</g>
</svg>
