<?xml version="1.0" encoding="utf-8"?>
<!-- Generator: Adobe Illustrator 17.0.0, SVG Export Plug-In . SVG Version: 6.00 Build 0)  -->
<!DOCTYPE svg PUBLIC "-//W3C//DTD SVG 1.1//EN" "http://www.w3.org/Graphics/SVG/1.1/DTD/svg11.dtd">
<svg version="1.1" id="Layer_1" xmlns="http://www.w3.org/2000/svg" xmlns:xlink="http://www.w3.org/1999/xlink" x="0px" y="0px"
	 width="324px" height="288px" viewBox="0 0 324 288" enable-background="new 0 0 324 288" xml:space="preserve">
<g>
	<g>
		<path fill="#FFFFFF" d="M242.046,18.359l-0.024,0.037c0.079,0.156,0.162,0.309,0.226,0.483L242.046,18.359z"/>
		<path fill="#FFFFFF" d="M300.828,112.969l-16.23-8.774c-0.752-0.381-1.696-1.195-2.539-1.195H235.77h-0.272L235,102.693V55.358
			l6.514-13.192c0.373-0.746,0.486-1.569,0.486-2.403V20.064c0-0.512-0.011-0.999-0.114-1.465l0.135-0.203
			c-0.86-1.695-2.61-2.396-4.732-2.396h-28.852c-2.11,0-4.025,0.581-4.894,2.503c-0.318,0.702-31.9,69.867-42.455,90.197
			C152.3,125.624,125.999,130,122.89,130H88.651c-1.446,0-2.831,0.831-3.842,1.865c-1.01,1.034-1.562,2.955-1.53,4.4L85.33,228
			l0.338,14.897c0.066,2.918,2.451,5.103,5.371,5.103h69.863l26.036,19.096c0.925,0.683,2.044,0.904,3.193,0.904h87.949
			c1.77,0,3.426-0.974,4.428-2.434l20.323-29.302c0.615-0.894,1.17-2.007,1.17-3.094V200.73v-82.967
			C304,115.738,302.635,113.884,300.828,112.969z"/>
	</g>
	<path fill="#E6E6E6" d="M196.1,244l-28.056-16H85.33l0.338,14.897c0.066,2.918,2.451,5.103,5.371,5.103h69.863l26.036,19.096
		c0.925,0.683,2.044,0.904,3.193,0.904h87.949c1.77,0,3.426-0.974,4.428-2.434l20.323-29.302c0.615-0.894,1.17-2.007,1.17-3.094
		V200.73L276.388,244H196.1z"/>
	<path fill="#0071BC" d="M82.711,120H26.939C21.702,120,16,123.946,16,128.341V237v0.946v4.547C16,246.723,21.702,254,26.939,254
		h55.772c5.237,0,8.289-7.277,8.289-11.507v-15.88v-0.518v-97.754C91,123.946,87.948,120,82.711,120z"/>
	<path fill="#E6E6E6" d="M222,93.681L235.498,102H235V54.358l6.514-13.192c0.373-0.746,0.486-1.569,0.486-2.403V19.064
		c0-0.6-0.006-1.166-0.17-1.704L222,47.418V93.681z"/>
	<path fill="#2E3192" d="M16,237v0.946v4.547C16,246.723,21.702,254,26.939,254h55.772c5.237,0,8.289-7.277,8.289-11.507v-15.88
		v-0.518L76.93,237H16z"/>
</g>
</svg>
