<?xml version="1.0" encoding="utf-8"?>
<!-- Generator: Adobe Illustrator 17.0.0, SVG Export Plug-In . SVG Version: 6.00 Build 0)  -->
<!DOCTYPE svg PUBLIC "-//W3C//DTD SVG 1.1//EN" "http://www.w3.org/Graphics/SVG/1.1/DTD/svg11.dtd">
<svg version="1.1" id="Layer_1" xmlns="http://www.w3.org/2000/svg" xmlns:xlink="http://www.w3.org/1999/xlink" x="0px" y="0px"
	 width="511.37px" height="511px" viewBox="0 0 511.37 511" enable-background="new 0 0 511.37 511" xml:space="preserve">
<g>
	<g>
		<polygon fill="#009245" points="458.799,367.594 469.97,361.308 468.272,348.604 478.811,341.312 475.94,328.823 485.757,320.582 
			481.738,308.415 490.744,299.297 485.612,287.551 493.741,277.637 487.547,266.411 494.736,255.79 487.547,245.169 
			493.741,233.942 485.612,224.03 490.744,212.284 481.738,203.167 485.757,191 475.942,182.759 478.813,170.27 468.274,162.978 
			469.972,150.276 458.802,143.992 459.316,131.184 447.612,125.958 446.945,113.157 434.809,109.029 432.967,96.342 
			420.504,93.345 417.507,80.88 404.819,79.038 400.691,66.901 387.889,66.234 382.662,54.529 369.855,55.044 363.571,43.873 
			350.867,45.571 343.576,35.032 331.085,37.902 322.846,28.087 310.676,32.106 301.56,23.099 289.815,28.23 279.901,20.103 
			268.673,26.296 258.053,19.107 247.432,26.296 236.204,20.103 226.293,28.23 214.547,23.099 205.431,32.106 193.262,28.086 
			185.023,37.901 172.533,35.031 165.242,45.57 152.539,43.872 146.254,55.041 133.448,54.526 128.221,66.231 115.42,66.898 
			111.292,79.034 98.605,80.876 95.608,93.34 83.143,96.337 81.301,109.024 69.165,113.152 68.497,125.953 56.792,131.18 
			57.307,143.987 46.137,150.272 47.834,162.976 37.295,170.268 40.165,182.757 30.351,190.997 34.369,203.166 25.362,212.284 
			30.493,224.029 22.366,233.943 28.559,245.17 21.37,255.79 28.559,266.411 22.367,277.638 30.493,287.551 25.362,299.296 
			34.369,308.414 30.35,320.58 40.164,328.82 37.295,341.31 47.833,348.601 46.135,361.304 57.306,367.588 56.79,380.396 
			68.494,385.622 69.161,398.424 81.297,402.551 83.139,415.238 95.604,418.235 98.6,430.7 111.288,432.541 115.415,444.679 
			128.217,445.346 133.443,457.05 146.251,456.536 152.535,467.708 165.239,466.009 172.531,476.548 185.021,473.679 
			193.26,483.493 205.43,479.475 214.547,488.481 226.292,483.351 236.206,491.477 247.432,485.284 258.053,492.473 
			268.674,485.284 279.902,491.477 289.813,483.351 301.56,488.481 310.675,479.475 322.844,483.493 331.083,473.68 
			343.572,476.549 350.866,466.011 363.568,467.709 369.852,456.538 382.659,457.054 387.885,445.35 400.686,444.682 
			404.814,432.545 417.502,430.705 420.499,418.24 432.964,415.243 434.804,402.556 446.941,398.428 447.609,385.627 459.314,380.4 
					"/>
		<linearGradient id="SVGID_1_" gradientUnits="userSpaceOnUse" x1="533.4963" y1="444.8816" x2="194.4001" y2="258.6045">
			<stop  offset="0" style="stop-color:#009245;stop-opacity:0"/>
			<stop  offset="1" style="stop-color:#006837"/>
		</linearGradient>
		<path fill="url(#SVGID_1_)" d="M392.615,211.194L219.082,314.573l-101.143,36.973l210.72,137.108c0,0,53.712-6.352,111.066-75.686
			s54.408-133.499,54.408-133.499L392.615,211.194z"/>
		<g>
			<g>
				<path fill="#E6E6E6" d="M313,191.681L326.498,200H326v-47.642l6.514-13.192c0.373-0.746,0.486-1.569,0.486-2.403v-19.699
					c0-0.6-0.006-1.166-0.17-1.704L313,145.418V191.681z"/>
				<path fill="#FFFFFF" d="M391.828,209.969l-16.23-8.774c-0.752-0.381-1.696-1.195-2.539-1.195H326.77h-0.272L313,191.681v-46.263
					l20.046-30.059l0.201,0.519c-0.753-2.057-2.64-2.879-4.958-2.879h-28.852c-2.11,0-4.025,0.581-4.894,2.503
					c-0.318,0.702-31.9,69.868-42.455,90.197C243.3,222.624,216.999,227,213.89,227h-34.239c-1.446,0-2.831,0.831-3.842,1.865
					c-1.01,1.034-1.562,2.955-1.53,4.4L176.33,325h82.714l28.056,16h80.288L395,297.73v-82.967
					C395,212.738,393.635,210.884,391.828,209.969z"/>
				<path fill="#E6E6E6" d="M287.1,341l-28.056-16H176.33l0.338,14.897c0.066,2.918,2.451,5.103,5.371,5.103h69.863l26.036,19.096
					c0.925,0.683,2.044,0.904,3.193,0.904h87.949c1.77,0,3.426-0.974,4.428-2.434l20.323-29.302c0.615-0.894,1.17-2.007,1.17-3.094
					V297.73L367.388,341H287.1z"/>
			</g>
			<g>
				<path fill="#0071BC" d="M173.711,217h-55.772c-5.237,0-10.939,3.946-10.939,8.341V334h60.93L182,323.095v-97.754
					C182,220.946,178.948,217,173.711,217z"/>
				<path fill="#2E3192" d="M107,334v0.946v4.547c0,4.23,5.702,11.507,10.939,11.507h55.772c5.237,0,8.289-7.277,8.289-11.507
					v-15.88v-0.518L167.93,334H107z"/>
			</g>
		</g>
		<path fill="#006837" d="M501.519,267.047l7.621-11.256l-7.621-11.257l6.568-11.905l-8.621-10.514l5.444-12.462l-9.558-9.675
			l4.265-12.914l-10.416-8.745l3.046-13.256l-11.184-7.739l1.801-13.48l-11.851-6.668l0.545-13.587l-12.415-5.544l-0.707-13.578
			l-12.872-4.378l-1.953-13.455l-13.218-3.178l-3.178-13.219l-13.455-1.952l-4.377-12.873l-13.579-0.708l-5.544-12.415
			l-13.588,0.546l-6.668-11.853l-13.48,1.801l-7.738-11.184l-13.257,3.046l-8.745-10.417l-12.915,4.265l-9.675-9.558l-12.462,5.444
			l-10.515-8.62l-11.906,6.566l-11.256-7.62l-11.257,7.62l-11.906-6.567l-10.514,8.621l-12.462-5.444l-9.675,9.558l-12.914-4.265
			l-8.746,10.417l-13.255-3.046l-7.739,11.184l-13.479-1.802l-6.669,11.852l-13.587-0.546L120.308,54.7l-13.578,0.708l-4.378,12.872
			l-13.455,1.952l-3.178,13.219L72.5,86.629l-1.952,13.455l-12.872,4.378l-0.708,13.578l-12.416,5.545l0.546,13.588l-11.853,6.668
			l1.801,13.48l-11.184,7.738l3.046,13.257l-10.417,8.746l4.265,12.914l-9.559,9.675l5.444,12.462l-8.621,10.516l6.567,11.905
			L6.968,255.79l7.619,11.256l-6.567,11.906l8.621,10.514l-5.444,12.462l9.558,9.674l-4.265,12.914l10.416,8.746l-3.045,13.256
			l11.184,7.738l-1.802,13.479l11.852,6.668l-0.547,13.586l12.416,5.545l0.708,13.577l12.872,4.379l1.952,13.454l13.219,3.178
			l3.178,13.219l13.455,1.953l4.378,12.871l13.578,0.709l5.545,12.415l13.587-0.545l6.669,11.852l13.48-1.801l7.74,11.184
			l13.255-3.046l8.746,10.417l12.915-4.265l9.675,9.559l12.462-5.445l10.515,8.62l11.904-6.565l11.257,7.62l11.257-7.62
			l11.906,6.565l10.514-8.619l12.462,5.444l9.674-9.559l12.914,4.265l8.745-10.416l13.256,3.046l7.738-11.184l13.48,1.801
			l6.668-11.851l13.587,0.546l5.543-12.415l13.579-0.709l4.377-12.871l13.455-1.952l3.178-13.219l13.219-3.178l1.952-13.454
			l12.874-4.379l0.707-13.577l12.416-5.544l-0.545-13.587l11.851-6.669l-1.801-13.479l11.185-7.74l-3.046-13.256l10.417-8.746
			l-4.265-12.915l9.558-9.676l-5.444-12.461l8.62-10.516L501.519,267.047z M446.941,398.428l-12.137,4.128l-1.84,12.687
			l-12.465,2.997l-2.997,12.465l-12.688,1.84l-4.128,12.137l-12.801,0.667l-5.226,11.704l-12.807-0.516l-6.284,11.171l-12.702-1.698
			l-7.293,10.538l-12.489-2.869l-8.239,9.813l-12.169-4.018l-9.115,9.007l-11.747-5.131l-9.911,8.126l-11.228-6.193l-10.621,7.189
			l-10.621-7.189l-11.227,6.193l-9.914-8.126l-11.744,5.131l-9.117-9.007l-12.169,4.018l-8.24-9.814l-12.49,2.869l-7.292-10.538
			l-12.704,1.698l-6.284-11.172l-12.808,0.515l-5.227-11.704l-12.801-0.667l-4.128-12.137L98.6,430.7l-2.997-12.465l-12.465-2.997
			l-1.841-12.687l-12.136-4.128l-0.667-12.801l-11.704-5.226l0.515-12.808l-11.171-6.284l1.698-12.704l-10.538-7.291l2.869-12.489
			l-9.814-8.24l4.019-12.167l-9.007-9.117l5.131-11.746l-8.127-9.912l6.193-11.228l-7.189-10.62l7.189-10.62l-6.193-11.227
			l8.127-9.914l-5.131-11.745l9.007-9.117l-4.018-12.169l9.814-8.24l-2.87-12.489l10.539-7.292l-1.698-12.704l11.171-6.285
			l-0.515-12.807l11.704-5.227l0.669-12.801l12.136-4.128l1.841-12.687l12.465-2.997l2.997-12.465l12.687-1.841l4.128-12.136
			l12.801-0.667l5.227-11.704l12.807,0.515l6.285-11.17l12.702,1.698l7.292-10.539l12.49,2.87l8.239-9.814l12.168,4.019l9.117-9.007
			l11.746,5.131l9.912-8.127l11.228,6.193l10.621-7.189l10.62,7.189l11.228-6.193l9.914,8.127l11.745-5.131l9.116,9.007l12.17-4.019
			l8.239,9.815l12.49-2.87l7.291,10.539l12.705-1.698l6.284,11.17l12.807-0.514l5.227,11.705l12.801,0.667l4.128,12.137
			l12.688,1.841l2.997,12.465l12.464,2.997l1.841,12.687l12.136,4.128l0.667,12.801l11.704,5.226l-0.515,12.808l11.171,6.284
			l-1.698,12.703l10.538,7.292l-2.871,12.489l9.815,8.24l-4.018,12.168l9.006,9.117l-5.132,11.746l8.129,9.912l-6.194,11.227
			l7.19,10.621l-7.19,10.62l6.194,11.227l-8.129,9.913l5.132,11.746l-9.006,9.118l4.018,12.168l-9.816,8.24l2.871,12.489
			l-10.539,7.292l1.698,12.703l-11.171,6.286l0.515,12.806l-11.705,5.227L446.941,398.428z"/>
	</g>
	<g>
		<g>
			<g>
				<path fill="#FFFFFF" d="M133.677,83.834c-11.356,10.833-19.388,23.15-22.854,33.14c-1.77,4.977-2.417,9.316-2.249,12.445
					c0.046,0.786,0.115,1.49,0.245,2.121c0.145,0.635,0.323,1.189,0.531,1.661c0.417,0.944,0.959,1.559,1.619,1.849
					c0,0,0.117-0.381,0.337-1.096c0.212-0.716,0.523-1.766,1.034-3.087c0.968-2.646,2.601-6.402,5.102-10.722
					c4.903-8.686,13.492-19.4,23.397-28.864c9.875-9.502,20.906-17.831,29.587-23.221c4.33-2.721,8.05-4.742,10.673-6.061
					c1.311-0.668,2.349-1.155,3.059-1.475c0.708-0.328,1.086-0.504,1.086-0.504c-0.771-1.196-2.857-1.82-6.012-1.599
					c-3.152,0.204-7.372,1.218-12.232,3.15C157.281,65.408,145.007,72.951,133.677,83.834z"/>
			</g>
		</g>
	</g>
</g>
</svg>
