<?xml version="1.0" encoding="utf-8"?>
<!-- Generator: Adobe Illustrator 17.0.0, SVG Export Plug-In . SVG Version: 6.00 Build 0)  -->
<!DOCTYPE svg PUBLIC "-//W3C//DTD SVG 1.1//EN" "http://www.w3.org/Graphics/SVG/1.1/DTD/svg11.dtd">
<svg version="1.1" id="Layer_1" xmlns="http://www.w3.org/2000/svg" xmlns:xlink="http://www.w3.org/1999/xlink" x="0px" y="0px"
	 width="511.37px" height="511px" viewBox="0 0 511.37 511" enable-background="new 0 0 511.37 511" xml:space="preserve">
<g>
	<path fill="#CC0033" d="M490.454,220.871C473.858,106.679,375.318,18.681,256.599,18.681
		c-130.313,0-236.331,106.018-236.331,236.33c0,107.682,72.395,198.768,171.068,227.159c20.737,5.967,42.632,9.171,65.263,9.171
		c130.313,0,236.33-106.018,236.33-236.33C492.929,243.418,492.074,232.022,490.454,220.871z"/>
	<linearGradient id="SVGID_1_" gradientUnits="userSpaceOnUse" x1="505.0328" y1="428.6698" x2="272.2382" y2="300.7878">
		<stop  offset="0" style="stop-color:#6A0200;stop-opacity:0"/>
		<stop  offset="1" style="stop-color:#7F0000"/>
	</linearGradient>
	<path fill="url(#SVGID_1_)" d="M334.749,185.555l-57.176,165.673l-76.356,47.095l128.988,83.881c0,0,51.614-6.03,106.728-71.855
		s52.282-126.741,52.282-126.741L334.749,185.555z"/>
	<g>
		<path fill="none" d="M256.599,24.804c-126.937,0-230.207,103.27-230.207,230.206c0,126.937,103.27,230.207,230.207,230.207
			c126.936,0,230.206-103.27,230.206-230.207C486.805,128.075,383.535,24.804,256.599,24.804z"/>
		<path fill="#660000" d="M256.599,12.557c-133.69,0-242.454,108.764-242.454,242.454s108.765,242.454,242.454,242.454
			c133.689,0,242.454-108.765,242.454-242.454S390.288,12.557,256.599,12.557z M256.599,485.218
			c-126.937,0-230.207-103.27-230.207-230.207c0-126.936,103.27-230.206,230.207-230.206c126.936,0,230.206,103.27,230.206,230.206
			C486.805,381.947,383.535,485.218,256.599,485.218z"/>
	</g>
	<g>
		<g>
			<g>
				<path fill="#FFFFFF" d="M103.04,109.228c-11.356,10.833-19.388,23.15-22.854,33.14c-1.77,4.977-2.417,9.316-2.249,12.445
					c0.046,0.786,0.115,1.49,0.245,2.121c0.145,0.635,0.323,1.189,0.531,1.661c0.417,0.944,0.959,1.559,1.619,1.849
					c0,0,0.117-0.381,0.337-1.096c0.212-0.716,0.523-1.766,1.034-3.087c0.968-2.646,2.601-6.402,5.102-10.722
					c4.903-8.686,13.492-19.4,23.397-28.864c9.875-9.502,20.906-17.831,29.587-23.221c4.33-2.721,8.05-4.742,10.673-6.061
					c1.311-0.668,2.349-1.155,3.059-1.475c0.708-0.328,1.086-0.504,1.086-0.504c-0.771-1.196-2.857-1.82-6.012-1.599
					c-3.152,0.204-7.372,1.218-12.232,3.15C126.644,90.802,114.369,98.344,103.04,109.228z"/>
			</g>
		</g>
	</g>
	<g>
		<g>
			<path fill="none" d="M149.929,272.045c-0.148-0.151-0.295-0.302-0.441-0.453C149.634,271.743,149.781,271.894,149.929,272.045z"
				/>
			<path fill="none" d="M349.551,211.378c0.047,0.059,0.096,0.117,0.144,0.177C349.647,211.495,349.598,211.437,349.551,211.378z"/>
			<path fill="none" d="M348.499,210.11c0.092,0.107,0.183,0.214,0.273,0.321C348.681,210.324,348.59,210.217,348.499,210.11z"/>
			<path fill="none" d="M347.532,209.009c0.065,0.072,0.128,0.145,0.192,0.217C347.66,209.154,347.597,209.081,347.532,209.009z"/>
			<path fill="none" d="M351.436,213.881c0.078,0.11,0.155,0.22,0.232,0.33C351.592,214.1,351.514,213.991,351.436,213.881z"/>
			<path fill="none" d="M352.466,215.395c0.012,0.018,0.023,0.037,0.035,0.056C352.489,215.432,352.478,215.413,352.466,215.395z"/>
			<path fill="none" d="M353.991,217.92c0.058,0.103,0.117,0.204,0.174,0.307C354.108,218.124,354.049,218.022,353.991,217.92z"/>
			<path fill="none" d="M353.223,216.605c0.071,0.117,0.141,0.236,0.212,0.354C353.365,216.841,353.295,216.723,353.223,216.605z"/>
			<path fill="none" d="M344.144,205.57c0.021,0.019,0.04,0.039,0.061,0.058C344.185,205.608,344.165,205.589,344.144,205.57z"/>
			<path fill="none" d="M338.886,201.159c0.115,0.087,0.229,0.174,0.343,0.261C339.116,201.333,339.001,201.246,338.886,201.159z"/>
			<path fill="none" d="M340.263,202.227c0.054,0.043,0.109,0.085,0.162,0.128C340.371,202.312,340.316,202.269,340.263,202.227z"/>
			<path fill="none" d="M337.651,200.243c0.081,0.059,0.162,0.119,0.243,0.178C337.813,200.362,337.733,200.302,337.651,200.243z"/>
			<path fill="none" d="M341.58,203.302c0.098,0.082,0.195,0.165,0.292,0.248C341.774,203.467,341.678,203.384,341.58,203.302z"/>
			<path fill="none" d="M354.834,219.48c0.043,0.083,0.083,0.168,0.126,0.252C354.917,219.648,354.876,219.564,354.834,219.48z"/>
			<path fill="none" d="M345.204,206.588c0.099,0.097,0.197,0.195,0.296,0.293C345.402,206.783,345.304,206.685,345.204,206.588z"/>
			<path fill="none" d="M342.745,204.305c0.102,0.09,0.205,0.179,0.306,0.27C342.95,204.484,342.847,204.395,342.745,204.305z"/>
			<path fill="none" d="M346.304,207.699c0.081,0.084,0.163,0.167,0.243,0.251C346.467,207.866,346.385,207.783,346.304,207.699z"/>
			<path fill="none" d="M357.862,227.004c0.003,0.011,0.006,0.022,0.009,0.032C357.868,227.026,357.865,227.015,357.862,227.004z"/>
			<path fill="none" d="M359.737,238.453c0.006,0.152,0.013,0.303,0.017,0.456C359.75,238.757,359.743,238.605,359.737,238.453z"/>
			<path fill="none" d="M359.647,236.828c0.01,0.134,0.017,0.268,0.026,0.403C359.664,237.097,359.657,236.962,359.647,236.828z"/>
			<path fill="none" d="M359.255,233.294c0.022,0.149,0.044,0.297,0.064,0.447C359.299,233.592,359.277,233.443,359.255,233.294z"/>
			<path fill="none" d="M359.478,235.006c0.01,0.093,0.023,0.186,0.033,0.279C359.5,235.191,359.488,235.099,359.478,235.006z"/>
			<path fill="none" d="M154.389,276.205c-0.352-0.301-0.698-0.605-1.041-0.91C153.691,275.6,154.037,275.904,154.389,276.205z"/>
			<path fill="none" d="M152.992,274.974c-0.22-0.198-0.439-0.396-0.655-0.595C152.554,274.578,152.773,274.776,152.992,274.974z"/>
			<path fill="none" d="M355.472,220.78c0.06,0.128,0.12,0.255,0.179,0.384C355.592,221.036,355.532,220.908,355.472,220.78z"/>
			<path fill="none" d="M151.909,273.978c-0.185-0.174-0.37-0.348-0.552-0.522C151.539,273.63,151.724,273.804,151.909,273.978z"/>
			<path fill="none" d="M150.896,273.008c-0.164-0.16-0.327-0.32-0.488-0.481C150.569,272.688,150.732,272.848,150.896,273.008z"/>
			<path fill="none" d="M356.773,223.819c0.045,0.117,0.088,0.234,0.131,0.351C356.861,224.054,356.818,223.936,356.773,223.819z"/>
			<path fill="none" d="M357.284,225.223c0.045,0.13,0.09,0.26,0.134,0.391C357.374,225.483,357.329,225.353,357.284,225.223z"/>
			<path fill="none" d="M356.14,222.263c0.032,0.076,0.067,0.151,0.099,0.227C356.207,222.414,356.173,222.339,356.14,222.263z"/>
			<path fill="none" d="M358.257,228.421c0.036,0.137,0.071,0.275,0.105,0.413C358.328,228.695,358.293,228.557,358.257,228.421z"/>
			<path fill="none" d="M358.63,229.951c0.028,0.123,0.057,0.244,0.083,0.367C358.687,230.196,358.658,230.074,358.63,229.951z"/>
			<path fill="none" d="M336.123,199.167c0.095,0.065,0.19,0.129,0.284,0.195C336.313,199.297,336.218,199.232,336.123,199.167z"/>
			<path fill="none" d="M359.007,231.78c0.017,0.094,0.032,0.189,0.049,0.283C359.038,231.969,359.024,231.874,359.007,231.78z"/>
			<path fill="none" d="M350.568,212.685c0.075,0.1,0.148,0.2,0.222,0.3C350.715,212.885,350.642,212.785,350.568,212.685z"/>
			<path fill="none" d="M307.128,185.555c0.02,0.006,0.039,0.013,0.059,0.019C307.167,185.567,307.147,185.561,307.128,185.555z"/>
			<path fill="none" d="M299.72,183.382c0.126,0.034,0.252,0.068,0.378,0.102C299.972,183.45,299.846,183.416,299.72,183.382z"/>
			<path fill="none" d="M298.036,182.938c0.084,0.022,0.167,0.044,0.251,0.066C298.203,182.982,298.12,182.96,298.036,182.938z"/>
			<path fill="none" d="M294.269,182.009c0.125,0.029,0.25,0.059,0.375,0.089C294.519,182.068,294.394,182.039,294.269,182.009z"/>
			<path fill="none" d="M305.123,184.93c0.118,0.036,0.237,0.072,0.355,0.108C305.359,185.002,305.241,184.966,305.123,184.93z"/>
			<path fill="none" d="M292.599,181.623c0.011,0.003,0.022,0.005,0.034,0.008C292.622,181.628,292.611,181.625,292.599,181.623z"/>
			<path fill="none" d="M301.729,183.934c0.007,0.002,0.013,0.004,0.02,0.005C301.742,183.938,301.735,183.936,301.729,183.934z"/>
			<path fill="none" d="M303.421,184.421c0.118,0.035,0.237,0.07,0.355,0.105C303.658,184.491,303.539,184.455,303.421,184.421z"/>
			<path fill="none" d="M296.103,182.451c0.079,0.019,0.158,0.038,0.237,0.058C296.261,182.49,296.182,182.471,296.103,182.451z"/>
			<path fill="none" d="M279.563,179.116c0.111,0.018,0.223,0.036,0.334,0.054C279.786,179.152,279.674,179.134,279.563,179.116z"/>
			<path fill="none" d="M281.437,179.424c0.053,0.009,0.107,0.018,0.16,0.027C281.544,179.442,281.49,179.433,281.437,179.424z"/>
			<path fill="none" d="M283.334,179.754c0.071,0.013,0.142,0.026,0.213,0.038C283.476,179.779,283.405,179.766,283.334,179.754z"/>
			<path fill="none" d="M290.561,181.173c0.105,0.023,0.21,0.045,0.316,0.068C290.771,181.218,290.666,181.196,290.561,181.173z"/>
			<path fill="none" d="M334.749,198.244c0.119,0.078,0.238,0.157,0.357,0.236C334.987,198.401,334.869,198.322,334.749,198.244z"/>
			<path fill="none" d="M285.041,180.065c0.116,0.022,0.233,0.043,0.349,0.065C285.273,180.109,285.157,180.087,285.041,180.065z"/>
			<path fill="none" d="M288.802,180.803c0.106,0.022,0.213,0.044,0.319,0.066C289.015,180.847,288.909,180.825,288.802,180.803z"/>
			<path fill="none" d="M327.185,193.803c0.129,0.068,0.258,0.136,0.387,0.204C327.443,193.939,327.314,193.871,327.185,193.803z"/>
			<path fill="none" d="M325.742,193.059c0.091,0.046,0.18,0.092,0.27,0.138C325.922,193.151,325.833,193.105,325.742,193.059z"/>
			<path fill="none" d="M328.829,194.686c0.049,0.027,0.1,0.054,0.149,0.081C328.929,194.74,328.879,194.714,328.829,194.686z"/>
			<path fill="none" d="M323.996,192.198c0.099,0.048,0.199,0.095,0.298,0.143C324.195,192.293,324.095,192.246,323.996,192.198z"/>
			<path fill="none" d="M322.411,191.449c0.129,0.06,0.258,0.12,0.387,0.181C322.669,191.569,322.54,191.509,322.411,191.449z"/>
			<path fill="none" d="M333.447,197.404c0.027,0.017,0.053,0.034,0.079,0.051C333.5,197.438,333.474,197.42,333.447,197.404z"/>
			<path fill="none" d="M330.359,195.546c0.114,0.065,0.227,0.132,0.34,0.197C330.586,195.678,330.473,195.612,330.359,195.546z"/>
			<path fill="none" d="M331.763,196.371c0.117,0.07,0.235,0.14,0.351,0.211C331.998,196.511,331.88,196.441,331.763,196.371z"/>
			<path fill="none" d="M317.457,189.294c0.12,0.049,0.24,0.099,0.36,0.149C317.697,189.393,317.577,189.343,317.457,189.294z"/>
			<path fill="none" d="M312.354,187.332c0.091,0.033,0.181,0.066,0.272,0.099C312.536,187.399,312.445,187.365,312.354,187.332z"/>
			<path fill="none" d="M313.947,187.92c0.133,0.05,0.265,0.1,0.397,0.15C314.212,188.019,314.08,187.97,313.947,187.92z"/>
			<path fill="none" d="M310.476,186.669c0.092,0.032,0.185,0.063,0.277,0.095C310.661,186.732,310.569,186.701,310.476,186.669z"/>
			<path fill="none" d="M320.926,190.774c0.026,0.012,0.052,0.024,0.078,0.035C320.978,190.797,320.952,190.785,320.926,190.774z"/>
			<path fill="none" d="M319.04,189.955c0.122,0.052,0.244,0.103,0.366,0.156C319.285,190.058,319.162,190.007,319.04,189.955z"/>
			<path fill="none" d="M315.802,188.631c0.034,0.013,0.068,0.026,0.101,0.039C315.869,188.657,315.836,188.644,315.802,188.631z"/>
			<path fill="none" d="M308.734,186.079c0.132,0.044,0.263,0.088,0.395,0.132C308.997,186.166,308.865,186.122,308.734,186.079z"/>
			<path fill="none" d="M137.077,251.196c-0.069-0.238-0.136-0.476-0.201-0.714C136.941,250.72,137.008,250.958,137.077,251.196z"/>
			<path fill="none" d="M244.959,176.216c0.104,0.001,0.207,0.001,0.311,0.002C245.166,176.217,245.063,176.217,244.959,176.216z"/>
			<path fill="none" d="M247.893,176.256c0.11,0.002,0.221,0.005,0.331,0.007C248.114,176.261,248.003,176.258,247.893,176.256z"/>
			<path fill="none" d="M243.606,175c0.127,0,0.254,0,0.382,0C243.861,175,243.733,175,243.606,175z"/>
			<path fill="none" d="M250.7,176.332c0.092,0.003,0.184,0.006,0.277,0.009C250.884,176.338,250.792,176.335,250.7,176.332z"/>
			<path fill="none" d="M242.341,176.217c0.115-0.001,0.231-0.001,0.346-0.002C242.572,176.216,242.456,176.216,242.341,176.217z"/>
			<path fill="none" d="M249.247,176.288c0.123,0.003,0.246,0.007,0.369,0.01C249.493,176.295,249.37,176.292,249.247,176.288z"/>
			<path fill="none" d="M234.608,176.441c0.112-0.006,0.222-0.012,0.335-0.018C234.831,176.429,234.72,176.435,234.608,176.441z"/>
			<path fill="none" d="M253.769,176.456c0.105,0.005,0.211,0.01,0.317,0.015C253.98,176.467,253.874,176.461,253.769,176.456z"/>
			<path fill="none" d="M239.578,176.257c0.11-0.002,0.219-0.005,0.329-0.007C239.797,176.252,239.688,176.254,239.578,176.257z"/>
			<path fill="none" d="M233.488,176.505c0.121-0.007,0.243-0.015,0.366-0.022C233.731,176.49,233.609,176.497,233.488,176.505z"/>
			<path fill="none" d="M236.045,176.487C236.046,176.487,236.046,176.487,236.045,176.487
				C236.046,176.487,236.046,176.487,236.045,176.487z"/>
			<path fill="none" d="M237.172,176.326c0.111-0.004,0.223-0.008,0.334-0.011C237.395,176.319,237.283,176.322,237.172,176.326z"/>
			<path fill="none" d="M238.336,176.289c0.127-0.004,0.255-0.007,0.383-0.011C238.591,176.281,238.463,176.285,238.336,176.289z"/>
			<path fill="none" d="M256.741,176.616c0.08,0.005,0.16,0.009,0.24,0.014C256.9,176.626,256.821,176.621,256.741,176.616z"/>
			<path fill="none" d="M272.802,178.138c0.103,0.013,0.205,0.027,0.308,0.04C273.008,178.165,272.905,178.151,272.802,178.138z"/>
			<path fill="none" d="M267.814,177.546c0.113,0.012,0.227,0.024,0.34,0.037C268.04,177.571,267.927,177.559,267.814,177.546z"/>
			<path fill="none" d="M274.373,178.347c0.114,0.016,0.228,0.031,0.342,0.047C274.601,178.378,274.487,178.362,274.373,178.347z"/>
			<path fill="none" d="M269.489,177.733c0.063,0.007,0.125,0.014,0.188,0.021C269.614,177.747,269.552,177.74,269.489,177.733z"/>
			<path fill="none" d="M255.2,176.529c0.117,0.006,0.233,0.012,0.35,0.019C255.433,176.541,255.316,176.535,255.2,176.529z"/>
			<path fill="none" d="M276.095,178.588c0.057,0.008,0.114,0.016,0.171,0.024C276.209,178.604,276.152,178.596,276.095,178.588z"/>
			<path fill="none" d="M266.277,177.386c0.1,0.01,0.201,0.021,0.301,0.031C266.478,177.406,266.377,177.396,266.277,177.386z"/>
			<path fill="none" d="M259.917,176.829c0.099,0.007,0.199,0.015,0.299,0.022C260.116,176.844,260.016,176.837,259.917,176.829z"/>
			<path fill="none" d="M232.43,176.573c0.105-0.007,0.212-0.014,0.318-0.021C232.642,176.559,232.536,176.566,232.43,176.573z"/>
			<path fill="none" d="M263.037,177.081c0.063,0.005,0.125,0.011,0.188,0.016C263.162,177.091,263.099,177.086,263.037,177.081z"/>
			<path fill="none" d="M261.405,176.944c0.114,0.009,0.229,0.018,0.343,0.028C261.634,176.963,261.52,176.953,261.405,176.944z"/>
			<path fill="none" d="M146.144,267.841c-0.134-0.164-0.269-0.328-0.401-0.493C145.875,267.513,146.009,267.677,146.144,267.841z"
				/>
			<path fill="none" d="M142.993,263.612c-0.118-0.175-0.234-0.35-0.349-0.526C142.759,263.262,142.875,263.437,142.993,263.612z"/>
			<path fill="none" d="M141.726,261.634c-0.187-0.308-0.369-0.617-0.548-0.927C141.357,261.017,141.539,261.326,141.726,261.634z"
				/>
			<path fill="none" d="M142.343,262.622c-0.122-0.192-0.242-0.384-0.362-0.577C142.101,262.238,142.22,262.43,142.343,262.622z"/>
			<path fill="none" d="M140.942,260.289c-0.112-0.198-0.222-0.396-0.331-0.595C140.72,259.893,140.831,260.091,140.942,260.289z"/>
			<path fill="none" d="M140.371,259.245c-0.105-0.198-0.209-0.397-0.311-0.597C140.162,258.848,140.265,259.047,140.371,259.245z"
				/>
			<path fill="none" d="M139.844,258.224c-0.139-0.28-0.275-0.56-0.408-0.841C139.568,257.664,139.704,257.944,139.844,258.224z"/>
			<path fill="none" d="M145.37,266.878c-0.129-0.165-0.257-0.33-0.384-0.495C145.113,266.548,145.241,266.714,145.37,266.878z"/>
			<path fill="none" d="M148.998,271.081c-0.133-0.141-0.264-0.283-0.396-0.425C148.734,270.797,148.865,270.939,148.998,271.081z"
				/>
			<path fill="none" d="M147.236,269.138C147.236,269.138,147.236,269.138,147.236,269.138c-0.244-0.28-0.484-0.562-0.72-0.845
				C146.752,268.575,146.992,268.857,147.236,269.138z"/>
			<path fill="none" d="M148.101,270.111c-0.114-0.126-0.226-0.253-0.339-0.38C147.875,269.858,147.986,269.985,148.101,270.111z"/>
			<path fill="none" d="M144.635,265.923c-0.16-0.213-0.317-0.428-0.474-0.642C144.318,265.496,144.475,265.71,144.635,265.923z"/>
			<path fill="none" d="M143.714,264.657c-0.137-0.194-0.274-0.388-0.409-0.583C143.439,264.269,143.576,264.463,143.714,264.657z"
				/>
			<path fill="none" d="M139.252,256.988c-0.118-0.255-0.234-0.511-0.346-0.768C139.018,256.477,139.134,256.732,139.252,256.988z"
				/>
			<path fill="none" d="M135.552,241.641c-0.011-0.373-0.018-0.747-0.018-1.121C135.534,240.894,135.541,241.268,135.552,241.641z"
				/>
			<path fill="none" d="M136.011,246.47c-0.044-0.277-0.085-0.554-0.123-0.831C135.926,245.916,135.966,246.194,136.011,246.47z"/>
			<path fill="none" d="M135.849,245.366c-0.047-0.365-0.09-0.73-0.126-1.097C135.759,244.636,135.801,245.001,135.849,245.366z"/>
			<path fill="none" d="M136.21,247.603c-0.048-0.251-0.094-0.502-0.137-0.754C136.117,247.101,136.162,247.352,136.21,247.603z"/>
			<path fill="none" d="M136.49,248.945c-0.074-0.326-0.144-0.653-0.21-0.98C136.346,248.292,136.416,248.619,136.49,248.945z"/>
			<path fill="none" d="M135.605,242.778c-0.016-0.264-0.029-0.528-0.039-0.793C135.576,242.25,135.589,242.514,135.605,242.778z"/>
			<path fill="none" d="M135.698,243.995c-0.026-0.281-0.05-0.562-0.069-0.844C135.648,243.433,135.672,243.714,135.698,243.995z"/>
			<path fill="none" d="M136.776,250.111c-0.09-0.345-0.177-0.691-0.257-1.038C136.599,249.42,136.686,249.765,136.776,250.111z"/>
			<path fill="none" d="M137.892,253.691c-0.123-0.339-0.242-0.68-0.356-1.021C137.65,253.011,137.768,253.352,137.892,253.691z"/>
			<path fill="none" d="M138.291,254.741c-0.094-0.239-0.185-0.478-0.275-0.718C138.106,254.263,138.197,254.503,138.291,254.741z"
				/>
			<path fill="none" d="M138.728,255.805c-0.091-0.214-0.181-0.429-0.268-0.644C138.547,255.376,138.637,255.591,138.728,255.805z"
				/>
			<path fill="none" d="M137.427,252.333c-0.079-0.245-0.157-0.49-0.232-0.736C137.27,251.843,137.348,252.088,137.427,252.333z"/>
			<path fill="#E6E6E6" d="M165.455,329.632c-5.854-27.596-13.548-48.932-18.22-60.495c-0.244-0.281-0.484-0.562-0.72-0.845
				c-0.125-0.15-0.248-0.301-0.371-0.451c-0.134-0.164-0.269-0.328-0.401-0.493c-0.125-0.156-0.25-0.313-0.373-0.47
				c-0.129-0.165-0.257-0.33-0.384-0.495c-0.117-0.153-0.236-0.306-0.351-0.46c-0.16-0.213-0.317-0.428-0.474-0.642
				c-0.151-0.207-0.3-0.416-0.448-0.624c-0.137-0.194-0.274-0.388-0.409-0.583c-0.105-0.153-0.209-0.307-0.312-0.461
				c-0.118-0.175-0.234-0.35-0.349-0.526c-0.101-0.155-0.202-0.309-0.301-0.464c-0.122-0.192-0.242-0.384-0.362-0.577
				c-0.085-0.137-0.172-0.274-0.255-0.412c-0.187-0.308-0.369-0.617-0.548-0.927c-0.08-0.139-0.157-0.278-0.236-0.417
				c-0.112-0.198-0.222-0.396-0.331-0.595c-0.081-0.149-0.161-0.299-0.241-0.449c-0.105-0.198-0.209-0.397-0.311-0.597
				c-0.072-0.142-0.146-0.283-0.217-0.425c-0.139-0.28-0.275-0.56-0.408-0.841c-0.062-0.131-0.123-0.263-0.184-0.395
				c-0.118-0.255-0.234-0.511-0.346-0.768c-0.06-0.138-0.119-0.276-0.178-0.415c-0.091-0.214-0.181-0.429-0.268-0.644
				c-0.057-0.14-0.113-0.28-0.169-0.42c-0.094-0.239-0.185-0.478-0.275-0.718c-0.041-0.111-0.084-0.221-0.125-0.332
				c-0.123-0.339-0.242-0.68-0.356-1.021c-0.037-0.112-0.072-0.225-0.109-0.337c-0.079-0.245-0.157-0.49-0.232-0.736
				c-0.04-0.134-0.08-0.267-0.119-0.401c-0.069-0.238-0.136-0.476-0.201-0.714c-0.034-0.124-0.068-0.247-0.1-0.371
				c-0.09-0.345-0.177-0.691-0.257-1.038c-0.01-0.043-0.019-0.085-0.029-0.128c-0.074-0.326-0.144-0.653-0.21-0.98
				c-0.024-0.12-0.046-0.241-0.07-0.361c-0.048-0.251-0.094-0.502-0.137-0.754c-0.022-0.126-0.043-0.253-0.063-0.379
				c-0.044-0.277-0.085-0.554-0.123-0.831c-0.012-0.091-0.027-0.182-0.038-0.273c-0.047-0.365-0.09-0.73-0.126-1.097
				c-0.009-0.091-0.016-0.183-0.025-0.274c-0.026-0.281-0.05-0.562-0.069-0.844c-0.009-0.124-0.016-0.249-0.024-0.373
				c-0.016-0.264-0.029-0.528-0.039-0.793c-0.004-0.115-0.01-0.229-0.013-0.344c-0.011-0.373-0.018-0.747-0.018-1.121
				c0-35.5,34.137-59.098,95.877-63.872c0.335-0.026,0.676-0.05,1.019-0.074c0.105-0.007,0.212-0.014,0.318-0.021
				c0.244-0.016,0.491-0.032,0.739-0.047c0.121-0.007,0.243-0.015,0.366-0.022c0.25-0.015,0.502-0.029,0.755-0.042
				c0.112-0.006,0.222,0.046,0.335,0.04c0.364-0.019,0.731,0.006,1.102,0.006c0,0,0,0,0.001,0c0.371,0,0.747-0.089,1.126-0.102
				c0.111-0.004,0.222-0.037,0.334-0.04c0.275-0.009,0.551-0.033,0.83-0.041c0.127-0.004,0.255-0.015,0.383-0.018
				c0.285-0.008,0.571-0.018,0.859-0.025c0.11-0.002,0.219-0.007,0.329-0.009c0.797-0.016,1.609-0.028,2.433-0.034
				c0.115-0.001,0.231-0.608,0.346-0.608c0.305-0.002,0.611-0.609,0.919-0.609c0.127,0,0.254,0,0.382,0
				c0.322,0,0.645,0.608,0.971,0.61c0.104,0.001,0.207,0.304,0.311,0.305c0.862,0.007,1.737,0.171,2.623,0.189
				c0.11,0.002,0.221,0.081,0.331,0.083c0.339,0.008,0.68,0.054,1.023,0.063c0.123,0.003,0.246,0.026,0.369,0.029
				c0.359,0.01,0.721,0.031,1.084,0.043c0.092,0.003,0.184,0.011,0.277,0.014c0.92,0.032,1.851,0.073,2.792,0.117
				c0.105,0.005,0.211,0.012,0.317,0.017c0.37,0.018,0.741,0.038,1.114,0.058c0.117,0.006,0.233,0.013,0.35,0.019
				c0.395,0.022,0.792,0.045,1.191,0.069c0.08,0.005,0.16,0.009,0.24,0.014c0.97,0.059,1.949,0.126,2.937,0.199
				c0.099,0.007,0.199,0.015,0.299,0.022c0.395,0.03,0.792,0.061,1.19,0.092c0.114,0.009,0.229,0.018,0.343,0.028
				c0.428,0.035,0.858,0.071,1.288,0.109c0.063,0.005,0.125,0.011,0.188,0.016c1.01,0.089,2.028,0.185,3.052,0.289
				c0.1,0.01,0.201,0.021,0.301,0.031c0.411,0.042,0.823,0.085,1.236,0.13c0.113,0.012,0.227,0.024,0.34,0.037
				c0.444,0.048,0.889,0.098,1.336,0.15c0.063,0.007,0.125,0.014,0.188,0.021c1.037,0.12,2.079,0.248,3.125,0.383
				c0.103,0.013,0.205,0.027,0.308,0.04c0.42,0.055,0.841,0.111,1.263,0.169c0.114,0.016,0.228,0.031,0.342,0.047
				c0.459,0.063,0.919,0.128,1.38,0.195c0.057,0.008,0.114,0.016,0.171,0.024c0.541,0.078,1.082,0.159,1.624,0.241
				c10.186-3.409,19.342-5.015,27.318-5.522c-23.089-5.882-48.755-7.577-71.545-7.47c-55.698,0.261-114.43,29.066-114.43,80.04
				c0,1.11,0.038,2.097,0.098,3.097h-0.059c0,0,6.808,143.669,108.032,155.991C199.97,393.184,173.209,366.187,165.455,329.632z"/>
			<path fill="#FFFFFF" d="M305.208,173.332c-7.975,0.507-17.132,2.113-27.318,5.522c0.557,0.085,1.115,0.173,1.673,0.262
				c0.111,0.018,0.223,0.036,0.334,0.054c0.513,0.083,1.026,0.168,1.539,0.254c0.053,0.009,0.107,0.018,0.16,0.027
				c0.579,0.098,1.158,0.199,1.737,0.302c0.071,0.013,0.142,0.026,0.213,0.038c0.498,0.089,0.996,0.18,1.494,0.273
				c0.116,0.022,0.233,0.043,0.349,0.065c1.137,0.214,2.275,0.438,3.412,0.672c0.106,0.022,0.213,0.044,0.319,0.066
				c0.48,0.1,0.96,0.201,1.439,0.304c0.105,0.023,0.21,0.045,0.316,0.068c0.575,0.125,1.149,0.251,1.723,0.381
				c0.011,0.003,0.022,0.005,0.034,0.008c0.546,0.124,1.091,0.25,1.636,0.379c0.125,0.029,0.25,0.059,0.375,0.089
				c0.487,0.116,0.973,0.234,1.459,0.353c0.079,0.019,0.158,0.038,0.237,0.058c0.566,0.14,1.131,0.283,1.696,0.429
				c0.084,0.022,0.167,0.044,0.251,0.066c0.478,0.124,0.956,0.25,1.433,0.378c0.126,0.034,0.252,0.068,0.378,0.102
				c0.545,0.148,1.088,0.297,1.631,0.45c0.007,0.002,0.013,0.004,0.02,0.005c0.559,0.157,1.116,0.318,1.672,0.481
				c0.118,0.035,0.237,0.07,0.355,0.105c0.45,0.133,0.899,0.268,1.347,0.404c0.118,0.036,0.237,0.072,0.355,0.108
				c0.552,0.17,1.102,0.341,1.65,0.517c0.02,0.006,0.039,0.013,0.059,0.019c0.517,0.166,1.033,0.334,1.548,0.505
				c0.132,0.044,0.263,0.088,0.395,0.132c0.451,0.151,0.9,0.304,1.348,0.459c0.092,0.032,0.185,0.063,0.277,0.095
				c0.536,0.186,1.069,0.376,1.601,0.568c0.091,0.033,0.181,0.066,0.272,0.099c0.442,0.161,0.882,0.324,1.321,0.488
				c0.133,0.05,0.265,0.1,0.397,0.15c0.488,0.185,0.974,0.372,1.457,0.561c0.034,0.013,0.068,0.026,0.101,0.039
				c0.52,0.205,1.038,0.413,1.554,0.624c0.12,0.049,0.24,0.099,0.36,0.149c0.409,0.169,0.817,0.339,1.223,0.512
				c0.122,0.052,0.244,0.103,0.366,0.156c0.509,0.218,1.016,0.439,1.519,0.663c0.026,0.012,0.052,0.024,0.078,0.035
				c0.472,0.211,0.94,0.424,1.407,0.64c0.129,0.06,0.258,0.12,0.387,0.181c0.401,0.188,0.801,0.377,1.198,0.569
				c0.099,0.048,0.199,0.095,0.298,0.143c0.486,0.236,0.969,0.475,1.448,0.717c0.091,0.046,0.18,0.092,0.27,0.138
				c0.393,0.2,0.784,0.402,1.172,0.606c0.129,0.068,0.258,0.136,0.387,0.204c0.422,0.224,0.841,0.45,1.258,0.679
				c0.049,0.027,0.1,0.054,0.149,0.081c0.464,0.256,0.924,0.516,1.381,0.779c0.114,0.065,0.227,0.132,0.34,0.197
				c0.357,0.207,0.712,0.416,1.064,0.627c0.117,0.07,0.235,0.14,0.351,0.211c0.448,0.271,0.893,0.544,1.333,0.822
				c0.027,0.017,0.053,0.034,0.079,0.051c0.411,0.26,0.818,0.523,1.223,0.789c0.119,0.078,0.238,0.157,0.357,0.236
				c0.342,0.227,0.681,0.456,1.017,0.687c0.095,0.065,0.19,0.129,0.284,0.195c0.419,0.29,0.833,0.584,1.244,0.881
				c0.081,0.059,0.162,0.119,0.243,0.178c0.334,0.244,0.665,0.49,0.993,0.738c0.115,0.087,0.229,0.174,0.343,0.261
				c0.348,0.266,0.692,0.535,1.033,0.806c0.054,0.043,0.109,0.085,0.162,0.128c0.39,0.312,0.774,0.629,1.155,0.948
				c0.098,0.082,0.195,0.165,0.292,0.248c0.294,0.25,0.585,0.501,0.874,0.755c0.102,0.09,0.205,0.179,0.306,0.27
				c0.369,0.329,0.734,0.66,1.093,0.995c0.021,0.019,0.04,0.039,0.061,0.058c0.338,0.317,0.67,0.637,0.999,0.96
				c0.099,0.097,0.197,0.195,0.296,0.293c0.271,0.27,0.539,0.543,0.804,0.817c0.081,0.084,0.163,0.167,0.243,0.251
				c0.333,0.35,0.661,0.702,0.984,1.059c0.065,0.072,0.128,0.145,0.192,0.217c0.262,0.292,0.52,0.587,0.774,0.884
				c0.092,0.107,0.183,0.214,0.273,0.321c0.264,0.313,0.523,0.628,0.779,0.946c0.047,0.059,0.096,0.117,0.144,0.177
				c0.297,0.373,0.588,0.751,0.873,1.131c0.075,0.1,0.148,0.2,0.222,0.3c0.219,0.296,0.435,0.595,0.647,0.895
				c0.078,0.11,0.155,0.22,0.232,0.33c0.271,0.391,0.538,0.785,0.797,1.184c0.012,0.018,0.023,0.037,0.035,0.056
				c0.247,0.381,0.487,0.767,0.722,1.155c0.071,0.117,0.141,0.236,0.212,0.354c0.189,0.318,0.375,0.638,0.556,0.961
				c0.058,0.103,0.117,0.204,0.174,0.307c0.229,0.414,0.452,0.832,0.669,1.253c0.043,0.083,0.083,0.168,0.126,0.252
				c0.175,0.347,0.346,0.696,0.512,1.048c0.06,0.128,0.12,0.255,0.179,0.384c0.168,0.364,0.331,0.73,0.489,1.099
				c0.032,0.076,0.067,0.151,0.099,0.227c0.185,0.439,0.363,0.883,0.535,1.33c0.045,0.117,0.088,0.234,0.131,0.351
				c0.131,0.349,0.257,0.699,0.379,1.053c0.045,0.13,0.09,0.26,0.134,0.391c0.154,0.46,0.304,0.923,0.444,1.391
				c0.003,0.011,0.006,0.022,0.009,0.032c0.136,0.457,0.263,0.919,0.386,1.384c0.036,0.137,0.071,0.275,0.105,0.413
				c0.094,0.37,0.183,0.743,0.268,1.118c0.028,0.123,0.057,0.244,0.083,0.367c0.105,0.483,0.203,0.97,0.293,1.462
				c0.017,0.094,0.032,0.189,0.049,0.283c0.072,0.407,0.139,0.818,0.2,1.231c0.022,0.149,0.044,0.298,0.064,0.447
				c0.058,0.419,0.111,0.84,0.158,1.265c0.01,0.093,0.023,0.186,0.033,0.279c0.054,0.51,0.099,1.025,0.137,1.543
				c0.01,0.134,0.017,0.268,0.026,0.403c0.026,0.405,0.048,0.812,0.064,1.222c0.006,0.152,0.013,0.303,0.017,0.456
				c0.017,0.533,0.028,1.069,0.028,1.61c0,10.33-4.252,20.09-11.804,28.738c-9.311,12.873-27.602,23.984-53.024,30.496
				c-42.316,10.839-91.586,5.658-122.901-11.033c-6.828-3.64-12.801-7.827-17.665-12.514c-0.352-0.301-0.698-0.605-1.041-0.91
				c-0.12-0.107-0.237-0.214-0.356-0.321c-0.22-0.198-0.439-0.396-0.655-0.595c-0.144-0.133-0.286-0.267-0.429-0.401
				c-0.185-0.174-0.37-0.348-0.552-0.522c-0.155-0.149-0.308-0.298-0.461-0.447c-0.164-0.16-0.327-0.32-0.488-0.481
				c-0.161-0.16-0.321-0.321-0.479-0.482c-0.148-0.151-0.295-0.302-0.441-0.453c-0.164-0.17-0.328-0.34-0.489-0.511
				c-0.133-0.141-0.265-0.283-0.396-0.425c-0.168-0.181-0.337-0.362-0.502-0.544c-0.114-0.126-0.226-0.253-0.339-0.38
				c-0.176-0.198-0.353-0.395-0.526-0.594c0,0,0,0,0,0c4.672,11.563,12.366,32.899,18.22,60.495
				c7.754,36.554,34.515,63.031,61.848,74.838c0.933,0.114,1.871-0.47,2.82-0.47h42.469c0,0,99.416-15,101.346-155h-0.065
				c0.039-1,0.065-1.758,0.065-2.785C373.939,203.587,343.033,182.969,305.208,173.332z"/>
			<path fill="#42210B" d="M276.095,178.588c-0.461-0.066-0.92-0.131-1.38-0.195c-0.114-0.016-0.228-0.031-0.342-0.047
				c-0.422-0.058-0.843-0.114-1.263-0.169c-0.103-0.013-0.205-0.027-0.308-0.04c-1.046-0.135-2.089-0.263-3.125-0.383
				c-0.063-0.007-0.125-0.014-0.188-0.021c-0.446-0.051-0.891-0.101-1.336-0.15c-0.113-0.012-0.227-0.025-0.34-0.037
				c-0.413-0.045-0.825-0.088-1.236-0.13c-0.1-0.01-0.201-0.021-0.301-0.031c-1.024-0.104-2.042-0.2-3.052-0.289
				c-0.063-0.006-0.125-0.011-0.188-0.016c-0.431-0.038-0.86-0.074-1.288-0.109c-0.114-0.009-0.229-0.019-0.343-0.028
				c-0.398-0.032-0.795-0.063-1.19-0.092c-0.099-0.007-0.199-0.015-0.299-0.022c-0.987-0.073-1.967-0.139-2.937-0.199
				c-0.08-0.005-0.16-0.009-0.24-0.014c-0.399-0.024-0.796-0.047-1.191-0.069c-0.117-0.006-0.233-0.013-0.35-0.019
				c-0.373-0.02-0.744-0.039-1.114-0.057c-0.105-0.005-0.211-0.01-0.317-0.015c-0.941-0.044-1.872-0.083-2.792-0.115
				c-0.093-0.003-0.184-0.006-0.277-0.009c-0.363-0.012-0.724-0.023-1.084-0.034c-0.123-0.003-0.246-0.007-0.369-0.01
				c-0.343-0.009-0.684-0.018-1.023-0.025c-0.11-0.002-0.221-0.005-0.331-0.007c-0.886-0.018-1.761-0.031-2.623-0.038
				c-0.104-0.001-0.207-0.607-0.311-0.608c-0.325-0.002-0.649-0.61-0.971-0.61c-0.128,0-0.255,0-0.382,0
				c-0.308,0-0.615,0.607-0.919,0.609c-0.115,0.001-0.231,0.304-0.346,0.305c-0.825,0.006-1.636,0.168-2.433,0.184
				c-0.11,0.002-0.22,0.081-0.329,0.083c-0.288,0.006-0.575,0.051-0.859,0.059c-0.128,0.003-0.256,0.026-0.383,0.03
				c-0.279,0.008-0.555,0.027-0.83,0.036c-0.111,0.004-0.246,0.07-0.357,0.074c-0.379,0.014-1.149,0.105-1.149,0.105v0.001
				c0,0-0.716-0.024-1.079-0.005c-0.112,0.006-0.212-0.017-0.323-0.011c-0.254,0.013-0.5,0.013-0.75,0.028
				c-0.122,0.007-0.241,0.007-0.363,0.015c-0.249,0.015-0.493,0.027-0.738,0.044c-0.106,0.007-0.212,0.012-0.318,0.019
				c-0.344,0.024-0.684,0.047-1.019,0.073c-61.74,4.774-95.877,28.371-95.877,63.871c0,0.375,0.007,0.748,0.019,1.121
				c0.003,0.115,0.009,0.229,0.013,0.344c0.01,0.265,0.023,0.529,0.039,0.793c0.007,0.124,0.015,0.249,0.024,0.373
				c0.02,0.282,0.043,0.563,0.069,0.844c0.008,0.091,0.015,0.183,0.025,0.274c0.037,0.366,0.079,0.732,0.126,1.097
				c0.012,0.091,0.026,0.182,0.038,0.273c0.038,0.278,0.079,0.555,0.123,0.831c0.02,0.127,0.042,0.253,0.063,0.379
				c0.043,0.252,0.089,0.503,0.137,0.754c0.023,0.12,0.045,0.241,0.07,0.361c0.066,0.327,0.136,0.654,0.21,0.98
				c0.01,0.043,0.019,0.085,0.029,0.128c0.08,0.347,0.167,0.693,0.257,1.038c0.032,0.124,0.067,0.247,0.1,0.371
				c0.065,0.238,0.131,0.477,0.201,0.714c0.039,0.134,0.078,0.268,0.119,0.401c0.075,0.246,0.152,0.491,0.232,0.736
				c0.036,0.112,0.071,0.225,0.109,0.337c0.114,0.341,0.232,0.682,0.356,1.021c0.04,0.111,0.083,0.221,0.125,0.332
				c0.089,0.24,0.18,0.479,0.275,0.718c0.055,0.14,0.112,0.28,0.169,0.42c0.087,0.215,0.177,0.43,0.268,0.644
				c0.059,0.138,0.117,0.277,0.178,0.415c0.112,0.257,0.228,0.512,0.346,0.768c0.061,0.132,0.121,0.263,0.184,0.395
				c0.133,0.281,0.269,0.562,0.408,0.841c0.071,0.142,0.144,0.283,0.217,0.425c0.102,0.199,0.205,0.398,0.311,0.597
				c0.079,0.15,0.16,0.299,0.241,0.449c0.108,0.199,0.219,0.397,0.331,0.595c0.078,0.139,0.156,0.279,0.236,0.417
				c0.179,0.31,0.361,0.619,0.548,0.927c0.084,0.138,0.17,0.275,0.255,0.412c0.119,0.193,0.239,0.385,0.362,0.577
				c0.099,0.155,0.2,0.31,0.301,0.464c0.115,0.176,0.232,0.351,0.349,0.526c0.103,0.154,0.207,0.308,0.312,0.461
				c0.134,0.195,0.271,0.389,0.409,0.583c0.148,0.209,0.297,0.417,0.448,0.624c0.156,0.215,0.313,0.429,0.474,0.642
				c0.115,0.154,0.233,0.307,0.351,0.46c0.127,0.165,0.255,0.331,0.384,0.495c0.123,0.157,0.248,0.314,0.373,0.47
				c0.132,0.165,0.266,0.329,0.401,0.493c0.123,0.151,0.246,0.301,0.371,0.451c0.237,0.283,0.477,0.565,0.721,0.845
				c0.173,0.199,0.35,0.396,0.526,0.594c0.113,0.127,0.225,0.254,0.339,0.38c0.165,0.182,0.334,0.363,0.502,0.544
				c0.132,0.142,0.263,0.284,0.396,0.425c0.162,0.171,0.325,0.341,0.489,0.511c0.146,0.151,0.293,0.303,0.441,0.453
				c0.158,0.161,0.318,0.322,0.479,0.482c0.161,0.161,0.324,0.321,0.488,0.481c0.153,0.149,0.306,0.299,0.461,0.447
				c0.182,0.175,0.367,0.349,0.552,0.522c0.143,0.134,0.284,0.268,0.429,0.401c0.216,0.199,0.435,0.397,0.655,0.595
				c0.119,0.107,0.236,0.215,0.356,0.321c0.343,0.305,0.689,0.608,1.041,0.91c-0.781-0.753-1.536-1.517-2.259-2.296
				c-25.855-27.854-3.828-61.444,49.197-75.026c19.278-4.938,39.997-6.548,59.807-5.263c34.678,2.25,66.563,13.378,83.018,31.106
				c13.459,14.5,13.937,30.553,3.827,44.53c7.553-8.648,11.804-18.408,11.804-28.738c0-0.542-0.011-1.077-0.028-1.61
				c-0.005-0.152-0.011-0.304-0.017-0.456c-0.017-0.41-0.038-0.817-0.064-1.222c-0.009-0.134-0.016-0.269-0.026-0.403
				c-0.038-0.518-0.083-1.033-0.137-1.543c-0.01-0.094-0.022-0.186-0.033-0.279c-0.047-0.424-0.1-0.846-0.158-1.265
				c-0.021-0.149-0.042-0.298-0.064-0.447c-0.061-0.413-0.128-0.823-0.2-1.231c-0.017-0.094-0.031-0.189-0.049-0.283
				c-0.09-0.491-0.188-0.978-0.293-1.462c-0.027-0.123-0.056-0.245-0.083-0.367c-0.085-0.375-0.174-0.748-0.268-1.118
				c-0.035-0.138-0.069-0.276-0.105-0.413c-0.122-0.465-0.249-0.927-0.386-1.384c-0.003-0.011-0.006-0.022-0.009-0.032
				c-0.14-0.468-0.289-0.931-0.444-1.391c-0.044-0.131-0.089-0.261-0.134-0.391c-0.122-0.353-0.249-0.704-0.379-1.053
				c-0.044-0.117-0.087-0.235-0.131-0.351c-0.172-0.447-0.349-0.89-0.535-1.33c-0.032-0.076-0.066-0.151-0.099-0.227
				c-0.158-0.369-0.321-0.735-0.489-1.099c-0.059-0.128-0.119-0.256-0.179-0.384c-0.166-0.352-0.337-0.702-0.512-1.048
				c-0.042-0.084-0.083-0.168-0.126-0.252c-0.216-0.422-0.439-0.839-0.669-1.253c-0.057-0.103-0.116-0.205-0.174-0.307
				c-0.182-0.323-0.367-0.643-0.556-0.961c-0.07-0.118-0.14-0.236-0.212-0.354c-0.236-0.388-0.476-0.773-0.722-1.155
				c-0.012-0.018-0.023-0.037-0.035-0.056c-0.259-0.399-0.526-0.793-0.797-1.184c-0.077-0.111-0.155-0.22-0.232-0.33
				c-0.212-0.301-0.428-0.599-0.647-0.895c-0.074-0.1-0.147-0.201-0.222-0.3c-0.286-0.38-0.576-0.758-0.873-1.131
				c-0.047-0.059-0.096-0.118-0.144-0.177c-0.256-0.318-0.515-0.633-0.779-0.946c-0.091-0.107-0.182-0.215-0.273-0.321
				c-0.254-0.297-0.513-0.592-0.774-0.884c-0.064-0.072-0.128-0.145-0.192-0.217c-0.323-0.357-0.651-0.709-0.984-1.059
				c-0.08-0.084-0.162-0.167-0.243-0.251c-0.265-0.274-0.533-0.547-0.804-0.817c-0.098-0.098-0.197-0.196-0.296-0.293
				c-0.329-0.323-0.661-0.644-0.999-0.96c-0.021-0.019-0.04-0.039-0.061-0.058c-0.359-0.335-0.724-0.666-1.093-0.995
				c-0.101-0.09-0.204-0.18-0.306-0.27c-0.288-0.254-0.58-0.505-0.874-0.755c-0.097-0.083-0.194-0.166-0.292-0.248
				c-0.381-0.319-0.765-0.635-1.155-0.948c-0.054-0.043-0.108-0.085-0.162-0.128c-0.341-0.271-0.685-0.54-1.033-0.806
				c-0.114-0.087-0.229-0.174-0.343-0.261c-0.328-0.248-0.659-0.494-0.993-0.738c-0.081-0.059-0.161-0.119-0.243-0.178
				c-0.41-0.297-0.825-0.591-1.244-0.881c-0.094-0.065-0.19-0.13-0.284-0.195c-0.336-0.231-0.675-0.46-1.017-0.687
				c-0.119-0.079-0.237-0.158-0.357-0.236c-0.404-0.266-0.811-0.529-1.223-0.789c-0.027-0.017-0.053-0.034-0.079-0.051
				c-0.44-0.278-0.885-0.551-1.333-0.822c-0.117-0.071-0.234-0.14-0.351-0.211c-0.352-0.211-0.707-0.42-1.064-0.627
				c-0.113-0.066-0.226-0.132-0.34-0.197c-0.457-0.263-0.917-0.523-1.381-0.779c-0.049-0.027-0.1-0.054-0.149-0.081
				c-0.416-0.229-0.836-0.455-1.258-0.679c-0.129-0.068-0.257-0.136-0.387-0.204c-0.389-0.204-0.779-0.406-1.172-0.606
				c-0.09-0.046-0.18-0.093-0.27-0.138c-0.48-0.242-0.963-0.481-1.448-0.717c-0.099-0.048-0.199-0.095-0.298-0.143
				c-0.397-0.192-0.797-0.381-1.198-0.569c-0.129-0.06-0.258-0.121-0.387-0.181c-0.467-0.216-0.935-0.43-1.407-0.64
				c-0.026-0.012-0.052-0.024-0.078-0.035c-0.503-0.224-1.01-0.445-1.519-0.663c-0.122-0.052-0.244-0.104-0.366-0.156
				c-0.406-0.173-0.814-0.343-1.223-0.512c-0.12-0.05-0.24-0.099-0.36-0.149c-0.516-0.211-1.033-0.419-1.554-0.624
				c-0.034-0.013-0.068-0.026-0.101-0.039c-0.484-0.19-0.97-0.377-1.457-0.561c-0.132-0.05-0.265-0.1-0.397-0.15
				c-0.439-0.165-0.879-0.328-1.321-0.488c-0.091-0.033-0.181-0.067-0.272-0.099c-0.532-0.192-1.065-0.381-1.601-0.568
				c-0.092-0.032-0.185-0.064-0.277-0.095c-0.448-0.155-0.897-0.308-1.348-0.459c-0.132-0.044-0.263-0.088-0.395-0.132
				c-0.514-0.171-1.03-0.339-1.548-0.505c-0.02-0.006-0.039-0.013-0.059-0.019c-0.548-0.175-1.099-0.347-1.65-0.517
				c-0.118-0.036-0.236-0.072-0.355-0.108c-0.448-0.137-0.897-0.271-1.347-0.404c-0.118-0.035-0.237-0.07-0.355-0.105
				c-0.556-0.163-1.114-0.324-1.672-0.481c-0.007-0.002-0.013-0.004-0.02-0.005c-0.542-0.153-1.086-0.302-1.631-0.45
				c-0.126-0.034-0.252-0.068-0.378-0.102c-0.477-0.128-0.954-0.254-1.433-0.378c-0.084-0.022-0.167-0.044-0.251-0.066
				c-0.565-0.146-1.13-0.289-1.696-0.429c-0.079-0.02-0.158-0.039-0.237-0.058c-0.486-0.12-0.972-0.237-1.459-0.353
				c-0.125-0.03-0.25-0.059-0.375-0.089c-0.545-0.128-1.091-0.255-1.636-0.379c-0.011-0.003-0.022-0.005-0.034-0.008
				c-0.574-0.13-1.148-0.257-1.723-0.381c-0.105-0.023-0.21-0.045-0.316-0.068c-0.48-0.103-0.959-0.205-1.439-0.304
				c-0.106-0.022-0.213-0.044-0.319-0.066c-1.137-0.234-2.275-0.458-3.412-0.672c-0.116-0.022-0.233-0.044-0.349-0.065
				c-0.498-0.093-0.996-0.184-1.494-0.273c-0.071-0.013-0.142-0.026-0.213-0.038c-0.579-0.103-1.159-0.204-1.737-0.302
				c-0.053-0.009-0.107-0.018-0.16-0.027c-0.514-0.087-1.027-0.171-1.539-0.254c-0.111-0.018-0.223-0.036-0.334-0.054
				c-0.558-0.089-1.116-0.177-1.673-0.262c-0.542-0.083-1.084-0.163-1.624-0.241C276.209,178.604,276.152,178.596,276.095,178.588z"
				/>
			<path fill="#FFCC99" d="M344.152,224.727c-16.455-17.728-48.34-28.856-83.018-31.106c-45.68,11.701-78.266,30.804-91.918,51.071
				c0.549-0.545,1.113-1.078,1.688-1.597c0.625-0.528,1.243-1.041,1.851-1.54c0.309-0.249,0.594-0.495,0.914-0.735
				c0.327-0.239,0.65-0.475,0.967-0.707c0.638-0.463,1.262-0.909,1.869-1.337c0.644-0.425,1.29-0.83,1.904-1.217
				c4.976-3.095,9.243-4.819,10.456-4.779c0,0-0.817,0.515-2.248,1.416c-0.35,0.226-0.771,0.472-1.169,0.748
				c-0.4,0.276-0.833,0.574-1.296,0.893c-0.463,0.319-0.956,0.658-1.475,1.016c-0.479,0.362-0.983,0.743-1.508,1.14
				c-2.148,1.585-4.293,3.467-6.381,5.487c-2.025,2.024-3.815,4.188-5.28,6.342c-1.36,2.15-2.373,4.283-2.938,6.246
				c-0.47,1.951-0.695,3.753-0.456,5.23c0.045,0.371,0.074,0.73,0.126,1.066c0.095,0.329,0.185,0.641,0.27,0.935
				c0.084,0.294,0.163,0.568,0.235,0.822c0.077,0.253,0.216,0.472,0.305,0.677c0.391,0.813,0.614,1.278,0.614,1.278
				c-0.699,0.084-1.557-0.237-2.523-0.916c-0.234-0.171-0.507-0.358-0.726-0.578c-0.21-0.222-0.422-0.465-0.635-0.73
				c-0.213-0.265-0.428-0.55-0.642-0.856c-0.211-0.306-0.33-0.647-0.494-1c-0.085-0.198-0.169-0.403-0.252-0.613
				c-1.34,9.429,1.689,18.745,9.661,27.334c31.316,16.691,80.585,21.872,122.901,11.033c25.422-6.511,43.713-17.623,53.024-30.496
				C358.088,255.28,357.611,239.227,344.152,224.727z M270.434,223.066c0.31,0.026,0.608,0.057,0.893,0.092
				c0.286,0.038,0.567,0.094,0.831,0.145c0.265,0.054,0.516,0.111,0.755,0.172c0.239,0.062,0.468,0.142,0.682,0.216
				c0.857,0.292,1.508,0.679,1.969,1.077c0.929,0.824,1.096,1.739,0.907,2.667l-0.019,0.093c0,0-0.086-0.001-0.247-0.004
				c-0.08-0.003-0.179-0.006-0.296-0.009c-0.058-0.003-0.121-0.005-0.187-0.008c-0.063,0.002-0.13,0.004-0.201,0.007
				c-0.585-0.009-1.336,0.054-2.176,0.211c-0.41,0.098-0.863,0.197-1.313,0.373c-0.462,0.157-0.928,0.378-1.391,0.644
				c-0.928,0.528-1.792,1.29-2.375,2.152c-0.6,0.86-0.895,1.809-0.943,2.682c-0.019,0.874,0.204,1.666,0.547,2.284
				c0.351,0.617,0.78,1.068,1.126,1.351c0.151,0.153,0.317,0.247,0.408,0.323c0.095,0.073,0.145,0.112,0.145,0.112l-0.141,0.058
				c-1.404,0.571-2.985,0.976-4.805,0.993c-1.811,0.024-3.8-0.374-5.556-1.232c-0.883-0.427-1.66-0.966-2.339-1.596
				c-0.633-0.63-1.191-1.352-1.496-2.136c-0.327-0.784-0.468-1.631-0.354-2.505c0.104-0.874,0.429-1.779,1.05-2.668
				c0.615-0.889,1.457-1.724,2.507-2.46c1.059-0.735,2.311-1.369,3.661-1.869c1.377-0.492,2.839-0.846,4.277-1.04
				C267.804,223.003,269.192,222.959,270.434,223.066z M218.361,210.016c0.094-0.118,0.231-0.249,0.417-0.386
				c0.369-0.276,0.966-0.56,1.65-0.866c0.668-0.32,1.498-0.626,2.419-0.966c1.846-0.662,4.085-1.393,6.752-2.062
				c2.667-0.662,5.774-1.251,9.191-1.566c1.713-0.16,3.429-0.232,5.062-0.223c1.636,0.011,3.203,0.083,4.672,0.201
				c2.937,0.244,5.486,0.632,7.587,1.022c2.102,0.393,3.772,0.787,4.935,1.133c1.161,0.348,1.811,0.653,1.816,0.902
				c0,0-2.984-0.34-7.459-0.85c-2.215-0.236-4.79-0.497-7.536-0.621c-2.744-0.129-5.667-0.117-8.507,0.155
				c-2.871,0.261-5.691,0.719-8.268,1.268c-2.579,0.544-4.948,1.154-6.969,1.685c-0.495,0.133-0.97,0.261-1.421,0.382
				c-0.226,0.061-0.446,0.118-0.659,0.179c-0.214,0.065-0.422,0.128-0.624,0.189c-0.841,0.245-1.478,0.428-1.897,0.595
				c-0.419,0.165-0.671,0.301-0.823,0.401c-0.141,0.102-0.224,0.154-0.224,0.154c-0.172-0.08-0.267-0.207-0.262-0.403
				C218.222,210.244,218.282,210.14,218.361,210.016z M195.69,251.495c-0.633-0.63-1.191-1.352-1.496-2.136
				c-0.327-0.784-0.468-1.631-0.354-2.505c0.104-0.874,0.429-1.779,1.05-2.668c0.615-0.889,1.457-1.724,2.507-2.46
				c1.059-0.735,2.311-1.369,3.66-1.869c1.377-0.492,2.839-0.846,4.277-1.04c1.451-0.185,2.839-0.229,4.081-0.122
				c0.31,0.026,0.608,0.057,0.893,0.092c0.286,0.038,0.567,0.094,0.831,0.145c0.265,0.054,0.516,0.111,0.755,0.172
				c0.239,0.062,0.468,0.142,0.682,0.216c0.857,0.292,1.508,0.679,1.969,1.077c0.929,0.824,1.096,1.739,0.907,2.667l-0.019,0.093
				c0,0-0.086-0.001-0.247-0.004c-0.08-0.003-0.179-0.006-0.296-0.009c-0.058-0.003-0.121-0.005-0.187-0.008
				c-0.063,0.002-0.13,0.004-0.201,0.007c-0.585-0.009-1.336,0.054-2.176,0.211c-0.41,0.098-0.863,0.197-1.313,0.373
				c-0.462,0.157-0.928,0.378-1.391,0.644c-0.928,0.528-1.792,1.29-2.375,2.152c-0.6,0.86-0.895,1.809-0.943,2.682
				c-0.019,0.874,0.204,1.666,0.547,2.284c0.351,0.617,0.78,1.068,1.126,1.351c0.151,0.153,0.317,0.247,0.408,0.323
				c0.095,0.073,0.145,0.112,0.145,0.112l-0.141,0.058c-1.404,0.571-2.985,0.976-4.805,0.993c-1.811,0.024-3.8-0.374-5.556-1.232
				C197.146,252.664,196.369,252.125,195.69,251.495z M254.033,287.862c-0.589,0.142-1.245,0.307-1.992,0.429
				c-0.374,0.065-0.763,0.133-1.167,0.203c-0.413,0.055-0.84,0.111-1.282,0.169c-0.223,0.028-0.449,0.057-0.679,0.086
				c-0.232,0.022-0.468,0.044-0.707,0.066c-0.48,0.043-0.976,0.091-1.488,0.129c-1.025,0.058-2.115,0.127-3.259,0.14
				c-4.58,0.106-10.06-0.231-15.835-1.167c-5.759-0.938-11.871-2.469-17.332-4.83c-2.727-1.176-5.109-2.532-6.998-4.01
				c-1.891-1.481-3.252-3.075-3.952-4.716c-0.348-0.896-0.299-1.751-0.035-2.555c0.269-0.802,0.764-1.545,1.403-2.215
				c1.285-1.336,3.133-2.409,5.254-3.04c0.13-0.04,0.26-0.08,0.389-0.119c0.136-0.033,0.272-0.066,0.407-0.099
				c0.277-0.062,0.519-0.133,0.812-0.183c0.566-0.105,1.121-0.163,1.658-0.196c1.074-0.066,2.076-0.031,2.988,0.048
				c1.822,0.167,3.298,0.54,4.215,0.979c0.46,0.218,0.779,0.448,0.963,0.659c0.186,0.212,0.241,0.402,0.231,0.553
				c-0.036,0.307-0.313,0.465-0.567,0.509c0,0-0.009-0.027-0.027-0.08c-0.004-0.027-0.02-0.059-0.041-0.095
				c-0.014-0.038-0.042-0.079-0.078-0.124c-0.136-0.179-0.422-0.444-1.251-0.709c-0.803-0.265-2.143-0.488-3.727-0.521
				c-0.787-0.019-1.64,0.017-2.434,0.12c-0.197,0.026-0.39,0.056-0.569,0.091c-0.089,0.018-0.181,0.035-0.26,0.055l-0.125,0.029
				l-0.145,0.043c-0.194,0.057-0.391,0.115-0.59,0.173c-0.19,0.07-0.383,0.14-0.577,0.211c-1.518,0.605-2.898,1.551-3.726,2.691
				c-0.411,0.569-0.69,1.182-0.779,1.805c-0.046,0.311-0.042,0.625,0.016,0.934c0.006,0.16,0.088,0.298,0.125,0.449
				c0.013,0.037,0.02,0.073,0.037,0.112l0.071,0.123l0.142,0.247c0.735,1.329,2.015,2.662,3.687,3.88
				c1.668,1.226,3.748,2.343,6.034,3.337c4.583,1.992,9.986,3.485,15.282,4.489c5.303,1.015,10.534,1.509,14.987,1.63
				c2.232,0.071,4.266,0.009,6.046-0.084c0.443-0.029,0.873-0.057,1.287-0.084c0.412-0.031,0.802-0.077,1.18-0.112
				c0.762-0.063,1.433-0.167,2.047-0.247c0.153-0.02,0.303-0.04,0.448-0.06c0.141-0.024,0.278-0.048,0.411-0.071
				c0.265-0.047,0.513-0.09,0.745-0.131c0.469-0.074,0.845-0.161,1.15-0.231c0.614-0.136,0.942-0.208,0.942-0.208
				C257.424,286.65,256.382,287.26,254.033,287.862z M271.047,275.186c-0.486,0.141-0.961,0.275-1.426,0.402
				c-0.468,0.126-0.944,0.234-1.399,0.343c-0.913,0.214-1.775,0.406-2.625,0.547c-0.844,0.145-1.621,0.277-2.374,0.362
				c-0.754,0.084-1.451,0.145-2.091,0.182c-0.635,0.041-1.231,0.041-1.765,0.02c-0.533-0.02-1.005-0.063-1.414-0.127
				c-0.819-0.129-1.39-0.347-1.712-0.65l-0.061-0.062c0,0,0.284-0.087,0.818-0.249c0.267-0.081,0.596-0.181,0.983-0.298
				c0.392-0.113,0.826-0.258,1.309-0.423c1.962-0.633,4.667-1.636,7.666-3.002c3.004-1.363,6.221-3.134,9.279-5.188
				c0.383-0.256,0.745-0.524,1.123-0.789c0.188-0.133,0.376-0.266,0.565-0.4c0.186-0.135,0.361-0.274,0.543-0.412
				c0.361-0.276,0.724-0.554,1.088-0.833c0.346-0.285,0.693-0.572,1.042-0.86c0.358-0.285,0.679-0.583,1.012-0.878
				c0.326-0.297,0.678-0.588,0.981-0.893c0.313-0.302,0.627-0.605,0.941-0.908l0.925-0.965c0.589-0.636,1.346-1.33,1.932-1.951
				c0.301-0.314,0.602-0.627,0.902-0.94c0.287-0.314,0.574-0.627,0.859-0.939c1.105-1.251,2.146-2.489,3.005-3.697
				c1.767-2.412,2.913-4.689,3.508-6.612c0.603-1.926,0.582-3.483,0.39-4.531c-0.048-0.534-0.22-0.927-0.299-1.202
				c-0.084-0.274-0.129-0.42-0.129-0.42l0.138-0.02c0.695-0.092,1.414-0.05,2.157,0.141c0.372,0.096,0.75,0.228,1.133,0.399
				c0.189,0.086,0.39,0.18,0.574,0.285c0.175,0.107,0.349,0.223,0.524,0.349c0.346,0.252,0.702,0.542,1.035,0.872
				c0.295,0.332,0.583,0.702,0.861,1.109c0.151,0.204,0.242,0.417,0.353,0.639c0.106,0.222,0.208,0.453,0.307,0.692
				c0.11,0.24,0.171,0.487,0.233,0.742c0.062,0.255,0.12,0.519,0.173,0.79c0.378,2.171-0.174,4.799-1.588,7.615
				c-0.731,1.403-1.657,2.858-2.812,4.325c-0.586,0.731-1.2,1.473-1.886,2.21c-0.17,0.185-0.341,0.37-0.512,0.556
				c-0.171,0.175-0.342,0.351-0.514,0.527c-0.346,0.352-0.7,0.701-1.05,1.076c-0.361,0.371-0.688,0.73-1.081,1.103
				c-0.401,0.372-0.798,0.742-1.194,1.11c-0.84,0.722-1.67,1.433-2.585,2.104c-0.876,0.681-1.843,1.319-2.772,1.945
				c-0.986,0.609-1.927,1.21-2.948,1.758c-1.977,1.118-4.072,2.088-6.1,2.937C275.006,273.915,272.998,274.629,271.047,275.186z
				 M319.597,274.793c-0.136,1.618-1.049,3.525-2.781,5.462c-0.888,0.961-1.975,1.927-3.238,2.874
				c-1.287,0.936-2.745,1.853-4.353,2.728c-1.613,0.872-3.311,1.653-5.009,2.363c-1.704,0.707-3.436,1.325-5.121,1.88
				c-3.396,1.091-6.659,1.886-9.505,2.42c-2.848,0.535-5.28,0.806-7.053,0.88c-0.885,0.041-1.611,0.026-2.151-0.03
				c-0.54-0.055-0.894-0.149-1.051-0.285c0,0,0.234-0.044,0.673-0.126c0.439-0.082,1.084-0.199,1.893-0.369
				c1.623-0.33,3.926-0.84,6.592-1.561c2.662-0.723,5.705-1.642,8.761-2.779c1.539-0.56,3.058-1.188,4.571-1.842
				c1.491-0.667,2.957-1.371,4.34-2.115c1.365-0.751,2.682-1.525,3.847-2.335c0.308-0.197,0.567-0.409,0.851-0.61
				c0.278-0.204,0.561-0.405,0.807-0.615c0.255-0.208,0.509-0.414,0.762-0.619c0.231-0.211,0.46-0.42,0.688-0.627
				c1.805-1.665,2.897-3.353,3.455-4.823c0.531-1.476,0.533-2.732,0.376-3.6c-0.013-0.109-0.026-0.212-0.038-0.309
				c-0.014-0.097-0.048-0.187-0.068-0.271c-0.045-0.168-0.084-0.311-0.115-0.427c-0.062-0.232-0.095-0.355-0.095-0.355
				c0.3,0.005,0.621,0.117,0.962,0.336c0.33,0.219,0.732,0.542,1.018,0.976C319.284,271.872,319.744,273.174,319.597,274.793z
				 M337.931,247.105c-0.09,0.999-0.23,1.866-0.385,2.589c-0.316,1.445-0.697,2.32-1.253,2.464c0,0-0.036-0.217-0.103-0.624
				c-0.071-0.407-0.154-1.002-0.251-1.755c-0.093-0.747-0.205-1.653-0.334-2.693c-0.138-1.031-0.316-2.181-0.657-3.407
				c-0.34-1.226-0.865-2.527-1.708-3.85c-0.107-0.165-0.215-0.331-0.323-0.498c-0.109-0.167-0.245-0.33-0.368-0.497
				c-0.126-0.166-0.253-0.333-0.381-0.501c-0.143-0.165-0.287-0.33-0.432-0.497c-0.276-0.326-0.609-0.684-0.937-1.04
				c-0.328-0.356-0.659-0.715-0.992-1.078c-2.652-2.891-5.468-5.945-8.857-8.775c-3.394-2.821-7.485-5.352-12.171-7.198
				c-2.327-0.928-4.748-1.704-7.144-2.356c-2.404-0.646-4.791-1.162-7.02-1.615c-4.489-0.879-8.381-1.495-11.099-1.953
				c-2.728-0.456-4.287-0.717-4.287-0.717c0.384-0.254,2.082-0.264,4.826-0.083c2.743,0.189,6.547,0.545,11.123,1.223
				c2.282,0.348,4.767,0.77,7.344,1.366c2.576,0.591,5.273,1.324,7.906,2.276c2.626,0.954,5.183,2.11,7.552,3.441
				c0.576,0.34,1.188,0.671,1.744,1.029c0.543,0.363,1.089,0.729,1.64,1.097c0.568,0.364,1.061,0.754,1.568,1.143
				c0.5,0.391,1.033,0.778,1.509,1.182c3.85,3.23,6.672,6.501,9.149,9.45c0.309,0.369,0.614,0.734,0.915,1.094
				c0.3,0.351,0.593,0.746,0.879,1.109c0.285,0.37,0.507,0.747,0.753,1.111c0.216,0.37,0.413,0.736,0.601,1.096
				c0.701,1.449,1.031,2.827,1.173,4.08C338.052,244.974,338.019,246.107,337.931,247.105z"/>
			<path fill="#CC9966" d="M162.392,261.385c-0.066-0.166-0.131-0.333-0.192-0.507c-0.081-0.4-0.154-0.819-0.221-1.255
				c-0.031-0.218-0.062-0.44-0.094-0.666c-0.034-0.226,0.002-0.463,0.003-0.7c0.02-0.476,0.049-0.968,0.089-1.473
				c0.344-2.041,1.203-4.341,2.776-6.784c1.234-1.846,2.775-3.634,4.463-5.309c13.652-20.267,46.238-39.369,91.918-51.071
				c-19.809-1.285-40.529,0.325-59.807,5.263c-53.025,13.581-75.052,47.172-49.197,75.026c0.723,0.778,1.478,1.543,2.259,2.296
				c4.863,4.687,10.836,8.875,17.665,12.514C164.081,280.13,161.053,270.814,162.392,261.385z M170.441,224.908
				c0.216-0.839,0.798-1.79,1.639-2.77c0.21-0.245,0.436-0.492,0.674-0.74c0.24-0.249,0.471-0.489,0.762-0.755
				c0.546-0.527,1.218-1.036,1.941-1.54c1.481-0.995,3.135-1.825,4.757-2.488c1.627-0.662,3.219-1.161,4.628-1.518
				c2.832-0.707,4.911-0.863,5.517-0.499c0,0-0.432,0.149-1.188,0.41c-0.75,0.265-1.814,0.647-3.047,1.131
				c-2.466,0.964-5.58,2.371-8.039,4.035c-0.602,0.419-1.188,0.844-1.696,1.283c-0.128,0.109-0.256,0.218-0.383,0.326
				c-0.13,0.116-0.259,0.232-0.388,0.348c-0.254,0.228-0.499,0.451-0.733,0.671c-0.938,0.878-1.7,1.713-2.163,2.426
				c-0.479,0.712-0.607,1.289-0.54,1.598c0.067,0.311,0.213,0.384,0.201,0.393c-0.204,0.049-0.443,0.074-0.708,0.029
				c-0.267-0.042-0.547-0.162-0.786-0.365C170.402,226.476,170.217,225.744,170.441,224.908z"/>
			<path fill="#663300" d="M286.119,268.385c0.929-0.626,1.896-1.264,2.772-1.945c0.915-0.671,1.745-1.382,2.585-2.104
				c0.395-0.367,0.793-0.737,1.194-1.11c0.393-0.373,0.72-0.731,1.081-1.103c0.35-0.375,0.703-0.724,1.05-1.076
				c0.172-0.176,0.343-0.352,0.514-0.527c0.171-0.186,0.342-0.372,0.512-0.556c0.686-0.737,1.299-1.479,1.886-2.21
				c1.155-1.467,2.081-2.923,2.812-4.325c1.413-2.816,1.965-5.444,1.588-7.615c-0.053-0.272-0.11-0.535-0.173-0.79
				c-0.062-0.255-0.123-0.502-0.233-0.742c-0.098-0.24-0.201-0.47-0.307-0.692c-0.111-0.222-0.201-0.435-0.353-0.639
				c-0.278-0.407-0.566-0.777-0.861-1.109c-0.333-0.33-0.689-0.62-1.035-0.872c-0.174-0.126-0.349-0.242-0.524-0.349
				c-0.184-0.106-0.385-0.2-0.574-0.285c-0.383-0.171-0.761-0.303-1.133-0.399c-0.744-0.191-1.462-0.234-2.157-0.141l-0.138,0.02
				c0,0,0.045,0.146,0.129,0.42c0.079,0.275,0.251,0.669,0.299,1.202c0.192,1.048,0.213,2.605-0.39,4.531
				c-0.595,1.922-1.741,4.2-3.508,6.612c-0.859,1.208-1.9,2.445-3.005,3.697c-0.285,0.312-0.572,0.625-0.859,0.939
				c-0.3,0.312-0.601,0.626-0.902,0.94c-0.586,0.622-1.343,1.315-1.932,1.951l-0.925,0.965c-0.314,0.303-0.628,0.606-0.941,0.908
				c-0.302,0.305-0.654,0.596-0.981,0.893c-0.333,0.295-0.654,0.593-1.012,0.878c-0.349,0.288-0.696,0.574-1.042,0.86
				c-0.365,0.279-0.728,0.557-1.088,0.833c-0.182,0.137-0.357,0.277-0.543,0.412c-0.189,0.134-0.378,0.267-0.565,0.4
				c-0.379,0.265-0.74,0.533-1.123,0.789c-3.059,2.054-6.276,3.825-9.279,5.188c-2.999,1.366-5.704,2.369-7.666,3.002
				c-0.483,0.165-0.917,0.311-1.309,0.423c-0.387,0.117-0.716,0.217-0.983,0.298c-0.533,0.162-0.818,0.249-0.818,0.249l0.061,0.062
				c0.322,0.303,0.893,0.521,1.712,0.65c0.41,0.065,0.881,0.107,1.414,0.127c0.534,0.021,1.13,0.021,1.765-0.02
				c0.64-0.037,1.337-0.097,2.091-0.182c0.753-0.085,1.529-0.217,2.374-0.362c0.85-0.141,1.712-0.333,2.625-0.547
				c0.454-0.108,0.93-0.217,1.399-0.343c0.465-0.128,0.94-0.262,1.426-0.402c1.951-0.557,3.96-1.272,6.025-2.106
				c2.028-0.85,4.123-1.819,6.1-2.937C284.193,269.595,285.134,268.994,286.119,268.385z"/>
			<path fill="#663300" d="M208.39,253.331l0.141-0.058c0,0-0.051-0.039-0.145-0.112c-0.09-0.076-0.257-0.17-0.408-0.323
				c-0.346-0.283-0.775-0.734-1.126-1.351c-0.344-0.617-0.567-1.41-0.547-2.284c0.048-0.873,0.343-1.822,0.943-2.682
				c0.583-0.861,1.447-1.623,2.375-2.152c0.462-0.266,0.928-0.487,1.391-0.644c0.45-0.176,0.903-0.275,1.313-0.373
				c0.84-0.157,1.591-0.22,2.176-0.211c0.071-0.002,0.138-0.005,0.201-0.007c0.067,0.003,0.129,0.006,0.187,0.008
				c0.116,0.004,0.215,0.007,0.296,0.009c0.161,0.003,0.247,0.004,0.247,0.004l0.019-0.093c0.189-0.928,0.022-1.843-0.907-2.667
				c-0.461-0.397-1.111-0.785-1.969-1.077c-0.214-0.074-0.444-0.154-0.682-0.216c-0.238-0.061-0.49-0.118-0.755-0.172
				c-0.264-0.052-0.545-0.108-0.831-0.145c-0.285-0.035-0.583-0.066-0.893-0.092c-1.242-0.107-2.63-0.063-4.081,0.122
				c-1.439,0.194-2.901,0.548-4.277,1.04c-1.349,0.5-2.601,1.134-3.66,1.869c-1.05,0.736-1.892,1.571-2.507,2.46
				c-0.621,0.889-0.946,1.794-1.05,2.668c-0.114,0.874,0.027,1.721,0.354,2.505c0.305,0.784,0.863,1.506,1.496,2.136
				c0.679,0.63,1.456,1.17,2.339,1.596c1.757,0.858,3.746,1.257,5.556,1.232C205.405,254.307,206.986,253.902,208.39,253.331z"/>
			<path fill="#663300" d="M258.415,226.097c-1.05,0.736-1.892,1.571-2.507,2.46c-0.621,0.889-0.946,1.794-1.05,2.668
				c-0.114,0.874,0.027,1.721,0.354,2.505c0.305,0.784,0.863,1.506,1.496,2.136c0.679,0.63,1.456,1.17,2.339,1.596
				c1.757,0.858,3.746,1.257,5.556,1.232c1.82-0.017,3.401-0.421,4.805-0.993l0.141-0.058c0,0-0.051-0.039-0.145-0.112
				c-0.09-0.076-0.256-0.17-0.408-0.323c-0.346-0.283-0.775-0.734-1.126-1.351c-0.344-0.617-0.567-1.41-0.547-2.284
				c0.048-0.872,0.343-1.822,0.943-2.682c0.583-0.861,1.447-1.623,2.375-2.152c0.462-0.266,0.928-0.487,1.391-0.644
				c0.45-0.176,0.903-0.275,1.313-0.373c0.84-0.157,1.591-0.221,2.176-0.211c0.071-0.002,0.138-0.005,0.201-0.007
				c0.067,0.003,0.129,0.006,0.187,0.008c0.116,0.004,0.215,0.007,0.296,0.009c0.161,0.003,0.247,0.004,0.247,0.004l0.019-0.093
				c0.189-0.928,0.022-1.843-0.907-2.667c-0.461-0.397-1.111-0.785-1.969-1.077c-0.214-0.074-0.444-0.154-0.682-0.216
				c-0.238-0.061-0.49-0.118-0.755-0.172c-0.264-0.052-0.545-0.108-0.831-0.145c-0.285-0.035-0.583-0.066-0.893-0.092
				c-1.242-0.107-2.63-0.063-4.081,0.122c-1.439,0.194-2.901,0.548-4.277,1.04C260.726,224.728,259.474,225.363,258.415,226.097z"/>
			<path fill="#FFFFFF" d="M161.976,256.785c-0.04,0.506-0.069,0.997-0.089,1.473c-0.001,0.237-0.037,0.474-0.003,0.7
				c0.032,0.225,0.063,0.447,0.094,0.666c0.067,0.436,0.14,0.854,0.221,1.255c0.062,0.173,0.127,0.341,0.192,0.507
				c0.083,0.21,0.168,0.415,0.252,0.613c0.164,0.352,0.283,0.694,0.494,1c0.215,0.306,0.429,0.591,0.642,0.856
				c0.213,0.265,0.425,0.508,0.635,0.73c0.219,0.22,0.492,0.407,0.726,0.578c0.966,0.679,1.824,1,2.523,0.916
				c0,0-0.223-0.465-0.614-1.278c-0.089-0.205-0.228-0.424-0.305-0.677c-0.073-0.254-0.151-0.529-0.235-0.822
				c-0.085-0.293-0.175-0.606-0.27-0.935c-0.052-0.337-0.081-0.695-0.126-1.066c-0.238-1.477-0.014-3.279,0.456-5.23
				c0.565-1.963,1.578-4.096,2.938-6.246c1.465-2.154,3.255-4.318,5.28-6.342c2.088-2.02,4.233-3.902,6.381-5.487
				c0.526-0.397,1.029-0.778,1.508-1.14c0.519-0.358,1.012-0.697,1.475-1.016c0.463-0.319,0.896-0.617,1.296-0.893
				c0.398-0.276,0.819-0.522,1.169-0.748c1.43-0.901,2.248-1.416,2.248-1.416c-1.213-0.04-5.479,1.684-10.456,4.779
				c-0.614,0.386-1.261,0.792-1.904,1.217c-0.607,0.428-1.231,0.874-1.869,1.337c-0.317,0.232-0.64,0.468-0.967,0.707
				c-0.321,0.24-0.606,0.486-0.914,0.735c-0.607,0.498-1.225,1.012-1.851,1.54c-0.575,0.519-1.139,1.052-1.688,1.597
				c-1.688,1.675-3.229,3.463-4.463,5.309C163.18,252.444,162.32,254.744,161.976,256.785z"/>
			<path fill="#FFFFFF" d="M336.739,239.641c-0.188-0.36-0.385-0.726-0.601-1.096c-0.246-0.364-0.467-0.741-0.753-1.111
				c-0.286-0.364-0.579-0.758-0.879-1.109c-0.301-0.36-0.606-0.725-0.915-1.094c-2.478-2.949-5.3-6.221-9.149-9.45
				c-0.476-0.404-1.009-0.791-1.509-1.182c-0.507-0.39-1-0.78-1.568-1.143c-0.551-0.368-1.098-0.734-1.64-1.097
				c-0.555-0.358-1.168-0.689-1.744-1.029c-2.37-1.331-4.926-2.487-7.552-3.441c-2.633-0.952-5.33-1.685-7.906-2.276
				c-2.577-0.596-5.062-1.018-7.344-1.366c-4.576-0.678-8.38-1.034-11.123-1.223c-2.744-0.181-4.443-0.171-4.826,0.083
				c0,0,1.559,0.261,4.287,0.717c2.718,0.458,6.61,1.074,11.099,1.953c2.229,0.453,4.616,0.968,7.02,1.615
				c2.396,0.652,4.817,1.429,7.144,2.356c4.686,1.846,8.777,4.377,12.171,7.198c3.389,2.83,6.204,5.884,8.857,8.775
				c0.334,0.362,0.664,0.722,0.992,1.078c0.328,0.356,0.661,0.713,0.937,1.04c0.145,0.166,0.289,0.332,0.432,0.497
				c0.128,0.168,0.255,0.335,0.381,0.501c0.122,0.167,0.258,0.33,0.368,0.497c0.108,0.167,0.216,0.333,0.323,0.498
				c0.843,1.323,1.367,2.623,1.708,3.85c0.341,1.226,0.519,2.376,0.657,3.407c0.129,1.04,0.241,1.947,0.334,2.693
				c0.097,0.753,0.18,1.348,0.251,1.755c0.067,0.407,0.103,0.624,0.103,0.624c0.556-0.144,0.938-1.019,1.253-2.464
				c0.155-0.723,0.295-1.59,0.385-2.589c0.088-0.999,0.121-2.131-0.019-3.385C337.77,242.468,337.44,241.09,336.739,239.641z"/>
			<path fill="#FFFFFF" d="M170.889,226.882c0.239,0.203,0.519,0.323,0.786,0.365c0.265,0.045,0.504,0.02,0.708-0.029
				c0.012-0.008-0.134-0.082-0.201-0.393c-0.067-0.309,0.061-0.886,0.54-1.598c0.464-0.713,1.225-1.548,2.163-2.426
				c0.234-0.22,0.479-0.443,0.733-0.671c0.129-0.115,0.258-0.231,0.388-0.348c0.127-0.108,0.255-0.217,0.383-0.326
				c0.508-0.439,1.094-0.864,1.696-1.283c2.459-1.664,5.573-3.071,8.039-4.035c1.233-0.484,2.298-0.866,3.047-1.131
				c0.756-0.261,1.188-0.41,1.188-0.41c-0.606-0.364-2.686-0.207-5.517,0.499c-1.409,0.357-3.001,0.856-4.628,1.518
				c-1.622,0.663-3.276,1.494-4.757,2.488c-0.723,0.504-1.395,1.013-1.941,1.54c-0.291,0.266-0.522,0.505-0.762,0.755
				c-0.237,0.248-0.464,0.495-0.674,0.74c-0.842,0.98-1.423,1.931-1.639,2.77C170.217,225.744,170.402,226.476,170.889,226.882z"/>
			<path fill="#FFFFFF" d="M218.476,210.743c0,0,0.083-0.052,0.224-0.154c0.152-0.1,0.404-0.235,0.823-0.401
				c0.419-0.166,1.056-0.349,1.897-0.595c0.202-0.061,0.41-0.124,0.624-0.189c0.214-0.061,0.434-0.118,0.659-0.179
				c0.451-0.121,0.926-0.249,1.421-0.382c2.02-0.532,4.389-1.141,6.969-1.685c2.577-0.548,5.397-1.007,8.268-1.268
				c2.84-0.273,5.763-0.284,8.507-0.155c2.746,0.124,5.32,0.385,7.536,0.621c4.475,0.51,7.459,0.85,7.459,0.85
				c-0.005-0.249-0.656-0.555-1.816-0.902c-1.163-0.346-2.833-0.74-4.935-1.133c-2.102-0.39-4.65-0.779-7.587-1.022
				c-1.469-0.118-3.036-0.19-4.672-0.201c-1.633-0.009-3.349,0.063-5.062,0.223c-3.417,0.315-6.524,0.904-9.191,1.566
				c-2.668,0.669-4.906,1.4-6.752,2.062c-0.92,0.339-1.751,0.645-2.419,0.966c-0.684,0.306-1.281,0.59-1.65,0.866
				c-0.186,0.137-0.323,0.268-0.417,0.386c-0.079,0.125-0.139,0.228-0.147,0.324C218.209,210.536,218.304,210.663,218.476,210.743z"
				/>
			<path fill="#FFFFFF" d="M255.275,286.803c-0.231,0.041-0.48,0.084-0.745,0.131c-0.133,0.023-0.27,0.047-0.411,0.071
				c-0.145,0.019-0.294,0.039-0.448,0.06c-0.614,0.08-1.285,0.184-2.047,0.247c-0.379,0.035-0.768,0.08-1.18,0.112
				c-0.414,0.027-0.843,0.055-1.287,0.084c-1.78,0.093-3.814,0.155-6.046,0.084c-4.453-0.12-9.685-0.614-14.987-1.63
				c-5.295-1.004-10.698-2.497-15.282-4.489c-2.286-0.994-4.365-2.111-6.034-3.337c-1.673-1.218-2.953-2.552-3.687-3.88
				l-0.142-0.247l-0.071-0.123c-0.017-0.039-0.024-0.075-0.037-0.112c-0.036-0.151-0.118-0.288-0.125-0.449
				c-0.059-0.309-0.062-0.623-0.016-0.934c0.089-0.623,0.368-1.236,0.779-1.805c0.829-1.14,2.208-2.086,3.726-2.691
				c0.194-0.071,0.387-0.141,0.577-0.211c0.199-0.058,0.395-0.116,0.59-0.173l0.145-0.043l0.125-0.029
				c0.079-0.021,0.171-0.038,0.26-0.055c0.179-0.035,0.372-0.065,0.569-0.091c0.794-0.102,1.647-0.138,2.434-0.12
				c1.583,0.033,2.923,0.256,3.727,0.521c0.829,0.265,1.116,0.53,1.251,0.709c0.035,0.046,0.064,0.086,0.078,0.124
				c0.021,0.036,0.037,0.068,0.041,0.095c0.018,0.053,0.027,0.08,0.027,0.08c0.254-0.044,0.531-0.202,0.567-0.509
				c0.01-0.151-0.045-0.341-0.231-0.553c-0.184-0.211-0.503-0.441-0.963-0.659c-0.917-0.44-2.393-0.813-4.215-0.979
				c-0.913-0.079-1.915-0.114-2.988-0.048c-0.537,0.033-1.092,0.091-1.658,0.196c-0.293,0.049-0.535,0.121-0.812,0.183
				c-0.135,0.033-0.27,0.066-0.407,0.099c-0.129,0.04-0.259,0.079-0.389,0.119c-2.12,0.631-3.968,1.705-5.254,3.04
				c-0.639,0.67-1.134,1.413-1.403,2.215c-0.264,0.804-0.313,1.658,0.035,2.555c0.7,1.641,2.061,3.236,3.952,4.716
				c1.889,1.478,4.271,2.834,6.998,4.01c5.461,2.36,11.572,3.892,17.332,4.83c5.775,0.936,11.255,1.274,15.835,1.167
				c1.145-0.014,2.234-0.082,3.259-0.14c0.512-0.038,1.008-0.086,1.488-0.129c0.239-0.022,0.475-0.044,0.707-0.066
				c0.23-0.029,0.456-0.058,0.679-0.086c0.442-0.058,0.869-0.115,1.282-0.169c0.403-0.07,0.792-0.138,1.167-0.203
				c0.747-0.123,1.403-0.287,1.992-0.429c2.348-0.602,3.391-1.211,3.334-1.497c0,0-0.328,0.072-0.942,0.208
				C256.119,286.642,255.744,286.729,255.275,286.803z"/>
			<path fill="#FFFFFF" d="M317.596,270.037c-0.34-0.219-0.662-0.331-0.962-0.336c0,0,0.033,0.124,0.095,0.355
				c0.031,0.116,0.07,0.259,0.115,0.427c0.02,0.084,0.054,0.174,0.068,0.271c0.012,0.097,0.025,0.2,0.038,0.309
				c0.156,0.868,0.154,2.124-0.376,3.6c-0.558,1.47-1.65,3.159-3.455,4.823c-0.227,0.207-0.457,0.416-0.688,0.627
				c-0.252,0.205-0.506,0.411-0.762,0.619c-0.247,0.21-0.529,0.412-0.807,0.615c-0.284,0.202-0.543,0.414-0.851,0.61
				c-1.165,0.81-2.482,1.584-3.847,2.335c-1.383,0.744-2.849,1.449-4.34,2.115c-1.513,0.654-3.032,1.281-4.571,1.842
				c-3.056,1.137-6.099,2.056-8.761,2.779c-2.666,0.721-4.969,1.231-6.592,1.561c-0.809,0.17-1.455,0.287-1.893,0.369
				c-0.439,0.082-0.673,0.126-0.673,0.126c0.157,0.136,0.511,0.231,1.051,0.285c0.54,0.056,1.266,0.071,2.151,0.03
				c1.773-0.074,4.205-0.345,7.053-0.88c2.846-0.534,6.109-1.328,9.505-2.42c1.686-0.555,3.417-1.173,5.121-1.88
				c1.698-0.71,3.396-1.491,5.009-2.363c1.608-0.875,3.066-1.791,4.353-2.728c1.263-0.947,2.349-1.913,3.238-2.874
				c1.732-1.936,2.645-3.844,2.781-5.462c0.147-1.62-0.313-2.922-0.983-3.781C318.328,270.579,317.925,270.256,317.596,270.037z"/>
			<path fill="#FFFFFF" d="M413.614,255.874c-10.294-3.611-21.945-4.947-21.945-4.947l-0.009,0.042
				c-4.406-0.558-8.333,2.238-9.285,6.463l-1.135,5.037c1.595,2.374,4.219,4.89,8.465,7.233
				c12.663,6.987,30.342,39.819-0.664,48.893c-6.522,2.712-13.09,2.14-13.09,2.14s37.654,9.046,49.719-20.649
				C437.905,269.969,423.908,259.484,413.614,255.874z"/>
			<path fill="#E6E6E6" d="M389.704,269.701c-4.247-2.343-6.871-4.859-8.465-7.233l-2.739,12.149
				c-0.953,4.225,1.394,8.435,5.614,9.822l-0.009,0.042c0,0,0.097,0.085,0.372,0.138c0.129,0.036,0.197,0.14,0.33,0.17l1.899,0.428
				c5.507,1.241,17.012,6.069,14.581,18.262c-1.708,8.565-6.962,12.918-12.246,15.116
				C420.046,309.519,402.367,276.687,389.704,269.701z"/>
		</g>
	</g>
</g>
</svg>
