<?xml version="1.0" encoding="utf-8"?>
<!-- Generator: Adobe Illustrator 17.0.0, SVG Export Plug-In . SVG Version: 6.00 Build 0)  -->
<!DOCTYPE svg PUBLIC "-//W3C//DTD SVG 1.1//EN" "http://www.w3.org/Graphics/SVG/1.1/DTD/svg11.dtd">
<svg version="1.1" id="Layer_1" xmlns="http://www.w3.org/2000/svg" xmlns:xlink="http://www.w3.org/1999/xlink" x="0px" y="0px"
	 width="258px" height="301.5px" viewBox="0 0 258 301.5" enable-background="new 0 0 258 301.5" xml:space="preserve">
<g>
	<path fill="none" d="M32.601,181.441c-0.115-0.117-0.229-0.235-0.343-0.352C32.372,181.206,32.486,181.324,32.601,181.441z"/>
	<path fill="none" d="M187.824,134.267c0.037,0.046,0.075,0.091,0.112,0.137C187.899,134.358,187.861,134.313,187.824,134.267z"/>
	<path fill="none" d="M187.005,133.281c0.071,0.083,0.142,0.166,0.213,0.25C187.148,133.448,187.077,133.364,187.005,133.281z"/>
	<path fill="none" d="M186.254,132.425c0.05,0.056,0.1,0.112,0.15,0.168C186.353,132.538,186.304,132.481,186.254,132.425z"/>
	<path fill="none" d="M189.29,136.213c0.06,0.085,0.121,0.171,0.18,0.257C189.411,136.384,189.35,136.299,189.29,136.213z"/>
	<path fill="none" d="M190.09,137.391c0.009,0.014,0.018,0.029,0.027,0.043C190.108,137.42,190.099,137.405,190.09,137.391z"/>
	<path fill="none" d="M191.277,139.354c0.045,0.08,0.091,0.159,0.135,0.239C191.367,139.513,191.321,139.434,191.277,139.354z"/>
	<path fill="none" d="M190.679,138.332c0.055,0.091,0.11,0.183,0.165,0.275C190.789,138.515,190.735,138.423,190.679,138.332z"/>
	<path fill="none" d="M183.62,129.751c0.016,0.015,0.031,0.03,0.047,0.045C183.651,129.781,183.636,129.766,183.62,129.751z"/>
	<path fill="none" d="M179.531,126.321c0.089,0.068,0.178,0.135,0.267,0.203C179.71,126.456,179.621,126.389,179.531,126.321z"/>
	<path fill="none" d="M180.601,127.151c0.042,0.033,0.084,0.066,0.126,0.1C180.686,127.217,180.643,127.185,180.601,127.151z"/>
	<path fill="none" d="M178.571,125.609c0.063,0.046,0.126,0.093,0.189,0.139C178.696,125.702,178.634,125.655,178.571,125.609z"/>
	<path fill="none" d="M181.625,127.988c0.076,0.064,0.151,0.128,0.227,0.193C181.777,128.116,181.702,128.052,181.625,127.988z"/>
	<path fill="none" d="M191.931,140.568c0.033,0.065,0.065,0.131,0.098,0.196C191.996,140.698,191.965,140.632,191.931,140.568z"/>
	<path fill="none" d="M184.444,130.543c0.077,0.076,0.154,0.152,0.23,0.228C184.598,130.695,184.521,130.618,184.444,130.543z"/>
	<path fill="none" d="M182.532,128.767c0.079,0.07,0.159,0.139,0.238,0.21C182.691,128.907,182.611,128.837,182.532,128.767z"/>
	<path fill="none" d="M185.299,131.406c0.063,0.065,0.127,0.13,0.189,0.196C185.426,131.536,185.362,131.472,185.299,131.406z"/>
	<path fill="none" d="M194.286,146.418c0.003,0.008,0.005,0.017,0.007,0.025C194.291,146.435,194.289,146.427,194.286,146.418z"/>
	<path fill="none" d="M195.745,155.321c0.005,0.118,0.01,0.236,0.014,0.354C195.754,155.556,195.749,155.439,195.745,155.321z"/>
	<path fill="none" d="M195.674,154.057c0.008,0.104,0.013,0.209,0.02,0.313C195.688,154.266,195.682,154.161,195.674,154.057z"/>
	<path fill="none" d="M195.37,151.309c0.017,0.116,0.034,0.231,0.05,0.347C195.403,151.54,195.387,151.425,195.37,151.309z"/>
	<path fill="none" d="M195.543,152.64c0.008,0.073,0.018,0.144,0.025,0.217C195.56,152.784,195.551,152.712,195.543,152.64z"/>
	<path fill="none" d="M36.07,184.676c-0.273-0.234-0.543-0.47-0.809-0.707C35.527,184.205,35.796,184.441,36.07,184.676z"/>
	<path fill="none" d="M34.984,183.719c-0.171-0.154-0.341-0.308-0.509-0.463C34.642,183.411,34.813,183.565,34.984,183.719z"/>
	<path fill="none" d="M192.428,141.578c0.047,0.099,0.093,0.199,0.139,0.298C192.521,141.777,192.475,141.678,192.428,141.578z"/>
	<path fill="none" d="M34.141,182.944c-0.144-0.135-0.287-0.27-0.429-0.406C33.854,182.674,33.997,182.809,34.141,182.944z"/>
	<path fill="none" d="M33.353,182.19c-0.127-0.124-0.254-0.249-0.38-0.374C33.099,181.941,33.226,182.065,33.353,182.19z"/>
	<path fill="none" d="M193.44,143.941c0.035,0.091,0.068,0.182,0.102,0.273C193.508,144.124,193.475,144.032,193.44,143.941z"/>
	<path fill="none" d="M193.837,145.033c0.035,0.101,0.07,0.202,0.104,0.304C193.907,145.235,193.872,145.134,193.837,145.033z"/>
	<path fill="none" d="M192.947,142.731c0.025,0.059,0.052,0.117,0.077,0.176C192.999,142.849,192.973,142.79,192.947,142.731z"/>
	<path fill="none" d="M194.593,147.519c0.028,0.107,0.055,0.214,0.082,0.321C194.648,147.733,194.621,147.626,194.593,147.519z"/>
	<path fill="none" d="M194.883,148.71c0.022,0.095,0.044,0.19,0.065,0.286C194.928,148.9,194.905,148.805,194.883,148.71z"/>
	<path fill="none" d="M177.383,124.772c0.074,0.051,0.148,0.101,0.221,0.151C177.53,124.873,177.456,124.823,177.383,124.772z"/>
	<path fill="none" d="M195.176,150.132c0.013,0.073,0.025,0.147,0.038,0.22C195.201,150.279,195.19,150.205,195.176,150.132z"/>
	<path fill="none" d="M188.614,135.284c0.058,0.077,0.115,0.156,0.172,0.233C188.729,135.439,188.672,135.361,188.614,135.284z"/>
	<path fill="none" d="M154.836,114.188c0.015,0.005,0.03,0.01,0.046,0.015C154.867,114.197,154.851,114.192,154.836,114.188z"/>
	<path fill="none" d="M149.076,112.498c0.098,0.026,0.196,0.053,0.294,0.079C149.272,112.551,149.174,112.525,149.076,112.498z"/>
	<path fill="none" d="M147.767,112.153c0.065,0.017,0.13,0.034,0.195,0.051C147.897,112.187,147.832,112.17,147.767,112.153z"/>
	<path fill="none" d="M144.838,111.431c0.097,0.023,0.194,0.046,0.292,0.069C145.032,111.477,144.935,111.454,144.838,111.431z"/>
	<path fill="none" d="M153.277,113.702c0.092,0.028,0.184,0.056,0.276,0.084C153.461,113.758,153.369,113.73,153.277,113.702z"/>
	<path fill="none" d="M143.539,111.13c0.009,0.002,0.017,0.004,0.026,0.006C143.557,111.134,143.548,111.132,143.539,111.13z"/>
	<path fill="none" d="M150.638,112.927c0.005,0.001,0.01,0.003,0.015,0.004C150.648,112.93,150.643,112.929,150.638,112.927z"/>
	<path fill="none" d="M151.954,113.306c0.092,0.027,0.184,0.054,0.276,0.082C152.138,113.36,152.046,113.333,151.954,113.306z"/>
	<path fill="none" d="M146.264,111.774c0.061,0.015,0.123,0.03,0.184,0.045C146.387,111.804,146.325,111.79,146.264,111.774z"/>
	<path fill="none" d="M133.403,109.181c0.087,0.014,0.173,0.028,0.26,0.042C133.576,109.209,133.489,109.195,133.403,109.181z"/>
	<path fill="none" d="M134.86,109.421c0.042,0.007,0.083,0.014,0.125,0.021C134.943,109.435,134.901,109.428,134.86,109.421z"/>
	<path fill="none" d="M136.335,109.677c0.055,0.01,0.11,0.02,0.166,0.03C136.445,109.697,136.39,109.687,136.335,109.677z"/>
	<path fill="none" d="M141.954,110.781c0.082,0.018,0.164,0.035,0.245,0.053C142.118,110.816,142.036,110.798,141.954,110.781z"/>
	<path fill="none" d="M176.314,124.054c0.093,0.061,0.185,0.122,0.277,0.184C176.5,124.177,176.407,124.115,176.314,124.054z"/>
	<path fill="none" d="M137.662,109.919c0.091,0.017,0.181,0.034,0.272,0.051C137.843,109.953,137.752,109.936,137.662,109.919z"/>
	<path fill="none" d="M140.587,110.493c0.083,0.017,0.165,0.034,0.248,0.052C140.752,110.527,140.669,110.51,140.587,110.493z"/>
	<path fill="none" d="M170.433,120.602c0.1,0.053,0.201,0.105,0.301,0.159C170.633,120.707,170.533,120.654,170.433,120.602z"/>
	<path fill="none" d="M169.311,120.023c0.07,0.036,0.14,0.072,0.21,0.108C169.451,120.095,169.381,120.058,169.311,120.023z"/>
	<path fill="none" d="M171.711,121.288c0.038,0.021,0.077,0.042,0.116,0.063C171.789,121.33,171.75,121.309,171.711,121.288z"/>
	<path fill="none" d="M167.953,119.354c0.077,0.037,0.155,0.074,0.232,0.111C168.107,119.427,168.03,119.391,167.953,119.354z"/>
	<path fill="none" d="M166.72,118.771c0.101,0.047,0.201,0.093,0.301,0.14C166.921,118.864,166.821,118.818,166.72,118.771z"/>
	<path fill="none" d="M175.302,123.401c0.021,0.013,0.041,0.026,0.062,0.04C175.343,123.428,175.323,123.414,175.302,123.401z"/>
	<path fill="none" d="M172.901,121.957c0.088,0.051,0.176,0.102,0.264,0.153C173.077,122.059,172.989,122.008,172.901,121.957z"/>
	<path fill="none" d="M173.992,122.598c0.091,0.055,0.182,0.109,0.273,0.164C174.175,122.707,174.083,122.653,173.992,122.598z"/>
	<path fill="none" d="M162.868,117.095c0.094,0.038,0.187,0.077,0.28,0.116C163.055,117.172,162.962,117.134,162.868,117.095z"/>
	<path fill="none" d="M158.9,115.57c0.071,0.026,0.141,0.052,0.212,0.077C159.041,115.621,158.971,115.595,158.9,115.57z"/>
	<path fill="none" d="M160.139,116.027c0.103,0.039,0.206,0.077,0.309,0.116C160.345,116.104,160.242,116.065,160.139,116.027z"/>
	<path fill="none" d="M157.44,115.054c0.072,0.025,0.144,0.049,0.216,0.074C157.584,115.103,157.512,115.079,157.44,115.054z"/>
	<path fill="none" d="M165.565,118.246c0.02,0.009,0.04,0.018,0.061,0.027C165.606,118.264,165.586,118.255,165.565,118.246z"/>
	<path fill="none" d="M164.099,117.609c0.095,0.04,0.19,0.08,0.285,0.121C164.289,117.689,164.194,117.649,164.099,117.609z"/>
	<path fill="none" d="M161.581,116.58c0.026,0.01,0.053,0.02,0.079,0.031C161.634,116.6,161.607,116.59,161.581,116.58z"/>
	<path fill="none" d="M156.085,114.595c0.102,0.034,0.205,0.068,0.307,0.102C156.29,114.663,156.188,114.629,156.085,114.595z"/>
	<path fill="none" d="M22.608,165.229c-0.054-0.185-0.106-0.37-0.156-0.555C22.502,164.859,22.554,165.044,22.608,165.229z"/>
	<path fill="none" d="M106.495,106.926c0.081,0.001,0.161,0.001,0.242,0.001C106.656,106.927,106.576,106.927,106.495,106.926z"/>
	<path fill="none" d="M108.776,106.957c0.086,0.002,0.172,0.004,0.257,0.006C108.948,106.961,108.862,106.959,108.776,106.957z"/>
	<path fill="none" d="M105.443,106.5c0.099,0,0.198,0,0.297,0C105.641,106.5,105.542,106.5,105.443,106.5z"/>
	<path fill="none" d="M110.959,107.016c0.072,0.002,0.143,0.005,0.215,0.007C111.102,107.021,111.031,107.019,110.959,107.016z"/>
	<path fill="none" d="M104.459,106.927c0.089-0.001,0.179-0.001,0.269-0.001C104.639,106.926,104.549,106.926,104.459,106.927z"/>
	<path fill="none" d="M109.829,106.982c0.095,0.003,0.191,0.005,0.287,0.008C110.02,106.987,109.925,106.985,109.829,106.982z"/>
	<path fill="none" d="M98.447,107.101c0.087-0.005,0.173-0.009,0.26-0.014C98.62,107.092,98.534,107.096,98.447,107.101z"/>
	<path fill="none" d="M113.345,107.113c0.082,0.004,0.164,0.008,0.246,0.012C113.509,107.121,113.427,107.117,113.345,107.113z"/>
	<path fill="none" d="M102.311,106.958c0.085-0.002,0.17-0.004,0.256-0.006C102.481,106.954,102.396,106.956,102.311,106.958z"/>
	<path fill="none" d="M97.575,107.151c0.094-0.006,0.189-0.011,0.284-0.017C97.764,107.139,97.67,107.145,97.575,107.151z"/>
	<path fill="none" d="M99.564,107.137L99.564,107.137L99.564,107.137z"/>
	<path fill="none" d="M100.44,107.012c0.086-0.003,0.173-0.006,0.26-0.009C100.613,107.006,100.526,107.009,100.44,107.012z"/>
	<path fill="none" d="M101.345,106.982c0.099-0.003,0.198-0.006,0.298-0.008C101.543,106.977,101.444,106.98,101.345,106.982z"/>
	<path fill="none" d="M115.656,107.237c0.062,0.004,0.124,0.007,0.186,0.011C115.78,107.245,115.718,107.241,115.656,107.237z"/>
	<path fill="none" d="M128.145,108.42c0.08,0.01,0.16,0.021,0.239,0.031C128.305,108.441,128.225,108.431,128.145,108.42z"/>
	<path fill="none" d="M124.267,107.961c0.088,0.009,0.176,0.019,0.264,0.029C124.443,107.98,124.355,107.97,124.267,107.961z"/>
	<path fill="none" d="M129.367,108.583c0.089,0.012,0.177,0.024,0.266,0.036C129.544,108.607,129.456,108.595,129.367,108.583z"/>
	<path fill="none" d="M125.569,108.106c0.049,0.006,0.097,0.011,0.146,0.017C125.667,108.116,125.618,108.111,125.569,108.106z"/>
	<path fill="none" d="M114.458,107.169c0.091,0.005,0.181,0.01,0.272,0.015C114.639,107.179,114.549,107.174,114.458,107.169z"/>
	<path fill="none" d="M130.705,108.771c0.044,0.006,0.089,0.013,0.133,0.019C130.794,108.783,130.75,108.777,130.705,108.771z"/>
	<path fill="none" d="M123.071,107.836c0.078,0.008,0.156,0.016,0.234,0.024C123.227,107.852,123.149,107.843,123.071,107.836z"/>
	<path fill="none" d="M118.126,107.403c0.077,0.006,0.155,0.012,0.232,0.017C118.281,107.414,118.203,107.409,118.126,107.403z"/>
	<path fill="none" d="M96.753,107.204c0.082-0.006,0.165-0.011,0.248-0.016C96.918,107.193,96.835,107.198,96.753,107.204z"/>
	<path fill="none" d="M120.552,107.598c0.049,0.004,0.097,0.008,0.146,0.013C120.649,107.607,120.601,107.603,120.552,107.598z"/>
	<path fill="none" d="M119.283,107.492c0.089,0.007,0.178,0.014,0.267,0.022C119.461,107.506,119.372,107.499,119.283,107.492z"/>
	<path fill="none" d="M29.658,178.172c-0.105-0.127-0.209-0.255-0.312-0.383C29.449,177.917,29.554,178.045,29.658,178.172z"/>
	<path fill="none" d="M27.208,174.884c-0.091-0.136-0.182-0.272-0.272-0.409C27.026,174.611,27.117,174.748,27.208,174.884z"/>
	<path fill="none" d="M26.223,173.345c-0.145-0.239-0.287-0.48-0.426-0.721C25.936,172.865,26.078,173.106,26.223,173.345z"/>
	<path fill="none" d="M26.703,174.114c-0.095-0.149-0.188-0.299-0.281-0.448C26.514,173.815,26.607,173.965,26.703,174.114z"/>
	<path fill="none" d="M25.614,172.3c-0.087-0.154-0.173-0.308-0.257-0.463C25.441,171.992,25.527,172.146,25.614,172.3z"/>
	<path fill="none" d="M25.169,171.488c-0.082-0.154-0.162-0.309-0.241-0.464C25.007,171.179,25.087,171.334,25.169,171.488z"/>
	<path fill="none" d="M24.759,170.694c-0.108-0.217-0.214-0.435-0.318-0.654C24.545,170.258,24.651,170.476,24.759,170.694z"/>
	<path fill="none" d="M29.057,177.423c-0.101-0.128-0.2-0.257-0.299-0.385C28.857,177.167,28.956,177.295,29.057,177.423z"/>
	<path fill="none" d="M31.878,180.691c-0.104-0.11-0.206-0.22-0.308-0.33C31.672,180.471,31.774,180.581,31.878,180.691z"/>
	<path fill="none" d="M30.507,179.18L30.507,179.18c-0.189-0.218-0.376-0.437-0.56-0.657
		C30.131,178.743,30.318,178.962,30.507,179.18z"/>
	<path fill="none" d="M31.18,179.937c-0.089-0.098-0.176-0.197-0.264-0.295C31.004,179.74,31.091,179.839,31.18,179.937z"/>
	<path fill="none" d="M28.485,176.681c-0.125-0.166-0.247-0.333-0.368-0.499C28.238,176.348,28.36,176.515,28.485,176.681z"/>
	<path fill="none" d="M27.769,175.696c-0.107-0.151-0.213-0.302-0.318-0.454C27.555,175.394,27.662,175.545,27.769,175.696z"/>
	<path fill="none" d="M24.299,169.733c-0.092-0.199-0.182-0.397-0.269-0.597C24.117,169.335,24.208,169.534,24.299,169.733z"/>
	<path fill="none" d="M21.423,157.799c-0.009-0.29-0.014-0.581-0.014-0.872C21.408,157.218,21.414,157.509,21.423,157.799z"/>
	<path fill="none" d="M21.779,161.554c-0.034-0.215-0.066-0.431-0.096-0.646C21.713,161.124,21.744,161.339,21.779,161.554z"/>
	<path fill="none" d="M21.653,160.696c-0.037-0.284-0.07-0.568-0.098-0.853C21.584,160.128,21.616,160.412,21.653,160.696z"/>
	<path fill="none" d="M21.934,162.435c-0.037-0.195-0.073-0.39-0.106-0.586C21.861,162.045,21.897,162.24,21.934,162.435z"/>
	<path fill="none" d="M22.152,163.478c-0.058-0.253-0.112-0.508-0.163-0.762C22.04,162.971,22.094,163.225,22.152,163.478z"/>
	<path fill="none" d="M21.463,158.683c-0.012-0.205-0.022-0.411-0.03-0.617C21.441,158.272,21.451,158.478,21.463,158.683z"/>
	<path fill="none" d="M21.536,159.63c-0.02-0.219-0.039-0.437-0.054-0.657C21.497,159.192,21.516,159.411,21.536,159.63z"/>
	<path fill="none" d="M22.374,164.385c-0.07-0.268-0.137-0.537-0.2-0.807C22.237,163.848,22.304,164.117,22.374,164.385z"/>
	<path fill="none" d="M23.242,167.169c-0.096-0.264-0.188-0.528-0.277-0.794C23.054,166.641,23.146,166.905,23.242,167.169z"/>
	<path fill="none" d="M23.552,167.986c-0.073-0.186-0.144-0.372-0.214-0.559C23.408,167.614,23.479,167.8,23.552,167.986z"/>
	<path fill="none" d="M23.892,168.813c-0.071-0.167-0.141-0.334-0.209-0.501C23.751,168.48,23.821,168.647,23.892,168.813z"/>
	<path fill="none" d="M22.881,166.113c-0.062-0.19-0.122-0.381-0.18-0.572C22.758,165.732,22.819,165.923,22.881,166.113z"/>
	<g>
		<path fill="none" d="M195.745,155.321c-0.013-0.319-0.03-0.636-0.05-0.951c-0.007-0.104-0.012-0.209-0.02-0.313
			c-0.03-0.403-0.064-0.803-0.106-1.2c-0.008-0.073-0.017-0.145-0.025-0.217c-0.037-0.33-0.078-0.658-0.123-0.983
			c-0.016-0.116-0.033-0.232-0.05-0.347c-0.048-0.321-0.1-0.64-0.155-0.957c-0.013-0.073-0.024-0.147-0.038-0.22
			c-0.07-0.382-0.146-0.761-0.228-1.136c-0.021-0.096-0.043-0.19-0.065-0.286c-0.066-0.292-0.135-0.582-0.208-0.87
			c-0.027-0.107-0.054-0.214-0.082-0.321c-0.095-0.361-0.194-0.72-0.3-1.076c-0.002-0.008-0.005-0.017-0.007-0.025
			c-0.109-0.364-0.225-0.724-0.345-1.081c-0.034-0.102-0.069-0.203-0.104-0.304c-0.095-0.275-0.193-0.548-0.295-0.818
			c-0.034-0.091-0.067-0.183-0.102-0.273c-0.133-0.347-0.272-0.692-0.416-1.034c-0.025-0.059-0.051-0.117-0.077-0.176
			c-0.123-0.287-0.25-0.572-0.38-0.855c-0.046-0.1-0.092-0.199-0.139-0.298c-0.129-0.274-0.262-0.546-0.398-0.815
			c-0.033-0.065-0.064-0.131-0.098-0.196c-0.168-0.328-0.342-0.653-0.52-0.975c-0.044-0.08-0.09-0.159-0.135-0.239
			c-0.141-0.251-0.285-0.5-0.433-0.747c-0.055-0.092-0.109-0.184-0.165-0.275c-0.183-0.302-0.37-0.601-0.562-0.898
			c-0.009-0.014-0.018-0.029-0.027-0.043c-0.201-0.31-0.409-0.616-0.62-0.921c-0.06-0.086-0.12-0.171-0.18-0.257
			c-0.165-0.234-0.333-0.466-0.503-0.696c-0.058-0.078-0.114-0.156-0.172-0.233c-0.222-0.296-0.448-0.589-0.679-0.879
			c-0.037-0.046-0.075-0.091-0.112-0.137c-0.199-0.247-0.401-0.492-0.606-0.736c-0.07-0.084-0.141-0.167-0.213-0.25
			c-0.198-0.231-0.399-0.46-0.602-0.688c-0.05-0.056-0.099-0.113-0.15-0.168c-0.251-0.277-0.506-0.552-0.765-0.823
			c-0.063-0.066-0.126-0.13-0.189-0.196c-0.206-0.213-0.414-0.425-0.625-0.635c-0.077-0.076-0.153-0.152-0.23-0.228
			c-0.256-0.251-0.514-0.5-0.777-0.747c-0.016-0.015-0.031-0.03-0.047-0.045c-0.279-0.261-0.563-0.518-0.85-0.774
			c-0.079-0.07-0.159-0.14-0.238-0.21c-0.224-0.197-0.451-0.393-0.679-0.587c-0.076-0.064-0.151-0.129-0.227-0.193
			c-0.296-0.248-0.595-0.494-0.898-0.737c-0.042-0.033-0.084-0.066-0.126-0.1c-0.265-0.211-0.533-0.42-0.803-0.627
			c-0.089-0.068-0.178-0.136-0.267-0.203c-0.255-0.193-0.512-0.384-0.772-0.574c-0.063-0.046-0.125-0.093-0.189-0.139
			c-0.319-0.231-0.642-0.459-0.967-0.685c-0.073-0.051-0.147-0.101-0.221-0.151c-0.262-0.18-0.525-0.358-0.791-0.534
			c-0.092-0.061-0.185-0.123-0.277-0.184c-0.314-0.207-0.631-0.411-0.951-0.614c-0.021-0.013-0.041-0.026-0.062-0.039
			c-0.342-0.216-0.688-0.428-1.036-0.639c-0.091-0.055-0.182-0.109-0.273-0.164c-0.274-0.164-0.55-0.327-0.827-0.488
			c-0.088-0.051-0.176-0.103-0.264-0.153c-0.355-0.204-0.713-0.406-1.074-0.606c-0.038-0.021-0.077-0.042-0.116-0.063
			c-0.324-0.178-0.65-0.354-0.978-0.528c-0.1-0.053-0.2-0.106-0.301-0.159c-0.302-0.159-0.606-0.316-0.912-0.471
			c-0.07-0.036-0.14-0.072-0.21-0.108c-0.373-0.188-0.748-0.374-1.126-0.558c-0.077-0.037-0.154-0.074-0.232-0.111
			c-0.309-0.149-0.619-0.296-0.932-0.442c-0.1-0.047-0.201-0.094-0.301-0.14c-0.363-0.168-0.727-0.334-1.094-0.498
			c-0.02-0.009-0.04-0.018-0.061-0.027c-0.392-0.174-0.786-0.346-1.181-0.516c-0.095-0.041-0.19-0.081-0.285-0.121
			c-0.316-0.134-0.633-0.267-0.951-0.398c-0.093-0.038-0.187-0.077-0.28-0.116c-0.401-0.164-0.803-0.326-1.208-0.485
			c-0.026-0.01-0.053-0.02-0.079-0.031c-0.376-0.148-0.754-0.293-1.133-0.437c-0.103-0.039-0.206-0.078-0.309-0.116
			c-0.341-0.128-0.684-0.255-1.027-0.38c-0.071-0.026-0.141-0.052-0.212-0.077c-0.413-0.149-0.828-0.297-1.245-0.441
			c-0.072-0.025-0.144-0.049-0.216-0.074c-0.348-0.12-0.698-0.239-1.048-0.357c-0.102-0.034-0.204-0.068-0.307-0.102
			c-0.4-0.133-0.801-0.264-1.203-0.393c-0.015-0.005-0.03-0.01-0.046-0.015c-0.426-0.136-0.854-0.27-1.283-0.402
			c-0.092-0.028-0.184-0.056-0.276-0.084c-0.348-0.106-0.697-0.211-1.047-0.314c-0.092-0.027-0.184-0.055-0.276-0.082
			c-0.433-0.127-0.866-0.252-1.3-0.374c-0.005-0.001-0.01-0.003-0.015-0.004c-0.422-0.119-0.845-0.235-1.268-0.35
			c-0.098-0.027-0.196-0.053-0.294-0.079c-0.371-0.1-0.742-0.198-1.114-0.294c-0.065-0.017-0.13-0.034-0.195-0.051
			c-0.439-0.113-0.879-0.224-1.319-0.334c-0.061-0.015-0.123-0.03-0.184-0.045c-0.378-0.093-0.756-0.185-1.134-0.275
			c-0.097-0.023-0.194-0.046-0.292-0.069c-0.424-0.1-0.848-0.198-1.272-0.295c-0.009-0.002-0.017-0.004-0.026-0.006
			c-0.446-0.101-0.893-0.2-1.34-0.297c-0.082-0.018-0.164-0.035-0.245-0.053c-0.373-0.08-0.746-0.159-1.119-0.237
			c-0.083-0.017-0.165-0.035-0.248-0.052c-0.884-0.182-1.769-0.356-2.653-0.523c-0.091-0.017-0.181-0.034-0.272-0.051
			c-0.387-0.072-0.774-0.143-1.161-0.213c-0.055-0.01-0.11-0.02-0.166-0.03c-0.451-0.08-0.901-0.159-1.351-0.235
			c-0.042-0.007-0.083-0.014-0.125-0.021c-0.399-0.067-0.798-0.133-1.197-0.198c-0.087-0.014-0.173-0.028-0.26-0.042
			c-0.434-0.07-0.868-0.138-1.301-0.204c-0.422-0.064-0.843-0.127-1.263-0.188c-0.044-0.006-0.089-0.013-0.133-0.019
			c-0.358-0.052-0.716-0.102-1.073-0.151c-0.089-0.012-0.177-0.024-0.266-0.036c-0.328-0.045-0.655-0.089-0.982-0.131
			c-0.08-0.01-0.16-0.021-0.239-0.031c-0.814-0.105-1.624-0.205-2.43-0.298c-0.049-0.006-0.097-0.011-0.146-0.017
			c-0.347-0.04-0.693-0.079-1.038-0.116c-0.088-0.01-0.176-0.019-0.264-0.029c-0.321-0.035-0.641-0.068-0.961-0.101
			c-0.078-0.008-0.156-0.016-0.234-0.024c-0.796-0.081-1.588-0.155-2.373-0.225c-0.049-0.004-0.097-0.008-0.146-0.013
			c-0.335-0.029-0.669-0.057-1.002-0.085c-0.089-0.007-0.178-0.014-0.267-0.021c-0.309-0.025-0.618-0.049-0.925-0.072
			c-0.077-0.006-0.155-0.012-0.232-0.017c-0.768-0.057-1.529-0.108-2.283-0.155c-0.062-0.004-0.124-0.007-0.186-0.011
			c-0.31-0.019-0.619-0.037-0.926-0.054c-0.091-0.005-0.181-0.01-0.272-0.015c-0.29-0.016-0.579-0.031-0.867-0.045
			c-0.082-0.004-0.164-0.009-0.246-0.013c-0.732-0.035-1.456-0.066-2.171-0.091c-0.072-0.003-0.143-0.008-0.215-0.011
			c-0.282-0.009-0.563-0.026-0.843-0.034c-0.096-0.003-0.191-0.02-0.287-0.023c-0.266-0.007-5.281-0.026-5.37-0.026
			c-0.641,0.004-1.272,0.014-1.892,0.026c-0.086,0.002-0.171,0.005-0.256,0.007c-0.224,0.005-0.447,0.013-0.668,0.019
			c-0.1,0.003-0.199,0.011-0.298,0.014c-0.217,0.006-0.432,0.024-0.645,0.032c-0.087,0.003-0.174,0.028-0.26,0.031
			c-0.295,0.011-0.587,0.08-0.876,0.08h-0.001c-0.289,0-0.574-0.019-0.857-0.004c-0.087,0.004-0.174-0.036-0.26-0.031
			c-0.197,0.01-0.393,0.021-0.587,0.033c-0.095,0.006-0.19,0.011-0.284,0.017c-0.193,0.012-0.385,0.024-0.575,0.037
			c-0.083,0.006-0.166,0.011-0.248,0.016c-0.267,0.019-0.532,0.038-0.793,0.058c-48.008,3.712-74.552,22.061-74.552,49.666
			c0,0.291,0.006,0.582,0.014,0.872c0.003,0.089,0.007,0.178,0.01,0.268c0.008,0.206,0.018,0.411,0.03,0.617
			c0.006,0.097,0.012,0.193,0.019,0.29c0.015,0.219,0.034,0.438,0.054,0.657c0.007,0.071,0.012,0.142,0.019,0.213
			c0.029,0.285,0.061,0.569,0.098,0.853c0.009,0.071,0.02,0.141,0.03,0.212c0.03,0.216,0.061,0.431,0.096,0.646
			c0.016,0.098,0.032,0.197,0.049,0.295c0.033,0.196,0.069,0.391,0.106,0.586c0.018,0.094,0.035,0.187,0.054,0.281
			c0.051,0.255,0.106,0.509,0.163,0.762c0.008,0.033,0.015,0.066,0.022,0.1c0.063,0.27,0.13,0.539,0.2,0.807
			c0.025,0.096,0.052,0.192,0.078,0.288c0.05,0.185,0.102,0.371,0.156,0.555c0.03,0.104,0.061,0.208,0.092,0.312
			c0.058,0.191,0.118,0.382,0.18,0.572c0.028,0.087,0.055,0.175,0.085,0.262c0.089,0.265,0.181,0.53,0.277,0.794
			c0.031,0.086,0.065,0.172,0.097,0.258c0.07,0.187,0.14,0.373,0.214,0.559c0.043,0.109,0.087,0.218,0.131,0.326
			c0.068,0.167,0.138,0.334,0.209,0.501c0.046,0.108,0.091,0.215,0.138,0.322c0.087,0.2,0.178,0.398,0.269,0.597
			c0.047,0.102,0.094,0.205,0.143,0.307c0.103,0.219,0.209,0.437,0.318,0.654c0.055,0.11,0.112,0.22,0.168,0.33
			c0.079,0.155,0.16,0.31,0.241,0.464c0.062,0.117,0.124,0.233,0.187,0.349c0.084,0.155,0.17,0.309,0.257,0.463
			c0.061,0.108,0.121,0.217,0.183,0.325c0.139,0.241,0.281,0.481,0.426,0.721c0.065,0.107,0.132,0.214,0.199,0.32
			c0.093,0.15,0.186,0.299,0.281,0.448c0.077,0.121,0.155,0.241,0.234,0.361c0.089,0.137,0.18,0.273,0.271,0.409
			c0.08,0.12,0.161,0.239,0.243,0.359c0.104,0.152,0.211,0.303,0.318,0.454c0.115,0.162,0.231,0.324,0.348,0.485
			c0.122,0.167,0.244,0.334,0.368,0.499c0.09,0.12,0.182,0.238,0.273,0.357c0.099,0.129,0.198,0.257,0.299,0.385
			c0.096,0.122,0.192,0.244,0.29,0.366c0.103,0.128,0.207,0.256,0.312,0.383c0.096,0.117,0.191,0.234,0.289,0.351
			c0.184,0.22,0.371,0.439,0.56,0.657l0,0c0.134,0.155,0.272,0.308,0.409,0.462c0.088,0.099,0.175,0.197,0.263,0.295
			c0.128,0.142,0.259,0.282,0.39,0.423c0.102,0.11,0.204,0.221,0.308,0.33c0.126,0.133,0.253,0.265,0.381,0.398
			c0.114,0.118,0.228,0.235,0.343,0.352c0.123,0.125,0.247,0.25,0.372,0.375c0.126,0.125,0.252,0.25,0.38,0.374
			c0.119,0.116,0.238,0.232,0.359,0.348c0.142,0.136,0.285,0.271,0.429,0.406c0.111,0.104,0.221,0.208,0.333,0.312
			c0.168,0.155,0.338,0.309,0.509,0.463c0.092,0.083,0.183,0.167,0.277,0.25c0.267,0.237,0.536,0.473,0.809,0.707
			c3.782,3.645,8.426,6.901,13.736,9.731c24.351,12.979,62.661,17.007,95.566,8.579c19.768-5.063,33.99-13.703,41.23-23.713
			c5.873-6.725,9.179-14.314,9.179-22.346c0-0.421-0.009-0.838-0.022-1.252C195.754,155.556,195.749,155.439,195.745,155.321z"/>
		<path fill="#F2F2F2" d="M206.788,161.345c0-33.147-24.032-49.174-53.444-56.667c-17.953-4.574-37.911-5.889-55.632-5.806
			c-43.31,0.203-88.979,22.592-88.979,62.229c0,0.863,0.029,2.399,0.076,2.399H8.763c0,0,5.188,111.174,83.897,120.755
			c1.562,0.007,1.562,0.245,2.299,0.245h33.023c0,0,77.304-12,78.805-121h-0.051C206.767,163.5,206.788,162.144,206.788,161.345z"/>
	</g>
	<path fill="#FFCC99" d="M195.758,155.675c-0.004-0.119-0.009-0.236-0.014-0.354c-0.013-0.319-0.03-0.636-0.05-0.951
		c-0.007-0.104-0.012-0.209-0.02-0.313c-0.03-0.403-0.064-0.803-0.106-1.2c-0.008-0.073-0.017-0.145-0.025-0.217
		c-0.037-0.33-0.078-0.658-0.123-0.983c-0.016-0.116-0.033-0.232-0.05-0.347c-0.048-0.321-0.1-0.64-0.155-0.957
		c-0.013-0.073-0.024-0.147-0.038-0.22c-0.07-0.382-0.146-0.761-0.228-1.136c-0.021-0.096-0.043-0.19-0.065-0.286
		c-0.066-0.292-0.135-0.582-0.208-0.87c-0.027-0.107-0.054-0.214-0.082-0.321c-0.095-0.361-0.194-0.72-0.3-1.076
		c-0.002-0.008-0.005-0.017-0.007-0.025c-0.109-0.364-0.225-0.724-0.345-1.081c-0.034-0.102-0.069-0.203-0.104-0.304
		c-0.095-0.275-0.193-0.548-0.295-0.818c-0.034-0.091-0.067-0.183-0.102-0.273c-0.133-0.347-0.272-0.692-0.416-1.034
		c-0.025-0.059-0.051-0.117-0.077-0.176c-0.123-0.287-0.25-0.572-0.38-0.855c-0.046-0.1-0.092-0.199-0.139-0.298
		c-0.129-0.274-0.262-0.546-0.398-0.815c-0.033-0.065-0.064-0.131-0.098-0.196c-0.168-0.328-0.342-0.653-0.52-0.975
		c-0.044-0.08-0.09-0.159-0.135-0.239c-0.141-0.251-0.285-0.5-0.433-0.747c-0.055-0.092-0.109-0.184-0.165-0.275
		c-0.183-0.302-0.37-0.601-0.562-0.898c-0.009-0.014-0.018-0.029-0.027-0.043c-0.201-0.31-0.409-0.616-0.62-0.921
		c-0.06-0.086-0.12-0.171-0.18-0.257c-0.165-0.234-0.333-0.466-0.503-0.696c-0.058-0.078-0.114-0.156-0.172-0.233
		c-0.222-0.296-0.448-0.589-0.679-0.879c-0.037-0.046-0.075-0.091-0.112-0.137c-0.199-0.247-0.401-0.492-0.606-0.736
		c-0.07-0.084-0.141-0.167-0.213-0.25c-0.198-0.231-0.399-0.46-0.602-0.688c-0.05-0.056-0.099-0.113-0.15-0.168
		c-0.251-0.277-0.506-0.552-0.765-0.823c-0.063-0.066-0.126-0.13-0.189-0.196c-0.206-0.213-0.414-0.425-0.625-0.635
		c-0.077-0.076-0.153-0.152-0.23-0.228c-0.256-0.251-0.514-0.5-0.777-0.747c-0.016-0.015-0.031-0.03-0.047-0.045
		c-0.279-0.261-0.563-0.518-0.85-0.774c-0.079-0.07-0.159-0.14-0.238-0.21c-0.224-0.197-0.451-0.393-0.679-0.587
		c-0.076-0.064-0.151-0.129-0.227-0.193c-0.296-0.248-0.595-0.494-0.898-0.737c-0.042-0.033-0.084-0.066-0.126-0.1
		c-0.265-0.211-0.533-0.42-0.803-0.627c-0.089-0.068-0.178-0.136-0.267-0.203c-0.255-0.193-0.512-0.384-0.772-0.574
		c-0.063-0.046-0.125-0.093-0.189-0.139c-0.319-0.231-0.642-0.459-0.967-0.685c-0.073-0.051-0.147-0.101-0.221-0.151
		c-0.262-0.18-0.525-0.358-0.791-0.534c-0.092-0.061-0.185-0.123-0.277-0.184c-0.314-0.207-0.631-0.411-0.951-0.614
		c-0.021-0.013-0.041-0.026-0.062-0.039c-0.342-0.216-0.688-0.428-1.036-0.639c-0.091-0.055-0.182-0.109-0.273-0.164
		c-0.274-0.164-0.55-0.327-0.827-0.488c-0.088-0.051-0.176-0.103-0.264-0.153c-0.355-0.204-0.713-0.406-1.074-0.606
		c-0.038-0.021-0.077-0.042-0.116-0.063c-0.324-0.178-0.65-0.354-0.978-0.528c-0.1-0.053-0.2-0.106-0.301-0.159
		c-0.302-0.159-0.606-0.316-0.912-0.471c-0.07-0.036-0.14-0.072-0.21-0.108c-0.373-0.188-0.748-0.374-1.126-0.558
		c-0.077-0.037-0.154-0.074-0.232-0.111c-0.309-0.149-0.619-0.296-0.932-0.442c-0.1-0.047-0.201-0.094-0.301-0.14
		c-0.363-0.168-0.727-0.334-1.094-0.498c-0.02-0.009-0.04-0.018-0.061-0.027c-0.392-0.174-0.786-0.346-1.181-0.516
		c-0.095-0.041-0.19-0.081-0.285-0.121c-0.316-0.134-0.633-0.267-0.951-0.398c-0.093-0.038-0.187-0.077-0.28-0.116
		c-0.401-0.164-0.803-0.326-1.208-0.485c-0.026-0.01-0.053-0.02-0.079-0.031c-0.376-0.148-0.754-0.293-1.133-0.437
		c-0.103-0.039-0.206-0.078-0.309-0.116c-0.341-0.128-0.684-0.255-1.027-0.38c-0.071-0.026-0.141-0.052-0.212-0.077
		c-0.413-0.149-0.828-0.297-1.245-0.441c-0.072-0.025-0.144-0.049-0.216-0.074c-0.348-0.12-0.698-0.239-1.048-0.357
		c-0.102-0.034-0.205-0.068-0.307-0.102c-0.4-0.133-0.801-0.264-1.203-0.393c-0.015-0.005-0.03-0.01-0.046-0.015
		c-0.426-0.136-0.854-0.27-1.283-0.402c-0.092-0.028-0.184-0.056-0.276-0.084c-0.348-0.106-0.697-0.211-1.047-0.314
		c-0.092-0.027-0.184-0.055-0.276-0.082c-0.433-0.127-0.866-0.252-1.3-0.374c-0.005-0.001-0.01-0.003-0.015-0.004
		c-0.422-0.119-0.845-0.235-1.268-0.35c-0.098-0.027-0.196-0.053-0.294-0.079c-0.371-0.1-0.742-0.198-1.114-0.294
		c-0.065-0.017-0.13-0.034-0.195-0.051c-0.439-0.113-0.879-0.224-1.319-0.334c-0.061-0.015-0.123-0.03-0.184-0.045
		c-0.378-0.093-0.756-0.185-1.134-0.275c-0.097-0.023-0.194-0.046-0.292-0.069c-0.424-0.1-0.848-0.198-1.272-0.295
		c-0.009-0.002-0.017-0.004-0.026-0.006c-0.446-0.101-0.893-0.2-1.34-0.297c-0.082-0.018-0.164-0.035-0.245-0.053
		c-0.373-0.08-0.746-0.159-1.119-0.237c-0.083-0.017-0.165-0.035-0.248-0.052c-0.884-0.182-1.769-0.356-2.653-0.523
		c-0.091-0.017-0.181-0.034-0.272-0.051c-0.387-0.072-0.774-0.143-1.161-0.213c-0.055-0.01-0.11-0.02-0.166-0.03
		c-0.451-0.08-0.901-0.159-1.351-0.235c-0.042-0.007-0.083-0.014-0.125-0.021c-0.399-0.067-0.798-0.133-1.197-0.198
		c-0.087-0.014-0.173-0.028-0.26-0.042c-0.434-0.07-0.868-0.138-1.301-0.204c-0.422-0.064-0.843-0.127-1.263-0.188
		c-0.044-0.006-0.089-0.013-0.133-0.019c-0.358-0.052-0.716-0.102-1.073-0.151c-0.089-0.012-0.177-0.024-0.266-0.036
		c-0.328-0.045-0.655-0.089-0.982-0.131c-0.08-0.01-0.16-0.021-0.239-0.031c-0.814-0.105-1.624-0.205-2.43-0.298
		c-0.049-0.006-0.097-0.011-0.146-0.017c-0.347-0.04-0.693-0.079-1.038-0.116c-0.088-0.01-0.176-0.019-0.264-0.029
		c-0.321-0.035-0.641-0.068-0.961-0.101c-0.078-0.008-0.156-0.016-0.234-0.024c-0.796-0.081-1.588-0.155-2.373-0.225
		c-0.049-0.004-0.097-0.008-0.146-0.013c-0.335-0.029-0.669-0.057-1.002-0.085c-0.089-0.007-0.178-0.014-0.267-0.022
		c-0.309-0.025-0.618-0.049-0.925-0.072c-0.077-0.006-0.155-0.012-0.232-0.018c-0.768-0.057-1.529-0.108-2.283-0.154
		c-0.062-0.004-0.124-0.007-0.186-0.011c-0.31-0.019-0.619-0.037-0.926-0.053c-0.091-0.005-0.181-0.01-0.272-0.015
		c-0.29-0.016-0.579-0.03-0.867-0.044c-0.082-0.004-0.164-0.008-0.246-0.012c-0.732-0.035-1.456-0.064-2.171-0.089
		c-0.072-0.003-0.143-0.005-0.215-0.007c-0.282-0.009-0.563-0.018-0.843-0.026c-0.096-0.003-0.191-0.005-0.287-0.008
		c-0.266-0.007-0.532-0.014-0.795-0.019c-0.086-0.002-0.172-0.004-0.257-0.006c-0.689-0.014-1.369-0.024-2.04-0.029
		c-0.081-0.001-3.55-0.106-4.17-0.094c-0.086,0.002-0.171,0.063-0.256,0.065c-0.224,0.005-0.447,0.04-0.668,0.046
		c-0.1,0.003-0.199,0.02-0.298,0.023c-0.217,0.006-0.432,0.021-0.645,0.028c-0.087,0.003-0.191,0.054-0.277,0.058
		c-0.295,0.011-0.894,0.082-0.894,0.082v0.001c0,0-0.557-0.018-0.839-0.004c-0.087,0.004-0.165-0.013-0.251-0.008
		c-0.197,0.01-0.389,0.01-0.583,0.021c-0.095,0.006-0.188,0.006-0.282,0.011c-0.193,0.012-0.383,0.021-0.574,0.034
		c-0.082,0.006-0.165,0.009-0.247,0.015c-0.267,0.019-0.532,0.037-0.792,0.057c-48.008,3.712-74.552,22.061-74.552,49.665
		c0,0.291,0.006,0.582,0.014,0.872c0.003,0.089,0.007,0.178,0.01,0.268c0.008,0.206,0.018,0.411,0.03,0.617
		c0.006,0.097,0.012,0.193,0.019,0.29c0.015,0.219,0.034,0.438,0.054,0.657c0.007,0.071,0.012,0.142,0.019,0.213
		c0.029,0.285,0.061,0.569,0.098,0.853c0.009,0.071,0.02,0.141,0.03,0.212c0.03,0.216,0.061,0.431,0.096,0.646
		c0.016,0.098,0.032,0.197,0.049,0.295c0.033,0.196,0.069,0.391,0.106,0.586c0.018,0.094,0.035,0.187,0.054,0.281
		c0.051,0.255,0.106,0.509,0.163,0.762c0.008,0.033,0.015,0.066,0.022,0.1c0.063,0.27,0.13,0.539,0.2,0.807
		c0.025,0.096,0.052,0.192,0.078,0.288c0.05,0.185,0.102,0.371,0.156,0.555c0.03,0.104,0.061,0.208,0.092,0.312
		c0.058,0.191,0.118,0.382,0.18,0.572c0.028,0.087,0.055,0.175,0.085,0.262c0.089,0.265,0.181,0.53,0.277,0.794
		c0.031,0.086,0.065,0.172,0.097,0.258c0.07,0.187,0.14,0.373,0.214,0.559c0.043,0.109,0.087,0.218,0.131,0.326
		c0.068,0.167,0.138,0.334,0.209,0.501c0.046,0.108,0.091,0.215,0.138,0.322c0.087,0.2,0.178,0.398,0.269,0.597
		c0.047,0.102,0.094,0.205,0.143,0.307c0.103,0.219,0.209,0.437,0.318,0.654c0.055,0.11,0.112,0.22,0.168,0.33
		c0.079,0.155,0.16,0.31,0.241,0.464c0.062,0.117,0.124,0.233,0.187,0.349c0.084,0.155,0.17,0.309,0.257,0.463
		c0.061,0.108,0.121,0.217,0.183,0.325c0.139,0.241,0.281,0.481,0.426,0.721c0.065,0.107,0.132,0.214,0.199,0.32
		c0.093,0.15,0.186,0.299,0.281,0.448c0.077,0.121,0.155,0.241,0.234,0.361c0.089,0.137,0.18,0.273,0.271,0.409
		c0.08,0.12,0.161,0.239,0.243,0.359c0.104,0.152,0.211,0.303,0.318,0.454c0.115,0.162,0.231,0.324,0.348,0.485
		c0.122,0.167,0.244,0.334,0.368,0.499c0.09,0.12,0.182,0.238,0.273,0.357c0.099,0.129,0.198,0.257,0.299,0.385
		c0.096,0.122,0.192,0.244,0.29,0.366c0.103,0.128,0.207,0.256,0.312,0.383c0.096,0.117,0.191,0.234,0.289,0.351
		c0.184,0.22,0.371,0.439,0.56,0.657c0.134,0.155,0.272,0.308,0.409,0.462c0.088,0.098,0.175,0.197,0.263,0.295
		c0.128,0.142,0.259,0.282,0.39,0.423c0.102,0.11,0.204,0.221,0.308,0.33c0.126,0.133,0.253,0.265,0.381,0.398
		c0.114,0.118,0.228,0.235,0.343,0.352c0.123,0.125,0.247,0.25,0.372,0.375c0.126,0.125,0.252,0.25,0.38,0.374
		c0.119,0.116,0.238,0.232,0.359,0.348c0.142,0.136,0.285,0.271,0.429,0.406c0.111,0.104,0.221,0.208,0.333,0.312
		c0.168,0.155,0.338,0.309,0.509,0.463c0.092,0.083,0.183,0.167,0.277,0.25c0.267,0.237,0.536,0.473,0.809,0.707
		c3.782,3.645,8.426,6.901,13.736,9.731c24.351,12.979,62.661,17.007,95.566,8.579c19.768-5.063,33.99-13.703,41.23-23.713
		c5.873-6.725,9.179-14.314,9.179-22.346C195.78,156.506,195.771,156.089,195.758,155.675z"/>
	<path fill="#F2F2F2" d="M237.638,168.866c-8.004-2.808-17.064-3.847-17.064-3.847l-0.007,0.032c-3.426-0.434-6.479,1.74-7.22,5.025
		l-0.883,3.916c1.24,1.846,3.28,3.802,6.583,5.625c9.846,5.433,23.594,30.962-0.516,38.019c-5.072,2.109-10.178,1.664-10.178,1.664
		s29.279,7.034,38.661-16.056C256.526,179.826,245.642,171.674,237.638,168.866z"/>
	<path fill="#E6E6E6" d="M219.046,179.618c-3.302-1.822-5.343-3.778-6.583-5.625l-2.13,9.447c-0.741,3.285,1.084,6.559,4.365,7.637
		l-0.007,0.032c0,0,0.075,0.066,0.29,0.107c0.101,0.028,0.153,0.109,0.256,0.132l1.477,0.333c4.282,0.965,13.229,4.719,11.338,14.2
		c-1.328,6.66-5.414,10.045-9.522,11.754C242.64,210.58,228.892,185.051,219.046,179.618z"/>
	<path fill="#CC9966" d="M47.599,160.171c10.615-15.759,35.953-30.613,71.473-39.711c-15.403-0.999-31.515,0.253-46.505,4.092
		c-41.231,10.561-58.359,36.68-38.255,58.339c0.562,0.605,1.149,1.2,1.756,1.785c3.782,3.645,8.426,6.901,13.736,9.731
		C43.606,187.728,42.247,170.694,47.599,160.171z"/>
	<path fill="#42210B" d="M195.78,156.927c0-0.421-0.009-0.838-0.022-1.252c-0.004-0.119-0.009-0.236-0.014-0.354
		c-0.013-0.319-0.03-0.636-0.05-0.951c-0.007-0.104-0.012-0.209-0.02-0.313c-0.03-0.403-0.064-0.803-0.106-1.2
		c-0.008-0.073-0.017-0.145-0.025-0.217c-0.037-0.33-0.078-0.658-0.123-0.983c-0.016-0.116-0.033-0.232-0.05-0.347
		c-0.048-0.321-0.1-0.64-0.155-0.957c-0.013-0.073-0.024-0.147-0.038-0.22c-0.07-0.382-0.146-0.761-0.228-1.136
		c-0.021-0.096-0.043-0.19-0.065-0.286c-0.066-0.292-0.135-0.582-0.208-0.87c-0.027-0.107-0.054-0.214-0.082-0.321
		c-0.095-0.361-0.194-0.72-0.3-1.076c-0.002-0.008-0.005-0.017-0.007-0.025c-0.109-0.364-0.225-0.724-0.345-1.081
		c-0.034-0.102-0.069-0.203-0.104-0.304c-0.095-0.275-0.193-0.548-0.295-0.818c-0.034-0.091-0.067-0.183-0.102-0.273
		c-0.133-0.347-0.272-0.692-0.416-1.034c-0.025-0.059-0.051-0.117-0.077-0.176c-0.123-0.287-0.25-0.572-0.38-0.855
		c-0.046-0.1-0.092-0.199-0.139-0.298c-0.129-0.274-0.262-0.546-0.398-0.815c-0.033-0.065-0.064-0.131-0.098-0.196
		c-0.168-0.328-0.342-0.653-0.52-0.975c-0.044-0.08-0.09-0.159-0.135-0.239c-0.141-0.251-0.285-0.5-0.433-0.747
		c-0.055-0.092-0.109-0.184-0.165-0.275c-0.183-0.302-0.37-0.601-0.562-0.898c-0.009-0.014-0.018-0.029-0.027-0.043
		c-0.201-0.31-0.409-0.616-0.62-0.921c-0.06-0.086-0.12-0.171-0.18-0.257c-0.165-0.234-0.333-0.466-0.503-0.696
		c-0.058-0.078-0.114-0.156-0.172-0.233c-0.222-0.296-0.448-0.589-0.679-0.879c-0.037-0.046-0.075-0.091-0.112-0.137
		c-0.199-0.247-0.401-0.492-0.606-0.736c-0.07-0.084-0.141-0.167-0.213-0.25c-0.198-0.231-0.399-0.46-0.602-0.688
		c-0.05-0.056-0.099-0.113-0.15-0.168c-0.251-0.277-0.506-0.552-0.765-0.823c-0.063-0.066-0.126-0.13-0.189-0.196
		c-0.206-0.213-0.414-0.425-0.625-0.635c-0.077-0.076-0.153-0.152-0.23-0.228c-0.256-0.251-0.514-0.5-0.777-0.747
		c-0.016-0.015-0.031-0.03-0.047-0.045c-0.279-0.261-0.563-0.518-0.85-0.774c-0.079-0.07-0.159-0.14-0.238-0.21
		c-0.224-0.197-0.451-0.393-0.679-0.587c-0.076-0.064-0.151-0.129-0.227-0.193c-0.296-0.248-0.595-0.494-0.898-0.737
		c-0.042-0.033-0.084-0.066-0.126-0.1c-0.265-0.211-0.533-0.42-0.803-0.627c-0.089-0.068-0.178-0.136-0.267-0.203
		c-0.255-0.193-0.512-0.384-0.772-0.574c-0.063-0.046-0.125-0.093-0.189-0.139c-0.319-0.231-0.642-0.459-0.967-0.685
		c-0.073-0.051-0.147-0.101-0.221-0.151c-0.262-0.18-0.525-0.358-0.791-0.534c-0.092-0.061-0.185-0.123-0.277-0.184
		c-0.314-0.207-0.631-0.411-0.951-0.614c-0.021-0.013-0.041-0.026-0.062-0.039c-0.342-0.216-0.688-0.428-1.036-0.639
		c-0.091-0.055-0.182-0.109-0.273-0.164c-0.274-0.164-0.55-0.327-0.827-0.488c-0.088-0.051-0.176-0.103-0.264-0.153
		c-0.355-0.204-0.713-0.406-1.074-0.606c-0.038-0.021-0.077-0.042-0.116-0.063c-0.324-0.178-0.65-0.354-0.978-0.528
		c-0.1-0.053-0.2-0.106-0.301-0.159c-0.302-0.159-0.606-0.316-0.912-0.471c-0.07-0.036-0.14-0.072-0.21-0.108
		c-0.373-0.188-0.748-0.374-1.126-0.558c-0.077-0.037-0.154-0.074-0.232-0.111c-0.309-0.149-0.619-0.296-0.932-0.442
		c-0.1-0.047-0.201-0.094-0.301-0.14c-0.363-0.168-0.727-0.334-1.094-0.498c-0.02-0.009-0.04-0.018-0.061-0.027
		c-0.392-0.174-0.786-0.346-1.181-0.516c-0.095-0.041-0.19-0.081-0.285-0.121c-0.316-0.134-0.633-0.267-0.951-0.398
		c-0.093-0.038-0.187-0.077-0.28-0.116c-0.401-0.164-0.803-0.326-1.208-0.485c-0.026-0.01-0.053-0.02-0.079-0.031
		c-0.376-0.148-0.754-0.293-1.133-0.437c-0.103-0.039-0.206-0.078-0.309-0.116c-0.341-0.128-0.684-0.255-1.027-0.38
		c-0.071-0.026-0.141-0.052-0.212-0.077c-0.413-0.149-0.828-0.297-1.245-0.441c-0.072-0.025-0.144-0.049-0.216-0.074
		c-0.348-0.12-0.698-0.239-1.048-0.357c-0.102-0.034-0.205-0.068-0.307-0.102c-0.4-0.133-0.801-0.264-1.203-0.393
		c-0.015-0.005-0.03-0.01-0.046-0.015c-0.426-0.136-0.854-0.27-1.283-0.402c-0.092-0.028-0.184-0.056-0.276-0.084
		c-0.348-0.106-0.697-0.211-1.047-0.314c-0.092-0.027-0.184-0.055-0.276-0.082c-0.433-0.127-0.866-0.252-1.3-0.374
		c-0.005-0.001-0.01-0.003-0.015-0.004c-0.422-0.119-0.845-0.235-1.268-0.35c-0.098-0.027-0.196-0.053-0.294-0.079
		c-0.371-0.1-0.742-0.198-1.114-0.294c-0.065-0.017-0.13-0.034-0.195-0.051c-0.439-0.113-0.879-0.224-1.319-0.334
		c-0.061-0.015-0.123-0.03-0.184-0.045c-0.378-0.093-0.756-0.185-1.134-0.275c-0.097-0.023-0.194-0.046-0.292-0.069
		c-0.424-0.1-0.848-0.198-1.272-0.295c-0.009-0.002-0.017-0.004-0.026-0.006c-0.446-0.101-0.893-0.2-1.34-0.297
		c-0.082-0.018-0.164-0.035-0.245-0.053c-0.373-0.08-0.746-0.159-1.119-0.237c-0.083-0.017-0.165-0.035-0.248-0.052
		c-0.884-0.182-1.769-0.356-2.653-0.523c-0.091-0.017-0.181-0.034-0.272-0.051c-0.387-0.072-0.774-0.143-1.161-0.213
		c-0.055-0.01-0.11-0.02-0.166-0.03c-0.451-0.08-0.901-0.159-1.351-0.235c-0.042-0.007-0.083-0.014-0.125-0.021
		c-0.399-0.067-0.798-0.133-1.197-0.198c-0.087-0.014-0.173-0.028-0.26-0.042c-0.434-0.07-0.868-0.138-1.301-0.204
		c-0.422-0.064-0.843-0.127-1.263-0.188c-0.044-0.006-0.089-0.013-0.133-0.019c-0.358-0.052-0.716-0.102-1.073-0.151
		c-0.089-0.012-0.177-0.024-0.266-0.036c-0.328-0.045-0.655-0.089-0.982-0.131c-0.08-0.01-0.16-0.021-0.239-0.031
		c-0.814-0.105-1.624-0.205-2.43-0.298c-0.049-0.006-0.097-0.011-0.146-0.017c-0.347-0.04-0.693-0.079-1.038-0.116
		c-0.088-0.01-0.176-0.019-0.264-0.029c-0.321-0.035-0.641-0.068-0.961-0.101c-0.078-0.008-0.156-0.016-0.234-0.024
		c-0.796-0.081-1.588-0.155-2.373-0.225c-0.049-0.004-0.097-0.008-0.146-0.013c-0.335-0.029-0.669-0.057-1.002-0.085
		c-0.089-0.007-0.178-0.014-0.267-0.022c-0.309-0.025-0.618-0.049-0.925-0.072c-0.077-0.006-0.155-0.012-0.232-0.018
		c-0.768-0.057-1.529-0.108-2.283-0.154c-0.062-0.004-0.124-0.007-0.186-0.011c-0.31-0.019-0.619-0.037-0.926-0.053
		c-0.091-0.005-0.181-0.01-0.272-0.015c-0.29-0.016-0.579-0.03-0.867-0.044c-0.082-0.004-0.164-0.008-0.246-0.012
		c-0.732-0.035-1.456-0.064-2.171-0.089c-0.072-0.003-0.143-0.005-0.215-0.007c-0.282-0.009-0.563-0.018-0.843-0.026
		c-0.096-0.003-0.191-0.005-0.287-0.008c-0.266-0.007-0.532-0.014-0.795-0.019c-0.086-0.002-0.172-0.004-0.257-0.006
		c-0.689-0.014-1.369-0.024-2.04-0.029c-0.081-0.001-3.55-0.106-4.17-0.094c-0.086,0.002-0.171,0.063-0.256,0.065
		c-0.224,0.005-0.447,0.04-0.668,0.046c-0.1,0.003-0.199,0.02-0.298,0.023c-0.217,0.006-0.432,0.021-0.645,0.028
		c-0.087,0.003-0.191,0.054-0.277,0.058c-0.295,0.011-0.894,0.082-0.894,0.082v0.001c0,0-0.557-0.018-0.839-0.004
		c-0.087,0.004-0.165-0.013-0.251-0.008c-0.197,0.01-0.389,0.01-0.583,0.021c-0.095,0.006-0.188,0.006-0.282,0.011
		c-0.193,0.012-0.383,0.021-0.574,0.034c-0.082,0.006-0.165,0.009-0.247,0.015c-0.267,0.019-0.532,0.037-0.792,0.057
		c-48.008,3.712-74.552,22.061-74.552,49.665c0,0.291,0.006,0.582,0.014,0.872c0.003,0.089,0.007,0.178,0.01,0.268
		c0.008,0.206,0.018,0.411,0.03,0.617c0.006,0.097,0.012,0.193,0.019,0.29c0.015,0.219,0.034,0.438,0.054,0.657
		c0.007,0.071,0.012,0.142,0.019,0.213c0.029,0.285,0.061,0.569,0.098,0.853c0.009,0.071,0.02,0.141,0.03,0.212
		c0.03,0.216,0.061,0.431,0.096,0.646c0.016,0.098,0.032,0.197,0.049,0.295c0.033,0.196,0.069,0.391,0.106,0.586
		c0.018,0.094,0.035,0.187,0.054,0.281c0.051,0.255,0.106,0.509,0.163,0.762c0.008,0.033,0.015,0.066,0.022,0.1
		c0.063,0.27,0.13,0.539,0.2,0.807c0.025,0.096,0.052,0.192,0.078,0.288c0.05,0.185,0.102,0.371,0.156,0.555
		c0.03,0.104,0.061,0.208,0.092,0.312c0.058,0.191,0.118,0.382,0.18,0.572c0.028,0.087,0.055,0.175,0.085,0.262
		c0.089,0.265,0.181,0.53,0.277,0.794c0.031,0.086,0.065,0.172,0.097,0.258c0.07,0.187,0.14,0.373,0.214,0.559
		c0.043,0.109,0.087,0.218,0.131,0.326c0.068,0.167,0.138,0.334,0.209,0.501c0.046,0.108,0.091,0.215,0.138,0.322
		c0.087,0.2,0.178,0.398,0.269,0.597c0.047,0.102,0.094,0.205,0.143,0.307c0.103,0.219,0.209,0.437,0.318,0.654
		c0.055,0.11,0.112,0.22,0.168,0.33c0.079,0.155,0.16,0.31,0.241,0.464c0.062,0.117,0.124,0.233,0.187,0.349
		c0.084,0.155,0.17,0.309,0.257,0.463c0.061,0.108,0.121,0.217,0.183,0.325c0.139,0.241,0.281,0.481,0.426,0.721
		c0.065,0.107,0.132,0.214,0.199,0.32c0.093,0.15,0.186,0.299,0.281,0.448c0.077,0.121,0.155,0.241,0.234,0.361
		c0.089,0.137,0.18,0.273,0.271,0.409c0.08,0.12,0.161,0.239,0.243,0.359c0.104,0.152,0.211,0.303,0.318,0.454
		c0.115,0.162,0.231,0.324,0.348,0.485c0.122,0.167,0.244,0.334,0.368,0.499c0.09,0.12,0.182,0.238,0.273,0.357
		c0.099,0.129,0.198,0.257,0.299,0.385c0.096,0.122,0.192,0.244,0.29,0.366c0.103,0.128,0.207,0.256,0.312,0.383
		c0.096,0.117,0.191,0.234,0.289,0.351c0.184,0.22,0.371,0.439,0.56,0.657c0.134,0.155,0.272,0.308,0.409,0.462
		c0.088,0.098,0.175,0.197,0.263,0.295c0.128,0.142,0.259,0.282,0.39,0.423c0.102,0.11,0.204,0.221,0.308,0.33
		c0.126,0.133,0.253,0.265,0.381,0.398c0.114,0.118,0.228,0.235,0.343,0.352c0.123,0.125,0.247,0.25,0.372,0.375
		c0.126,0.125,0.252,0.25,0.38,0.374c0.119,0.116,0.238,0.232,0.359,0.348c0.142,0.136,0.285,0.271,0.429,0.406
		c0.111,0.104,0.221,0.208,0.333,0.312c0.168,0.155,0.338,0.309,0.509,0.463c0.092,0.083,0.183,0.167,0.277,0.25
		c0.267,0.237,0.536,0.473,0.809,0.707c-0.607-0.585-1.195-1.18-1.756-1.785c-20.104-21.659-2.977-47.778,38.255-58.339
		c14.99-3.839,31.101-5.091,46.505-4.092c26.965,1.749,51.758,10.403,64.553,24.187c10.465,11.275,10.837,23.758,2.976,34.626
		C192.474,172.548,195.78,164.959,195.78,156.927z"/>
	<path fill="#663300" d="M85.835,169.222l0.11-0.045c0,0-0.039-0.03-0.113-0.087c-0.07-0.059-0.199-0.132-0.317-0.251
		c-0.269-0.22-0.603-0.571-0.876-1.051c-0.267-0.48-0.441-1.096-0.426-1.776c0.037-0.678,0.267-1.417,0.733-2.085
		c0.454-0.67,1.125-1.262,1.847-1.673c0.359-0.207,0.722-0.379,1.081-0.501c0.35-0.137,0.702-0.214,1.021-0.29
		c0.653-0.122,1.237-0.171,1.692-0.164c0.055-0.002,0.107-0.004,0.156-0.005c0.052,0.002,0.101,0.005,0.146,0.007
		c0.09,0.003,0.167,0.005,0.23,0.007c0.125,0.002,0.192,0.003,0.192,0.003l0.015-0.073c0.147-0.722,0.017-1.433-0.705-2.074
		c-0.358-0.309-0.864-0.61-1.531-0.837c-0.166-0.058-0.345-0.12-0.531-0.168c-0.185-0.047-0.381-0.092-0.587-0.134
		c-0.205-0.04-0.423-0.084-0.646-0.113c-0.222-0.027-0.453-0.051-0.694-0.072c-0.966-0.083-2.045-0.049-3.173,0.095
		c-1.119,0.151-2.255,0.426-3.326,0.809c-1.049,0.389-2.023,0.882-2.846,1.453c-0.816,0.572-1.471,1.221-1.949,1.913
		c-0.483,0.691-0.736,1.395-0.816,2.074c-0.089,0.679,0.021,1.338,0.275,1.948c0.237,0.609,0.671,1.171,1.163,1.661
		c0.528,0.49,1.132,0.909,1.819,1.241c1.366,0.667,2.912,0.977,4.321,0.958C83.515,169.981,84.744,169.666,85.835,169.222z"/>
	<path fill="#663300" d="M116.161,155.225l0.11-0.045c0,0-0.039-0.03-0.113-0.087c-0.07-0.059-0.199-0.132-0.317-0.251
		c-0.269-0.22-0.603-0.571-0.876-1.051c-0.267-0.48-0.441-1.096-0.426-1.776c0.037-0.678,0.267-1.417,0.733-2.085
		c0.454-0.67,1.125-1.262,1.847-1.673c0.359-0.207,0.722-0.379,1.081-0.501c0.35-0.137,0.702-0.214,1.021-0.29
		c0.653-0.122,1.237-0.171,1.692-0.164c0.055-0.002,0.107-0.004,0.156-0.005c0.052,0.002,0.101,0.004,0.146,0.007
		c0.09,0.003,0.167,0.005,0.23,0.007c0.125,0.002,0.192,0.003,0.192,0.003l0.015-0.073c0.147-0.722,0.017-1.433-0.705-2.074
		c-0.358-0.309-0.864-0.61-1.531-0.837c-0.166-0.058-0.345-0.12-0.531-0.168c-0.185-0.047-0.381-0.092-0.587-0.134
		c-0.205-0.04-0.423-0.084-0.646-0.113c-0.222-0.027-0.453-0.051-0.694-0.072c-0.966-0.083-2.045-0.049-3.173,0.095
		c-1.119,0.151-2.255,0.426-3.326,0.809c-1.049,0.389-2.023,0.882-2.846,1.453c-0.816,0.572-1.471,1.221-1.949,1.913
		c-0.483,0.691-0.736,1.395-0.816,2.075c-0.089,0.679,0.021,1.338,0.275,1.948c0.237,0.609,0.671,1.171,1.163,1.661
		c0.528,0.49,1.132,0.909,1.819,1.241c1.366,0.667,2.912,0.977,4.321,0.958C113.84,155.984,115.07,155.67,116.161,155.225z"/>
	<path fill="#663300" d="M129.17,175.485c0.723-0.486,1.474-0.983,2.156-1.512c0.711-0.522,1.357-1.074,2.01-1.636
		c0.307-0.286,0.617-0.573,0.928-0.863c0.306-0.29,0.56-0.569,0.84-0.858c0.272-0.292,0.547-0.563,0.816-0.837
		c0.134-0.137,0.267-0.274,0.4-0.41c0.133-0.145,0.266-0.289,0.398-0.433c0.533-0.573,1.01-1.15,1.466-1.719
		c0.898-1.141,1.618-2.273,2.186-3.363c1.099-2.19,1.528-4.233,1.234-5.922c-0.041-0.211-0.086-0.416-0.134-0.615
		c-0.048-0.198-0.096-0.39-0.181-0.577c-0.077-0.186-0.156-0.366-0.238-0.538c-0.086-0.172-0.157-0.338-0.274-0.497
		c-0.216-0.317-0.44-0.604-0.67-0.863c-0.259-0.257-0.536-0.482-0.805-0.678c-0.136-0.098-0.271-0.189-0.407-0.272
		c-0.143-0.082-0.299-0.155-0.446-0.222c-0.298-0.133-0.592-0.236-0.881-0.31c-0.578-0.149-1.137-0.182-1.677-0.11l-0.107,0.016
		c0,0,0.035,0.114,0.101,0.327c0.061,0.214,0.195,0.52,0.232,0.935c0.149,0.815,0.166,2.026-0.303,3.523
		c-0.463,1.495-1.354,3.265-2.727,5.141c-0.668,0.939-1.477,1.902-2.337,2.874c-0.222,0.242-0.445,0.486-0.668,0.73
		c-0.233,0.243-0.467,0.487-0.702,0.731c-0.456,0.483-1.044,1.023-1.503,1.517l-0.719,0.75c-0.244,0.236-0.488,0.471-0.732,0.706
		c-0.235,0.237-0.509,0.464-0.762,0.694c-0.259,0.229-0.508,0.461-0.787,0.682c-0.271,0.224-0.541,0.447-0.81,0.669
		c-0.284,0.217-0.566,0.433-0.846,0.648c-0.142,0.107-0.277,0.215-0.422,0.32c-0.147,0.104-0.294,0.208-0.44,0.311
		c-0.294,0.206-0.575,0.414-0.873,0.613c-2.378,1.597-4.88,2.974-7.215,4.034c-2.332,1.062-4.435,1.842-5.961,2.334
		c-0.375,0.129-0.713,0.242-1.018,0.329c-0.301,0.091-0.557,0.169-0.764,0.232c-0.415,0.126-0.636,0.194-0.636,0.194l0.047,0.048
		c0.251,0.236,0.694,0.405,1.331,0.506c0.318,0.05,0.685,0.083,1.1,0.099c0.415,0.016,0.879,0.016,1.372-0.016
		c0.497-0.029,1.04-0.076,1.626-0.141c0.585-0.066,1.189-0.169,1.846-0.282c0.661-0.11,1.332-0.259,2.041-0.426
		c0.353-0.084,0.724-0.169,1.087-0.267c0.362-0.099,0.731-0.204,1.109-0.313c1.517-0.433,3.079-0.989,4.685-1.638
		c1.577-0.661,3.206-1.414,4.743-2.284C127.672,176.425,128.403,175.958,129.17,175.485z"/>
</g>
<g>
	<g>
		<path fill="#FFFFFF" d="M81.757,72.205c-19.801-15.092-3.243-37.156,12.5-47.41c1.614-1.051,0.112-3.65-1.514-2.59
			c-9.211,5.999-17.344,14.131-21.604,24.397c-4.581,11.041,0.065,21.304,9.104,28.193C81.782,75.969,83.274,73.361,81.757,72.205
			L81.757,72.205z"/>
	</g>
</g>
<path fill="#F2F2F2" d="M-64.5,26c0-4.142-55.293-7.5-123.5-7.5s-123.5,3.358-123.5,7.5c0,0.168,0.1,0.335,0.28,0.5H-64.78
	C-64.6,26.335-64.5,26.168-64.5,26z"/>
<g>
	<g>
		<g>
			<path fill="#F2F2F2" d="M78.37,81.435c1.797,0.98,6.906-4.665,12.065-15.58c2.528-5.464,5.159-12.192,6.635-20.295
				c0.676-4.062,1.147-8.485,0.321-13.409c-0.456-2.444-1.252-5.081-2.981-7.528c-1.681-2.447-4.411-4.473-7.283-5.352
				c-2.869-0.921-5.652-1-8.172-0.769c-2.577,0.243-4.768,0.767-7.022,1.351c-4.506,1.253-8.716,3.258-12.199,6.161
				c-1.739,1.452-3.225,3.203-4.409,5.086c-1.126,1.942-1.883,4.038-2.174,6.117c-0.115,0.511-0.079,1.034-0.117,1.54
				c-0.005,0.507-0.068,1.012-0.011,1.5c0.054,0.486,0.107,0.967,0.159,1.443l0.086,0.704c0.042,0.231,0.11,0.457,0.164,0.683
				c0.409,1.817,1.053,3.454,1.92,4.877c0.866,1.425,1.894,2.696,3.113,3.614c1.217,0.915,2.518,1.485,3.741,1.8
				c2.482,0.552,4.558,0.249,6.176-0.159c3.236-0.88,4.826-2.21,4.707-3.195c-0.02-0.167-0.089-0.327-0.195-0.483
				c0,0-0.469,0.048-1.349,0.139c-0.856,0.054-2.147,0.179-3.622,0.109c-0.739-0.03-1.515-0.115-2.297-0.259
				c-0.75-0.179-1.517-0.397-2.17-0.758c-0.65-0.37-1.24-0.839-1.794-1.502c-0.542-0.676-1.022-1.618-1.44-2.699
				c-0.74-2.163-0.942-4.751-0.215-7.08c0.802-2.311,2.591-4.572,5.276-6.337c0.625-0.478,1.388-0.836,2.088-1.265
				c0.769-0.348,1.501-0.763,2.322-1.059c1.591-0.68,3.298-1.167,5.064-1.588c0.905-0.193,1.814-0.381,2.724-0.543
				c0.887-0.148,1.738-0.242,2.587-0.303c1.676-0.086,3.268,0.049,4.564,0.476c1.295,0.438,2.296,1.092,3.088,2.102
				c0.806,0.99,1.404,2.361,1.796,3.913c0.769,3.142,0.721,6.818,0.362,10.34c-0.77,7.112-2.691,13.847-4.517,19.491
				c-1.86,5.658-3.737,10.288-5.116,13.467c-1.383,3.188-2.262,4.901-2.262,4.901C78.093,81.24,78.219,81.36,78.37,81.435z"/>
		</g>
	</g>
</g>
<g>
	<g>
		<g>
			<path fill="#F2F2F2" d="M141.37,82.435c1.797,0.98,6.906-4.665,12.065-15.58c2.528-5.464,5.159-12.192,6.635-20.295
				c0.676-4.062,1.147-8.485,0.321-13.409c-0.456-2.444-1.252-5.081-2.981-7.528c-1.681-2.447-4.411-4.473-7.283-5.352
				c-2.869-0.921-5.652-1-8.172-0.769c-2.577,0.243-4.768,0.767-7.022,1.351c-4.506,1.253-8.716,3.258-12.199,6.161
				c-1.739,1.452-3.225,3.203-4.409,5.086c-1.126,1.942-1.883,4.038-2.174,6.117c-0.115,0.511-0.079,1.034-0.117,1.54
				c-0.005,0.507-0.068,1.012-0.011,1.5c0.054,0.486,0.107,0.967,0.159,1.443l0.086,0.704c0.042,0.231,0.11,0.457,0.164,0.683
				c0.409,1.817,1.053,3.454,1.92,4.877c0.866,1.425,1.894,2.696,3.113,3.614c1.217,0.915,2.518,1.485,3.741,1.8
				c2.482,0.552,4.558,0.249,6.176-0.159c3.236-0.88,4.826-2.21,4.707-3.195c-0.02-0.167-0.089-0.327-0.195-0.483
				c0,0-0.469,0.048-1.349,0.139c-0.856,0.054-2.147,0.179-3.622,0.109c-0.739-0.03-1.515-0.115-2.297-0.259
				c-0.75-0.179-1.517-0.397-2.17-0.758c-0.65-0.37-1.24-0.839-1.794-1.502c-0.542-0.676-1.022-1.618-1.44-2.699
				c-0.74-2.163-0.942-4.751-0.215-7.08c0.802-2.311,2.591-4.572,5.276-6.337c0.625-0.478,1.388-0.836,2.088-1.265
				c0.769-0.348,1.501-0.763,2.322-1.059c1.591-0.68,3.298-1.167,5.064-1.588c0.905-0.193,1.814-0.381,2.724-0.543
				c0.887-0.148,1.738-0.242,2.587-0.303c1.676-0.086,3.268,0.049,4.564,0.476c1.295,0.438,2.296,1.092,3.088,2.102
				c0.806,0.99,1.404,2.361,1.796,3.913c0.769,3.142,0.721,6.818,0.362,10.34c-0.77,7.112-2.691,13.847-4.517,19.491
				c-1.86,5.658-3.737,10.288-5.116,13.467c-1.383,3.188-2.262,4.901-2.262,4.901C141.093,82.24,141.219,82.36,141.37,82.435z"/>
		</g>
	</g>
</g>
</svg>
