<?xml version="1.0" encoding="utf-8"?>
<!-- Generator: Adobe Illustrator 17.0.0, SVG Export Plug-In . SVG Version: 6.00 Build 0)  -->
<!DOCTYPE svg PUBLIC "-//W3C//DTD SVG 1.1//EN" "http://www.w3.org/Graphics/SVG/1.1/DTD/svg11.dtd">
<svg version="1.1" id="Layer_1" xmlns="http://www.w3.org/2000/svg" xmlns:xlink="http://www.w3.org/1999/xlink" x="0px" y="0px"
	 width="518px" height="517.333px" viewBox="0 0 518 517.333" enable-background="new 0 0 518 517.333" xml:space="preserve">
<g>
	<polygon fill="#009245" points="459.799,370.594 470.97,364.308 469.272,351.604 479.811,344.312 476.94,331.823 486.757,323.582 
		482.738,311.415 491.744,302.297 486.612,290.551 494.741,280.637 488.547,269.411 495.736,258.79 488.547,248.169 
		494.741,236.942 486.612,227.03 491.744,215.284 482.738,206.167 486.757,194 476.942,185.759 479.813,173.27 469.274,165.978 
		470.972,153.276 459.802,146.992 460.316,134.184 448.612,128.958 447.945,116.157 435.809,112.029 433.967,99.342 421.504,96.345 
		418.507,83.88 405.819,82.038 401.691,69.901 388.889,69.234 383.662,57.529 370.855,58.044 364.571,46.873 351.867,48.571 
		344.576,38.032 332.085,40.902 323.846,31.087 311.676,35.106 302.56,26.099 290.815,31.23 280.901,23.103 269.673,29.296 
		259.053,22.107 248.432,29.296 237.204,23.103 227.293,31.23 215.547,26.099 206.431,35.106 194.262,31.086 186.023,40.901 
		173.533,38.031 166.242,48.57 153.539,46.872 147.254,58.041 134.448,57.526 129.221,69.231 116.42,69.898 112.292,82.034 
		99.605,83.876 96.608,96.34 84.143,99.337 82.301,112.024 70.165,116.152 69.497,128.953 57.792,134.18 58.307,146.987 
		47.137,153.272 48.834,165.976 38.295,173.268 41.165,185.757 31.351,193.997 35.369,206.166 26.362,215.284 31.493,227.029 
		23.366,236.943 29.559,248.17 22.37,258.79 29.559,269.411 23.367,280.638 31.493,290.551 26.362,302.296 35.369,311.414 
		31.35,323.58 41.164,331.82 38.295,344.31 48.833,351.601 47.135,364.304 58.306,370.588 57.79,383.396 69.494,388.622 
		70.161,401.424 82.297,405.551 84.139,418.238 96.604,421.235 99.6,433.7 112.288,435.541 116.415,447.679 129.217,448.346 
		134.443,460.05 147.251,459.536 153.535,470.708 166.239,469.009 173.531,479.548 186.021,476.679 194.26,486.493 206.43,482.475 
		215.547,491.481 227.292,486.351 237.206,494.477 248.432,488.284 259.053,495.473 269.674,488.284 280.902,494.477 
		290.813,486.351 302.56,491.481 311.675,482.475 323.844,486.493 332.083,476.68 344.572,479.549 351.866,469.011 364.568,470.709 
		370.852,459.538 383.659,460.054 388.885,448.35 401.686,447.682 405.814,435.545 418.502,433.705 421.499,421.24 433.964,418.243 
		435.804,405.556 447.941,401.428 448.609,388.627 460.314,383.4 	"/>
	<linearGradient id="SVGID_1_" gradientUnits="userSpaceOnUse" x1="534.4963" y1="447.8816" x2="195.4001" y2="261.6045">
		<stop  offset="0" style="stop-color:#009245;stop-opacity:0"/>
		<stop  offset="1" style="stop-color:#006837"/>
	</linearGradient>
	<path fill="url(#SVGID_1_)" d="M393.615,214.194L220.082,317.573l-101.143,36.973l210.72,137.108c0,0,53.712-6.352,111.066-75.686
		s54.408-133.499,54.408-133.499L393.615,214.194z"/>
	<g>
		<path fill="#FFFFFF" d="M334.046,118.359l-0.024,0.037c0.079,0.156,0.162,0.309,0.226,0.483L334.046,118.359z"/>
		<path fill="#FFFFFF" d="M392.828,212.969l-16.23-8.774c-0.752-0.381-1.696-1.195-2.539-1.195H327.77h-0.272L327,202.693v-47.335
			l6.514-13.192c0.373-0.746,0.486-1.569,0.486-2.403v-19.699c0-0.512-0.011-0.999-0.114-1.465l0.135-0.203
			c-0.86-1.695-2.61-2.396-4.732-2.396h-28.852c-2.11,0-4.025,0.581-4.894,2.503c-0.318,0.702-31.9,69.867-42.455,90.197
			C244.3,225.624,217.999,230,214.89,230h-34.239c-1.446,0-2.831,0.831-3.842,1.865c-1.01,1.034-1.562,2.955-1.53,4.4L177.33,328
			l0.338,14.897c0.066,2.918,2.451,5.103,5.371,5.103h69.863l26.036,19.096c0.925,0.683,2.044,0.904,3.193,0.904h87.949
			c1.77,0,3.426-0.974,4.428-2.434l20.323-29.302c0.615-0.894,1.17-2.007,1.17-3.094V300.73v-82.967
			C396,215.738,394.635,213.884,392.828,212.969z"/>
	</g>
	<path fill="#E6E6E6" d="M288.1,344l-28.056-16H177.33l0.338,14.897c0.066,2.918,2.451,5.103,5.371,5.103h69.863l26.036,19.096
		c0.925,0.683,2.044,0.904,3.193,0.904h87.949c1.77,0,3.426-0.974,4.428-2.434l20.323-29.302c0.615-0.894,1.17-2.007,1.17-3.094
		V300.73L368.388,344H288.1z"/>
	<path fill="#0071BC" d="M174.711,220h-55.772c-5.237,0-10.939,3.946-10.939,8.341V337v0.946v4.547
		c0,4.23,5.702,11.507,10.939,11.507h55.772c5.237,0,8.289-7.277,8.289-11.507v-15.88v-0.518v-97.754
		C183,223.946,179.948,220,174.711,220z"/>
	<path fill="#006837" d="M502.519,270.047l7.621-11.256l-7.621-11.257l6.568-11.905l-8.621-10.514l5.444-12.462l-9.558-9.675
		l4.265-12.914l-10.416-8.745l3.046-13.256l-11.184-7.739l1.801-13.48l-11.851-6.668l0.545-13.587l-12.415-5.544l-0.707-13.578
		l-12.872-4.378l-1.953-13.455l-13.218-3.178l-3.178-13.219l-13.455-1.952l-4.377-12.873l-13.579-0.708l-5.544-12.415l-13.588,0.546
		l-6.668-11.853l-13.48,1.801l-7.738-11.184l-13.257,3.046l-8.745-10.417l-12.915,4.265l-9.675-9.558l-12.462,5.444l-10.515-8.62
		l-11.906,6.566l-11.256-7.62l-11.257,7.62l-11.906-6.567l-10.514,8.621l-12.462-5.444l-9.675,9.558l-12.914-4.265l-8.746,10.417
		l-13.255-3.046l-7.739,11.184l-13.479-1.802l-6.669,11.852l-13.587-0.546L121.308,57.7l-13.578,0.708l-4.378,12.872l-13.455,1.952
		l-3.178,13.219L73.5,89.629l-1.952,13.455l-12.872,4.378l-0.708,13.578l-12.416,5.545l0.546,13.588l-11.853,6.668l1.801,13.48
		l-11.184,7.738l3.046,13.257l-10.417,8.746l4.265,12.914l-9.559,9.675l5.444,12.462l-8.621,10.516l6.567,11.905L7.968,258.79
		l7.619,11.256l-6.567,11.906l8.621,10.514l-5.444,12.462l9.558,9.674l-4.265,12.914l10.416,8.746l-3.045,13.256l11.184,7.738
		l-1.802,13.479l11.852,6.668l-0.547,13.586l12.416,5.545l0.708,13.577l12.872,4.379l1.952,13.454l13.219,3.178l3.178,13.219
		l13.455,1.953l4.378,12.871l13.578,0.709l5.545,12.415l13.587-0.545l6.669,11.852l13.48-1.801l7.74,11.184l13.255-3.046
		l8.746,10.417l12.915-4.265l9.675,9.559l12.462-5.445l10.515,8.62l11.904-6.565l11.257,7.62l11.257-7.62l11.906,6.565l10.514-8.619
		l12.462,5.444l9.674-9.559l12.914,4.265l8.745-10.416l13.256,3.046l7.738-11.184l13.48,1.801l6.668-11.851l13.587,0.546
		l5.543-12.415l13.579-0.709l4.377-12.871l13.455-1.952l3.178-13.219l13.219-3.178l1.952-13.454l12.874-4.379l0.707-13.577
		l12.416-5.544l-0.545-13.587l11.851-6.669l-1.801-13.479l11.185-7.74l-3.046-13.256l10.417-8.746l-4.265-12.915l9.558-9.676
		l-5.444-12.461l8.62-10.516L502.519,270.047z M447.941,401.428l-12.137,4.128l-1.84,12.687l-12.465,2.997l-2.997,12.465
		l-12.688,1.84l-4.128,12.137l-12.801,0.667l-5.226,11.704l-12.807-0.516l-6.284,11.171l-12.702-1.698l-7.293,10.538l-12.489-2.869
		l-8.239,9.813l-12.169-4.018l-9.115,9.007l-11.747-5.131l-9.911,8.126l-11.228-6.193l-10.621,7.189l-10.621-7.189l-11.227,6.193
		l-9.914-8.126l-11.744,5.131l-9.117-9.007l-12.169,4.018l-8.24-9.814l-12.49,2.869l-7.292-10.538l-12.704,1.698l-6.284-11.172
		l-12.808,0.515l-5.227-11.704l-12.801-0.667l-4.128-12.137L99.6,433.7l-2.997-12.465l-12.465-2.997l-1.841-12.687l-12.136-4.128
		l-0.667-12.801l-11.704-5.226l0.515-12.808l-11.171-6.284l1.698-12.704l-10.538-7.291l2.869-12.489l-9.814-8.24l4.019-12.167
		l-9.007-9.117l5.131-11.746l-8.127-9.912l6.193-11.228l-7.189-10.62l7.189-10.62l-6.193-11.227l8.127-9.914l-5.131-11.745
		l9.007-9.117l-4.018-12.169l9.814-8.24l-2.87-12.489l10.539-7.292l-1.698-12.704l11.171-6.285l-0.515-12.807l11.704-5.227
		l0.669-12.801l12.136-4.128l1.841-12.687l12.465-2.997l2.997-12.465l12.687-1.841l4.128-12.136l12.801-0.667l5.227-11.704
		l12.807,0.515l6.285-11.17l12.702,1.698l7.292-10.539l12.49,2.87l8.239-9.814l12.168,4.019l9.117-9.007l11.746,5.131l9.912-8.127
		l11.228,6.193l10.621-7.189l10.62,7.189l11.228-6.193l9.914,8.127l11.745-5.131l9.116,9.007l12.17-4.019l8.239,9.815l12.49-2.87
		l7.291,10.539l12.705-1.698l6.284,11.17l12.807-0.514l5.227,11.705l12.801,0.667l4.128,12.137l12.688,1.841l2.997,12.465
		l12.464,2.997l1.841,12.687l12.136,4.128l0.667,12.801l11.704,5.226l-0.515,12.808l11.171,6.284l-1.698,12.703l10.538,7.292
		l-2.871,12.489l9.815,8.24l-4.018,12.168l9.006,9.117l-5.132,11.746l8.129,9.912l-6.194,11.227l7.19,10.621l-7.19,10.62
		l6.194,11.227l-8.129,9.913l5.132,11.746l-9.006,9.118l4.018,12.168l-9.816,8.24l2.871,12.489l-10.539,7.292l1.698,12.703
		l-11.171,6.286l0.515,12.806l-11.705,5.227L447.941,401.428z"/>
	<path fill="#E6E6E6" d="M314,193.681L327.498,202H327v-47.642l6.514-13.192c0.373-0.746,0.486-1.569,0.486-2.403v-19.699
		c0-0.6-0.006-1.166-0.17-1.704L314,147.418V193.681z"/>
	<path fill="#2E3192" d="M108,337v0.946v4.547c0,4.23,5.702,11.507,10.939,11.507h55.772c5.237,0,8.289-7.277,8.289-11.507v-15.88
		v-0.518L168.93,337H108z"/>
</g>
<g>
	<g>
		<g>
			<path fill="#FFFFFF" d="M134.677,70.834c-11.356,10.833-19.388,23.15-22.854,33.14c-1.77,4.977-2.417,9.316-2.249,12.445
				c0.046,0.786,0.115,1.49,0.245,2.121c0.145,0.635,0.323,1.189,0.531,1.661c0.417,0.944,0.959,1.559,1.619,1.849
				c0,0,0.117-0.381,0.337-1.096c0.212-0.716,0.523-1.766,1.034-3.087c0.968-2.646,2.601-6.402,5.102-10.722
				c4.903-8.686,13.492-19.4,23.397-28.864c9.875-9.502,20.906-17.831,29.587-23.221c4.33-2.721,8.05-4.742,10.673-6.061
				c1.311-0.668,2.349-1.155,3.059-1.475c0.708-0.328,1.086-0.504,1.086-0.504c-0.771-1.196-2.857-1.82-6.012-1.599
				c-3.152,0.204-7.372,1.218-12.232,3.15C158.281,52.408,146.007,59.951,134.677,70.834z"/>
		</g>
	</g>
</g>
</svg>
