<?xml version="1.0" encoding="utf-8"?>
<!-- Generator: Adobe Illustrator 17.0.0, SVG Export Plug-In . SVG Version: 6.00 Build 0)  -->
<!DOCTYPE svg PUBLIC "-//W3C//DTD SVG 1.1//EN" "http://www.w3.org/Graphics/SVG/1.1/DTD/svg11.dtd">
<svg version="1.1" xmlns="http://www.w3.org/2000/svg" xmlns:xlink="http://www.w3.org/1999/xlink" x="0px" y="0px" width="520px"
	 height="527px" viewBox="0 0 520 527" enable-background="new 0 0 520 527" xml:space="preserve">
<g id="Layer_2" display="none">
	<rect x="-0.5" y="0.5" display="inline" fill="#FF9900" stroke="#000000" stroke-miterlimit="10" width="520" height="527"/>
</g>
<g id="Layer_1">
	<g>
		<path fill="none" d="M176.795,112.382c-7.699,2.431-13.924,5.965-18.684,10.827c-4.762,5.066-7.943,11.396-9.562,18.993
			c-1.724,8.003-2.563,20.413-2.563,37.226c0,9.421-0.263,18.081-0.87,25.982c-0.812,8.205-3.412,15.346-7.971,21.424
			c-4.762,6.382-13.146,9.624-24.146,9.724v36.466c9,0.508,16.193,2.589,20.955,6.235c4.76,3.647,7.786,8.971,9.408,15.96
			c1.721,7.395,2.583,19.005,2.583,34.807c0,20.968,1.57,35.731,4.71,44.239c3.039,8.711,9.065,15.342,18.081,19.801
			c9.014,4.558,22.284,6.933,39.809,6.933H216v-36.657c-9,0-15.527-0.456-19.071-1.368c-3.647-0.911-6.258-2.787-8.284-5.622
			c-2.127-2.837-3.187-7.851-3.187-15.043c0-33.123-2.375-54.749-7.135-64.88c-4.862-10.028-11.941-17.573-21.259-22.64
			c11.547-7.393,19.22-16.409,22.968-27.046c3.747-10.534,5.672-30.742,5.672-60.625c0-9.216,1.924-15.194,5.57-17.929
			c3.545-2.735,11.727-4.103,25.727-4.103V109h-8.454C195.275,109,184.697,110.053,176.795,112.382z"/>
		<path fill="none" d="M330.192,397.258c7.901-2.331,14.178-6.074,18.838-11.036c4.558-4.762,7.692-11.042,9.415-18.841
			c1.619-7.498,2.421-19.957,2.421-37.378c0-16.106,0.891-27.703,2.715-34.795c1.823-7.089,5.023-12.46,9.683-16.106
			c4.658-3.647,11.735-5.672,20.735-6.078v-36.466c-9-0.404-16.127-2.474-20.887-6.223c-4.862-3.746-8.023-9.109-9.643-16.099
			c-1.724-7.191-2.583-18.775-2.583-34.781c0-23.601-1.622-38.767-4.863-45.555c-3.343-6.785-8.661-12.605-15.953-17.569
			c-7.396-4.962-21.325-7.332-41.785-7.332H290v36.088c13,0,21.74,1.268,25.488,3.799c3.746,2.533,5.735,8.611,5.735,18.233
			c0,27.452,1.666,47.053,5.008,58.802c3.24,11.752,11.079,21.374,23.539,28.869c-11.346,6.484-18.967,15.449-22.815,26.894
			c-3.749,11.244-5.671,31.452-5.671,60.625c0,9.015-2.071,14.941-6.022,17.778c-3.851,2.835-12.264,4.255-25.264,4.255V401h8.438
			C311.909,401,322.493,399.689,330.192,397.258z"/>
		<path fill="#333333" d="M485.158,178.264c7.945,24.071,12.259,49.794,12.259,76.528c0,134.757-109.243,244-244,244
			c-45.847,0-88.734-12.655-125.377-34.647c40.479,33.75,92.553,54.064,149.377,54.064c128.912,0,233.417-104.504,233.417-233.417
			C510.833,246.414,501.569,210.201,485.158,178.264z"/>
		<path fill="#FFFFFF" d="M497.417,254.791c0-26.733-4.314-52.456-12.259-76.528C453.055,80.996,361.441,10.791,253.417,10.791
			c-134.758,0-244,109.242-244,244c0,88.911,47.562,166.704,118.623,209.353c36.643,21.992,79.53,34.647,125.377,34.647
			C388.174,498.791,497.417,389.549,497.417,254.791z M290,364.343c13,0,21.412-1.42,25.264-4.255
			c3.951-2.837,6.022-8.763,6.022-17.778c0-29.173,1.922-49.381,5.671-60.625c3.848-11.446,11.47-20.411,22.815-26.894
			c-12.46-7.495-20.299-17.117-23.539-28.869c-3.343-11.75-5.008-31.35-5.008-58.802c0-9.622-1.989-15.7-5.735-18.233
			c-3.749-2.531-12.488-3.799-25.488-3.799V109h8.287c20.46,0,34.389,2.37,41.785,7.332c7.293,4.964,12.611,10.784,15.953,17.569
			c3.241,6.787,4.863,21.953,4.863,45.555c0,16.006,0.86,27.59,2.583,34.781c1.619,6.989,4.781,12.353,9.643,16.099
			c4.76,3.749,11.887,5.819,20.887,6.223v36.466c-9,0.406-16.077,2.431-20.735,6.078c-4.66,3.646-7.86,9.017-9.683,16.106
			c-1.823,7.092-2.715,18.689-2.715,34.795c0,17.421-0.802,29.88-2.421,37.378c-1.724,7.799-4.857,14.079-9.415,18.841
			c-4.66,4.962-10.937,8.705-18.838,11.036c-7.699,2.431-18.283,3.742-31.754,3.742H290V364.343z M217,145.088
			c-14,0-22.182,1.367-25.727,4.103c-3.647,2.735-5.57,8.713-5.57,17.929c0,29.883-1.925,50.091-5.672,60.625
			c-3.749,10.636-11.421,19.653-22.968,27.046c9.318,5.067,16.397,12.611,21.259,22.64c4.76,10.131,7.135,31.756,7.135,64.88
			c0,7.192,1.06,12.206,3.187,15.043c2.025,2.835,4.637,4.71,8.284,5.622c3.544,0.912,10.071,1.368,19.071,1.368V401h-7.454
			c-17.526,0-30.795-2.375-39.809-6.933c-9.017-4.458-15.042-11.09-18.081-19.801c-3.141-8.508-4.71-23.271-4.71-44.239
			c0-15.802-0.862-27.412-2.583-34.807c-1.622-6.989-4.647-12.313-9.408-15.96c-4.762-3.646-11.955-5.728-20.955-6.235v-36.466
			c11-0.1,19.383-3.343,24.146-9.724c4.558-6.078,7.159-13.219,7.971-21.424c0.607-7.901,0.87-16.562,0.87-25.982
			c0-16.813,0.839-29.223,2.563-37.226c1.619-7.597,4.8-13.927,9.562-18.993c4.76-4.862,10.984-8.396,18.684-10.827
			c7.901-2.329,18.48-3.382,31.751-3.382H217V145.088z"/>
	</g>
	<g>
		<g>
			<g>
				<path fill="#FFFFFF" d="M159.137,131.102c-1.597,2.055-2.64,4.522-2.908,6.972c-0.268,2.453,0.278,4.826,1.406,6.417
					c1.125,1.609,2.634,2.405,4.072,2.505c1.433,0.12,2.768-0.38,3.972-1.123c0.043-0.022-0.653-0.839-0.776-2.207
					c-0.042-0.701,0.01-1.615,0.415-2.721c0.376-1.098,1.082-2.338,1.985-3.511c1.817-2.37,4.454-4.328,6.407-5.268
					c0.98-0.49,1.779-0.752,2.296-0.887c0.524-0.144,0.772-0.156,0.78-0.172c-0.249-1.394-0.771-2.731-1.818-3.727
					c-1.031-1.009-2.562-1.688-4.365-1.842C167.011,125.206,162.351,126.966,159.137,131.102z"/>
			</g>
		</g>
	</g>
</g>
</svg>
