<?xml version="1.0" encoding="utf-8"?>
<!-- Generator: Adobe Illustrator 17.0.0, SVG Export Plug-In . SVG Version: 6.00 Build 0)  -->
<!DOCTYPE svg PUBLIC "-//W3C//DTD SVG 1.1//EN" "http://www.w3.org/Graphics/SVG/1.1/DTD/svg11.dtd">
<svg version="1.1" id="Layer_1" xmlns="http://www.w3.org/2000/svg" xmlns:xlink="http://www.w3.org/1999/xlink" x="0px" y="0px"
	 width="511.37px" height="511px" viewBox="0 0 511.37 511" enable-background="new 0 0 511.37 511" xml:space="preserve">
<g>
	<g>
		<path fill="#CC00CC" d="M256.072,19.225c-130.313,0-236.331,106.018-236.331,236.33s106.018,236.33,236.331,236.33
			c130.313,0,236.33-106.018,236.33-236.33S386.385,19.225,256.072,19.225z"/>
		<linearGradient id="SVGID_1_" gradientUnits="userSpaceOnUse" x1="533.0701" y1="411.996" x2="261.7342" y2="262.942">
			<stop  offset="0" style="stop-color:#93278F;stop-opacity:0"/>
			<stop  offset="1" style="stop-color:#9E005D"/>
		</linearGradient>
		<path fill="url(#SVGID_1_)" d="M322.802,114.768l-34.814,210.896l-57.271,95.193l106.76,65.413c0,0,54.822-15.741,113.719-86.94
			s49.339-159.338,49.339-159.338L322.802,114.768z"/>
		<g>
			<g>
				<path fill="#F7931E" d="M206.245,226.862c-15.686-17.36-25.086-37.546-30.663-54.235c2.475,12.75,9.644,27.26,17.154,42.454
					c10.223,20.682,20.794,42.068,20.794,60.536c0,35.287,7.557,46.737,10.484,49.848l28.823,0.09
					c-3.354-5.155-10.842-16.315-22.994-32.634C212.636,269.813,240.168,264.405,206.245,226.862z"/>
				<path fill="#FBB03B" d="M256.072,82.667c-44.887,0-81.406,36.423-81.406,81.192c0,2.813,0.328,5.742,0.916,8.768
					c5.577,16.69,14.977,36.876,30.663,54.235c33.923,37.543,6.391,42.951,23.599,66.059c12.152,16.318,19.639,27.479,22.994,32.634
					l35.151,0.11c3.502-3.278,10.624-14.264,10.624-49.242c0-19.205,11.097-41.571,20.888-61.304
					c8.838-17.814,17.976-36.234,17.976-51.058C337.477,119.18,300.959,82.667,256.072,82.667z"/>
			</g>
			<g>
				<path fill="#4D4D4D" d="M299,364.584v-5.623l1.795-0.426c9.694-1.669,16.52-6.893,15.56-11.716l-125.161,21.596
					c0.931,4.683,7.806,7.158,18.806,5.771v5.625l87.999-15.111C298.263,364.654,299,364.623,299,364.584z"/>
				<path fill="#4D4D4D" d="M279.664,335h-52.721c-9.859,0-16.943,6.568-16.943,15.741v6.505l85.668-14.358
					C292.542,337.908,286.268,335,279.664,335z"/>
				<path fill="#333333" d="M230.717,420.904c2.841,3.962,9.061,7.096,16.26,7.096h14.235c6.735,0,12.629-2.786,15.69-6.342
					c-4.879-4.363-13.597-7.271-23.545-7.271C243.996,414.388,235.727,416.964,230.717,420.904z"/>
				<path fill="#999999" d="M316.017,346.818c-0.767-3.859-9.466-6.352-19.161-4.683l-1.653,0.284l-86.132,14.827l-2.42,0.417
					c-9.694,1.669-16.859,6.893-16.092,10.752L316.017,346.818z"/>
				<path fill="#4D4D4D" d="M190.561,390.979c0.959,4.823,9.658,7.317,19.352,5.648l0.743-0.128c1.778,4.623,4.877,7.71,8.406,7.71
					c5.509,0,10.004,5.178,10.004,11.528c0,1.713,0.602,3.335,1.652,4.799c5.009-3.94,13.279-6.516,22.64-6.516
					c9.947,0,18.666,2.908,23.545,7.271c1.42-1.649,2.235-3.542,2.235-5.554c0-6.35,4.857-11.536,9.932-11.536
					s9.932-7.497,9.932-16.67v-6.006l1.795-0.426c9.694-1.669,16.52-6.893,15.56-11.716L190.561,390.979z"/>
				<path fill="#999999" d="M316.017,369.383c-0.746-3.754-9.001-6.203-18.373-4.799c-0.263,0.039-0.523,0.07-0.787,0.116
					l-87.784,15.111l-2.42,0.417c-9.694,1.669-16.859,6.893-16.092,10.752L316.017,369.383z"/>
			</g>
			<g>
				<path fill="#FFFFFF" d="M215.41,105.222c-3.414,2.247-6.318,4.876-8.626,7.67c-2.292,2.797-3.949,5.835-4.649,8.685
					c-0.15,0.733-0.3,1.396-0.342,2.068c-0.028,0.682-0.02,1.31,0.023,1.884c0.214,1.202,0.526,2.152,1.12,2.837
					c0.481,0.689,1.208,1.064,1.862,1.222c0.658,0.162,1.294,0.114,1.944-0.027c0,0,0.007-0.086-0.005-0.238
					c0-0.156-0.117-0.349-0.031-0.713c0.005-0.638,0.279-1.918,1.39-3.665c2.13-3.505,7.169-8.053,12.631-11.637
					c0.702-0.463,1.325-0.861,2.004-1.255c0.728-0.375,1.453-0.749,2.173-1.12c1.448-0.725,2.82-1.538,4.275-2.088
					c1.426-0.605,2.805-1.191,4.112-1.746c1.337-0.434,2.601-0.844,3.767-1.222c2.32-0.865,4.311-1.09,5.682-1.426
					c1.377-0.294,2.163-0.462,2.163-0.462c-0.299-1.306-1.274-2.401-2.907-3.243c-1.61-0.786-3.969-1.576-6.682-1.507
					c-1.37-0.018-2.866,0.05-4.464,0.204c-1.562,0.231-3.186,0.631-4.897,1.081c-1.727,0.41-3.444,1.104-5.203,1.881
					c-0.881,0.385-1.771,0.793-2.666,1.223C217.19,104.078,216.24,104.68,215.41,105.222z"/>
			</g>
		</g>
		<path fill="#9E005D" d="M256.072,6.978C119.005,6.978,7.494,118.49,7.494,255.555c0,137.067,111.512,248.577,248.578,248.577
			s248.577-111.511,248.577-248.577C504.649,118.49,393.139,6.978,256.072,6.978z M256.072,491.886
			c-130.313,0-236.331-106.018-236.331-236.33s106.018-236.33,236.331-236.33c130.313,0,236.33,106.018,236.33,236.33
			S386.385,491.886,256.072,491.886z"/>
	</g>
	<g>
		<g>
			<g>
				<path fill="#FFFFFF" d="M113.506,94.531c-11.356,10.833-19.388,23.15-22.854,33.14c-1.77,4.977-2.417,9.316-2.249,12.445
					c0.046,0.786,0.115,1.49,0.245,2.121c0.145,0.635,0.323,1.189,0.531,1.661c0.417,0.944,0.959,1.559,1.619,1.849
					c0,0,0.117-0.381,0.337-1.096c0.212-0.716,0.523-1.766,1.034-3.087c0.968-2.646,2.601-6.402,5.102-10.722
					c4.903-8.686,13.492-19.4,23.397-28.864c9.875-9.502,20.906-17.831,29.587-23.221c4.33-2.721,8.05-4.742,10.673-6.061
					c1.311-0.668,2.349-1.155,3.059-1.475c0.708-0.328,1.086-0.504,1.086-0.504c-0.771-1.196-2.857-1.82-6.012-1.599
					c-3.152,0.204-7.372,1.218-12.232,3.15C137.11,76.105,124.836,83.647,113.506,94.531z"/>
			</g>
		</g>
	</g>
</g>
</svg>
