<?xml version="1.0" encoding="utf-8"?>
<!-- Generator: Adobe Illustrator 17.0.0, SVG Export Plug-In . SVG Version: 6.00 Build 0)  -->
<!DOCTYPE svg PUBLIC "-//W3C//DTD SVG 1.1//EN" "http://www.w3.org/Graphics/SVG/1.1/DTD/svg11.dtd">
<svg version="1.1" id="Layer_1" xmlns="http://www.w3.org/2000/svg" xmlns:xlink="http://www.w3.org/1999/xlink" x="0px" y="0px"
	 width="518px" height="517.333px" viewBox="0 0 518 517.333" enable-background="new 0 0 518 517.333" xml:space="preserve">
<g>
	<g>
		<path fill="#29ABE2" d="M471.707,269.198c0-11.717,3.781-23.595,7.438-35.081c4.604-14.464,8.953-28.125,5.284-39.393
			c-3.878-11.907-15.73-20.535-28.278-29.67c-9.479-6.901-19.28-14.036-25.841-23.044c-6.661-9.143-10.488-20.769-14.19-32.013
			c-4.819-14.641-9.371-28.469-19.32-35.716c-9.813-7.149-24.3-7.24-39.637-7.336c-11.898-0.074-24.201-0.151-35.083-3.695
			c-10.379-3.38-20.055-10.402-29.413-17.194c-12.662-9.19-24.623-17.87-37.478-17.87c-12.856,0-24.816,8.68-37.479,17.871
			c-9.358,6.791-19.034,13.814-29.413,17.194c-10.883,3.544-23.185,3.621-35.083,3.695c-15.337,0.096-29.822,0.187-39.635,7.336
			c-9.95,7.247-14.502,21.076-19.322,35.718c-3.701,11.243-7.527,22.868-14.187,32.011c-6.561,9.008-16.363,16.143-25.841,23.043
			c-12.549,9.135-24.401,17.763-28.279,29.671c-3.668,11.267,0.681,24.929,5.284,39.393c3.657,11.487,7.438,23.365,7.438,35.082
			c0,11.717-3.781,23.595-7.438,35.082c-4.604,14.464-8.954,28.125-5.284,39.393c3.878,11.908,15.73,20.536,28.279,29.671
			c9.479,6.901,19.28,14.035,25.841,23.043c6.661,9.143,10.487,20.768,14.187,32.011c4.82,14.642,9.372,28.471,19.322,35.718
			c9.813,7.149,24.3,7.24,39.635,7.336c11.898,0.074,24.201,0.151,35.083,3.695c10.379,3.38,20.055,10.402,29.413,17.194
			c12.662,9.19,24.623,17.871,37.479,17.871c12.856,0,24.815-8.68,37.478-17.871c9.358-6.792,19.034-13.814,29.413-17.194
			c10.883-3.544,23.185-3.62,35.083-3.695c15.337-0.096,29.823-0.187,39.637-7.336c9.949-7.247,14.501-21.075,19.32-35.716
			c3.702-11.244,7.529-22.87,14.19-32.013c6.561-9.008,16.363-16.143,25.841-23.043c12.548-9.135,24.4-17.763,28.278-29.67
			c3.669-11.268-0.679-24.93-5.284-39.393C475.488,292.794,471.707,280.915,471.707,269.198z"/>
		<path fill="#0071BC" d="M483.955,269.198c0-9.815,3.488-20.771,6.86-31.367c4.99-15.675,10.15-31.883,5.259-46.901
			c-5.106-15.681-19.141-25.898-32.714-35.779c-9.115-6.635-17.723-12.902-23.152-20.353c-5.528-7.589-8.892-17.81-12.454-28.631
			c-5.214-15.838-10.605-32.216-23.741-41.786c-13.003-9.472-30.17-9.58-46.772-9.683c-11.465-0.072-22.295-0.139-31.368-3.094
			c-8.541-2.781-17.027-8.94-26.01-15.46c-13.687-9.934-27.84-20.206-44.672-20.206s-30.986,10.272-44.673,20.206
			c-8.983,6.52-17.469,12.679-26.01,15.46c-9.073,2.955-19.903,3.022-31.368,3.094c-16.601,0.103-33.768,0.211-46.771,9.683
			c-13.137,9.57-18.529,25.949-23.742,41.788c-3.562,10.821-6.926,21.041-12.453,28.629c-5.429,7.451-14.038,13.718-23.152,20.353
			c-13.574,9.881-27.609,20.099-32.715,35.78c-4.891,15.017,0.269,31.225,5.259,46.899c3.373,10.596,6.86,21.553,6.86,31.367
			c0,9.815-3.488,20.772-6.86,31.367c-4.99,15.675-10.15,31.883-5.259,46.901c5.106,15.681,19.141,25.898,32.715,35.78
			c9.114,6.635,17.723,12.902,23.152,20.352c5.527,7.588,8.891,17.808,12.453,28.629c5.214,15.839,10.605,32.218,23.742,41.788
			c13.003,9.473,30.17,9.58,46.772,9.683c11.465,0.072,22.295,0.139,31.367,3.094c8.541,2.781,17.027,8.94,26.01,15.46
			c13.687,9.934,27.841,20.206,44.673,20.206s30.984-10.272,44.672-20.206c8.985-6.521,17.469-12.679,26.01-15.461
			c9.072-2.954,19.902-3.022,31.368-3.094c16.601-0.103,33.768-0.211,46.772-9.683c13.136-9.57,18.528-25.948,23.741-41.786
			c3.562-10.821,6.926-21.042,12.454-28.631c5.429-7.451,14.037-13.718,23.152-20.353c13.573-9.881,27.608-20.098,32.714-35.779
			c4.891-15.017-0.269-31.226-5.259-46.901C487.442,289.97,483.955,279.013,483.955,269.198z M484.43,343.674
			c-3.878,11.907-15.73,20.535-28.278,29.67c-9.479,6.9-19.28,14.035-25.841,23.043c-6.661,9.143-10.488,20.769-14.19,32.013
			c-4.819,14.641-9.371,28.469-19.32,35.716c-9.813,7.149-24.3,7.24-39.637,7.336c-11.898,0.074-24.201,0.151-35.083,3.695
			c-10.379,3.38-20.055,10.402-29.413,17.194c-12.662,9.19-24.622,17.871-37.478,17.871c-12.856,0-24.816-8.681-37.479-17.871
			c-9.358-6.792-19.034-13.814-29.413-17.194c-10.883-3.544-23.185-3.62-35.083-3.695c-15.336-0.096-29.822-0.187-39.635-7.336
			c-9.95-7.247-14.502-21.076-19.322-35.718c-3.701-11.243-7.527-22.868-14.187-32.011c-6.561-9.007-16.363-16.142-25.841-23.043
			c-12.549-9.135-24.401-17.763-28.279-29.671c-3.669-11.268,0.681-24.929,5.284-39.393c3.657-11.487,7.438-23.365,7.438-35.082
			c0-11.717-3.781-23.595-7.438-35.082c-4.604-14.464-8.952-28.125-5.284-39.393c3.878-11.908,15.73-20.536,28.279-29.671
			c9.479-6.901,19.28-14.035,25.841-23.043c6.661-9.142,10.487-20.768,14.187-32.011c4.82-14.642,9.372-28.471,19.322-35.718
			c9.813-7.149,24.299-7.24,39.635-7.336c11.898-0.074,24.201-0.151,35.083-3.695c10.379-3.38,20.055-10.402,29.413-17.194
			c12.662-9.19,24.623-17.871,37.479-17.871c12.855,0,24.815,8.68,37.478,17.87c9.358,6.792,19.034,13.814,29.413,17.194
			c10.883,3.544,23.185,3.621,35.083,3.695c15.337,0.096,29.823,0.187,39.637,7.336c9.949,7.247,14.501,21.075,19.32,35.716
			c3.702,11.244,7.529,22.87,14.19,32.013c6.561,9.008,16.363,16.143,25.841,23.044c12.548,9.135,24.4,17.763,28.278,29.67
			c3.669,11.268-0.681,24.93-5.284,39.393c-3.657,11.487-7.438,23.365-7.438,35.081c0,11.717,3.781,23.595,7.438,35.082
			C483.75,318.744,488.099,332.406,484.43,343.674z"/>
	</g>
	<linearGradient id="SVGID_1_" gradientUnits="userSpaceOnUse" x1="450.3895" y1="383.016" x2="133.7483" y2="209.0742">
		<stop  offset="0" style="stop-color:#0071BC;stop-opacity:0"/>
		<stop  offset="1" style="stop-color:#0071BC"/>
	</linearGradient>
	<path fill="url(#SVGID_1_)" d="M381.014,140L340,354.5l-215.183,46.294l160.792,96.609c0,0,9.354-18.45,46.126-16.902
		c71.264,3,93.997-32.028,97.698-75.048c0.515-5.984,56.554-50.165,60.32-55.443c4.402-6.17-10.078-66.152-9.493-73.461
		c0.612-7.655,10.612-60.719,10.612-60.719L381.014,140z"/>
	<g>
		<path fill="#FFFFFF" d="M119.966,90.601c-7.372,7.032-12.586,15.028-14.836,21.514c-1.149,3.231-1.569,6.048-1.46,8.079
			c0.03,0.51,0.074,0.967,0.159,1.377c0.094,0.412,0.21,0.772,0.345,1.078c0.271,0.613,0.623,1.012,1.051,1.2
			c0,0,0.076-0.247,0.219-0.711c0.138-0.465,0.34-1.146,0.671-2.004c0.628-1.718,1.688-4.156,3.312-6.96
			c3.183-5.638,8.759-12.594,15.188-18.737c6.411-6.168,13.572-11.576,19.207-15.075c2.811-1.766,5.226-3.078,6.928-3.935
			c0.851-0.433,1.525-0.75,1.986-0.958c0.46-0.213,0.705-0.327,0.705-0.327c-0.5-0.776-1.855-1.181-3.902-1.038
			c-2.046,0.132-4.786,0.791-7.94,2.045C135.289,78.639,127.321,83.535,119.966,90.601z"/>
	</g>
	<g>
		<g>
			<rect x="125" y="140" fill="#808080" width="63" height="152"/>
			<rect x="125" y="140" fill="#4D4D4D" width="21" height="152"/>
		</g>
		<g>
			<rect x="233" y="140" fill="#FCEE21" width="152" height="63"/>
			<rect x="233" y="140" fill="#FBB03B" width="152" height="21"/>
			<line fill="#FCEE21" x1="125" y1="140" x2="188" y2="140"/>
			<line fill="#FBB03B" x1="163" y1="140" x2="188" y2="140"/>
			<g>
				<path fill="#FFFFFF" d="M123.775,141.023c-1.79,1.194-2.775,3.14-2.775,5.442v3.457c0,2.169,0.65,4.078,2.269,6.078h-3.735
					c-3.656,0-6.534,2.232-6.534,5.888v3.457c0,2.017,0.797,4.655,2.228,5.655h-1.544c-3.656,0-6.683,2.39-6.683,6.046v3.457
					c0,3.656,3.027,6.497,6.683,6.497h0.81c-1.619,2-2.493,3.301-2.493,5.47v3.457c0,3.656,2.814,7.073,6.47,7.073H188v15.942
					c8,0.372,14.79-1.086,24.229-13.442c4.64-6.074,12.771-8.297,20.771-8.961v-35.913V140h-12.681h-32.177h-60.897
					C125.891,140,124.829,140.32,123.775,141.023z"/>
				<path fill="#E6E6E6" d="M128.043,146h93.872L233,160.626V140h-12.681h-32.177h-60.897c-1.355,0-2.618,0.619-3.672,1.323
					L128.043,146z"/>
			</g>
		</g>
		<g>
			<rect x="322" y="248" fill="#666666" width="63" height="151"/>
			<rect x="364" y="248" fill="#4D4D4D" width="21" height="151"/>
			<line fill="#FCEE21" x1="385" y1="140" x2="385" y2="203"/>
			<line fill="#FBB03B" x1="385" y1="178" x2="385" y2="203"/>
			<g>
				<path fill="#FFFFFF" d="M383.831,138.606c-1.194-1.79-3.286-2.606-5.587-2.606h-3.457c-2.168,0-3.787,0.313-5.787,1.932v-3.735
					c0-3.656-2.523-6.197-6.18-6.197h-3.457c-2.017,0-3.363,0.46-5.363,1.891v-1.544c0-3.656-2.681-6.347-6.338-6.347h-3.457
					c-3.656,0-6.205,2.69-6.205,6.347v0.81c-2-1.619-3.593-2.156-5.761-2.156h-3.457c-3.656,0-6.782,2.477-6.782,6.133V203h-16.234
					c-0.372,8,1.086,14.79,13.442,24.229c6.074,4.64,8.297,12.771,8.961,20.771h35.913H385v-13.017v-32.177v-60.897
					C385,140.554,384.534,139.66,383.831,138.606z"/>
				<path fill="#E6E6E6" d="M379,142.706v93.872L364.082,248H385v-13.017v-32.177v-60.897c0-1.355-0.619-2.618-1.323-3.672
					L379,142.706z"/>
			</g>
		</g>
		<g>
			<rect x="125" y="336" fill="#FCEE21" width="152" height="63"/>
			<rect x="125" y="378" fill="#FBB03B" width="152" height="21"/>
			<line fill="#FCEE21" x1="385" y1="399" x2="322" y2="399"/>
			<line fill="#FBB03B" x1="347" y1="399" x2="322" y2="399"/>
			<g>
				<path fill="#FFFFFF" d="M386.248,397.764c1.79-1.194,2.752-3.353,2.752-5.655v-3.457c0-2.168-0.604-3.652-2.224-4.652h3.735
					c3.656,0,6.488-3.658,6.488-7.314v-3.457c0-2.017-0.752-3.228-2.182-4.228h1.544c3.656,0,6.638-3.816,6.638-7.472v-3.457
					c0-3.656-2.982-6.071-6.638-6.071h-0.81c1.619-2,2.448-3.727,2.448-5.896v-3.457c0-3.656-2.768-6.647-6.425-6.647H322v-16.368
					c-8-0.372-14.79,1.086-24.229,13.442c-4.64,6.074-12.771,8.297-20.771,8.961v35.913V399h12.726h32.177H382.8
					C384.155,399,385.194,398.467,386.248,397.764z"/>
				<path fill="#E6E6E6" d="M382.002,394H288.13L277,377.947V399h12.726h32.177H382.8c1.355,0,2.618-0.119,3.672-0.823L382.002,394z
					"/>
			</g>
		</g>
		<g>
			<path fill="#FFFFFF" d="M126.191,400.68c1.194,1.79,3.309,3.32,5.61,3.32h3.457c2.169,0,3.742-1.739,5.742-3.358v3.735
				c0,3.656,2.569,6.623,6.225,6.623h3.457c2.017,0,4.318-0.887,5.318-2.317v1.544c0,3.656,2.726,6.773,6.383,6.773h3.457
				c3.656,0,6.16-3.116,6.16-6.773v-0.81c2,1.619,3.638,2.583,5.807,2.583h3.457c3.656,0,6.736-2.903,6.736-6.559V336h16.279
				c0.372-8-1.086-14.29-13.442-23.729c-6.074-4.64-8.297-13.271-8.961-20.271h-35.913H125v11.591v32.177v60.897
				C125,398.02,125.488,399.626,126.191,400.68z"/>
			<path fill="#E6E6E6" d="M131,395.867v-93.872L145.963,292H125v11.591v32.177v60.897c0,1.355,0.619,2.618,1.323,3.672L131,395.867
				z"/>
		</g>
	</g>
</g>
</svg>
