<?xml version="1.0" encoding="utf-8"?>
<!-- Generator: Adobe Illustrator 17.0.0, SVG Export Plug-In . SVG Version: 6.00 Build 0)  -->
<!DOCTYPE svg PUBLIC "-//W3C//DTD SVG 1.1//EN" "http://www.w3.org/Graphics/SVG/1.1/DTD/svg11.dtd">
<svg version="1.1" id="Layer_1" xmlns="http://www.w3.org/2000/svg" xmlns:xlink="http://www.w3.org/1999/xlink" x="0px" y="0px"
	 width="297px" height="283px" viewBox="0 0 297 283" enable-background="new 0 0 297 283" xml:space="preserve">
<path fill="#F2F2F2" d="M-25.5,7.5C-25.5,3.358-80.793,0-149,0s-123.5,3.358-123.5,7.5c0,0.168,0.1,0.335,0.28,0.5H-25.78
	C-25.6,7.835-25.5,7.668-25.5,7.5z"/>
<g>
	<polygon fill="#FFCC00" points="102.67,100.221 101.884,100.327 41.989,108.442 12.041,145.308 11.952,145.417 40.317,176.116 
		73.662,152.647 107.039,176.807 128.869,212.265 128.633,212.576 103.998,245.035 131.191,274.465 170.38,247.329 183.322,187.377 
			"/>
	<g>
		<path fill="none" d="M224.28,45.371c-5.767,5.329-6.776,13.878-2.822,20.326c0.546,0.89,1.184,1.74,1.919,2.536
			c6.064,6.563,16.3,6.967,22.862,0.903c1.315-1.215,2.378-2.599,3.196-4.085c3.265-5.934,2.556-13.529-2.293-18.777
			C241.079,39.712,230.843,39.307,224.28,45.371z"/>
		<path fill="#FFFFFF" d="M283.547,14.105l-0.099-0.546l-0.701-0.183c-109.412-28.705-174.868,76.787-180.741,86.7
			c-0.176,0.298-0.301,0.513-0.37,0.632l80.624,87.256C184.621,186.864,304.789,130.267,283.547,14.105z M249.435,65.051
			c-0.818,1.487-1.881,2.871-3.196,4.085c-6.563,6.064-16.798,5.659-22.862-0.903c-0.735-0.796-1.373-1.646-1.919-2.536
			c-3.954-6.448-2.945-14.998,2.822-20.326c6.563-6.064,16.798-5.659,22.862,0.903C251.992,51.522,252.7,59.117,249.435,65.051z"/>
	</g>
	<g>
		<g>
			<path fill="#29ABE2" d="M256.542,37.589c-10.861-11.754-29.193-12.478-40.947-1.618c-10.329,9.544-12.137,24.856-5.054,36.406
				c0.977,1.593,2.12,3.117,3.437,4.542c10.861,11.754,29.193,12.478,40.947,1.618c2.355-2.176,4.259-4.655,5.724-7.317
				C266.496,60.591,265.227,46.988,256.542,37.589z"/>
			<path fill="#FFFFFF" d="M223.151,44.803c0.493-0.447,1.193-1.076,2.044-1.776c0.845-0.722,1.85-1.466,2.932-2.208
				c1.088-0.707,2.264-1.349,3.445-1.818c1.182-0.466,2.365-0.687,3.472-0.762c0.277-0.007,0.55-0.014,0.817-0.02
				c0.267,0.012,0.529,0.051,0.784,0.07c0.51,0.011,0.993,0.172,1.441,0.246c0.892,0.241,1.643,0.485,2.159,0.742
				c0.52,0.227,0.818,0.357,0.818,0.357c0.375-0.842,0.462-1.76,0.199-2.749c-0.25-1.012-0.896-1.985-1.938-2.904
				c-1.055-0.848-2.547-1.644-4.364-1.874c-1.795-0.267-3.886-0.072-5.78,0.684c-1.901,0.745-3.437,1.857-4.609,3.029
				c-1.154,1.194-1.975,2.445-2.477,3.657c-1.01,2.417-0.886,4.611,0.285,6.029C222.378,45.506,222.659,45.251,223.151,44.803z"/>
		</g>
		<path fill="#0071BC" d="M210.541,72.377c0.977,1.593,2.12,3.117,3.437,4.542c10.861,11.754,29.193,12.478,40.947,1.618
			c2.355-2.176,4.259-4.655,5.724-7.317C243.348,81.428,223.589,82.078,210.541,72.377z"/>
	</g>
	<path fill="#FBB03B" d="M30.06,145.943l21.75-28.908l43.709-5.143l6.365-11.565l-59.896,8.115l-29.948,36.865
		C19.147,145.626,30.06,145.943,30.06,145.943z"/>
	<polygon fill="#FBB03B" points="132.155,227.829 129.006,212.717 128.633,212.576 103.998,245.035 117.716,245.577 	"/>
	<path fill="#E6E6E6" d="M270.908,24.315l11.839-10.939c-109.412-28.705-174.868,76.788-180.741,86.7l14.76,0.583
		C116.766,100.659,175.609,2.233,270.908,24.315z"/>
</g>
</svg>
