<?xml version="1.0" encoding="utf-8"?>
<!-- Generator: Adobe Illustrator 17.0.0, SVG Export Plug-In . SVG Version: 6.00 Build 0)  -->
<!DOCTYPE svg PUBLIC "-//W3C//DTD SVG 1.1//EN" "http://www.w3.org/Graphics/SVG/1.1/DTD/svg11.dtd">
<svg version="1.1" id="Layer_1" xmlns="http://www.w3.org/2000/svg" xmlns:xlink="http://www.w3.org/1999/xlink" x="0px" y="0px"
	 width="518px" height="517.333px" viewBox="0 0 518 517.333" enable-background="new 0 0 518 517.333" xml:space="preserve">
<g>
	<path fill="#FF3333" d="M489.454,224.871C472.858,110.679,374.318,22.681,255.599,22.681
		c-130.313,0-236.331,106.018-236.331,236.33c0,107.682,72.395,198.768,171.068,227.159c20.737,5.967,42.632,9.171,65.263,9.171
		c130.313,0,236.33-106.018,236.33-236.33C491.929,247.418,491.074,236.022,489.454,224.871z"/>
	<linearGradient id="SVGID_1_" gradientUnits="userSpaceOnUse" x1="506.7806" y1="427.6677" x2="273.9861" y2="299.7857">
		<stop  offset="0" style="stop-color:#6A0200;stop-opacity:0"/>
		<stop  offset="1" style="stop-color:#C1272D"/>
	</linearGradient>
	<path fill="url(#SVGID_1_)" d="M333.749,189.555l-57.176,165.673l-76.356,47.095l140.654,77.102c0,0,39.948,0.749,95.062-65.076
		s52.282-126.741,52.282-126.741L333.749,189.555z"/>
	<g>
		<path fill="#FFFFFF" d="M102.04,113.228c-11.356,10.833-19.388,23.15-22.854,33.14c-1.77,4.977-2.417,9.316-2.249,12.445
			c0.046,0.786,0.115,1.49,0.245,2.121c0.145,0.635,0.323,1.189,0.531,1.661c0.417,0.944,0.959,1.559,1.619,1.849
			c0,0,0.117-0.381,0.337-1.096c0.212-0.716,0.523-1.766,1.034-3.087c0.968-2.646,2.601-6.402,5.102-10.722
			c4.903-8.686,13.492-19.4,23.397-28.864c9.875-9.502,20.906-17.831,29.587-23.221c4.33-2.721,8.05-4.742,10.673-6.061
			c1.311-0.668,2.349-1.155,3.059-1.475c0.708-0.328,1.086-0.504,1.086-0.504c-0.771-1.196-2.857-1.82-6.012-1.599
			c-3.152,0.204-7.372,1.218-12.232,3.15C125.644,94.802,113.369,102.344,102.04,113.228z"/>
	</g>
	<g>
		<path fill="none" d="M148.929,276.045c-0.148-0.151-0.295-0.302-0.441-0.453C148.634,275.743,148.781,275.894,148.929,276.045z"/>
		<path fill="none" d="M348.551,215.378c0.047,0.059,0.096,0.117,0.144,0.177C348.647,215.495,348.598,215.437,348.551,215.378z"/>
		<path fill="none" d="M347.499,214.11c0.092,0.107,0.183,0.214,0.273,0.321C347.681,214.324,347.59,214.217,347.499,214.11z"/>
		<path fill="none" d="M346.532,213.009c0.065,0.072,0.128,0.145,0.192,0.217C346.66,213.154,346.597,213.081,346.532,213.009z"/>
		<path fill="none" d="M350.436,217.881c0.078,0.11,0.155,0.22,0.232,0.33C350.592,218.1,350.514,217.991,350.436,217.881z"/>
		<path fill="none" d="M351.466,219.395c0.012,0.018,0.023,0.037,0.035,0.056C351.489,219.432,351.478,219.413,351.466,219.395z"/>
		<path fill="none" d="M352.991,221.92c0.058,0.103,0.117,0.204,0.174,0.307C353.108,222.124,353.049,222.022,352.991,221.92z"/>
		<path fill="none" d="M352.223,220.605c0.071,0.117,0.141,0.236,0.212,0.354C352.365,220.841,352.295,220.723,352.223,220.605z"/>
		<path fill="none" d="M343.144,209.57c0.021,0.019,0.04,0.039,0.061,0.058C343.185,209.608,343.165,209.589,343.144,209.57z"/>
		<path fill="none" d="M337.886,205.159c0.115,0.087,0.229,0.174,0.343,0.261C338.116,205.333,338.001,205.246,337.886,205.159z"/>
		<path fill="none" d="M339.263,206.227c0.054,0.043,0.109,0.085,0.162,0.128C339.371,206.312,339.316,206.269,339.263,206.227z"/>
		<path fill="none" d="M336.651,204.243c0.081,0.059,0.162,0.119,0.243,0.178C336.813,204.362,336.733,204.302,336.651,204.243z"/>
		<path fill="none" d="M340.58,207.302c0.098,0.082,0.195,0.165,0.292,0.248C340.774,207.467,340.678,207.384,340.58,207.302z"/>
		<path fill="none" d="M353.834,223.48c0.043,0.083,0.083,0.168,0.126,0.252C353.917,223.648,353.876,223.564,353.834,223.48z"/>
		<path fill="none" d="M344.204,210.588c0.099,0.097,0.197,0.195,0.296,0.293C344.402,210.783,344.304,210.685,344.204,210.588z"/>
		<path fill="none" d="M341.745,208.305c0.102,0.09,0.205,0.179,0.306,0.27C341.95,208.484,341.847,208.395,341.745,208.305z"/>
		<path fill="none" d="M345.304,211.699c0.081,0.084,0.163,0.167,0.243,0.251C345.467,211.866,345.385,211.783,345.304,211.699z"/>
		<path fill="none" d="M356.862,231.004c0.003,0.011,0.006,0.022,0.009,0.032C356.868,231.026,356.865,231.015,356.862,231.004z"/>
		<path fill="none" d="M358.737,242.453c0.006,0.152,0.013,0.303,0.017,0.456C358.75,242.757,358.743,242.605,358.737,242.453z"/>
		<path fill="none" d="M358.647,240.828c0.01,0.134,0.017,0.268,0.026,0.403C358.664,241.097,358.657,240.962,358.647,240.828z"/>
		<path fill="none" d="M358.255,237.294c0.022,0.149,0.044,0.297,0.064,0.447C358.299,237.592,358.277,237.443,358.255,237.294z"/>
		<path fill="none" d="M358.478,239.006c0.01,0.093,0.023,0.186,0.033,0.279C358.5,239.191,358.488,239.099,358.478,239.006z"/>
		<path fill="none" d="M153.389,280.205c-0.352-0.301-0.698-0.605-1.041-0.91C152.691,279.6,153.037,279.904,153.389,280.205z"/>
		<path fill="none" d="M151.992,278.974c-0.22-0.198-0.439-0.396-0.655-0.595C151.554,278.578,151.773,278.776,151.992,278.974z"/>
		<path fill="none" d="M354.472,224.78c0.06,0.128,0.12,0.255,0.179,0.384C354.592,225.036,354.532,224.908,354.472,224.78z"/>
		<path fill="none" d="M150.909,277.978c-0.185-0.174-0.37-0.348-0.552-0.522C150.539,277.63,150.724,277.804,150.909,277.978z"/>
		<path fill="none" d="M149.896,277.008c-0.164-0.16-0.327-0.32-0.488-0.481C149.569,276.688,149.732,276.848,149.896,277.008z"/>
		<path fill="none" d="M355.773,227.819c0.045,0.117,0.088,0.234,0.131,0.351C355.861,228.054,355.818,227.936,355.773,227.819z"/>
		<path fill="none" d="M356.284,229.223c0.045,0.13,0.09,0.26,0.134,0.391C356.374,229.483,356.329,229.353,356.284,229.223z"/>
		<path fill="none" d="M355.14,226.263c0.032,0.076,0.067,0.151,0.099,0.227C355.207,226.414,355.173,226.339,355.14,226.263z"/>
		<path fill="none" d="M357.257,232.421c0.036,0.137,0.071,0.275,0.105,0.413C357.328,232.695,357.293,232.557,357.257,232.421z"/>
		<path fill="none" d="M357.63,233.951c0.028,0.123,0.057,0.244,0.083,0.367C357.687,234.196,357.658,234.074,357.63,233.951z"/>
		<path fill="none" d="M335.123,203.167c0.095,0.065,0.19,0.129,0.284,0.195C335.313,203.297,335.218,203.232,335.123,203.167z"/>
		<path fill="none" d="M358.007,235.78c0.017,0.094,0.032,0.189,0.049,0.283C358.038,235.969,358.024,235.874,358.007,235.78z"/>
		<path fill="none" d="M349.568,216.685c0.075,0.1,0.148,0.2,0.222,0.3C349.715,216.885,349.642,216.785,349.568,216.685z"/>
		<path fill="none" d="M306.128,189.555c0.02,0.006,0.039,0.013,0.059,0.019C306.167,189.567,306.147,189.561,306.128,189.555z"/>
		<path fill="none" d="M298.72,187.382c0.126,0.034,0.252,0.068,0.378,0.102C298.972,187.45,298.846,187.416,298.72,187.382z"/>
		<path fill="none" d="M297.036,186.938c0.084,0.022,0.167,0.044,0.251,0.066C297.203,186.982,297.12,186.96,297.036,186.938z"/>
		<path fill="none" d="M293.269,186.009c0.125,0.029,0.25,0.059,0.375,0.089C293.519,186.068,293.394,186.039,293.269,186.009z"/>
		<path fill="none" d="M304.123,188.93c0.118,0.036,0.237,0.072,0.355,0.108C304.359,189.002,304.241,188.966,304.123,188.93z"/>
		<path fill="none" d="M291.599,185.623c0.011,0.003,0.022,0.005,0.034,0.008C291.622,185.628,291.611,185.625,291.599,185.623z"/>
		<path fill="none" d="M300.729,187.934c0.007,0.002,0.013,0.004,0.02,0.005C300.742,187.938,300.735,187.936,300.729,187.934z"/>
		<path fill="none" d="M302.421,188.421c0.118,0.035,0.237,0.07,0.355,0.105C302.658,188.491,302.539,188.455,302.421,188.421z"/>
		<path fill="none" d="M295.103,186.451c0.079,0.019,0.158,0.038,0.237,0.058C295.261,186.49,295.182,186.471,295.103,186.451z"/>
		<path fill="none" d="M278.563,183.116c0.111,0.018,0.223,0.036,0.334,0.054C278.786,183.152,278.674,183.134,278.563,183.116z"/>
		<path fill="none" d="M280.437,183.424c0.053,0.009,0.107,0.018,0.16,0.027C280.544,183.442,280.49,183.433,280.437,183.424z"/>
		<path fill="none" d="M282.334,183.754c0.071,0.013,0.142,0.026,0.213,0.038C282.476,183.779,282.405,183.766,282.334,183.754z"/>
		<path fill="none" d="M289.561,185.173c0.105,0.023,0.21,0.045,0.316,0.068C289.771,185.218,289.666,185.196,289.561,185.173z"/>
		<path fill="none" d="M333.749,202.244c0.119,0.078,0.238,0.157,0.357,0.236C333.987,202.401,333.869,202.322,333.749,202.244z"/>
		<path fill="none" d="M284.041,184.065c0.116,0.022,0.233,0.043,0.349,0.065C284.273,184.109,284.157,184.087,284.041,184.065z"/>
		<path fill="none" d="M287.802,184.803c0.106,0.022,0.213,0.044,0.319,0.066C288.015,184.847,287.909,184.825,287.802,184.803z"/>
		<path fill="none" d="M326.185,197.803c0.129,0.068,0.258,0.136,0.387,0.204C326.443,197.939,326.314,197.871,326.185,197.803z"/>
		<path fill="none" d="M324.742,197.059c0.091,0.046,0.18,0.092,0.27,0.138C324.922,197.151,324.833,197.105,324.742,197.059z"/>
		<path fill="none" d="M327.829,198.686c0.049,0.027,0.1,0.054,0.149,0.081C327.929,198.74,327.879,198.714,327.829,198.686z"/>
		<path fill="none" d="M322.996,196.198c0.099,0.048,0.199,0.095,0.298,0.143C323.195,196.293,323.095,196.246,322.996,196.198z"/>
		<path fill="none" d="M321.411,195.449c0.129,0.06,0.258,0.12,0.387,0.181C321.669,195.569,321.54,195.509,321.411,195.449z"/>
		<path fill="none" d="M332.447,201.404c0.027,0.017,0.053,0.034,0.079,0.051C332.5,201.438,332.474,201.42,332.447,201.404z"/>
		<path fill="none" d="M329.359,199.546c0.114,0.065,0.227,0.132,0.34,0.197C329.586,199.678,329.473,199.612,329.359,199.546z"/>
		<path fill="none" d="M330.763,200.371c0.117,0.07,0.235,0.14,0.351,0.211C330.998,200.511,330.88,200.441,330.763,200.371z"/>
		<path fill="none" d="M316.457,193.294c0.12,0.049,0.24,0.099,0.36,0.149C316.697,193.393,316.577,193.343,316.457,193.294z"/>
		<path fill="none" d="M311.354,191.332c0.091,0.033,0.181,0.066,0.272,0.099C311.536,191.399,311.445,191.365,311.354,191.332z"/>
		<path fill="none" d="M312.947,191.92c0.133,0.05,0.265,0.1,0.397,0.15C313.212,192.019,313.08,191.97,312.947,191.92z"/>
		<path fill="none" d="M309.476,190.669c0.092,0.032,0.185,0.063,0.277,0.095C309.661,190.732,309.569,190.701,309.476,190.669z"/>
		<path fill="none" d="M319.926,194.774c0.026,0.012,0.052,0.024,0.078,0.035C319.978,194.797,319.952,194.785,319.926,194.774z"/>
		<path fill="none" d="M318.04,193.955c0.122,0.052,0.244,0.103,0.366,0.156C318.285,194.058,318.162,194.007,318.04,193.955z"/>
		<path fill="none" d="M314.802,192.631c0.034,0.013,0.068,0.026,0.101,0.039C314.869,192.657,314.836,192.644,314.802,192.631z"/>
		<path fill="none" d="M307.734,190.079c0.132,0.044,0.263,0.088,0.395,0.132C307.997,190.166,307.865,190.122,307.734,190.079z"/>
		<path fill="none" d="M136.077,255.196c-0.069-0.238-0.136-0.476-0.201-0.714C135.941,254.72,136.008,254.958,136.077,255.196z"/>
		<path fill="none" d="M243.959,180.216c0.104,0.001,0.207,0.001,0.311,0.002C244.166,180.217,244.063,180.217,243.959,180.216z"/>
		<path fill="none" d="M246.893,180.256c0.11,0.002,0.221,0.005,0.331,0.007C247.114,180.261,247.003,180.258,246.893,180.256z"/>
		<path fill="none" d="M242.606,179c0.127,0,0.254,0,0.382,0C242.861,179,242.733,179,242.606,179z"/>
		<path fill="none" d="M249.7,180.332c0.092,0.003,0.184,0.006,0.277,0.009C249.884,180.338,249.792,180.335,249.7,180.332z"/>
		<path fill="none" d="M241.341,180.217c0.115-0.001,0.231-0.001,0.346-0.002C241.572,180.216,241.456,180.216,241.341,180.217z"/>
		<path fill="none" d="M248.247,180.288c0.123,0.003,0.246,0.007,0.369,0.01C248.493,180.295,248.37,180.292,248.247,180.288z"/>
		<path fill="none" d="M233.608,180.441c0.112-0.006,0.222-0.012,0.335-0.018C233.831,180.429,233.72,180.435,233.608,180.441z"/>
		<path fill="none" d="M252.769,180.456c0.105,0.005,0.211,0.01,0.317,0.015C252.98,180.467,252.874,180.461,252.769,180.456z"/>
		<path fill="none" d="M238.578,180.257c0.11-0.002,0.219-0.005,0.329-0.007C238.797,180.252,238.688,180.254,238.578,180.257z"/>
		<path fill="none" d="M232.488,180.505c0.121-0.007,0.243-0.015,0.366-0.022C232.731,180.49,232.609,180.497,232.488,180.505z"/>
		<path fill="none" d="M235.045,180.487L235.045,180.487L235.045,180.487z"/>
		<path fill="none" d="M236.172,180.326c0.111-0.004,0.223-0.008,0.334-0.011C236.395,180.319,236.283,180.322,236.172,180.326z"/>
		<path fill="none" d="M237.336,180.289c0.127-0.004,0.255-0.007,0.383-0.011C237.591,180.281,237.463,180.285,237.336,180.289z"/>
		<path fill="none" d="M255.741,180.616c0.08,0.005,0.16,0.009,0.24,0.014C255.9,180.626,255.821,180.621,255.741,180.616z"/>
		<path fill="none" d="M271.802,182.138c0.103,0.013,0.205,0.027,0.308,0.04C272.008,182.165,271.905,182.151,271.802,182.138z"/>
		<path fill="none" d="M266.814,181.546c0.113,0.012,0.227,0.024,0.34,0.037C267.04,181.571,266.927,181.559,266.814,181.546z"/>
		<path fill="none" d="M273.373,182.347c0.114,0.016,0.228,0.031,0.342,0.047C273.601,182.378,273.487,182.362,273.373,182.347z"/>
		<path fill="none" d="M268.489,181.733c0.063,0.007,0.125,0.014,0.188,0.021C268.614,181.747,268.552,181.74,268.489,181.733z"/>
		<path fill="none" d="M254.2,180.529c0.117,0.006,0.233,0.012,0.35,0.019C254.433,180.541,254.316,180.535,254.2,180.529z"/>
		<path fill="none" d="M275.095,182.588c0.057,0.008,0.114,0.016,0.171,0.024C275.209,182.604,275.152,182.596,275.095,182.588z"/>
		<path fill="none" d="M265.277,181.386c0.1,0.01,0.201,0.021,0.301,0.031C265.478,181.406,265.377,181.396,265.277,181.386z"/>
		<path fill="none" d="M258.917,180.829c0.099,0.007,0.199,0.015,0.299,0.022C259.116,180.844,259.016,180.837,258.917,180.829z"/>
		<path fill="none" d="M231.43,180.573c0.105-0.007,0.212-0.014,0.318-0.021C231.642,180.559,231.536,180.566,231.43,180.573z"/>
		<path fill="none" d="M262.037,181.081c0.063,0.005,0.125,0.011,0.188,0.016C262.162,181.091,262.099,181.086,262.037,181.081z"/>
		<path fill="none" d="M260.405,180.944c0.114,0.009,0.229,0.018,0.343,0.028C260.634,180.963,260.52,180.953,260.405,180.944z"/>
		<path fill="none" d="M145.144,271.841c-0.134-0.164-0.269-0.328-0.401-0.493C144.875,271.513,145.009,271.677,145.144,271.841z"/>
		<path fill="none" d="M141.993,267.612c-0.118-0.175-0.234-0.35-0.349-0.526C141.759,267.262,141.875,267.437,141.993,267.612z"/>
		<path fill="none" d="M140.726,265.634c-0.187-0.308-0.369-0.617-0.548-0.927C140.357,265.017,140.539,265.326,140.726,265.634z"/>
		<path fill="none" d="M141.343,266.622c-0.122-0.192-0.242-0.384-0.362-0.577C141.101,266.238,141.22,266.43,141.343,266.622z"/>
		<path fill="none" d="M139.942,264.289c-0.112-0.198-0.222-0.396-0.331-0.595C139.72,263.893,139.831,264.091,139.942,264.289z"/>
		<path fill="none" d="M139.371,263.245c-0.105-0.198-0.209-0.397-0.311-0.597C139.162,262.848,139.265,263.047,139.371,263.245z"/>
		<path fill="none" d="M138.844,262.224c-0.139-0.28-0.275-0.56-0.408-0.841C138.568,261.664,138.704,261.944,138.844,262.224z"/>
		<path fill="none" d="M144.37,270.878c-0.129-0.165-0.257-0.33-0.384-0.495C144.113,270.548,144.241,270.714,144.37,270.878z"/>
		<path fill="none" d="M147.998,275.081c-0.133-0.141-0.264-0.283-0.396-0.425C147.734,274.797,147.865,274.939,147.998,275.081z"/>
		<path fill="none" d="M146.236,273.138L146.236,273.138c-0.244-0.28-0.484-0.562-0.72-0.845
			C145.752,272.575,145.992,272.857,146.236,273.138z"/>
		<path fill="none" d="M147.101,274.111c-0.114-0.126-0.226-0.253-0.339-0.38C146.875,273.858,146.986,273.985,147.101,274.111z"/>
		<path fill="none" d="M143.635,269.923c-0.16-0.213-0.317-0.428-0.474-0.642C143.318,269.496,143.475,269.71,143.635,269.923z"/>
		<path fill="none" d="M142.714,268.657c-0.137-0.194-0.274-0.388-0.409-0.583C142.439,268.269,142.576,268.463,142.714,268.657z"/>
		<path fill="none" d="M138.252,260.988c-0.118-0.255-0.234-0.511-0.346-0.768C138.018,260.477,138.134,260.732,138.252,260.988z"/>
		<path fill="none" d="M134.552,245.641c-0.011-0.373-0.018-0.747-0.018-1.121C134.534,244.894,134.541,245.268,134.552,245.641z"/>
		<path fill="none" d="M135.011,250.47c-0.044-0.277-0.085-0.554-0.123-0.831C134.926,249.916,134.966,250.194,135.011,250.47z"/>
		<path fill="none" d="M134.849,249.366c-0.047-0.365-0.09-0.73-0.126-1.097C134.759,248.636,134.801,249.001,134.849,249.366z"/>
		<path fill="none" d="M135.21,251.603c-0.048-0.251-0.094-0.502-0.137-0.754C135.117,251.101,135.162,251.352,135.21,251.603z"/>
		<path fill="none" d="M135.49,252.945c-0.074-0.326-0.144-0.653-0.21-0.98C135.346,252.292,135.416,252.619,135.49,252.945z"/>
		<path fill="none" d="M134.605,246.778c-0.016-0.264-0.029-0.528-0.039-0.793C134.576,246.25,134.589,246.514,134.605,246.778z"/>
		<path fill="none" d="M134.698,247.995c-0.026-0.281-0.05-0.562-0.069-0.844C134.648,247.433,134.672,247.714,134.698,247.995z"/>
		<path fill="none" d="M135.776,254.111c-0.09-0.345-0.177-0.691-0.257-1.038C135.599,253.42,135.686,253.765,135.776,254.111z"/>
		<path fill="none" d="M136.892,257.691c-0.123-0.339-0.242-0.68-0.356-1.021C136.65,257.011,136.768,257.352,136.892,257.691z"/>
		<path fill="none" d="M137.291,258.741c-0.094-0.239-0.185-0.478-0.275-0.718C137.106,258.263,137.197,258.503,137.291,258.741z"/>
		<path fill="none" d="M137.728,259.805c-0.091-0.214-0.181-0.429-0.268-0.644C137.547,259.376,137.637,259.591,137.728,259.805z"/>
		<path fill="none" d="M136.427,256.333c-0.079-0.245-0.157-0.49-0.232-0.736C136.27,255.843,136.348,256.088,136.427,256.333z"/>
		<g>
			<path fill="none" d="M358.737,242.453c-0.017-0.41-0.038-0.817-0.064-1.222c-0.009-0.134-0.016-0.269-0.026-0.403
				c-0.038-0.518-0.083-1.033-0.137-1.543c-0.01-0.094-0.022-0.186-0.033-0.279c-0.047-0.424-0.1-0.846-0.158-1.265
				c-0.021-0.149-0.042-0.298-0.064-0.447c-0.061-0.413-0.128-0.823-0.2-1.231c-0.017-0.094-0.031-0.19-0.049-0.283
				c-0.09-0.491-0.188-0.978-0.293-1.462c-0.027-0.123-0.056-0.245-0.083-0.367c-0.085-0.375-0.174-0.748-0.268-1.118
				c-0.035-0.138-0.069-0.276-0.106-0.413c-0.122-0.465-0.249-0.927-0.386-1.384c-0.003-0.011-0.006-0.022-0.009-0.032
				c-0.14-0.468-0.289-0.931-0.444-1.391c-0.044-0.131-0.089-0.26-0.134-0.391c-0.122-0.353-0.249-0.704-0.379-1.053
				c-0.044-0.117-0.087-0.235-0.131-0.351c-0.172-0.447-0.349-0.89-0.535-1.33c-0.032-0.076-0.066-0.151-0.099-0.227
				c-0.158-0.369-0.321-0.735-0.489-1.099c-0.059-0.128-0.119-0.256-0.179-0.384c-0.166-0.352-0.337-0.702-0.512-1.048
				c-0.042-0.084-0.083-0.168-0.126-0.252c-0.216-0.422-0.44-0.839-0.669-1.253c-0.057-0.103-0.116-0.205-0.174-0.307
				c-0.182-0.323-0.367-0.643-0.556-0.961c-0.07-0.118-0.14-0.236-0.212-0.354c-0.236-0.388-0.476-0.773-0.722-1.155
				c-0.012-0.018-0.023-0.037-0.035-0.056c-0.259-0.399-0.526-0.793-0.797-1.184c-0.077-0.111-0.154-0.22-0.232-0.33
				c-0.212-0.301-0.428-0.599-0.647-0.895c-0.074-0.1-0.147-0.201-0.222-0.3c-0.286-0.38-0.576-0.758-0.873-1.131
				c-0.047-0.059-0.096-0.118-0.144-0.177c-0.255-0.318-0.515-0.633-0.779-0.946c-0.091-0.107-0.182-0.215-0.273-0.321
				c-0.255-0.297-0.513-0.592-0.774-0.884c-0.064-0.072-0.128-0.145-0.192-0.217c-0.323-0.357-0.651-0.709-0.984-1.059
				c-0.08-0.084-0.162-0.168-0.243-0.251c-0.265-0.274-0.533-0.547-0.804-0.817c-0.098-0.098-0.197-0.196-0.296-0.293
				c-0.329-0.323-0.661-0.644-0.999-0.96c-0.021-0.019-0.04-0.039-0.061-0.058c-0.359-0.336-0.724-0.667-1.093-0.995
				c-0.101-0.09-0.204-0.18-0.306-0.27c-0.288-0.254-0.58-0.505-0.874-0.755c-0.097-0.083-0.194-0.166-0.292-0.248
				c-0.381-0.319-0.765-0.635-1.155-0.948c-0.054-0.043-0.108-0.085-0.162-0.128c-0.341-0.271-0.685-0.54-1.033-0.806
				c-0.114-0.087-0.229-0.174-0.343-0.261c-0.328-0.248-0.659-0.494-0.993-0.738c-0.081-0.059-0.161-0.119-0.243-0.178
				c-0.41-0.297-0.825-0.591-1.244-0.881c-0.094-0.065-0.19-0.13-0.284-0.195c-0.336-0.231-0.675-0.46-1.017-0.687
				c-0.119-0.079-0.238-0.158-0.357-0.236c-0.404-0.266-0.811-0.529-1.223-0.789c-0.027-0.017-0.053-0.034-0.079-0.051
				c-0.44-0.278-0.885-0.551-1.333-0.822c-0.117-0.071-0.234-0.14-0.351-0.211c-0.352-0.211-0.707-0.42-1.064-0.627
				c-0.113-0.066-0.226-0.132-0.34-0.197c-0.457-0.263-0.917-0.523-1.381-0.779c-0.049-0.027-0.1-0.054-0.149-0.081
				c-0.416-0.229-0.836-0.455-1.258-0.679c-0.129-0.068-0.257-0.136-0.386-0.204c-0.389-0.204-0.779-0.406-1.172-0.606
				c-0.09-0.046-0.18-0.093-0.27-0.138c-0.48-0.242-0.963-0.481-1.448-0.718c-0.099-0.048-0.199-0.095-0.298-0.143
				c-0.397-0.192-0.797-0.381-1.198-0.569c-0.129-0.06-0.258-0.121-0.387-0.18c-0.467-0.216-0.935-0.43-1.407-0.64
				c-0.026-0.012-0.052-0.024-0.078-0.035c-0.504-0.224-1.01-0.445-1.519-0.663c-0.122-0.052-0.244-0.104-0.366-0.156
				c-0.406-0.173-0.814-0.343-1.223-0.512c-0.12-0.049-0.24-0.099-0.36-0.149c-0.516-0.211-1.033-0.419-1.554-0.624
				c-0.034-0.013-0.068-0.026-0.101-0.039c-0.484-0.19-0.97-0.377-1.457-0.561c-0.132-0.05-0.265-0.1-0.397-0.15
				c-0.439-0.165-0.879-0.328-1.321-0.488c-0.091-0.033-0.181-0.067-0.272-0.099c-0.532-0.192-1.065-0.381-1.601-0.568
				c-0.092-0.032-0.185-0.064-0.277-0.095c-0.448-0.155-0.897-0.308-1.348-0.459c-0.131-0.044-0.263-0.088-0.395-0.132
				c-0.514-0.171-1.03-0.339-1.548-0.505c-0.02-0.006-0.039-0.013-0.059-0.019c-0.548-0.175-1.099-0.347-1.65-0.517
				c-0.118-0.036-0.236-0.072-0.355-0.108c-0.448-0.137-0.897-0.271-1.347-0.404c-0.118-0.035-0.237-0.07-0.355-0.105
				c-0.556-0.163-1.114-0.324-1.672-0.481c-0.007-0.002-0.013-0.004-0.02-0.005c-0.542-0.153-1.086-0.302-1.631-0.45
				c-0.126-0.034-0.252-0.068-0.378-0.102c-0.477-0.128-0.954-0.254-1.432-0.378c-0.084-0.022-0.167-0.044-0.251-0.066
				c-0.565-0.146-1.13-0.289-1.696-0.429c-0.079-0.02-0.158-0.039-0.237-0.058c-0.486-0.12-0.972-0.237-1.459-0.353
				c-0.125-0.03-0.25-0.059-0.375-0.089c-0.545-0.129-1.091-0.255-1.636-0.379c-0.011-0.003-0.022-0.005-0.034-0.008
				c-0.574-0.13-1.148-0.257-1.723-0.381c-0.105-0.023-0.21-0.045-0.316-0.068c-0.48-0.103-0.959-0.205-1.439-0.304
				c-0.106-0.022-0.213-0.044-0.319-0.066c-1.137-0.234-2.275-0.458-3.412-0.672c-0.116-0.022-0.233-0.044-0.349-0.065
				c-0.498-0.093-0.996-0.184-1.494-0.273c-0.071-0.013-0.142-0.026-0.213-0.038c-0.579-0.103-1.159-0.204-1.737-0.302
				c-0.053-0.009-0.107-0.018-0.16-0.027c-0.514-0.087-1.027-0.171-1.539-0.254c-0.111-0.018-0.223-0.036-0.334-0.054
				c-0.558-0.089-1.116-0.177-1.673-0.262c-0.542-0.083-1.084-0.163-1.624-0.241c-0.057-0.008-0.114-0.016-0.171-0.024
				c-0.461-0.066-0.92-0.131-1.38-0.195c-0.114-0.016-0.228-0.031-0.342-0.047c-0.422-0.058-0.843-0.114-1.263-0.169
				c-0.103-0.013-0.205-0.027-0.308-0.04c-1.046-0.135-2.089-0.263-3.125-0.383c-0.063-0.007-0.125-0.014-0.188-0.021
				c-0.446-0.051-0.891-0.101-1.336-0.15c-0.113-0.012-0.227-0.025-0.34-0.037c-0.413-0.044-0.825-0.088-1.236-0.13
				c-0.1-0.01-0.201-0.021-0.301-0.031c-1.024-0.104-2.042-0.2-3.052-0.289c-0.063-0.005-0.125-0.011-0.188-0.016
				c-0.431-0.038-0.86-0.074-1.288-0.109c-0.114-0.009-0.229-0.018-0.343-0.028c-0.398-0.032-0.795-0.063-1.19-0.093
				c-0.099-0.007-0.199-0.015-0.299-0.022c-0.987-0.073-1.967-0.139-2.937-0.199c-0.08-0.005-0.16-0.009-0.24-0.014
				c-0.399-0.024-0.796-0.047-1.191-0.069c-0.117-0.006-0.233-0.013-0.35-0.019c-0.373-0.02-0.745-0.04-1.115-0.058
				c-0.105-0.005-0.211-0.012-0.317-0.017c-0.941-0.044-1.872-0.085-2.792-0.117c-0.093-0.003-0.184-0.011-0.277-0.014
				c-0.363-0.012-0.724-0.033-1.084-0.043c-0.123-0.004-0.246-0.026-0.369-0.029c-0.343-0.009-6.791-0.034-6.906-0.033
				c-0.825,0.006-1.636,0.018-2.433,0.034c-0.11,0.002-0.22,0.007-0.329,0.009c-0.288,0.006-0.575,0.017-0.859,0.025
				c-0.128,0.003-0.256,0.014-0.383,0.018c-0.279,0.008-0.555,0.031-0.83,0.041c-0.111,0.004-0.223,0.036-0.334,0.04
				c-0.379,0.014-0.755,0.102-1.126,0.102h-0.001c-0.372,0-0.738-0.024-1.102-0.006c-0.112,0.006-0.223-0.046-0.335-0.04
				c-0.254,0.013-0.506,0.027-0.755,0.042c-0.122,0.007-0.244,0.014-0.366,0.022c-0.248,0.015-0.495,0.031-0.739,0.047
				c-0.106,0.007-0.213,0.014-0.318,0.021c-0.344,0.024-0.684,0.048-1.019,0.074c-61.74,4.774-95.877,28.372-95.877,63.872
				c0,0.375,0.007,0.748,0.018,1.121c0.003,0.115,0.009,0.23,0.013,0.344c0.01,0.265,0.023,0.529,0.039,0.793
				c0.007,0.124,0.015,0.249,0.024,0.373c0.02,0.282,0.043,0.563,0.069,0.844c0.008,0.091,0.015,0.183,0.025,0.274
				c0.037,0.366,0.079,0.732,0.126,1.097c0.012,0.091,0.026,0.182,0.038,0.273c0.038,0.278,0.079,0.555,0.123,0.831
				c0.02,0.127,0.042,0.253,0.063,0.379c0.043,0.252,0.089,0.503,0.137,0.754c0.023,0.12,0.045,0.241,0.07,0.361
				c0.066,0.328,0.136,0.654,0.21,0.98c0.01,0.043,0.019,0.085,0.029,0.128c0.081,0.347,0.167,0.693,0.257,1.038
				c0.032,0.124,0.067,0.247,0.1,0.371c0.065,0.238,0.131,0.477,0.201,0.714c0.039,0.134,0.078,0.268,0.119,0.401
				c0.075,0.246,0.152,0.491,0.232,0.736c0.036,0.112,0.071,0.225,0.109,0.337c0.114,0.341,0.232,0.682,0.356,1.021
				c0.04,0.111,0.083,0.221,0.125,0.332c0.089,0.24,0.18,0.479,0.275,0.718c0.055,0.14,0.112,0.28,0.169,0.42
				c0.087,0.215,0.177,0.43,0.268,0.644c0.059,0.138,0.117,0.277,0.178,0.415c0.112,0.257,0.228,0.512,0.346,0.768
				c0.061,0.132,0.121,0.263,0.184,0.395c0.133,0.281,0.269,0.562,0.408,0.841c0.071,0.142,0.144,0.283,0.216,0.425
				c0.102,0.199,0.205,0.398,0.311,0.597c0.079,0.15,0.16,0.299,0.241,0.449c0.108,0.199,0.219,0.397,0.331,0.595
				c0.078,0.139,0.156,0.279,0.236,0.417c0.179,0.31,0.361,0.619,0.548,0.927c0.084,0.138,0.17,0.275,0.255,0.412
				c0.119,0.193,0.239,0.385,0.362,0.577c0.099,0.155,0.2,0.31,0.301,0.464c0.115,0.176,0.232,0.351,0.349,0.526
				c0.103,0.154,0.207,0.308,0.312,0.461c0.134,0.195,0.271,0.389,0.409,0.583c0.148,0.209,0.297,0.417,0.448,0.624
				c0.156,0.215,0.313,0.429,0.474,0.642c0.115,0.154,0.234,0.307,0.351,0.46c0.127,0.165,0.255,0.331,0.384,0.495
				c0.123,0.157,0.248,0.314,0.373,0.47c0.132,0.165,0.266,0.329,0.401,0.493c0.123,0.151,0.246,0.301,0.371,0.451
				c0.237,0.283,0.477,0.565,0.72,0.845l0,0c0.173,0.199,0.35,0.396,0.526,0.594c0.113,0.127,0.225,0.254,0.339,0.38
				c0.165,0.182,0.334,0.363,0.502,0.544c0.132,0.142,0.263,0.284,0.396,0.425c0.162,0.171,0.325,0.341,0.49,0.511
				c0.146,0.151,0.293,0.303,0.441,0.453c0.158,0.161,0.318,0.322,0.479,0.482c0.161,0.161,0.324,0.321,0.488,0.481
				c0.153,0.149,0.306,0.299,0.461,0.447c0.182,0.175,0.367,0.349,0.552,0.522c0.143,0.134,0.284,0.268,0.429,0.401
				c0.216,0.199,0.435,0.397,0.655,0.595c0.119,0.107,0.236,0.215,0.356,0.321c0.343,0.305,0.689,0.608,1.041,0.91
				c4.863,4.687,10.836,8.875,17.664,12.514c31.316,16.691,80.585,21.872,122.901,11.033c25.422-6.511,43.713-17.623,53.024-30.496
				c7.553-8.648,11.804-18.408,11.804-28.738c0-0.542-0.011-1.077-0.028-1.61C358.75,242.757,358.743,242.605,358.737,242.453z"/>
			<path fill="#F2F2F2" d="M372.939,250.215c0-42.629-30.906-63.247-68.731-72.883c-23.089-5.882-48.755-7.577-71.545-7.47
				c-55.698,0.261-114.43,29.066-114.43,80.04c0,1.11,0.038,2.097,0.098,3.097h-0.059c0,0,6.672,142.669,107.895,154.991
				c2.008,0.009,2.008,0.009,2.957,0.009h42.469c0,0,99.416-15,101.346-155h-0.065C372.912,252,372.939,251.242,372.939,250.215z"/>
		</g>
		<path fill="#FFCC99" d="M358.755,242.909c-0.005-0.152-0.011-0.304-0.017-0.456c-0.017-0.41-0.038-0.817-0.064-1.222
			c-0.009-0.134-0.016-0.269-0.026-0.403c-0.038-0.518-0.083-1.033-0.137-1.543c-0.01-0.094-0.022-0.186-0.033-0.279
			c-0.047-0.424-0.1-0.846-0.158-1.265c-0.021-0.149-0.042-0.298-0.064-0.447c-0.061-0.413-0.128-0.823-0.2-1.231
			c-0.017-0.094-0.031-0.19-0.049-0.283c-0.09-0.491-0.188-0.978-0.293-1.462c-0.027-0.123-0.056-0.245-0.083-0.367
			c-0.085-0.375-0.174-0.748-0.268-1.118c-0.035-0.138-0.069-0.276-0.106-0.413c-0.122-0.465-0.249-0.927-0.386-1.384
			c-0.003-0.011-0.006-0.022-0.009-0.032c-0.14-0.468-0.289-0.931-0.444-1.391c-0.044-0.131-0.089-0.261-0.134-0.391
			c-0.122-0.353-0.249-0.704-0.379-1.053c-0.044-0.117-0.087-0.235-0.131-0.351c-0.172-0.447-0.349-0.89-0.535-1.33
			c-0.032-0.076-0.066-0.151-0.099-0.227c-0.158-0.369-0.321-0.735-0.489-1.099c-0.059-0.128-0.119-0.256-0.179-0.384
			c-0.166-0.352-0.337-0.702-0.512-1.048c-0.042-0.084-0.083-0.168-0.126-0.252c-0.216-0.422-0.44-0.839-0.669-1.253
			c-0.057-0.103-0.116-0.205-0.174-0.307c-0.182-0.323-0.367-0.643-0.556-0.961c-0.07-0.118-0.14-0.236-0.212-0.354
			c-0.236-0.388-0.476-0.773-0.722-1.155c-0.012-0.018-0.023-0.037-0.035-0.056c-0.259-0.399-0.526-0.793-0.797-1.184
			c-0.077-0.111-0.154-0.22-0.232-0.33c-0.212-0.301-0.428-0.599-0.647-0.895c-0.074-0.1-0.147-0.201-0.222-0.3
			c-0.286-0.38-0.576-0.758-0.873-1.131c-0.047-0.059-0.096-0.118-0.144-0.177c-0.255-0.318-0.515-0.633-0.779-0.946
			c-0.091-0.107-0.182-0.215-0.273-0.321c-0.255-0.297-0.513-0.592-0.774-0.884c-0.064-0.072-0.128-0.145-0.192-0.217
			c-0.323-0.357-0.651-0.709-0.984-1.059c-0.08-0.084-0.162-0.168-0.243-0.251c-0.265-0.274-0.533-0.547-0.804-0.817
			c-0.098-0.098-0.197-0.196-0.296-0.293c-0.329-0.323-0.661-0.644-0.999-0.96c-0.021-0.019-0.04-0.039-0.061-0.058
			c-0.359-0.336-0.724-0.667-1.093-0.995c-0.101-0.09-0.204-0.18-0.306-0.27c-0.288-0.254-0.58-0.505-0.874-0.755
			c-0.097-0.083-0.194-0.166-0.292-0.248c-0.381-0.319-0.765-0.635-1.155-0.948c-0.054-0.043-0.108-0.085-0.162-0.128
			c-0.341-0.271-0.685-0.54-1.033-0.806c-0.114-0.087-0.229-0.174-0.343-0.261c-0.328-0.248-0.659-0.494-0.993-0.738
			c-0.081-0.059-0.161-0.119-0.243-0.178c-0.41-0.297-0.825-0.591-1.244-0.881c-0.094-0.065-0.19-0.13-0.284-0.195
			c-0.336-0.231-0.675-0.46-1.017-0.687c-0.119-0.079-0.238-0.158-0.357-0.236c-0.404-0.266-0.811-0.529-1.223-0.789
			c-0.027-0.017-0.053-0.034-0.079-0.051c-0.44-0.278-0.885-0.551-1.333-0.822c-0.117-0.071-0.234-0.14-0.351-0.211
			c-0.352-0.211-0.707-0.42-1.064-0.627c-0.113-0.066-0.226-0.132-0.34-0.197c-0.457-0.263-0.917-0.523-1.381-0.779
			c-0.049-0.027-0.1-0.054-0.149-0.081c-0.416-0.229-0.836-0.455-1.258-0.679c-0.128-0.068-0.258-0.136-0.386-0.204
			c-0.389-0.204-0.779-0.406-1.172-0.606c-0.09-0.046-0.18-0.093-0.27-0.138c-0.48-0.242-0.963-0.481-1.448-0.718
			c-0.099-0.048-0.199-0.095-0.298-0.143c-0.397-0.192-0.797-0.381-1.198-0.569c-0.129-0.06-0.258-0.121-0.387-0.18
			c-0.467-0.216-0.935-0.43-1.407-0.64c-0.026-0.012-0.052-0.024-0.078-0.035c-0.504-0.224-1.01-0.445-1.519-0.663
			c-0.122-0.052-0.244-0.104-0.366-0.156c-0.406-0.173-0.814-0.343-1.223-0.512c-0.12-0.049-0.24-0.099-0.36-0.149
			c-0.516-0.211-1.033-0.419-1.554-0.624c-0.034-0.013-0.068-0.026-0.101-0.039c-0.484-0.19-0.97-0.377-1.457-0.561
			c-0.132-0.05-0.265-0.1-0.397-0.15c-0.439-0.165-0.879-0.328-1.321-0.488c-0.091-0.033-0.181-0.067-0.272-0.099
			c-0.532-0.192-1.065-0.381-1.601-0.568c-0.092-0.032-0.185-0.064-0.277-0.095c-0.448-0.155-0.897-0.308-1.348-0.459
			c-0.131-0.044-0.263-0.088-0.395-0.132c-0.514-0.171-1.03-0.339-1.548-0.505c-0.02-0.006-0.039-0.013-0.059-0.019
			c-0.548-0.175-1.099-0.347-1.65-0.517c-0.118-0.036-0.236-0.072-0.355-0.108c-0.448-0.137-0.897-0.271-1.347-0.404
			c-0.118-0.035-0.237-0.07-0.355-0.105c-0.556-0.163-1.114-0.324-1.672-0.481c-0.007-0.002-0.013-0.004-0.02-0.005
			c-0.542-0.153-1.086-0.302-1.631-0.45c-0.126-0.034-0.252-0.068-0.378-0.102c-0.477-0.128-0.954-0.254-1.432-0.378
			c-0.084-0.022-0.167-0.044-0.251-0.066c-0.565-0.146-1.13-0.289-1.696-0.429c-0.079-0.02-0.158-0.039-0.237-0.058
			c-0.486-0.12-0.972-0.237-1.459-0.353c-0.125-0.03-0.25-0.059-0.375-0.089c-0.545-0.129-1.091-0.255-1.636-0.379
			c-0.011-0.003-0.022-0.005-0.034-0.008c-0.574-0.13-1.148-0.257-1.723-0.381c-0.105-0.023-0.21-0.045-0.316-0.068
			c-0.48-0.103-0.959-0.205-1.439-0.304c-0.106-0.022-0.213-0.044-0.319-0.066c-1.137-0.234-2.275-0.458-3.412-0.672
			c-0.116-0.022-0.233-0.044-0.349-0.065c-0.498-0.093-0.996-0.184-1.494-0.273c-0.071-0.013-0.142-0.026-0.213-0.038
			c-0.579-0.103-1.159-0.204-1.737-0.302c-0.053-0.009-0.107-0.018-0.16-0.027c-0.514-0.087-1.027-0.171-1.539-0.254
			c-0.111-0.018-0.223-0.036-0.334-0.054c-0.558-0.089-1.116-0.177-1.673-0.262c-0.542-0.083-1.084-0.163-1.624-0.241
			c-0.057-0.008-0.114-0.016-0.171-0.024c-0.461-0.066-0.92-0.131-1.38-0.195c-0.114-0.016-0.228-0.031-0.342-0.047
			c-0.422-0.058-0.843-0.114-1.263-0.169c-0.103-0.013-0.205-0.027-0.308-0.04c-1.046-0.135-2.089-0.263-3.125-0.383
			c-0.063-0.007-0.125-0.014-0.188-0.021c-0.446-0.051-0.891-0.101-1.336-0.15c-0.113-0.012-0.227-0.025-0.34-0.037
			c-0.413-0.044-0.825-0.088-1.236-0.13c-0.1-0.01-0.201-0.021-0.301-0.031c-1.024-0.104-2.042-0.2-3.052-0.289
			c-0.063-0.005-0.125-0.011-0.188-0.016c-0.431-0.038-0.86-0.074-1.288-0.109c-0.114-0.009-0.229-0.019-0.343-0.028
			c-0.398-0.032-0.795-0.063-1.19-0.092c-0.099-0.008-0.199-0.015-0.299-0.023c-0.987-0.073-1.967-0.139-2.937-0.199
			c-0.08-0.005-0.16-0.009-0.24-0.014c-0.399-0.024-0.796-0.047-1.191-0.069c-0.117-0.006-0.233-0.013-0.35-0.019
			c-0.373-0.02-0.745-0.039-1.115-0.057c-0.105-0.005-0.211-0.01-0.317-0.015c-0.941-0.044-1.872-0.083-2.792-0.115
			c-0.093-0.003-0.184-0.006-0.277-0.009c-0.363-0.012-0.724-0.023-1.084-0.034c-0.123-0.003-0.246-0.007-0.369-0.01
			c-0.343-0.009-0.684-0.018-1.023-0.025c-0.11-0.002-0.221-0.005-0.331-0.007c-0.886-0.018-1.761-0.031-2.623-0.038
			c-0.104-0.001-4.565-0.137-5.362-0.12c-0.11,0.002-0.22,0.081-0.329,0.083c-0.288,0.006-0.575,0.051-0.859,0.059
			c-0.128,0.003-0.256,0.026-0.383,0.03c-0.279,0.008-0.555,0.027-0.83,0.036c-0.111,0.004-0.246,0.07-0.357,0.074
			c-0.379,0.014-1.149,0.105-1.149,0.105v0.001c0,0-0.716-0.024-1.079-0.005c-0.112,0.006-0.212-0.017-0.323-0.011
			c-0.254,0.013-0.5,0.013-0.75,0.028c-0.122,0.007-0.241,0.007-0.363,0.015c-0.249,0.015-0.493,0.027-0.738,0.044
			c-0.106,0.007-0.212,0.012-0.318,0.019c-0.344,0.024-0.684,0.047-1.019,0.073c-61.74,4.774-95.877,28.371-95.877,63.871
			c0,0.375,0.007,0.748,0.018,1.121c0.003,0.115,0.009,0.229,0.013,0.344c0.01,0.265,0.023,0.529,0.039,0.793
			c0.008,0.124,0.015,0.249,0.024,0.373c0.02,0.282,0.043,0.563,0.069,0.844c0.008,0.091,0.015,0.183,0.025,0.274
			c0.037,0.366,0.079,0.732,0.126,1.097c0.012,0.091,0.026,0.182,0.038,0.273c0.038,0.278,0.079,0.555,0.123,0.831
			c0.02,0.127,0.042,0.253,0.063,0.379c0.043,0.252,0.089,0.503,0.137,0.754c0.023,0.12,0.045,0.241,0.07,0.361
			c0.066,0.328,0.136,0.654,0.21,0.98c0.01,0.043,0.019,0.085,0.029,0.128c0.081,0.347,0.167,0.693,0.257,1.038
			c0.032,0.124,0.067,0.247,0.1,0.371c0.065,0.238,0.131,0.477,0.201,0.714c0.039,0.134,0.078,0.268,0.119,0.401
			c0.075,0.246,0.152,0.491,0.232,0.736c0.036,0.112,0.071,0.225,0.109,0.337c0.114,0.341,0.232,0.682,0.356,1.021
			c0.04,0.111,0.083,0.221,0.125,0.332c0.089,0.24,0.18,0.479,0.275,0.718c0.055,0.14,0.112,0.28,0.169,0.42
			c0.087,0.215,0.177,0.43,0.268,0.644c0.059,0.138,0.117,0.277,0.178,0.415c0.112,0.257,0.228,0.512,0.346,0.768
			c0.061,0.132,0.121,0.263,0.184,0.395c0.133,0.281,0.269,0.562,0.408,0.841c0.071,0.142,0.144,0.283,0.216,0.425
			c0.102,0.199,0.205,0.398,0.311,0.597c0.079,0.15,0.16,0.299,0.241,0.449c0.108,0.199,0.219,0.397,0.331,0.595
			c0.078,0.139,0.156,0.279,0.236,0.417c0.179,0.31,0.361,0.619,0.548,0.927c0.084,0.138,0.17,0.275,0.255,0.412
			c0.119,0.193,0.239,0.385,0.362,0.577c0.099,0.155,0.2,0.31,0.301,0.464c0.115,0.176,0.232,0.351,0.349,0.526
			c0.103,0.154,0.207,0.308,0.312,0.461c0.134,0.195,0.271,0.389,0.409,0.583c0.148,0.209,0.297,0.417,0.448,0.624
			c0.156,0.215,0.313,0.429,0.474,0.642c0.115,0.154,0.234,0.307,0.351,0.46c0.127,0.165,0.255,0.331,0.384,0.495
			c0.123,0.157,0.248,0.314,0.373,0.47c0.132,0.165,0.266,0.329,0.401,0.493c0.123,0.151,0.246,0.301,0.371,0.451
			c0.237,0.283,0.477,0.565,0.721,0.845c0.173,0.199,0.35,0.396,0.526,0.594c0.113,0.127,0.225,0.254,0.339,0.38
			c0.165,0.182,0.334,0.363,0.502,0.544c0.132,0.142,0.263,0.284,0.396,0.425c0.162,0.171,0.325,0.341,0.49,0.511
			c0.146,0.151,0.293,0.303,0.441,0.453c0.158,0.161,0.318,0.322,0.479,0.482c0.161,0.161,0.324,0.321,0.488,0.481
			c0.153,0.149,0.306,0.299,0.461,0.447c0.182,0.175,0.367,0.349,0.552,0.522c0.143,0.134,0.284,0.268,0.429,0.401
			c0.216,0.199,0.435,0.397,0.655,0.595c0.119,0.107,0.236,0.215,0.356,0.321c0.343,0.305,0.689,0.608,1.041,0.91
			c4.863,4.687,10.836,8.875,17.664,12.514c31.316,16.691,80.585,21.872,122.901,11.033c25.422-6.511,43.713-17.623,53.024-30.496
			c7.553-8.648,11.804-18.408,11.804-28.738C358.783,243.978,358.771,243.442,358.755,242.909z"/>
		<path fill="#FFFFFF" d="M412.614,259.874c-10.294-3.611-21.945-4.947-21.945-4.947l-0.009,0.042
			c-4.406-0.558-8.333,2.238-9.285,6.463l-1.135,5.037c1.595,2.374,4.219,4.89,8.465,7.233c12.663,6.987,30.342,39.819-0.664,48.893
			c-6.522,2.712-13.09,2.14-13.09,2.14s37.654,9.046,49.719-20.649C436.905,273.969,422.908,263.484,412.614,259.874z"/>
		<path fill="#E6E6E6" d="M388.704,273.701c-4.247-2.343-6.871-4.859-8.465-7.233l-2.739,12.149
			c-0.953,4.225,1.394,8.435,5.614,9.822l-0.009,0.042c0,0,0.097,0.085,0.372,0.138c0.129,0.036,0.197,0.14,0.33,0.17l1.899,0.428
			c5.507,1.241,17.012,6.069,14.581,18.262c-1.708,8.565-6.962,12.918-12.246,15.116
			C419.046,313.519,401.367,280.687,388.704,273.701z"/>
		<path fill="#CC9966" d="M168.216,248.692c13.652-20.267,46.238-39.369,91.918-51.07c-19.809-1.285-40.529,0.325-59.807,5.263
			c-53.025,13.581-75.052,47.172-49.197,75.026c0.723,0.778,1.478,1.543,2.259,2.296c4.863,4.687,10.836,8.875,17.664,12.514
			C163.081,284.13,161.333,262.224,168.216,248.692z"/>
		<path fill="#42210B" d="M358.783,244.519c0-0.542-0.011-1.077-0.028-1.61c-0.005-0.152-0.011-0.304-0.017-0.456
			c-0.017-0.41-0.038-0.817-0.064-1.222c-0.009-0.134-0.016-0.269-0.026-0.403c-0.038-0.518-0.083-1.033-0.137-1.543
			c-0.01-0.094-0.022-0.186-0.033-0.279c-0.047-0.424-0.1-0.846-0.158-1.265c-0.021-0.149-0.042-0.298-0.064-0.447
			c-0.061-0.413-0.128-0.823-0.2-1.231c-0.017-0.094-0.031-0.19-0.049-0.283c-0.09-0.491-0.188-0.978-0.293-1.462
			c-0.027-0.123-0.056-0.245-0.083-0.367c-0.085-0.375-0.174-0.748-0.268-1.118c-0.035-0.138-0.069-0.276-0.106-0.413
			c-0.122-0.465-0.249-0.927-0.386-1.384c-0.003-0.011-0.006-0.022-0.009-0.032c-0.14-0.468-0.289-0.931-0.444-1.391
			c-0.044-0.131-0.089-0.261-0.134-0.391c-0.122-0.353-0.249-0.704-0.379-1.053c-0.044-0.117-0.087-0.235-0.131-0.351
			c-0.172-0.447-0.349-0.89-0.535-1.33c-0.032-0.076-0.066-0.151-0.099-0.227c-0.158-0.369-0.321-0.735-0.489-1.099
			c-0.059-0.128-0.119-0.256-0.179-0.384c-0.166-0.352-0.337-0.702-0.512-1.048c-0.042-0.084-0.083-0.168-0.126-0.252
			c-0.216-0.422-0.44-0.839-0.669-1.253c-0.057-0.103-0.116-0.205-0.174-0.307c-0.182-0.323-0.367-0.643-0.556-0.961
			c-0.07-0.118-0.14-0.236-0.212-0.354c-0.236-0.388-0.476-0.773-0.722-1.155c-0.012-0.018-0.023-0.037-0.035-0.056
			c-0.259-0.399-0.526-0.793-0.797-1.184c-0.077-0.111-0.154-0.22-0.232-0.33c-0.212-0.301-0.428-0.599-0.647-0.895
			c-0.074-0.1-0.147-0.201-0.222-0.3c-0.286-0.38-0.576-0.758-0.873-1.131c-0.047-0.059-0.096-0.118-0.144-0.177
			c-0.255-0.318-0.515-0.633-0.779-0.946c-0.091-0.107-0.182-0.215-0.273-0.321c-0.255-0.297-0.513-0.592-0.774-0.884
			c-0.064-0.072-0.128-0.145-0.192-0.217c-0.323-0.357-0.651-0.709-0.984-1.059c-0.08-0.084-0.162-0.168-0.243-0.251
			c-0.265-0.274-0.533-0.547-0.804-0.817c-0.098-0.098-0.197-0.196-0.296-0.293c-0.329-0.323-0.661-0.644-0.999-0.96
			c-0.021-0.019-0.04-0.039-0.061-0.058c-0.359-0.336-0.724-0.667-1.093-0.995c-0.101-0.09-0.204-0.18-0.306-0.27
			c-0.288-0.254-0.58-0.505-0.874-0.755c-0.097-0.083-0.194-0.166-0.292-0.248c-0.381-0.319-0.765-0.635-1.155-0.948
			c-0.054-0.043-0.108-0.085-0.162-0.128c-0.341-0.271-0.685-0.54-1.033-0.806c-0.114-0.087-0.229-0.174-0.343-0.261
			c-0.328-0.248-0.659-0.494-0.993-0.738c-0.081-0.059-0.161-0.119-0.243-0.178c-0.41-0.297-0.825-0.591-1.244-0.881
			c-0.094-0.065-0.19-0.13-0.284-0.195c-0.336-0.231-0.675-0.46-1.017-0.687c-0.119-0.079-0.238-0.158-0.357-0.236
			c-0.404-0.266-0.811-0.529-1.223-0.789c-0.027-0.017-0.053-0.034-0.079-0.051c-0.44-0.278-0.885-0.551-1.333-0.822
			c-0.117-0.071-0.234-0.14-0.351-0.211c-0.352-0.211-0.707-0.42-1.064-0.627c-0.113-0.066-0.226-0.132-0.34-0.197
			c-0.457-0.263-0.917-0.523-1.381-0.779c-0.049-0.027-0.1-0.054-0.149-0.081c-0.416-0.229-0.836-0.455-1.258-0.679
			c-0.128-0.068-0.258-0.136-0.386-0.204c-0.389-0.204-0.779-0.406-1.172-0.606c-0.09-0.046-0.18-0.093-0.27-0.138
			c-0.48-0.242-0.963-0.481-1.448-0.718c-0.099-0.048-0.199-0.095-0.298-0.143c-0.397-0.192-0.797-0.381-1.198-0.569
			c-0.129-0.06-0.258-0.121-0.387-0.18c-0.467-0.216-0.935-0.43-1.407-0.64c-0.026-0.012-0.052-0.024-0.078-0.035
			c-0.504-0.224-1.01-0.445-1.519-0.663c-0.122-0.052-0.244-0.104-0.366-0.156c-0.406-0.173-0.814-0.343-1.223-0.512
			c-0.12-0.049-0.24-0.099-0.36-0.149c-0.516-0.211-1.033-0.419-1.554-0.624c-0.034-0.013-0.068-0.026-0.101-0.039
			c-0.484-0.19-0.97-0.377-1.457-0.561c-0.132-0.05-0.265-0.1-0.397-0.15c-0.439-0.165-0.879-0.328-1.321-0.488
			c-0.091-0.033-0.181-0.067-0.272-0.099c-0.532-0.192-1.065-0.381-1.601-0.568c-0.092-0.032-0.185-0.064-0.277-0.095
			c-0.448-0.155-0.897-0.308-1.348-0.459c-0.131-0.044-0.263-0.088-0.395-0.132c-0.514-0.171-1.03-0.339-1.548-0.505
			c-0.02-0.006-0.039-0.013-0.059-0.019c-0.548-0.175-1.099-0.347-1.65-0.517c-0.118-0.036-0.236-0.072-0.355-0.108
			c-0.448-0.137-0.897-0.271-1.347-0.404c-0.118-0.035-0.237-0.07-0.355-0.105c-0.556-0.163-1.114-0.324-1.672-0.481
			c-0.007-0.002-0.013-0.004-0.02-0.005c-0.542-0.153-1.086-0.302-1.631-0.45c-0.126-0.034-0.252-0.068-0.378-0.102
			c-0.477-0.128-0.954-0.254-1.432-0.378c-0.084-0.022-0.167-0.044-0.251-0.066c-0.565-0.146-1.13-0.289-1.696-0.429
			c-0.079-0.02-0.158-0.039-0.237-0.058c-0.486-0.12-0.972-0.237-1.459-0.353c-0.125-0.03-0.25-0.059-0.375-0.089
			c-0.545-0.129-1.091-0.255-1.636-0.379c-0.011-0.003-0.022-0.005-0.034-0.008c-0.574-0.13-1.148-0.257-1.723-0.381
			c-0.105-0.023-0.21-0.045-0.316-0.068c-0.48-0.103-0.959-0.205-1.439-0.304c-0.106-0.022-0.213-0.044-0.319-0.066
			c-1.137-0.234-2.275-0.458-3.412-0.672c-0.116-0.022-0.233-0.044-0.349-0.065c-0.498-0.093-0.996-0.184-1.494-0.273
			c-0.071-0.013-0.142-0.026-0.213-0.038c-0.579-0.103-1.159-0.204-1.737-0.302c-0.053-0.009-0.107-0.018-0.16-0.027
			c-0.514-0.087-1.027-0.171-1.539-0.254c-0.111-0.018-0.223-0.036-0.334-0.054c-0.558-0.089-1.116-0.177-1.673-0.262
			c-0.542-0.083-1.084-0.163-1.624-0.241c-0.057-0.008-0.114-0.016-0.171-0.024c-0.461-0.066-0.92-0.131-1.38-0.195
			c-0.114-0.016-0.228-0.031-0.342-0.047c-0.422-0.058-0.843-0.114-1.263-0.169c-0.103-0.013-0.205-0.027-0.308-0.04
			c-1.046-0.135-2.089-0.263-3.125-0.383c-0.063-0.007-0.125-0.014-0.188-0.021c-0.446-0.051-0.891-0.101-1.336-0.15
			c-0.113-0.012-0.227-0.025-0.34-0.037c-0.413-0.044-0.825-0.088-1.236-0.13c-0.1-0.01-0.201-0.021-0.301-0.031
			c-1.024-0.104-2.042-0.2-3.052-0.289c-0.063-0.005-0.125-0.011-0.188-0.016c-0.431-0.038-0.86-0.074-1.288-0.109
			c-0.114-0.009-0.229-0.019-0.343-0.028c-0.398-0.032-0.795-0.063-1.19-0.092c-0.099-0.008-0.199-0.015-0.299-0.023
			c-0.987-0.073-1.967-0.139-2.937-0.199c-0.08-0.005-0.16-0.009-0.24-0.014c-0.399-0.024-0.796-0.047-1.191-0.069
			c-0.117-0.006-0.233-0.013-0.35-0.019c-0.373-0.02-0.745-0.039-1.115-0.057c-0.105-0.005-0.211-0.01-0.317-0.015
			c-0.941-0.044-1.872-0.083-2.792-0.115c-0.093-0.003-0.184-0.006-0.277-0.009c-0.363-0.012-0.724-0.023-1.084-0.034
			c-0.123-0.003-0.246-0.007-0.369-0.01c-0.343-0.009-0.684-0.018-1.023-0.025c-0.11-0.002-0.221-0.005-0.331-0.007
			c-0.886-0.018-1.761-0.031-2.623-0.038c-0.104-0.001-4.565-0.137-5.362-0.12c-0.11,0.002-0.22,0.081-0.329,0.083
			c-0.288,0.006-0.575,0.051-0.859,0.059c-0.128,0.003-0.256,0.026-0.383,0.03c-0.279,0.008-0.555,0.027-0.83,0.036
			c-0.111,0.004-0.246,0.07-0.357,0.074c-0.379,0.014-1.149,0.105-1.149,0.105v0.001c0,0-0.716-0.024-1.079-0.005
			c-0.112,0.006-0.212-0.017-0.323-0.011c-0.254,0.013-0.5,0.013-0.75,0.028c-0.122,0.007-0.241,0.007-0.363,0.015
			c-0.249,0.015-0.493,0.027-0.738,0.044c-0.106,0.007-0.212,0.012-0.318,0.019c-0.344,0.024-0.684,0.047-1.019,0.073
			c-61.74,4.774-95.877,28.371-95.877,63.871c0,0.375,0.007,0.748,0.018,1.121c0.003,0.115,0.009,0.229,0.013,0.344
			c0.01,0.265,0.023,0.529,0.039,0.793c0.008,0.124,0.015,0.249,0.024,0.373c0.02,0.282,0.043,0.563,0.069,0.844
			c0.008,0.091,0.015,0.183,0.025,0.274c0.037,0.366,0.079,0.732,0.126,1.097c0.012,0.091,0.026,0.182,0.038,0.273
			c0.038,0.278,0.079,0.555,0.123,0.831c0.02,0.127,0.042,0.253,0.063,0.379c0.043,0.252,0.089,0.503,0.137,0.754
			c0.023,0.12,0.045,0.241,0.07,0.361c0.066,0.328,0.136,0.654,0.21,0.98c0.01,0.043,0.019,0.085,0.029,0.128
			c0.081,0.347,0.167,0.693,0.257,1.038c0.032,0.124,0.067,0.247,0.1,0.371c0.065,0.238,0.131,0.477,0.201,0.714
			c0.039,0.134,0.078,0.268,0.119,0.401c0.075,0.246,0.152,0.491,0.232,0.736c0.036,0.112,0.071,0.225,0.109,0.337
			c0.114,0.341,0.232,0.682,0.356,1.021c0.04,0.111,0.083,0.221,0.125,0.332c0.089,0.24,0.18,0.479,0.275,0.718
			c0.055,0.14,0.112,0.28,0.169,0.42c0.087,0.215,0.177,0.43,0.268,0.644c0.059,0.138,0.117,0.277,0.178,0.415
			c0.112,0.257,0.228,0.512,0.346,0.768c0.061,0.132,0.121,0.263,0.184,0.395c0.133,0.281,0.269,0.562,0.408,0.841
			c0.071,0.142,0.144,0.283,0.216,0.425c0.102,0.199,0.205,0.398,0.311,0.597c0.079,0.15,0.16,0.299,0.241,0.449
			c0.108,0.199,0.219,0.397,0.331,0.595c0.078,0.139,0.156,0.279,0.236,0.417c0.179,0.31,0.361,0.619,0.548,0.927
			c0.084,0.138,0.17,0.275,0.255,0.412c0.119,0.193,0.239,0.385,0.362,0.577c0.099,0.155,0.2,0.31,0.301,0.464
			c0.115,0.176,0.232,0.351,0.349,0.526c0.103,0.154,0.207,0.308,0.312,0.461c0.134,0.195,0.271,0.389,0.409,0.583
			c0.148,0.209,0.297,0.417,0.448,0.624c0.156,0.215,0.313,0.429,0.474,0.642c0.115,0.154,0.234,0.307,0.351,0.46
			c0.127,0.165,0.255,0.331,0.384,0.495c0.123,0.157,0.248,0.314,0.373,0.47c0.132,0.165,0.266,0.329,0.401,0.493
			c0.123,0.151,0.246,0.301,0.371,0.451c0.237,0.283,0.477,0.565,0.721,0.845c0.173,0.199,0.35,0.396,0.526,0.594
			c0.113,0.127,0.225,0.254,0.339,0.38c0.165,0.182,0.334,0.363,0.502,0.544c0.132,0.142,0.263,0.284,0.396,0.425
			c0.162,0.171,0.325,0.341,0.49,0.511c0.146,0.151,0.293,0.303,0.441,0.453c0.158,0.161,0.318,0.322,0.479,0.482
			c0.161,0.161,0.324,0.321,0.488,0.481c0.153,0.149,0.306,0.299,0.461,0.447c0.182,0.175,0.367,0.349,0.552,0.522
			c0.143,0.134,0.284,0.268,0.429,0.401c0.216,0.199,0.435,0.397,0.655,0.595c0.119,0.107,0.236,0.215,0.356,0.321
			c0.343,0.305,0.689,0.608,1.041,0.91c-0.781-0.753-1.536-1.517-2.259-2.296c-25.855-27.854-3.828-61.444,49.197-75.026
			c19.278-4.938,39.997-6.548,59.807-5.263c34.678,2.25,66.563,13.378,83.018,31.106c13.459,14.5,13.937,30.553,3.827,44.53
			C354.531,264.609,358.783,254.849,358.783,244.519z"/>
		<path fill="#663300" d="M217.39,260.331l0.141-0.058c0,0-0.051-0.039-0.145-0.112c-0.09-0.076-0.257-0.17-0.408-0.323
			c-0.346-0.283-0.775-0.734-1.126-1.351c-0.344-0.617-0.567-1.41-0.547-2.284c0.048-0.873,0.343-1.822,0.943-2.682
			c0.583-0.861,1.447-1.623,2.375-2.152c0.462-0.266,0.928-0.487,1.391-0.644c0.45-0.176,0.903-0.275,1.313-0.373
			c0.84-0.157,1.591-0.22,2.176-0.211c0.071-0.002,0.138-0.005,0.201-0.007c0.067,0.003,0.129,0.006,0.187,0.008
			c0.116,0.004,0.215,0.007,0.296,0.009c0.161,0.003,0.247,0.004,0.247,0.004l0.019-0.093c0.189-0.928,0.022-1.843-0.907-2.667
			c-0.461-0.397-1.111-0.785-1.969-1.077c-0.214-0.074-0.444-0.154-0.682-0.216c-0.238-0.061-0.49-0.118-0.755-0.172
			c-0.264-0.052-0.545-0.108-0.831-0.145c-0.285-0.035-0.583-0.066-0.893-0.092c-1.242-0.107-2.63-0.063-4.081,0.122
			c-1.439,0.194-2.901,0.548-4.277,1.04c-1.349,0.5-2.601,1.134-3.66,1.869c-1.05,0.736-1.892,1.571-2.507,2.46
			c-0.621,0.889-0.946,1.794-1.05,2.668c-0.114,0.874,0.027,1.721,0.354,2.505c0.305,0.784,0.863,1.506,1.496,2.136
			c0.679,0.63,1.456,1.169,2.339,1.596c1.757,0.858,3.746,1.257,5.556,1.232C214.405,261.307,215.986,260.902,217.39,260.331z"/>
		<path fill="#663300" d="M256.39,242.331l0.141-0.058c0,0-0.051-0.039-0.145-0.112c-0.09-0.076-0.257-0.17-0.408-0.323
			c-0.346-0.283-0.775-0.734-1.126-1.351c-0.344-0.617-0.567-1.41-0.547-2.284c0.048-0.873,0.343-1.822,0.943-2.682
			c0.583-0.861,1.447-1.623,2.375-2.152c0.462-0.266,0.928-0.487,1.391-0.644c0.45-0.176,0.903-0.275,1.313-0.373
			c0.84-0.157,1.591-0.22,2.176-0.211c0.071-0.002,0.138-0.005,0.201-0.007c0.067,0.003,0.129,0.006,0.187,0.008
			c0.116,0.004,0.215,0.007,0.296,0.009c0.161,0.003,0.247,0.004,0.247,0.004l0.019-0.093c0.189-0.928,0.022-1.843-0.907-2.667
			c-0.461-0.397-1.111-0.785-1.969-1.077c-0.214-0.074-0.444-0.154-0.682-0.216c-0.238-0.061-0.49-0.118-0.755-0.172
			c-0.264-0.052-0.545-0.108-0.831-0.145c-0.285-0.035-0.583-0.066-0.893-0.092c-1.242-0.107-2.63-0.063-4.081,0.122
			c-1.439,0.194-2.901,0.548-4.277,1.04c-1.349,0.5-2.601,1.134-3.66,1.869c-1.05,0.736-1.892,1.571-2.507,2.46
			c-0.621,0.889-0.946,1.794-1.05,2.668c-0.114,0.874,0.027,1.721,0.354,2.505c0.305,0.784,0.863,1.506,1.496,2.136
			c0.679,0.63,1.456,1.17,2.339,1.596c1.757,0.858,3.746,1.257,5.556,1.232C253.405,243.307,254.986,242.902,256.39,242.331z"/>
		<path fill="#663300" d="M273.119,268.385c0.929-0.626,1.896-1.264,2.772-1.945c0.915-0.671,1.745-1.382,2.585-2.104
			c0.395-0.367,0.793-0.737,1.194-1.11c0.393-0.373,0.72-0.731,1.081-1.103c0.35-0.375,0.703-0.724,1.05-1.076
			c0.172-0.176,0.343-0.352,0.514-0.527c0.171-0.186,0.342-0.372,0.512-0.556c0.686-0.737,1.299-1.479,1.886-2.21
			c1.155-1.467,2.081-2.923,2.812-4.325c1.413-2.816,1.965-5.444,1.588-7.615c-0.053-0.272-0.11-0.535-0.173-0.79
			c-0.062-0.255-0.123-0.502-0.233-0.742c-0.098-0.24-0.201-0.47-0.307-0.692c-0.111-0.222-0.201-0.435-0.353-0.639
			c-0.278-0.407-0.566-0.777-0.861-1.109c-0.333-0.33-0.689-0.62-1.035-0.872c-0.174-0.126-0.349-0.242-0.524-0.349
			c-0.184-0.106-0.385-0.2-0.574-0.285c-0.383-0.171-0.761-0.303-1.133-0.399c-0.744-0.191-1.462-0.234-2.157-0.141l-0.138,0.02
			c0,0,0.045,0.146,0.129,0.42c0.079,0.275,0.251,0.669,0.299,1.202c0.192,1.048,0.213,2.605-0.39,4.531
			c-0.595,1.922-1.741,4.2-3.508,6.612c-0.859,1.208-1.9,2.445-3.005,3.697c-0.285,0.312-0.572,0.625-0.859,0.939
			c-0.3,0.312-0.601,0.626-0.902,0.94c-0.586,0.622-1.343,1.315-1.932,1.951l-0.925,0.965c-0.314,0.303-0.628,0.606-0.941,0.908
			c-0.302,0.305-0.654,0.596-0.981,0.893c-0.333,0.295-0.654,0.593-1.012,0.878c-0.349,0.288-0.696,0.574-1.042,0.86
			c-0.365,0.279-0.728,0.557-1.088,0.833c-0.182,0.137-0.357,0.277-0.543,0.412c-0.189,0.134-0.378,0.267-0.565,0.4
			c-0.379,0.265-0.74,0.533-1.123,0.789c-3.059,2.054-6.276,3.825-9.279,5.188c-2.999,1.366-5.704,2.369-7.666,3.002
			c-0.483,0.165-0.917,0.311-1.309,0.423c-0.387,0.117-0.716,0.217-0.983,0.298c-0.533,0.162-0.818,0.249-0.818,0.249l0.061,0.062
			c0.322,0.303,0.893,0.521,1.712,0.65c0.41,0.065,0.881,0.107,1.414,0.127c0.533,0.021,1.13,0.021,1.765-0.02
			c0.64-0.037,1.337-0.097,2.091-0.182c0.753-0.085,1.529-0.217,2.374-0.362c0.85-0.141,1.712-0.333,2.625-0.547
			c0.454-0.108,0.93-0.217,1.399-0.343c0.465-0.128,0.94-0.262,1.426-0.402c1.951-0.557,3.96-1.272,6.025-2.106
			c2.028-0.85,4.123-1.819,6.1-2.937C271.193,269.595,272.134,268.994,273.119,268.385z"/>
	</g>
	<g>
		<path fill="none" d="M255.599,28.804c-126.937,0-230.207,103.27-230.207,230.206c0,126.937,103.27,230.207,230.207,230.207
			c126.936,0,230.206-103.27,230.206-230.207C485.805,132.075,382.535,28.804,255.599,28.804z"/>
		<path fill="#993333" d="M255.599,16.557c-133.69,0-242.454,108.764-242.454,242.454s108.765,242.454,242.454,242.454
			c133.689,0,242.454-108.765,242.454-242.454S389.288,16.557,255.599,16.557z M255.599,489.218
			c-126.937,0-230.207-103.27-230.207-230.207c0-126.936,103.27-230.206,230.207-230.206c126.936,0,230.206,103.27,230.206,230.206
			C485.805,385.947,382.535,489.218,255.599,489.218z"/>
	</g>
</g>
</svg>
