<?xml version="1.0" encoding="utf-8"?>
<!-- Generator: Adobe Illustrator 17.0.0, SVG Export Plug-In . SVG Version: 6.00 Build 0)  -->
<!DOCTYPE svg PUBLIC "-//W3C//DTD SVG 1.1//EN" "http://www.w3.org/Graphics/SVG/1.1/DTD/svg11.dtd">
<svg version="1.1" id="Layer_1" xmlns="http://www.w3.org/2000/svg" xmlns:xlink="http://www.w3.org/1999/xlink" x="0px" y="0px"
	 width="306px" height="301.5px" viewBox="0 0 306 301.5" enable-background="new 0 0 306 301.5" xml:space="preserve">
<g>
	<g>
		<rect x="21" y="23.5" fill="#808080" width="63" height="152"/>
		<rect x="21" y="23.5" fill="#4D4D4D" width="21" height="152"/>
	</g>
	<g>
		<rect x="129" y="23.5" fill="#FCEE21" width="152" height="63"/>
		<rect x="129" y="23.5" fill="#FBB03B" width="152" height="21"/>
		<line fill="#FCEE21" x1="21" y1="23.5" x2="84" y2="23.5"/>
		<line fill="#FBB03B" x1="59" y1="23.5" x2="84" y2="23.5"/>
		<g>
			<path fill="#FFFFFF" d="M19.775,24.523C17.985,25.717,17,27.663,17,29.965v3.457c0,2.168,0.65,4.078,2.269,6.078h-3.735
				C11.877,39.5,9,41.732,9,45.388v3.457c0,2.017,0.797,4.655,2.227,5.655H9.683C6.027,54.5,3,56.89,3,60.546v3.457
				C3,67.66,6.027,70.5,9.683,70.5h0.81C8.874,72.5,8,73.801,8,75.97v3.457c0,3.656,2.814,7.073,6.47,7.073H84v15.942
				c8,0.372,14.79-1.086,24.229-13.442c4.64-6.074,12.771-8.297,20.771-8.961V44.126V23.5h-12.681H84.142H23.246
				C21.891,23.5,20.829,23.82,19.775,24.523z"/>
			<path fill="#E6E6E6" d="M24.043,29.5h93.872L129,44.126V23.5h-12.681H84.142H23.246c-1.355,0-2.618,0.619-3.672,1.323
				L24.043,29.5z"/>
		</g>
	</g>
	<g>
		<rect x="218" y="131.5" fill="#666666" width="63" height="151"/>
		<rect x="260" y="131.5" fill="#4D4D4D" width="21" height="151"/>
		<line fill="#FCEE21" x1="281" y1="23.5" x2="281" y2="86.5"/>
		<line fill="#FBB03B" x1="281" y1="61.5" x2="281" y2="86.5"/>
		<g>
			<path fill="#FFFFFF" d="M279.831,22.106c-1.194-1.79-3.286-2.606-5.587-2.606h-3.457c-2.168,0-3.787,0.313-5.787,1.932v-3.735
				c0-3.656-2.523-6.197-6.18-6.197h-3.457c-2.017,0-3.363,0.46-5.363,1.891v-1.544c0-3.656-2.681-6.347-6.338-6.347h-3.457
				c-3.656,0-6.205,2.69-6.205,6.347v0.81c-2-1.619-3.593-2.156-5.761-2.156h-3.457c-3.656,0-6.782,2.477-6.782,6.133V86.5h-16.234
				c-0.372,8,1.086,14.79,13.442,24.229c6.074,4.64,8.297,12.771,8.961,20.771h35.913H281v-13.017V86.306V25.409
				C281,24.054,280.534,23.16,279.831,22.106z"/>
			<path fill="#E6E6E6" d="M275,26.206v93.872L260.082,131.5H281v-13.017V86.306V25.409c0-1.355-0.619-2.618-1.323-3.672L275,26.206
				z"/>
		</g>
	</g>
	<g>
		<rect x="21" y="219.5" fill="#FCEE21" width="152" height="63"/>
		<rect x="21" y="261.5" fill="#FBB03B" width="152" height="21"/>
		<line fill="#FCEE21" x1="281" y1="282.5" x2="218" y2="282.5"/>
		<line fill="#FBB03B" x1="243" y1="282.5" x2="218" y2="282.5"/>
		<g>
			<path fill="#FFFFFF" d="M282.248,281.264c1.79-1.194,2.752-3.353,2.752-5.655v-3.457c0-2.168-0.604-3.652-2.224-4.652h3.735
				c3.656,0,6.488-3.658,6.488-7.314v-3.457c0-2.017-0.752-3.228-2.182-4.228h1.544c3.656,0,6.638-3.816,6.638-7.472v-3.457
				c0-3.656-2.982-6.071-6.638-6.071h-0.81c1.619-2,2.448-3.727,2.448-5.896v-3.457c0-3.656-2.768-6.647-6.425-6.647H218v-16.368
				c-8-0.372-14.79,1.086-24.229,13.442c-4.64,6.074-12.771,8.297-20.771,8.961v35.913V282.5h12.726h32.177H278.8
				C280.155,282.5,281.194,281.967,282.248,281.264z"/>
			<path fill="#E6E6E6" d="M278.002,277.5H184.13L173,261.447V282.5h12.726h32.177H278.8c1.355,0,2.618-0.119,3.672-0.823
				L278.002,277.5z"/>
		</g>
	</g>
	<g>
		<path fill="#FFFFFF" d="M22.191,284.18c1.194,1.79,3.309,3.32,5.61,3.32h3.457c2.168,0,3.742-1.739,5.742-3.358v3.735
			c0,3.656,2.569,6.623,6.225,6.623h3.457c2.017,0,4.318-0.887,5.318-2.317v1.544c0,3.656,2.726,6.773,6.383,6.773h3.457
			c3.656,0,6.16-3.116,6.16-6.773v-0.81c2,1.619,3.638,2.583,5.807,2.583h3.457c3.656,0,6.736-2.903,6.736-6.559V219.5h16.279
			c0.372-8-1.086-14.29-13.442-23.729c-6.074-4.64-8.297-13.271-8.961-20.271H41.963H21v11.591v32.177v60.897
			C21,281.52,21.488,283.126,22.191,284.18z"/>
		<path fill="#E6E6E6" d="M27,279.367v-93.872l14.963-9.996H21v11.591v32.177v60.897c0,1.355,0.619,2.618,1.323,3.672L27,279.367z"
			/>
	</g>
</g>
</svg>
