<?xml version="1.0" encoding="utf-8"?>
<!-- Generator: Adobe Illustrator 17.0.0, SVG Export Plug-In . SVG Version: 6.00 Build 0)  -->
<!DOCTYPE svg PUBLIC "-//W3C//DTD SVG 1.1//EN" "http://www.w3.org/Graphics/SVG/1.1/DTD/svg11.dtd">
<svg version="1.1" id="Layer_1" xmlns="http://www.w3.org/2000/svg" xmlns:xlink="http://www.w3.org/1999/xlink" x="0px" y="0px"
	 width="511.37px" height="511px" viewBox="0 0 511.37 511" enable-background="new 0 0 511.37 511" xml:space="preserve">
<g>
	<g>
		<path fill="#29ABE2" d="M469.707,256.897c0-11.717,3.781-23.595,7.438-35.081c4.604-14.464,8.953-28.125,5.284-39.393
			c-3.878-11.907-15.73-20.535-28.278-29.67c-9.479-6.901-19.28-14.036-25.841-23.044c-6.661-9.143-10.488-20.769-14.19-32.013
			c-4.819-14.641-9.371-28.469-19.32-35.716c-9.813-7.149-24.3-7.24-39.637-7.336c-11.898-0.074-24.201-0.151-35.083-3.695
			c-10.379-3.38-20.055-10.402-29.413-17.194c-12.662-9.19-24.623-17.87-37.478-17.87c-12.856,0-24.816,8.68-37.479,17.871
			c-9.358,6.791-19.034,13.814-29.413,17.194c-10.883,3.544-23.185,3.621-35.083,3.695c-15.337,0.096-29.822,0.187-39.635,7.336
			c-9.95,7.247-14.502,21.076-19.322,35.718c-3.701,11.243-7.527,22.868-14.187,32.011c-6.561,9.008-16.363,16.143-25.841,23.043
			c-12.549,9.135-24.401,17.763-28.279,29.671c-3.668,11.267,0.681,24.929,5.284,39.393c3.657,11.487,7.438,23.365,7.438,35.082
			c0,11.717-3.781,23.595-7.438,35.082c-4.604,14.464-8.954,28.125-5.284,39.393c3.878,11.908,15.73,20.536,28.279,29.671
			c9.479,6.901,19.28,14.035,25.841,23.043c6.661,9.143,10.487,20.769,14.187,32.011c4.82,14.642,9.372,28.471,19.322,35.718
			c9.813,7.149,24.3,7.24,39.635,7.336c11.898,0.074,24.201,0.151,35.083,3.695c10.379,3.38,20.055,10.402,29.413,17.194
			c12.662,9.19,24.623,17.871,37.479,17.871c12.856,0,24.815-8.68,37.478-17.871c9.358-6.792,19.034-13.814,29.413-17.194
			c10.883-3.544,23.185-3.62,35.083-3.695c15.337-0.096,29.823-0.187,39.637-7.336c9.949-7.247,14.501-21.075,19.32-35.716
			c3.702-11.244,7.529-22.87,14.19-32.013c6.561-9.008,16.363-16.143,25.841-23.043c12.548-9.135,24.4-17.763,28.278-29.67
			c3.669-11.268-0.679-24.93-5.284-39.393C473.488,280.492,469.707,268.614,469.707,256.897z"/>
		<path fill="#0071BC" d="M481.955,256.897c0-9.815,3.488-20.771,6.86-31.367c4.99-15.675,10.15-31.883,5.259-46.901
			c-5.106-15.681-19.141-25.898-32.714-35.779c-9.115-6.635-17.723-12.902-23.152-20.353c-5.528-7.589-8.892-17.81-12.454-28.631
			c-5.214-15.838-10.605-32.216-23.741-41.786c-13.003-9.472-30.17-9.58-46.772-9.683c-11.465-0.072-22.295-0.139-31.368-3.094
			c-8.541-2.781-17.027-8.94-26.01-15.46c-13.687-9.934-27.84-20.206-44.672-20.206s-30.986,10.272-44.673,20.206
			c-8.983,6.52-17.469,12.679-26.01,15.46c-9.073,2.955-19.903,3.022-31.368,3.094c-16.601,0.103-33.768,0.211-46.771,9.683
			c-13.137,9.57-18.529,25.949-23.742,41.788c-3.562,10.821-6.926,21.041-12.453,28.629c-5.429,7.451-14.038,13.718-23.152,20.353
			c-13.574,9.881-27.609,20.099-32.715,35.78c-4.891,15.017,0.269,31.225,5.259,46.899c3.373,10.596,6.86,21.553,6.86,31.367
			c0,9.815-3.488,20.772-6.86,31.367c-4.99,15.675-10.15,31.883-5.259,46.901c5.106,15.681,19.141,25.898,32.715,35.78
			c9.114,6.635,17.723,12.902,23.152,20.352c5.527,7.588,8.891,17.808,12.453,28.629c5.214,15.839,10.605,32.218,23.742,41.788
			c13.003,9.473,30.17,9.58,46.772,9.683c11.465,0.072,22.295,0.139,31.367,3.094c8.541,2.781,17.027,8.94,26.01,15.46
			c13.687,9.934,27.841,20.206,44.673,20.206s30.984-10.272,44.672-20.206c8.985-6.521,17.469-12.679,26.01-15.461
			c9.072-2.954,19.902-3.022,31.368-3.094c16.601-0.103,33.768-0.211,46.772-9.683c13.136-9.57,18.528-25.948,23.741-41.786
			c3.562-10.821,6.926-21.042,12.454-28.631c5.429-7.451,14.037-13.718,23.152-20.353c13.573-9.881,27.608-20.098,32.714-35.779
			c4.891-15.017-0.269-31.226-5.259-46.901C485.442,277.668,481.955,266.711,481.955,256.897z M482.43,331.372
			c-3.878,11.907-15.73,20.535-28.278,29.67c-9.479,6.9-19.28,14.035-25.841,23.043c-6.661,9.143-10.488,20.769-14.19,32.013
			c-4.819,14.641-9.371,28.469-19.32,35.716c-9.813,7.149-24.3,7.24-39.637,7.336c-11.898,0.074-24.201,0.151-35.083,3.695
			c-10.379,3.38-20.055,10.402-29.413,17.194c-12.662,9.19-24.622,17.871-37.478,17.871c-12.856,0-24.816-8.681-37.479-17.871
			c-9.358-6.792-19.034-13.814-29.413-17.194c-10.883-3.544-23.185-3.62-35.083-3.695c-15.336-0.096-29.822-0.187-39.635-7.336
			c-9.95-7.247-14.502-21.077-19.322-35.718c-3.701-11.243-7.527-22.868-14.187-32.011c-6.561-9.007-16.363-16.142-25.841-23.043
			c-12.549-9.135-24.401-17.763-28.279-29.671c-3.669-11.268,0.681-24.929,5.284-39.393c3.657-11.487,7.438-23.365,7.438-35.082
			c0-11.717-3.781-23.595-7.438-35.082c-4.604-14.464-8.952-28.125-5.284-39.393c3.878-11.908,15.73-20.536,28.279-29.671
			c9.479-6.901,19.28-14.035,25.841-23.043c6.661-9.142,10.487-20.768,14.187-32.011c4.82-14.642,9.372-28.471,19.322-35.718
			c9.813-7.149,24.299-7.24,39.635-7.336c11.898-0.074,24.201-0.151,35.083-3.695c10.379-3.38,20.055-10.402,29.413-17.194
			c12.662-9.19,24.623-17.871,37.479-17.871c12.855,0,24.815,8.68,37.478,17.87c9.358,6.792,19.034,13.814,29.413,17.194
			c10.883,3.544,23.185,3.621,35.083,3.695c15.337,0.096,29.823,0.187,39.637,7.336c9.949,7.247,14.501,21.075,19.32,35.716
			c3.702,11.244,7.529,22.87,14.19,32.013c6.561,9.008,16.363,16.143,25.841,23.044c12.548,9.135,24.4,17.763,28.278,29.67
			c3.669,11.268-0.681,24.93-5.284,39.393c-3.657,11.487-7.438,23.365-7.438,35.081c0,11.717,3.781,23.595,7.438,35.082
			C481.75,306.442,486.099,320.104,482.43,331.372z"/>
	</g>
	<linearGradient id="SVGID_1_" gradientUnits="userSpaceOnUse" x1="455.6956" y1="363.265" x2="168.1072" y2="205.2828">
		<stop  offset="0" style="stop-color:#0071BC;stop-opacity:0"/>
		<stop  offset="1" style="stop-color:#00A99D"/>
	</linearGradient>
	<path fill="url(#SVGID_1_)" d="M302.862,119.339l-23.016,176.193l-20.029,115.261l93.516,56.209c0,0,66.752,13.875,74.101-71.551
		c0.515-5.984,56.554-50.165,60.32-55.443c4.402-6.17-10.078-66.152-9.493-73.461c0.612-7.655,0.612-25.719,0.612-25.719
		L302.862,119.339z"/>
	<g>
		<path fill="#E6E6E6" d="M182.874,254.779l0.347,0.273l11.347,28.669l4.964-13.579l-6.259-15.814l-45.342-68.343l-1.742-12.626
			c-6.36,7.468-5.954,15.443,1.112,25.302C157.564,212.98,181.851,253.077,182.874,254.779z"/>
		<path fill="#F2F2F2" d="M170.772,154.278l-4.673-19.717c-4.261,3.553-5.308,6.222-7.046,9.757
			c-3.491,7.101,15.406,30.401,15.406,30.401l35.593,50.784l-0.513-12.464L170.772,154.278z"/>
		<path fill="#F2F2F2" d="M255.767,117.853l-6.237-8.363c-3.24,3.433-3.756,8.767-3.953,14.415l-0.013,0.387
			c-0.184,5.193,5.491,51.853,9.354,81.957l0.048,0.38l7.03-7.736L255.767,117.853z"/>
		<path fill="#F2F2F2" d="M292.803,129.042l-6.257-5.439c-3.422,3.226-4.27,7.26-4.27,7.26l5.545,60.343l9.106-6.535
			L292.803,129.042z"/>
		<polygon fill="#F2F2F2" points="275.181,236.224 258.335,242.892 251.631,255.089 262.239,245.721 299.483,237.342 
			333.338,267.862 330.753,251.234 295.809,228.06 		"/>
		<path fill="#FFFFFF" d="M338.377,300.285l-5.04-32.423l-33.855-30.519l-37.244,8.379l-10.607,9.368l6.704-12.197l16.846-6.668
			l20.627-8.164l34.944,23.175l-3.906-25.128l-7.934-20.045l-5.38-68.133c0.003-0.081,0.249-9.645-4.896-14.641
			c-2.368-2.299-5.12-4.691-9.369-4.344c-5.123,0.418,1.053-1.033-7.132,1.443c-2.372,0.718-4.195,1.9-5.591,3.217l6.257,5.439
			l4.124,55.629l-9.106,6.535l0.184,1.999c0.071,0.774-0.385,1.475-1.072,1.747c-0.148,0.059-0.307,0.097-0.474,0.112
			c-0.94,0.087-1.773-0.606-1.859-1.546l-5.71-62.137c0,0-0.936-9.071-2.362-14.128c-2.224-5.328-5.113-12.57-17.433-11.603
			c-2.126,0.167-4.005,0.569-5.586,1.194c-1.655,0.655-2.95,1.557-3.978,2.647l6.237,8.363l6.229,81.041l-7.03,7.736l0.412,3.234
			l-10.011,3.963l-53.049-74.751c-0.581-0.767-9.601-12.339-20.629-7.974c-1.734,0.686-3.49,1.749-5.22,3.15
			c-0.13,0.105-0.247,0.207-0.371,0.31l4.673,19.717l38.767,58.762l0.513,12.464c0.569,0.755,0.418,1.828-0.336,2.396
			c-0.126,0.096-0.261,0.171-0.4,0.226c-0.698,0.276-1.521,0.067-1.995-0.561l-38.024-50.433l-2.688-3.266
			c-3.371-3.112-9.776-7.307-14.989-5.244c-0.591,0.234-1.191,0.61-1.784,1.118c-1.398,1.197-2.609,2.402-3.647,3.62l1.742,12.626
			l45.342,68.343l6.259,15.814l-4.964,13.579l-43.376-15.272c-0.885-0.198-6.227-1.207-11.194,0.759
			c-5.122,2.027-8.436,6.79-9.805,14.119l12.593,16.307l99.913,28.125l7.011,6.841l17.948,44.5l88.064-35.301L338.377,300.285z"/>
		<path fill="#E6E6E6" d="M242.7,327.759l-99.913-28.125l-12.593-16.307c-0.052,0.279-0.107,0.553-0.154,0.839
			c-0.575,3.55-0.433,6.674,0.188,9.431c3.061,13.594,18.021,18.067,19.016,18.341c0.917,0.171,2.269,0.566,4.64,1.248
			c2.563,0.738,6.199,1.801,10.557,3.08c8.697,2.552,20.255,5.971,31.803,9.393c18.435,5.464,36.83,10.94,43.499,12.926
			l-0.246,0.099l17.857,44.548l10.305-4.131l-17.948-44.5L242.7,327.759z"/>
		<g>
			<path fill="#006837" d="M252.454,365.203l4.179-12.508l-5.05,2.065c-6.616,2.705-9.857,10.44-7.238,17.275l12.908,33.691
				c0.089,0.232,0.197,0.45,0.297,0.674c2.843,6.372,10.033,9.418,16.425,6.804l4.682-1.915l-11.242-5.49L252.454,365.203z"/>
			<path fill="#009245" d="M373.058,358.372l-5.269-13.752l-7.639-19.94c-2.619-6.835-10.105-10.183-16.722-7.478l-86.796,35.491
				l-4.179,12.508l14.961,40.596l11.242,5.49l87.164-35.642C372.436,372.942,375.677,365.207,373.058,358.372z"/>
		</g>
	</g>
	<g>
		<g>
			<g>
				<path fill="#FFFFFF" d="M130.874,94.531c-11.356,10.833-19.388,23.15-22.854,33.14c-1.77,4.977-2.417,9.316-2.249,12.445
					c0.046,0.786,0.115,1.49,0.245,2.121c0.145,0.635,0.323,1.189,0.531,1.661c0.417,0.944,0.959,1.559,1.619,1.849
					c0,0,0.117-0.381,0.337-1.096c0.212-0.716,0.523-1.766,1.034-3.087c0.968-2.646,2.601-6.402,5.102-10.722
					c4.903-8.686,13.492-19.4,23.397-28.864c9.875-9.502,20.906-17.831,29.587-23.221c4.33-2.721,8.05-4.742,10.673-6.061
					c1.311-0.668,2.349-1.155,3.059-1.475c0.708-0.328,1.086-0.504,1.086-0.504c-0.771-1.196-2.857-1.82-6.012-1.599
					c-3.152,0.204-7.372,1.218-12.232,3.15C154.479,76.105,142.204,83.647,130.874,94.531z"/>
			</g>
		</g>
	</g>
</g>
</svg>
