<?xml version="1.0" encoding="utf-8"?>
<!-- Generator: Adobe Illustrator 17.0.0, SVG Export Plug-In . SVG Version: 6.00 Build 0)  -->
<!DOCTYPE svg PUBLIC "-//W3C//DTD SVG 1.1//EN" "http://www.w3.org/Graphics/SVG/1.1/DTD/svg11.dtd">
<svg version="1.1" id="Layer_1" xmlns="http://www.w3.org/2000/svg" xmlns:xlink="http://www.w3.org/1999/xlink" x="0px" y="0px"
	 width="166px" height="288px" viewBox="0 0 166 288" enable-background="new 0 0 166 288" xml:space="preserve">
<g>
	<path fill="#FBB03B" d="M83.795,6.667c-35.36,0-64.129,28.693-64.129,63.96c0,2.216,0.258,4.523,0.721,6.907
		c1.95,10.044,7.597,21.475,13.513,33.444c8.053,16.293,16.381,33.14,16.381,47.688c0,27.798,5.953,36.818,8.259,39.268
		l22.706,0.071l27.691,0.087c2.759-2.582,8.37-11.236,8.37-38.791c0-15.129,8.742-32.748,16.455-48.293
		c6.962-14.033,14.161-28.544,14.161-40.222C147.923,35.431,119.155,6.667,83.795,6.667z"/>
</g>
<g>
	<path fill="#4D4D4D" d="M118,228.751v-4.43l1.22-0.335c7.637-1.315,12.916-5.43,12.161-9.23l-98.897,17.012
		c0.734,3.689,6.515,5.639,14.515,4.547v4.431l69.767-11.904C116.975,228.806,118,228.782,118,228.751z"/>
	<path fill="#4D4D4D" d="M102.38,206H60.848C53.082,206,47,210.619,47,217.846v5.125l67.736-11.033
		C112.274,208.013,107.582,206,102.38,206z"/>
	<path fill="#333333" d="M63.821,272.764C66.059,275.885,70.959,278,76.63,278h11.214c5.305,0,9.948-1.841,12.36-4.642
		c-3.844-3.437-10.711-5.728-18.548-5.728C74.282,267.63,67.767,269.66,63.821,272.764z"/>
	<path fill="#999999" d="M131.017,214.756c-0.604-3.04-7.457-5.004-15.094-3.689l-1.302,0.224L46.77,222.97l-1.906,0.328
		c-7.637,1.315-13.281,5.43-12.676,8.47L131.017,214.756z"/>
	<path fill="#4D4D4D" d="M32.187,249.544c0.756,3.8,7.608,5.764,15.245,4.449l0.585-0.101c1.4,3.642,3.842,6.074,6.622,6.074
		c4.34,0,7.88,4.079,7.88,9.081c0,1.35,0.474,2.627,1.301,3.781c3.946-3.104,10.461-5.133,17.835-5.133
		c7.836,0,14.704,2.291,18.548,5.728c1.119-1.299,1.76-2.79,1.76-4.375c0-5.002,4.02-9.088,8.018-9.088S118,254.054,118,246.827
		v-4.731l1.22-0.335c7.637-1.315,12.916-5.43,12.161-9.23L32.187,249.544z"/>
	<path fill="#999999" d="M131.017,232.531c-0.588-2.957-7.091-4.887-14.474-3.78c-0.207,0.031-0.412,0.055-0.62,0.091L46.77,240.746
		l-1.906,0.328c-7.637,1.315-13.281,5.43-12.676,8.47L131.017,232.531z"/>
</g>
<g>
	<path fill="#FFFFFF" d="M55.41,26.222c-3.414,2.247-6.318,4.876-8.626,7.67c-2.292,2.797-3.949,5.835-4.649,8.685
		c-0.15,0.733-0.3,1.396-0.342,2.068c-0.028,0.682-0.02,1.31,0.023,1.884c0.214,1.202,0.526,2.152,1.12,2.837
		c0.481,0.689,1.208,1.064,1.862,1.222c0.658,0.162,1.294,0.114,1.944-0.027c0,0,0.007-0.086-0.005-0.238
		c0-0.156-0.117-0.349-0.031-0.713c0.005-0.638,0.279-1.918,1.39-3.665c2.13-3.505,7.169-8.053,12.631-11.637
		c0.702-0.463,1.325-0.861,2.004-1.255c0.728-0.375,1.453-0.749,2.173-1.12c1.448-0.725,2.82-1.538,4.275-2.088
		c1.426-0.605,2.805-1.191,4.112-1.746c1.337-0.434,2.601-0.844,3.767-1.222c2.32-0.865,4.311-1.09,5.682-1.426
		c1.377-0.294,2.163-0.462,2.163-0.462c-0.299-1.306-1.274-2.401-2.907-3.243c-1.61-0.786-3.969-1.576-6.682-1.507
		c-1.37-0.018-2.866,0.05-4.464,0.204c-1.562,0.231-3.186,0.631-4.897,1.081c-1.727,0.41-3.444,1.104-5.203,1.881
		c-0.881,0.385-1.771,0.793-2.666,1.223C57.19,25.078,56.24,25.68,55.41,26.222z"/>
</g>
</svg>
