<?xml version="1.0" encoding="utf-8"?>
<!-- Generator: Adobe Illustrator 17.0.0, SVG Export Plug-In . SVG Version: 6.00 Build 0)  -->
<!DOCTYPE svg PUBLIC "-//W3C//DTD SVG 1.1//EN" "http://www.w3.org/Graphics/SVG/1.1/DTD/svg11.dtd">
<svg version="1.1" id="Layer_1" xmlns="http://www.w3.org/2000/svg" xmlns:xlink="http://www.w3.org/1999/xlink" x="0px" y="0px"
	 width="518px" height="517.333px" viewBox="0 0 518 517.333" enable-background="new 0 0 518 517.333" xml:space="preserve">
<g>
	<path fill="#FF7BAC" d="M261.072,22.225c-130.313,0-236.331,106.018-236.331,236.33s106.018,236.33,236.331,236.33
		c130.313,0,236.33-106.018,236.33-236.33S391.385,22.225,261.072,22.225z"/>
	<linearGradient id="SVGID_1_" gradientUnits="userSpaceOnUse" x1="538.0701" y1="414.996" x2="266.7342" y2="265.942">
		<stop  offset="0" style="stop-color:#93278F;stop-opacity:0"/>
		<stop  offset="1" style="stop-color:#9E005D"/>
	</linearGradient>
	<path fill="url(#SVGID_1_)" d="M327.802,117.768l-34.814,210.896l-57.271,95.193l106.76,65.413c0,0,54.822-15.741,113.719-86.94
		s49.339-159.338,49.339-159.338L327.802,117.768z"/>
	<g>
		<g>
			<path fill="#FBB03B" d="M261.072,85.667c-44.887,0-81.406,36.423-81.406,81.192c0,2.813,0.328,5.742,0.916,8.768
				c2.476,12.75,9.644,27.26,17.154,42.454c10.223,20.682,20.794,42.068,20.794,60.536c0,35.287,7.557,46.737,10.484,49.848
				l28.823,0.09l35.151,0.11c3.502-3.278,10.625-14.264,10.625-49.242c0-19.205,11.097-41.571,20.888-61.304
				c8.838-17.814,17.976-36.234,17.976-51.058C342.477,122.18,305.959,85.667,261.072,85.667z"/>
		</g>
		<g>
			<path fill="#4D4D4D" d="M304,367.584v-5.623l1.795-0.426c9.694-1.669,16.52-6.893,15.56-11.716l-125.161,21.596
				c0.931,4.683,7.806,7.158,18.806,5.771v5.625l87.999-15.111C303.263,367.654,304,367.623,304,367.584z"/>
			<path fill="#4D4D4D" d="M284.664,338h-52.721c-9.859,0-16.943,6.568-16.943,15.741v6.505l85.668-14.358
				C297.542,340.908,291.268,338,284.664,338z"/>
			<path fill="#333333" d="M235.717,423.904c2.841,3.962,9.061,7.096,16.26,7.096h14.235c6.735,0,12.629-2.786,15.69-6.342
				c-4.879-4.363-13.597-7.271-23.545-7.271C248.996,417.388,240.727,419.964,235.717,423.904z"/>
			<path fill="#999999" d="M321.017,349.818c-0.767-3.859-9.466-6.352-19.161-4.683l-1.653,0.284l-86.132,14.827l-2.42,0.417
				c-9.694,1.669-16.859,6.893-16.092,10.752L321.017,349.818z"/>
			<path fill="#4D4D4D" d="M195.561,393.979c0.959,4.823,9.658,7.317,19.352,5.648l0.743-0.128c1.778,4.623,4.877,7.71,8.406,7.71
				c5.509,0,10.004,5.178,10.004,11.528c0,1.713,0.602,3.335,1.652,4.799c5.009-3.94,13.279-6.516,22.64-6.516
				c9.947,0,18.666,2.908,23.545,7.271c1.42-1.649,2.235-3.542,2.235-5.554c0-6.35,4.857-11.536,9.932-11.536
				s9.932-7.497,9.932-16.67v-6.006l1.795-0.426c9.694-1.669,16.52-6.893,15.56-11.716L195.561,393.979z"/>
			<path fill="#999999" d="M321.017,372.383c-0.746-3.754-9.001-6.203-18.373-4.799c-0.263,0.039-0.523,0.07-0.787,0.116
				l-87.784,15.111l-2.42,0.417c-9.694,1.669-16.859,6.893-16.092,10.752L321.017,372.383z"/>
		</g>
		<g>
			<path fill="#FFFFFF" d="M220.41,108.222c-3.414,2.247-6.318,4.876-8.626,7.67c-2.292,2.797-3.949,5.835-4.649,8.685
				c-0.15,0.733-0.3,1.396-0.342,2.068c-0.028,0.682-0.02,1.31,0.023,1.884c0.214,1.202,0.526,2.152,1.12,2.837
				c0.481,0.689,1.208,1.064,1.862,1.222c0.658,0.162,1.294,0.114,1.944-0.027c0,0,0.007-0.086-0.005-0.238
				c0-0.156-0.117-0.349-0.031-0.713c0.005-0.638,0.279-1.918,1.39-3.665c2.13-3.505,7.169-8.053,12.631-11.637
				c0.702-0.463,1.325-0.861,2.004-1.255c0.728-0.375,1.453-0.749,2.173-1.12c1.448-0.725,2.82-1.538,4.275-2.088
				c1.426-0.605,2.805-1.191,4.112-1.746c1.337-0.434,2.601-0.844,3.767-1.222c2.32-0.865,4.311-1.09,5.682-1.426
				c1.377-0.294,2.163-0.462,2.163-0.462c-0.299-1.306-1.274-2.401-2.907-3.243c-1.61-0.786-3.969-1.576-6.682-1.507
				c-1.37-0.018-2.866,0.05-4.464,0.204c-1.562,0.231-3.186,0.631-4.897,1.081c-1.727,0.41-3.444,1.104-5.203,1.881
				c-0.881,0.385-1.771,0.793-2.666,1.223C222.19,107.078,221.24,107.68,220.41,108.222z"/>
		</g>
	</g>
	<g>
		<path fill="none" d="M261.072,22.225c-130.313,0-236.331,106.018-236.331,236.33s106.018,236.33,236.331,236.33
			c130.313,0,236.33-106.018,236.33-236.33S391.385,22.225,261.072,22.225z"/>
		<path fill="#ED1E79" d="M261.072,9.978c-137.067,0-248.578,111.512-248.578,248.577c0,137.067,111.512,248.578,248.578,248.578
			s248.577-111.511,248.577-248.578C509.649,121.49,398.139,9.978,261.072,9.978z M261.072,494.886
			c-130.313,0-236.331-106.018-236.331-236.33s106.018-236.33,236.331-236.33c130.313,0,236.33,106.018,236.33,236.33
			S391.385,494.886,261.072,494.886z"/>
	</g>
</g>
<g>
	<path fill="#FFFFFF" d="M118.506,97.531c-11.356,10.833-19.388,23.15-22.854,33.14c-1.77,4.977-2.417,9.316-2.249,12.445
		c0.046,0.786,0.115,1.49,0.245,2.121c0.145,0.635,0.323,1.189,0.531,1.661c0.417,0.944,0.959,1.559,1.619,1.849
		c0,0,0.117-0.381,0.337-1.096c0.212-0.716,0.523-1.766,1.034-3.087c0.968-2.646,2.601-6.402,5.102-10.722
		c4.903-8.686,13.492-19.4,23.397-28.864c9.875-9.502,20.906-17.831,29.587-23.221c4.33-2.721,8.05-4.742,10.673-6.061
		c1.311-0.668,2.349-1.155,3.059-1.475c0.708-0.328,1.086-0.504,1.086-0.504c-0.771-1.196-2.857-1.82-6.012-1.599
		c-3.152,0.204-7.372,1.218-12.232,3.15C142.11,79.105,129.836,86.647,118.506,97.531z"/>
</g>
</svg>
