<?xml version="1.0" encoding="utf-8"?>
<!-- Generator: Adobe Illustrator 17.0.0, SVG Export Plug-In . SVG Version: 6.00 Build 0)  -->
<!DOCTYPE svg PUBLIC "-//W3C//DTD SVG 1.1//EN" "http://www.w3.org/Graphics/SVG/1.1/DTD/svg11.dtd">
<svg version="1.1" id="Layer_1" xmlns="http://www.w3.org/2000/svg" xmlns:xlink="http://www.w3.org/1999/xlink" x="0px" y="0px"
	 width="518px" height="517.333px" viewBox="0 0 518 517.333" enable-background="new 0 0 518 517.333" xml:space="preserve">
<polygon fill="#CC00FF" points="265.548,49.832 210.949,18.379 175.43,70.408 112.602,65.869 103.131,128.154 44.481,151.169 
	62.921,211.399 20.16,257.642 62.921,303.885 44.482,364.116 103.132,387.131 112.602,449.416 175.43,444.877 210.948,496.905 
	265.548,465.452 320.148,496.905 355.666,444.877 418.494,449.415 427.964,387.13 486.614,364.115 468.174,303.885 510.936,257.642 
	468.174,211.399 486.614,151.168 427.964,128.154 418.494,65.869 355.666,70.408 320.148,18.379 "/>
<g>
	<polygon fill="none" points="461.701,213.559 479.536,155.3 422.796,133.034 413.632,72.767 352.849,77.158 318.494,26.833 
		265.677,57.26 212.86,26.833 178.504,77.159 117.719,72.767 108.556,133.034 51.816,155.3 69.652,213.559 28.285,258.294 
		69.652,303.028 51.816,361.289 108.556,383.553 117.72,443.819 178.504,439.428 212.86,489.754 265.677,459.327 318.494,489.754 
		346.834,448.24 244.535,386.592 280.925,303.769 370.454,171.45 499.377,262.284 503.068,258.294 	"/>
	<linearGradient id="SVGID_1_" gradientUnits="userSpaceOnUse" x1="544.1111" y1="420.1651" x2="296.2698" y2="284.0174">
		<stop  offset="0" style="stop-color:#93278F;stop-opacity:0"/>
		<stop  offset="0.3622" style="stop-color:#832990;stop-opacity:0.3622"/>
		<stop  offset="1" style="stop-color:#662D91"/>
	</linearGradient>
	<polygon fill="url(#SVGID_1_)" points="280.925,303.769 212.854,402.064 334.103,479.223 352.849,439.428 413.633,443.819 
		422.797,383.552 479.537,361.287 461.701,303.028 510.465,258.77 367.171,148.544 	"/>
	<path fill="#9900CC" d="M423.613,456.314l1.568-10.315c-4.957,3.637-9.627,6.759-13.934,9.422L423.613,456.314z"/>
	<polygon fill="#9900CC" points="318.494,489.754 265.677,459.327 212.86,489.754 178.504,439.428 117.72,443.819 108.556,383.553 
		51.816,361.289 69.652,303.028 28.285,258.294 69.652,213.559 51.816,155.3 108.556,133.034 117.719,72.767 178.504,77.159 
		212.86,26.833 265.677,57.26 318.494,26.833 352.849,77.158 413.632,72.767 422.796,133.034 479.536,155.3 461.701,213.559 
		503.068,258.294 499.377,262.284 509.062,269.108 519.062,258.294 474.905,210.543 493.948,148.34 433.388,124.576 423.612,60.273 
		358.739,64.959 322.058,11.227 265.677,43.707 209.294,11.228 172.613,64.96 107.741,60.273 97.964,124.576 37.404,148.34 
		56.448,210.542 12.291,258.294 56.448,306.044 37.404,368.247 97.965,392.012 107.741,456.314 172.614,451.628 209.294,505.359 
		265.677,472.88 322.058,505.359 356.907,454.311 346.834,448.24 	"/>
	<path fill="#9900CC" d="M493.95,368.246l-19.045-62.202l34.157-36.937l-9.684-6.823l-37.676,40.744l17.836,58.259l-56.739,22.265
		l-9.164,60.267l-60.784-4.391l-6.016,8.812l10.074,6.071l1.832-2.684l52.508,3.793c4.307-2.663,8.977-5.785,13.934-9.422
		l8.208-53.989L493.95,368.246z"/>
</g>
<polygon fill="#FFCC00" points="193.67,237.721 192.884,237.827 132.989,245.942 103.041,282.808 102.952,282.917 131.317,313.616 
	164.662,290.147 198.039,314.307 219.869,349.765 219.633,350.076 194.998,382.535 222.191,411.965 261.38,384.829 274.322,324.877 
	"/>
<g>
	<path fill="none" d="M315.28,182.871c-5.767,5.329-6.776,13.878-2.822,20.326c0.546,0.89,1.184,1.74,1.919,2.536
		c6.064,6.563,16.3,6.967,22.862,0.903c1.315-1.215,2.378-2.599,3.196-4.085c3.265-5.934,2.556-13.529-2.293-18.777
		C332.079,177.212,321.843,176.807,315.28,182.871z"/>
	<path fill="#FFFFFF" d="M374.547,151.605l-0.099-0.546l-0.701-0.183c-109.412-28.705-174.868,76.787-180.741,86.7
		c-0.176,0.298-0.301,0.513-0.37,0.632l80.624,87.256C275.621,324.364,395.789,267.767,374.547,151.605z M340.435,202.551
		c-0.818,1.487-1.881,2.871-3.196,4.085c-6.563,6.064-16.798,5.659-22.862-0.903c-0.735-0.796-1.373-1.646-1.919-2.536
		c-3.954-6.448-2.945-14.998,2.822-20.326c6.563-6.064,16.798-5.659,22.862,0.903C342.992,189.022,343.7,196.617,340.435,202.551z"
		/>
</g>
<g>
	<g>
		<path fill="#29ABE2" d="M347.542,175.089c-10.861-11.754-29.193-12.478-40.947-1.618c-10.329,9.544-12.137,24.856-5.054,36.406
			c0.977,1.593,2.12,3.117,3.437,4.542c10.861,11.754,29.193,12.478,40.947,1.618c2.355-2.176,4.259-4.655,5.724-7.317
			C357.496,198.091,356.227,184.488,347.542,175.089z"/>
		<path fill="#FFFFFF" d="M314.151,182.303c0.493-0.447,1.193-1.076,2.044-1.776c0.845-0.722,1.85-1.466,2.932-2.208
			c1.088-0.707,2.264-1.349,3.445-1.818c1.182-0.466,2.365-0.687,3.472-0.762c0.277-0.007,0.55-0.014,0.817-0.02
			c0.267,0.012,0.529,0.051,0.784,0.07c0.51,0.011,0.993,0.172,1.441,0.246c0.892,0.241,1.643,0.485,2.159,0.742
			c0.52,0.227,0.818,0.357,0.818,0.357c0.375-0.842,0.462-1.76,0.199-2.749c-0.25-1.012-0.896-1.985-1.938-2.904
			c-1.055-0.848-2.547-1.644-4.364-1.874c-1.795-0.267-3.886-0.072-5.78,0.684c-1.901,0.745-3.437,1.857-4.609,3.029
			c-1.154,1.194-1.975,2.445-2.477,3.657c-1.01,2.417-0.886,4.611,0.285,6.029C313.378,183.006,313.659,182.751,314.151,182.303z"/>
	</g>
	<path fill="#0071BC" d="M301.541,209.877c0.977,1.593,2.12,3.117,3.437,4.542c10.861,11.754,29.193,12.478,40.947,1.618
		c2.355-2.176,4.259-4.655,5.724-7.317C334.348,218.928,314.589,219.578,301.541,209.877z"/>
</g>
<g>
	<path fill="#FFFFFF" d="M149.914,111.554c-11.356,10.833-19.388,23.15-22.854,33.14c-1.77,4.977-2.417,9.316-2.249,12.445
		c0.046,0.786,0.115,1.49,0.245,2.121c0.145,0.635,0.323,1.189,0.531,1.661c0.417,0.944,0.959,1.559,1.62,1.849
		c0,0,0.117-0.381,0.337-1.096c0.212-0.716,0.523-1.766,1.034-3.087c0.968-2.646,2.601-6.402,5.102-10.722
		c4.903-8.686,13.492-19.4,23.397-28.864c9.875-9.502,20.906-17.831,29.587-23.221c4.33-2.721,8.05-4.742,10.673-6.061
		c1.311-0.668,2.349-1.155,3.059-1.475c0.708-0.328,1.086-0.504,1.086-0.504c-0.771-1.196-2.857-1.82-6.012-1.599
		c-3.152,0.204-7.372,1.218-12.232,3.15C173.518,93.128,161.243,100.67,149.914,111.554z"/>
</g>
<path fill="#FBB03B" d="M121.06,283.443l21.75-28.908l43.709-5.143l6.365-11.565l-59.896,8.115l-29.948,36.865
	C110.147,283.126,121.06,283.443,121.06,283.443z"/>
<polygon fill="#FBB03B" points="223.155,365.329 220.006,350.217 219.633,350.076 194.998,382.535 208.716,383.077 "/>
<path fill="#E6E6E6" d="M361.908,161.815l11.839-10.939c-109.412-28.705-174.868,76.788-180.741,86.7l14.76,0.583
	C207.766,238.159,266.609,139.733,361.908,161.815z"/>
</svg>
