<?xml version="1.0" encoding="utf-8"?>
<!-- Generator: Adobe Illustrator 17.0.0, SVG Export Plug-In . SVG Version: 6.00 Build 0)  -->
<!DOCTYPE svg PUBLIC "-//W3C//DTD SVG 1.1//EN" "http://www.w3.org/Graphics/SVG/1.1/DTD/svg11.dtd">
<svg version="1.1" xmlns="http://www.w3.org/2000/svg" xmlns:xlink="http://www.w3.org/1999/xlink" x="0px" y="0px" width="520px"
	 height="527px" viewBox="0 0 520 527" enable-background="new 0 0 520 527" xml:space="preserve">
<g id="Layer_2" display="none">
	<rect x="-0.5" y="0.5" display="inline" fill="#FF9900" stroke="#000000" stroke-miterlimit="10" width="520" height="527"/>
</g>
<g id="Layer_1">
	<g>
		<path fill="none" d="M947.795-326.618c-7.699,2.431-13.924,5.965-18.684,10.827c-4.762,5.066-7.943,11.396-9.562,18.993
			c-1.724,8.003-2.563,20.413-2.563,37.226c0,9.421-0.263,18.081-0.87,25.982c-0.812,8.205-3.412,15.346-7.971,21.424
			c-4.762,6.382-13.146,9.624-24.146,9.724v36.466c9,0.508,16.193,2.589,20.955,6.235c4.76,3.647,7.786,8.971,9.408,15.96
			c1.721,7.395,2.583,19.005,2.583,34.807c0,20.968,1.57,35.731,4.71,44.239c3.039,8.711,9.065,15.342,18.081,19.801
			C948.752-40.375,962.021-38,979.546-38H987v-36.657c-9,0-15.527-0.456-19.071-1.368c-3.647-0.911-6.258-2.787-8.284-5.622
			c-2.127-2.837-3.187-7.851-3.187-15.043c0-33.123-2.375-54.749-7.135-64.88c-4.862-10.028-11.941-17.573-21.259-22.64
			c11.547-7.393,19.22-16.409,22.968-27.046c3.747-10.534,5.672-30.742,5.672-60.625c0-9.216,1.924-15.194,5.57-17.929
			c3.545-2.735,11.727-4.103,25.727-4.103V-330h-8.454C966.275-330,955.697-328.947,947.795-326.618z"/>
		<path fill="none" d="M1101.192-41.742c7.901-2.331,14.178-6.074,18.838-11.036c4.558-4.762,7.692-11.042,9.415-18.841
			c1.619-7.498,2.421-19.957,2.421-37.378c0-16.106,0.891-27.703,2.715-34.795c1.823-7.089,5.023-12.46,9.683-16.106
			c4.658-3.647,11.735-5.672,20.735-6.078v-36.466c-9-0.404-16.127-2.474-20.887-6.223c-4.862-3.746-8.023-9.109-9.643-16.099
			c-1.724-7.191-2.583-18.775-2.583-34.781c0-23.601-1.622-38.767-4.863-45.555c-3.343-6.785-8.661-12.605-15.953-17.569
			c-7.396-4.962-21.325-7.332-41.785-7.332H1061v36.088c13,0,21.74,1.268,25.488,3.799c3.746,2.533,5.735,8.611,5.735,18.233
			c0,27.452,1.666,47.053,5.008,58.802c3.24,11.752,11.079,21.374,23.539,28.869c-11.346,6.484-18.967,15.449-22.815,26.894
			c-3.749,11.244-5.671,31.452-5.671,60.625c0,9.015-2.071,14.941-6.021,17.778c-3.851,2.835-12.264,4.255-25.264,4.255V-38h8.438
			C1082.909-38,1093.493-39.311,1101.192-41.742z"/>
		<path fill="#333333" d="M1256.158-260.736c7.945,24.071,12.259,49.794,12.259,76.528c0,134.757-109.243,244-244,244
			c-45.847,0-88.734-12.655-125.377-34.647c40.479,33.75,92.553,54.064,149.377,54.064c128.912,0,233.417-104.504,233.417-233.417
			C1281.833-192.586,1272.569-228.799,1256.158-260.736z"/>
		<path fill="#FFFFFF" d="M1268.417-184.209c0-26.733-4.314-52.456-12.259-76.528c-32.104-97.267-123.718-167.472-231.741-167.472
			c-134.758,0-244,109.242-244,244c0,88.911,47.562,166.704,118.623,209.353c36.643,21.992,79.53,34.647,125.377,34.647
			C1159.174,59.791,1268.417-49.451,1268.417-184.209z M1061-74.657c13,0,21.412-1.42,25.264-4.255
			c3.951-2.837,6.021-8.763,6.021-17.778c0-29.173,1.922-49.381,5.671-60.625c3.848-11.446,11.47-20.411,22.815-26.894
			c-12.46-7.495-20.299-17.117-23.539-28.869c-3.343-11.75-5.008-31.35-5.008-58.802c0-9.622-1.989-15.7-5.735-18.233
			c-3.749-2.531-12.488-3.799-25.488-3.799V-330h8.287c20.46,0,34.389,2.37,41.785,7.332c7.293,4.964,12.611,10.784,15.953,17.569
			c3.241,6.787,4.863,21.953,4.863,45.555c0,16.006,0.859,27.59,2.583,34.781c1.619,6.989,4.781,12.353,9.643,16.099
			c4.76,3.749,11.887,5.819,20.887,6.223v36.466c-9,0.406-16.077,2.431-20.735,6.078c-4.66,3.646-7.86,9.017-9.683,16.106
			c-1.823,7.092-2.715,18.689-2.715,34.795c0,17.421-0.802,29.88-2.421,37.378c-1.724,7.799-4.857,14.079-9.415,18.841
			c-4.66,4.962-10.937,8.705-18.838,11.036c-7.699,2.431-18.283,3.742-31.754,3.742H1061V-74.657z M988-293.912
			c-14,0-22.182,1.367-25.727,4.103c-3.647,2.735-5.57,8.713-5.57,17.929c0,29.883-1.925,50.091-5.672,60.625
			c-3.749,10.636-11.421,19.653-22.968,27.046c9.318,5.067,16.397,12.611,21.259,22.64c4.76,10.131,7.135,31.756,7.135,64.88
			c0,7.192,1.06,12.206,3.187,15.043c2.025,2.835,4.637,4.71,8.284,5.622C971.473-75.113,978-74.657,987-74.657V-38h-7.454
			c-17.526,0-30.795-2.375-39.809-6.933c-9.017-4.458-15.042-11.09-18.081-19.801c-3.141-8.508-4.71-23.271-4.71-44.239
			c0-15.802-0.862-27.412-2.583-34.807c-1.622-6.989-4.647-12.313-9.408-15.96c-4.762-3.646-11.955-5.728-20.955-6.235v-36.466
			c11-0.1,19.383-3.343,24.146-9.724c4.558-6.078,7.159-13.219,7.971-21.424c0.607-7.901,0.87-16.562,0.87-25.982
			c0-16.813,0.839-29.223,2.563-37.226c1.619-7.597,4.8-13.927,9.562-18.993c4.76-4.862,10.984-8.396,18.684-10.827
			c7.901-2.329,18.48-3.382,31.751-3.382H988V-293.912z"/>
	</g>
	<g>
		<g>
			<g>
				<path fill="#FFFFFF" d="M930.137-307.898c-1.597,2.055-2.64,4.522-2.908,6.972c-0.268,2.453,0.278,4.826,1.406,6.417
					c1.125,1.609,2.634,2.405,4.072,2.505c1.433,0.12,2.768-0.38,3.972-1.123c0.043-0.022-0.653-0.839-0.776-2.207
					c-0.042-0.701,0.01-1.615,0.415-2.721c0.376-1.098,1.082-2.338,1.985-3.511c1.817-2.37,4.454-4.328,6.407-5.268
					c0.98-0.49,1.779-0.752,2.296-0.887c0.524-0.144,0.772-0.156,0.78-0.172c-0.249-1.394-0.771-2.731-1.818-3.727
					c-1.031-1.009-2.562-1.688-4.365-1.842C938.011-313.794,933.351-312.034,930.137-307.898z"/>
			</g>
		</g>
	</g>
	<g>
		<path fill="#333333" d="M485.158,178.264c7.945,24.071,12.259,49.794,12.259,76.528c0,134.757-109.243,244-244,244
			c-45.847,0-88.734-12.655-125.377-34.647c40.479,33.75,92.553,54.064,149.377,54.064c128.912,0,233.417-104.504,233.417-233.417
			C510.833,246.414,501.569,210.201,485.158,178.264z"/>
		<path fill="#FFFFFF" d="M497.417,254.791c0-26.733-4.314-52.456-12.259-76.528C453.055,80.996,361.441,10.791,253.417,10.791
			c-134.758,0-244,109.242-244,244c0,88.911,47.562,166.704,118.623,209.353c36.643,21.992,79.53,34.647,125.377,34.647
			C388.174,498.791,497.417,389.549,497.417,254.791z M373.908,268.483l14.488,61.439l8.854,19.049c0,0,14.488,17.171,20.122,23.073
			c5.634,5.902,6.439,12.073,2.146,19.049c-4.293,6.976-13.012,4.293-15.293,2.951c-2.281-1.341-27.232-27.299-29.781-31.122
			s-7.244-22.537-7.244-22.537l-22.805,15.561l5.634,27.098c0,0,0.805,11.537-11,13.852s-14.756-7.949-14.756-7.949
			s-5.098-29.512-5.902-37.829c-0.805-8.317,4.561-12.61,4.561-12.61l20.927-12.073L333.127,276.8c0,0-8.35,4.858-11.805,7.199
			c-4.024,2.728-8.719,2.191-11.939,2.191c-3.219,0-30.183-4.561-30.183-4.561s-4.293-4.829-3.219-11.537
			c1.073-6.707,10.463-5.902,10.463-5.902l22.537,4.561c0,0,21.598-16.366,39.707-19.585
			C366.914,245.926,373.908,268.483,373.908,268.483z M355.664,222.337c0,12.447-10.09,22.537-22.537,22.537
			c-12.447,0-22.537-10.09-22.537-22.537s10.09-22.537,22.537-22.537C345.574,199.8,355.664,209.89,355.664,222.337z
			 M279.469,58.142c12.447,0,22.537,10.09,22.537,22.537s-10.09,22.537-22.537,22.537s-22.537-10.09-22.537-22.537
			S267.022,58.142,279.469,58.142z M185.745,221.622c0,0,6.965-27.578,10.016-44.358c2.593-14.264,20.882-12.028,20.882-12.028
			l16.679,1.297l6.26-43.911L215.794,72.63c0,0-6.081-10.195,4.293-14.488c10.374-4.293,15.024,4.293,15.024,4.293l21.821,43.285
			l29.333,5.008l27.545,18.959l18.959-15.024c0,0,4.472-3.398,10.732,2.862c6.26,6.26,2.146,13.236,2.146,13.236
			s-14.309,14.667-20.39,21.106s-15.382,0.358-15.382,0.358l-16.455-11.447l-6.797,37.561l15.382,65.106
			c0,0,5.366,16.098-10.732,18.959c-16.098,2.862-17.528-12.52-17.528-12.52l-10.374-50.439l-42.211-3.935l-8.496,32.911
			c0,0,0.626,8.585-13.325,8.585S185.745,221.622,185.745,221.622z M248.347,252.386c0,12.447-10.09,22.537-22.537,22.537
			s-22.537-10.09-22.537-22.537s10.09-22.537,22.537-22.537S248.347,239.939,248.347,252.386z M135.664,204.093
			c12.447,0,22.537,10.09,22.537,22.537c0,12.447-10.09,22.537-22.537,22.537c-12.446,0-22.537-10.09-22.537-22.537
			C113.127,214.183,123.217,204.093,135.664,204.093z M160.704,340.028c0,0,6.439,0.715,3.577,22.537
			c-2.862,21.821-3.577,26.114-3.577,26.114s-3.219,7.154-12.163,7.154c-8.943,0-12.52-6.081-12.878-12.878l2.504-28.976
			L122.07,339.67l-19.317,46.862c0,0-3.935,14.309-17.886,9.301c-13.951-5.008-7.87-17.529-7.87-17.529l45.073-107.317
			c0,0,7.512-20.748,32.911-16.455c0,0,11.805,2.505,11.805-56.878c0-4.36,4.016-7.87,10.732-7.87c6.797,0,8.227,6.081,8.227,6.081
			s-1.072,51.512-15.739,81.561c-14.667,30.049-22.179,49.008-22.179,49.008L160.704,340.028z M240,387.605V366h-0.239H200
			c0,0,0,19.191,0,22.678s-3.415,8.218-13.61,8.218S176,387.605,176,387.605s0-31.122,0-39.976s10.103-8.63,10.103-8.63H211v-25.801
			c0,0-24.211-21.475-30.382-27.109c-6.171-5.634-3.552-8.954-3.552-8.954l5.451-31.591c0.748-4.337,7.073-6.573,12.707-4.963
			c5.634,1.61,4.829,8.586,4.829,8.586l-2.951,25.757l6.171,6.709l50.976-1.339c0,0,0.537-17.433,0.537-23.604
			s-4.963-19.776-5.098-22.794c-0.134-3.018,0-5.88,5.098-7.222c5.098-1.341,8.183-0.358,9.927,1.386s7.982,23.497,8.854,27.991
			c0.872,4.494,0.268,28.348,0.268,39.616c0,11.268-7.475,13.769-7.475,13.769L265.517,374h24.146c0,0,7.542,0.095,7.542,10.022
			s-10.702,12.874-10.702,12.874s-28.111-1.242-36.428-1.242S240,387.605,240,387.605z"/>
	</g>
	<g>
		<g>
			<g>
				<path fill="#FFFFFF" d="M313.629,218.486c-0.329,2.409,0.207,4.858,1.292,6.72c0.29,0.463,0.594,0.895,0.906,1.291
					c0.327,0.389,0.719,0.722,1.081,1.029c0.702,0.632,1.568,1.003,2.331,1.27c0.752,0.28,1.6,0.283,2.3,0.244
					c0.703-0.04,1.401-0.274,2.021-0.588c1.24-0.625,2.174-1.617,2.964-2.809c0.043-0.026-0.841-0.505-1.59-1.45
					c-0.085-0.123-0.178-0.247-0.281-0.371c-0.106-0.124-0.142-0.29-0.23-0.434c-0.197-0.278-0.259-0.643-0.407-0.986
					c-0.173-0.739-0.255-1.597-0.149-2.513c0.151-0.914,0.464-1.834,0.872-2.655c0.48-0.776,0.947-1.511,1.496-1.982
					c0.238-0.277,0.502-0.47,0.733-0.643c0.112-0.092,0.216-0.178,0.313-0.257c0.107-0.062,0.205-0.118,0.294-0.169
					c0.353-0.206,0.546-0.339,0.546-0.339c-0.68-1.258-1.528-2.33-2.706-3.069c-0.293-0.184-0.608-0.351-0.939-0.488
					c-0.319-0.121-0.657-0.217-1.012-0.287c-0.709-0.138-1.511-0.191-2.285-0.038c-0.396,0.067-0.805,0.163-1.223,0.291
					c-0.408,0.136-0.793,0.329-1.2,0.54c-0.834,0.408-1.56,1.027-2.294,1.742C315.078,214.007,313.975,216.081,313.629,218.486z"/>
			</g>
		</g>
	</g>
	<g>
		<g>
			<g>
				<path fill="#FFFFFF" d="M271.677,63.832c-1.544,0.974-2.778,2.293-3.579,3.744c-0.786,1.481-1.166,3.045-1.04,4.524
					c0.049,0.726,0.211,1.415,0.497,2.058c0.277,0.634,0.621,1.19,1.097,1.691c0.924,0.993,2.12,1.647,3.459,2.151
					c0,0,0.084-0.161,0.202-0.455c0.04-0.146,0.171-0.331,0.287-0.546c0.1-0.216,0.28-0.461,0.473-0.732
					c0.736-1.095,2.262-2.531,4.046-3.651c1.798-1.098,3.796-1.853,5.157-2.063c0.34-0.058,0.653-0.122,0.904-0.123
					c0.255-0.014,0.492-0.058,0.649-0.034c0.333,0.013,0.524,0.006,0.524,0.006c0.088-1.428-0.025-2.789-0.55-4.041
					c-0.26-0.64-0.622-1.184-1.08-1.703c-0.462-0.529-1.013-0.965-1.644-1.324c-1.271-0.744-2.827-1.09-4.485-1.038
					C274.953,62.369,273.237,62.885,271.677,63.832z"/>
			</g>
		</g>
	</g>
	<g>
		<g>
			<g>
				<path fill="#FFFFFF" d="M213.998,237.864c-2.994,3.155-4.255,7.495-3.261,10.812c0.457,1.629,1.466,2.898,2.682,3.51
					c1.272,0.626,2.618,0.63,4.033,0.45c0,0,0.036-0.136,0.002-0.367c0.012-0.268,0.059-0.754,0.289-1.49
					c0.414-1.469,1.868-3.81,3.723-5.772c1.881-1.937,4.164-3.527,5.667-4.057c0.752-0.292,1.271-0.383,1.563-0.42
					c0.257,0.011,0.403-0.034,0.403-0.034c0.051-1.426-0.086-2.768-0.819-3.98c-0.717-1.16-2.051-2.067-3.691-2.424
					C221.251,233.306,217.021,234.732,213.998,237.864z"/>
			</g>
		</g>
	</g>
	<g>
		<g>
			<g>
				<path fill="#FFFFFF" d="M122.676,212.696c-1.446,1.78-2.316,3.897-2.588,5.874c-0.057,0.5-0.089,0.988-0.099,1.46
					c-0.002,0.473,0.061,0.942,0.121,1.385c0.106,0.886,0.408,1.707,0.74,2.432c1.43,2.934,4.162,4.227,6.983,4.233
					c0,0,0.008-0.316,0.023-0.869c0-0.278,0.006-0.614,0.06-0.982c0.048-0.369,0.056-0.803,0.165-1.235
					c0.136-0.897,0.44-1.875,0.843-2.877c0.446-0.981,1.029-1.97,1.758-2.887c0.75-0.904,1.651-1.726,2.579-2.443
					c0.958-0.692,1.923-1.296,2.826-1.737c0.431-0.243,0.87-0.417,1.245-0.589c0.371-0.177,0.711-0.311,0.997-0.413
					c0.564-0.217,0.886-0.34,0.886-0.34c-1.01-2.653-3.199-4.705-6.338-5.236c-1.554-0.257-3.332-0.13-5.131,0.553
					C125.958,209.707,124.128,210.921,122.676,212.696z"/>
			</g>
		</g>
	</g>
</g>
</svg>
