<?xml version="1.0" encoding="utf-8"?>
<!-- Generator: Adobe Illustrator 17.0.0, SVG Export Plug-In . SVG Version: 6.00 Build 0)  -->
<!DOCTYPE svg PUBLIC "-//W3C//DTD SVG 1.1//EN" "http://www.w3.org/Graphics/SVG/1.1/DTD/svg11.dtd">
<svg version="1.1" id="Layer_1" xmlns="http://www.w3.org/2000/svg" xmlns:xlink="http://www.w3.org/1999/xlink" x="0px" y="0px"
	 width="511.37px" height="511px" viewBox="0 0 511.37 511" enable-background="new 0 0 511.37 511" xml:space="preserve">
<g>
	<g>
		<polygon fill="#CC00FF" points="261.548,49.832 206.949,18.379 171.43,70.408 108.602,65.869 99.131,128.154 40.481,151.169 
			58.921,211.399 16.16,257.642 58.921,303.885 40.482,364.116 99.132,387.131 108.602,449.416 171.43,444.877 206.948,496.905 
			261.548,465.452 316.148,496.905 351.666,444.877 414.494,449.415 423.964,387.13 482.614,364.115 464.174,303.885 
			506.936,257.642 464.174,211.399 482.614,151.168 423.964,128.154 414.494,65.869 351.666,70.408 316.148,18.379 		"/>
		<g>
			<polygon fill="none" points="451.701,210.559 469.536,152.3 412.796,130.034 403.632,69.767 342.849,74.158 308.494,23.833 
				255.677,54.26 202.86,23.833 168.504,74.159 107.719,69.767 98.556,130.034 41.816,152.3 59.652,210.559 18.285,255.294 
				59.652,300.028 41.816,358.289 98.556,380.553 107.72,440.819 168.504,436.428 202.86,486.754 255.677,456.327 308.494,486.754 
				336.834,445.24 234.535,383.592 270.925,300.769 360.454,168.45 489.377,259.284 493.068,255.294 			"/>
			<linearGradient id="SVGID_1_" gradientUnits="userSpaceOnUse" x1="534.1111" y1="417.1651" x2="286.2698" y2="281.0174">
				<stop  offset="0" style="stop-color:#93278F;stop-opacity:0"/>
				<stop  offset="0.3622" style="stop-color:#832990;stop-opacity:0.3622"/>
				<stop  offset="1" style="stop-color:#662D91"/>
			</linearGradient>
			<polygon fill="url(#SVGID_1_)" points="270.925,300.769 202.854,399.064 324.103,476.223 342.849,436.428 403.633,440.819 
				412.797,380.552 469.537,358.287 451.701,300.028 500.465,255.77 357.171,145.544 			"/>
			<path fill="#9900CC" d="M413.613,453.314l1.568-10.315c-4.957,3.637-9.627,6.759-13.934,9.422L413.613,453.314z"/>
			<polygon fill="#9900CC" points="308.494,486.754 255.677,456.327 202.86,486.754 168.504,436.428 107.72,440.819 98.556,380.553 
				41.816,358.289 59.652,300.028 18.285,255.294 59.652,210.559 41.816,152.3 98.556,130.034 107.719,69.767 168.504,74.159 
				202.86,23.833 255.677,54.26 308.494,23.833 342.849,74.158 403.632,69.767 412.796,130.034 469.536,152.3 451.701,210.559 
				493.068,255.294 489.377,259.284 499.062,266.108 509.062,255.294 464.905,207.543 483.948,145.34 423.388,121.576 
				413.612,57.273 348.739,61.959 312.058,8.227 255.677,40.707 199.294,8.228 162.613,61.96 97.741,57.273 87.964,121.576 
				27.404,145.34 46.448,207.542 2.291,255.294 46.448,303.044 27.404,365.247 87.965,389.012 97.741,453.314 162.614,448.628 
				199.294,502.359 255.677,469.88 312.058,502.359 346.907,451.311 336.834,445.24 			"/>
			<path fill="#9900CC" d="M483.95,365.246l-19.045-62.202l34.157-36.937l-9.684-6.823l-37.676,40.744l17.836,58.259l-56.739,22.265
				l-9.164,60.267l-60.784-4.391l-6.016,8.812l10.074,6.071l1.832-2.684l52.508,3.793c4.307-2.663,8.977-5.785,13.934-9.422
				l8.208-53.989L483.95,365.246z"/>
		</g>
		<g>
			<g>
				<polygon fill="#FBB03B" points="213.155,362.329 210.006,347.217 209.633,347.076 184.998,379.535 198.716,380.077 				"/>
				<path fill="#FFCC00" d="M264.322,321.877l-80.652-87.156l-0.785,0.106l-6.365,11.565l-43.709,5.143l-21.75,28.908
					c0,0-10.913-0.317-18.019-0.635l-0.089,0.109l28.365,30.698l33.345-23.468l33.376,24.159l21.83,35.458l-0.236,0.311l0.373,0.141
					l3.15,15.112l-14.44,17.748l-13.717-0.542l27.193,29.43l39.189-27.135L264.322,321.877z"/>
				<path fill="#FBB03B" d="M111.06,280.443l21.75-28.908l43.709-5.143l6.365-11.565l-59.896,8.115l-29.948,36.865
					C100.147,280.126,111.06,280.443,111.06,280.443z"/>
			</g>
			<g>
				<path fill="#E6E6E6" d="M351.908,158.815l11.839-10.939c-109.412-28.705-174.868,76.788-180.741,86.7l14.76,0.583
					C197.766,235.159,256.609,136.733,351.908,158.815z"/>
				<path fill="#FFFFFF" d="M364.547,148.605l-0.099-0.546l-0.701-0.183l-11.839,10.939
					c-95.299-22.083-154.142,76.343-154.142,76.343l-14.76-0.583c-0.176,0.298-0.301,0.513-0.37,0.632l80.624,87.256
					C265.621,321.364,385.789,264.767,364.547,148.605z M304.377,202.734c-0.735-0.796-1.373-1.646-1.919-2.536
					c-3.954-6.448-2.945-14.998,2.822-20.326c6.563-6.064,16.798-5.66,22.862,0.903c4.849,5.248,5.557,12.843,2.293,18.777
					c-0.818,1.487-1.881,2.871-3.196,4.085C320.677,209.701,310.441,209.296,304.377,202.734z"/>
				<g>
					<path fill="#0071BC" d="M291.541,206.877c0.977,1.593,2.12,3.117,3.437,4.542c10.861,11.754,29.193,12.478,40.947,1.618
						c2.355-2.176,4.259-4.655,5.724-7.317C324.348,215.928,304.589,216.578,291.541,206.877z"/>
					<g>
						<path fill="#29ABE2" d="M341.648,205.719c5.848-10.628,4.579-24.231-4.106-33.63c-10.861-11.754-29.193-12.478-40.947-1.618
							c-10.329,9.544-12.137,24.856-5.054,36.406C304.589,216.578,324.348,215.928,341.648,205.719z M322.244,176.776
							c-0.516-0.257-1.266-0.501-2.159-0.742c-0.448-0.074-0.931-0.235-1.441-0.246c-0.255-0.018-0.517-0.058-0.784-0.07
							c-0.267,0.007-0.539,0.013-0.816,0.02c-1.107,0.075-2.29,0.295-3.472,0.762c-1.181,0.469-2.357,1.111-3.445,1.818
							c-1.082,0.742-2.086,1.486-2.932,2.208c-0.85,0.7-1.551,1.329-2.044,1.776c-0.492,0.448-0.773,0.704-0.773,0.704
							c-1.171-1.418-1.295-3.612-0.285-6.029c0.502-1.211,1.323-2.463,2.477-3.657c1.172-1.172,2.708-2.284,4.609-3.029
							c1.894-0.756,3.985-0.951,5.78-0.684c1.816,0.231,3.309,1.027,4.364,1.874c1.042,0.919,1.687,1.892,1.938,2.904
							c0.264,0.989,0.176,1.906-0.199,2.749C323.062,177.134,322.764,177.004,322.244,176.776z M332.509,186.976
							c0,0-0.03-0.124-0.083-0.341c-0.057-0.212-0.118-0.538-0.222-0.89c-0.208-0.709-0.523-1.579-0.956-2.37
							c-0.451-0.788-1.042-1.575-1.555-2.181c-0.54-0.612-0.9-1.019-0.9-1.019c1.376-1.227,2.956-1.97,4.471-2.056
							c1.494-0.083,2.98,0.577,3.798,2.022c0.81,1.459,0.582,3.15-0.313,4.358C335.829,185.733,334.306,186.575,332.509,186.976z"/>
						<path fill="#FFFFFF" d="M323.26,174.385c-0.25-1.012-0.896-1.985-1.938-2.904c-1.055-0.848-2.547-1.644-4.364-1.874
							c-1.795-0.267-3.886-0.072-5.78,0.684c-1.901,0.745-3.437,1.857-4.609,3.029c-1.154,1.194-1.975,2.445-2.477,3.657
							c-1.01,2.417-0.886,4.611,0.285,6.029c0,0,0.281-0.256,0.773-0.704c0.493-0.447,1.193-1.076,2.044-1.776
							c0.845-0.722,1.85-1.466,2.932-2.208c1.088-0.707,2.264-1.349,3.445-1.818c1.182-0.466,2.365-0.687,3.472-0.762
							c0.277-0.007,0.55-0.014,0.816-0.02c0.267,0.012,0.529,0.051,0.784,0.07c0.51,0.011,0.993,0.172,1.441,0.246
							c0.892,0.241,1.643,0.485,2.159,0.742c0.52,0.227,0.818,0.357,0.818,0.357C323.436,176.292,323.524,175.374,323.26,174.385z"
							/>
						<path fill="#FFFFFF" d="M337.062,180.14c-0.818-1.446-2.304-2.105-3.798-2.022c-1.515,0.086-3.096,0.829-4.471,2.056
							c0,0,0.36,0.408,0.9,1.019c0.513,0.606,1.104,1.394,1.555,2.181c0.434,0.791,0.748,1.662,0.956,2.37
							c0.105,0.352,0.166,0.678,0.222,0.89c0.053,0.217,0.083,0.341,0.083,0.341c1.797-0.401,3.32-1.242,4.24-2.478
							C337.644,183.29,337.872,181.598,337.062,180.14z"/>
					</g>
				</g>
			</g>
		</g>
	</g>
	<g>
		<g>
			<g>
				<path fill="#FFFFFF" d="M139.914,108.554c-11.356,10.833-19.388,23.15-22.854,33.14c-1.77,4.977-2.417,9.316-2.249,12.445
					c0.046,0.786,0.115,1.49,0.245,2.121c0.145,0.635,0.323,1.189,0.531,1.661c0.417,0.944,0.959,1.559,1.619,1.849
					c0,0,0.117-0.381,0.337-1.096c0.212-0.716,0.523-1.766,1.034-3.087c0.968-2.646,2.601-6.402,5.102-10.722
					c4.903-8.686,13.492-19.4,23.397-28.864c9.875-9.502,20.906-17.831,29.587-23.221c4.33-2.721,8.05-4.742,10.673-6.061
					c1.311-0.668,2.349-1.155,3.059-1.475c0.708-0.328,1.086-0.504,1.086-0.504c-0.771-1.196-2.857-1.82-6.012-1.599
					c-3.152,0.204-7.372,1.218-12.232,3.15C163.518,90.128,151.243,97.67,139.914,108.554z"/>
			</g>
		</g>
	</g>
</g>
</svg>
