<?xml version="1.0" encoding="utf-8"?>
<!-- Generator: Adobe Illustrator 17.0.0, SVG Export Plug-In . SVG Version: 6.00 Build 0)  -->
<!DOCTYPE svg PUBLIC "-//W3C//DTD SVG 1.1//EN" "http://www.w3.org/Graphics/SVG/1.1/DTD/svg11.dtd">
<svg version="1.1" xmlns="http://www.w3.org/2000/svg" xmlns:xlink="http://www.w3.org/1999/xlink" x="0px" y="0px"
	 width="574.471px" height="287.986px" viewBox="0 0 574.471 287.986" enable-background="new 0 0 574.471 287.986"
	 xml:space="preserve">
<g id="Layer_1" display="none">
	<linearGradient id="SVGID_1_" gradientUnits="userSpaceOnUse" x1="277.8956" y1="577.9007" x2="277.8956" y2="-222.0993">
		<stop  offset="0" style="stop-color:#D4145A"/>
		<stop  offset="0.0404" style="stop-color:#CB165E"/>
		<stop  offset="0.2333" style="stop-color:#A71E70"/>
		<stop  offset="0.427" style="stop-color:#8B257F"/>
		<stop  offset="0.6199" style="stop-color:#762989"/>
		<stop  offset="0.8113" style="stop-color:#6A2C8F"/>
		<stop  offset="1" style="stop-color:#662D91"/>
	</linearGradient>
	<rect x="-122.104" y="-222.099" display="inline" fill="url(#SVGID_1_)" width="800" height="800"/>
</g>
<g id="Layer_2">
	<g>
		<path fill="#FFFFFF" d="M271.984,99.624l-61.903-35.766c-0.099-0.069-0.198-0.139-0.302-0.199l-63.445-36.598
			c-1.213-0.7-2.713-0.7-3.926,0L79.415,63.659c-0.398,0.23-0.691,0.529-0.915,0.869L17.761,99.624
			c-1.212,0.7-1.866,1.994-1.866,3.394v0.047c0,0,0,0,0,0.001c0,0,0,0.001,0,0.001v73.148c0,1.399,0.611,2.692,1.821,3.392
			l60.942,35.347c0.196,0.237,0.436,0.446,0.734,0.618l62.937,36.598c0.607,0.351,3.269,0.352,3.875,0.003
			c0.053-0.031,0.061-0.069,0.112-0.102l63.462-36.496c0.28-0.162,0.541-0.358,0.781-0.577l61.38-35.388
			c1.214-0.7,1.956-1.994,1.956-3.396v-73.009v-0.187C273.896,101.618,273.196,100.325,271.984,99.624z M85.896,74.865
			l33.627,19.353l19.373,11.695v64.137l-53-32.061V74.865z M147.896,173.954v-3.89V110.83l33.627,19.353l19.373,11.695v64.137
			L147.896,173.954z M205.957,134.658l-35.932-20.715l-18.892-10.919l55.538-32.077l55.586,32.105L205.957,134.658z M144.262,34.982
			l54.516,31.487l-55.646,31.985l-35.516-20.475L88.724,67.059L144.262,34.982z M77.896,73.843v58.336l-31.632-18.236
			l-18.892-10.919L77.896,73.843z M23.896,110.83l34.127,19.353l19.873,11.695v64.137l-54-32.061V110.83z M85.896,209.919v-62.496
			l53,30.82v63.738L85.896,209.919z M147.896,183.537l50.783,29.366l-50.783,29.091V183.537z M265.896,173.949l-54,32.08v-64.091
			l54-31.962V173.949z"/>
	</g>
	<g>
		<g>
			<g>
				<path fill="#FFFFFF" d="M405.975,105.326c0,0.72-0.619,1.32-1.856,1.32h-27.632c-1.03,0-1.855-0.6-1.855-1.32V56.728
					c0-1.8-1.649-2.52-3.299-2.52c-1.65,0-3.3,0.72-3.3,2.52v48.718c0,0.72-0.618,1.2-1.855,1.2h-28.251
					c-1.031,0-1.855-0.36-1.855-1.08V56.608c0-1.8-1.649-2.4-3.3-2.4c-1.649,0-3.299,0.6-3.299,2.4v49.198
					c0,0.48-0.619,0.84-1.649,0.84h-28.251c-0.824,0-1.443-0.36-1.443-0.96V35.608c0-0.48,0.825-0.96,1.856-0.96h27.013
					c1.649,0,2.887,5.16,4.33,5.16c0.619,0,1.237-0.24,2.269-0.96c3.299-2.16,8.867-4.2,15.466-4.2c7.423,0,12.372,1.8,15.672,4.32
					c1.03,0.84,1.855,1.2,2.474,1.2c0.619,0,1.65-0.36,2.475-0.96c3.918-2.16,9.073-4.56,16.909-4.56
					c10.517,0,19.384,5.52,19.384,12.479V105.326z"/>
				<path fill="#FFFFFF" d="M414.22,35.848c0-0.72,0.619-1.2,1.649-1.2h25.982c1.031,0,1.649,0.36,1.649,0.96v45.838
					c0,1.8,1.856,2.399,3.3,2.399c1.649,0,3.299-0.6,3.299-2.399V35.608c0-0.6,0.619-0.96,1.443-0.96h26.808
					c1.03,0,1.855,0.36,1.855,0.84v70.317c0,0.48-0.618,0.84-1.649,0.84h-24.333c-1.237,0-2.474-4.2-3.711-4.2
					c-0.413,0-1.031,0.24-2.269,0.96c-3.712,2.04-7.218,3.24-14.641,3.24c-8.455,0-19.384-4.08-19.384-12.479V35.848z"/>
			</g>
			<g>
				<path fill="#FFFFFF" d="M339.212,202.979c-0.825,0-1.856-0.479-1.856-1.08v-89.756c0-0.6,0.825-0.96,1.856-0.96h26.807
					c1.031,0,1.855,0.6,1.855,1.2v20.999c0,0.72,0.413,0.96,0.619,0.96c0.412,0,0.824-0.24,1.855-0.84
					c3.093-1.8,7.011-2.52,11.754-2.52c10.517,0,23.508,4.8,23.508,23.039V179.1c0,19.679-11.754,23.879-22.064,23.879
					c-4.742,0-9.073-0.84-12.166-2.16c-1.237-0.6-1.856-0.84-2.269-0.84c-1.031,0-3.093,3-3.918,3H339.212z M367.874,181.74
					c0,1.08,0.619,1.8,1.649,2.28c0.413,0.359,1.444,0.6,2.269,0.6c2.681,0,2.681-1.56,2.681-2.28v-30.119
					c0-1.2-0.824-2.28-2.681-2.28c-2.269,0-3.918,1.32-3.918,3.12V181.74z"/>
				<path fill="#FFFFFF" d="M411.589,149.581c0-11.04,14.229-18.599,35.468-18.599s35.468,7.439,35.468,19.199v34.079
					c0,11.16-14.229,18.719-35.468,18.719c-21.033,0-35.468-7.68-35.468-18.719V149.581z M443.758,181.14
					c0,1.439,1.03,2.399,3.299,2.399s3.3-0.96,3.3-2.399v-28.559c0-1.32-1.237-2.4-3.3-2.4c-2.269,0-3.299,1.08-3.299,2.4V181.14z"
					/>
				<path fill="#FFFFFF" d="M502.527,167.101c0.412-0.6,0.412-0.84,0.206-1.44l-19.59-33.719c-0.206-0.48,0.206-0.96,0.825-0.96
					h30.106c0.824,0,1.443,0.36,1.649,0.96l3.918,9.12c0,0.12,0.206,0.36,0.412,0.36l0.412-0.48l3.918-9
					c0.207-0.6,1.031-0.96,1.65-0.96h29.693c0.825,0,1.443,0.6,1.237,1.08l-19.384,33.719c-0.206,0.36-0.412,0.72-0.412,0.96
					c0,0.24,0.206,0.72,0.412,0.96l19.178,34.198c0.206,0.601-0.619,1.08-1.443,1.08h-29.694c-0.824,0-1.443-0.36-1.649-0.96
					l-3.506-9.479c0-0.24-0.206-0.48-0.412-0.48l-0.412,0.48l-3.094,9.479c-0.206,0.6-0.824,0.96-1.649,0.96h-31.137
					c-0.619,0-1.031-0.36-0.825-0.84L502.527,167.101z"/>
			</g>
		</g>
		<g>
			<path fill="#FFFFFF" d="M320.717,219.413c-1.145-1.209-2.53-2.5-4.155-3.163c-1.626-0.664-3.453-1.349-5.482-1.349h-10.183v28
				h10.183c2.029,0,3.856-0.34,5.482-1.043c1.625-0.702,3.011-1.659,4.155-2.882c1.145-1.222,2.029-2.656,2.653-4.309
				c0.625-1.651,0.937-3.438,0.937-5.364c0-2.028-0.312-3.881-0.937-5.559C322.746,222.066,321.861,220.623,320.717,219.413z"/>
			<polygon fill="#FFFFFF" points="330.896,242.901 347.896,242.901 347.896,236.901 335.896,236.901 335.896,231.901 
				344.896,231.901 344.896,225.901 335.896,225.901 335.896,220.901 347.896,220.901 347.896,214.901 330.896,214.901 			"/>
			<path fill="#FFFFFF" d="M368.964,223.585c-1.235,2.797-2.465,5.41-3.688,8.193l-7.452-16.877h-5.932l12.292,28h2.263l12.174-28
				h-5.931C371.441,217.901,370.199,220.789,368.964,223.585z"/>
			<polygon fill="#FFFFFF" points="382.896,231.595 382.896,242.901 400.896,242.901 400.896,236.901 388.896,236.901 
				388.896,231.901 396.896,231.901 396.896,225.901 389.328,225.901 388.896,225.901 388.896,220.901 396.565,220.901 
				400.896,220.901 400.896,218.001 400.896,214.901 382.896,214.901 			"/>
			<polygon fill="#FFFFFF" points="412.896,214.901 406.896,214.901 406.896,242.901 423.896,242.901 423.896,236.901 
				412.896,236.901 			"/>
			<path fill="#FFFFFF" d="M448.721,219.667c-1.263-1.223-2.719-2.172-4.37-2.849c-1.652-0.676-3.35-1.015-5.093-1.015
				c-1.977,0-3.798,0.378-5.463,1.132c-1.665,0.755-3.108,1.763-4.331,3.024s-2.179,2.725-2.868,4.39s-1.033,3.395-1.033,5.189
				c0,2.081,0.39,3.961,1.17,5.639s1.814,3.108,3.103,4.292c1.287,1.184,2.751,2.101,4.39,2.751s3.316,0.976,5.033,0.976
				c1.977,0,3.805-0.377,5.482-1.132c1.678-0.754,3.122-1.769,4.331-3.044c1.21-1.273,2.152-2.731,2.829-4.37
				c0.676-1.639,1.015-3.342,1.015-5.111c0-2.003-0.384-3.844-1.151-5.521S449.981,220.89,448.721,219.667z"/>
			<path fill="#FFFFFF" d="M476.776,218.087c-0.768-0.767-1.658-1.726-2.673-2.169s-2.095-1.017-3.239-1.017h-11.969v28h6v-11h5.969
				c1.145,0,2.23,0.081,3.259-0.362c1.027-0.441,1.925-0.889,2.692-1.644c0.767-0.754,1.371-1.576,1.814-2.617
				c0.441-1.04,0.663-2.108,0.663-3.279c0-1.17-0.229-2.244-0.683-3.258C478.154,219.726,477.543,218.855,476.776,218.087z"/>
			<polygon fill="#FFFFFF" points="484.896,229.872 484.896,242.901 501.896,242.901 501.896,236.901 489.896,236.901 
				489.896,231.901 498.896,231.901 498.896,225.901 489.896,225.901 489.896,220.901 500.787,220.901 501.896,220.901 
				501.896,220.372 501.896,214.901 484.896,214.901 			"/>
			<path fill="#FFFFFF" d="M527.481,228.661c0.885-1.365,1.327-2.907,1.327-4.624c0-1.17-0.229-2.263-0.683-3.277
				c-0.456-1.015-1.067-1.905-1.834-2.673c-0.131-0.131-0.271-0.251-0.41-0.373c-0.671-0.59-1.423-1.429-2.263-1.796
				c-1.015-0.442-2.095-1.017-3.239-1.017h-11.484v3.699v24.301h5v-11H518l7.414,11h6.633l-8.038-11.226
				C525.439,231.024,526.597,230.026,527.481,228.661z"/>
			<path fill="#FFFFFF" d="M553.331,232.329c-0.273-0.793-0.735-1.535-1.386-2.225c-0.65-0.688-1.509-1.339-2.575-1.95
				s-2.38-1.216-3.94-1.814c-0.547-0.182-1.067-0.377-1.561-0.586c-0.495-0.208-0.931-0.435-1.308-0.683
				c-0.377-0.247-0.677-0.52-0.897-0.819c-0.222-0.299-0.332-0.631-0.332-0.995c0-0.696,0.242-1.243,0.698-1.659
				c0.072-0.066,0.135-0.136,0.219-0.195c0.541-0.379,1.281-0.581,2.198-0.625c0.12-0.006,0.231-0.019,0.357-0.019
				c0.599,0,1.184,0.104,1.756,0.313s1.08,0.429,1.522,0.663c0.52,0.286,1.027,0.599,1.521,0.937l3.355-4.215
				c-0.442-0.39-0.995-0.773-1.658-1.15s-1.372-0.709-2.126-0.995c-0.755-0.286-1.529-0.521-2.322-0.702
				c-0.794-0.182-1.541-0.273-2.243-0.273c-1.302,0-2.491,0.202-3.57,0.604c-0.803,0.3-1.518,0.687-2.148,1.158
				c-0.218,0.163-0.426,0.336-0.623,0.519c-0.658,0.614-1.179,1.33-1.579,2.135c-0.066,0.133-0.137,0.264-0.196,0.402
				c-0.417,0.975-0.624,2.022-0.624,3.141c0,1.093,0.188,2.056,0.565,2.888c0.377,0.833,0.91,1.574,1.6,2.224
				c0.689,0.65,1.502,1.217,2.438,1.697c0.937,0.482,1.951,0.931,3.044,1.347c0.937,0.364,1.717,0.709,2.341,1.034
				c0.625,0.325,1.112,0.631,1.464,0.917c0.351,0.286,0.598,0.553,0.741,0.8c0.143,0.247,0.215,0.475,0.215,0.683
				c0,0.546-0.117,1.002-0.352,1.365c-0.234,0.365-0.533,0.658-0.897,0.879s-0.768,0.384-1.21,0.487
				c-0.442,0.104-0.885,0.156-1.326,0.156c-0.521,0-1.067-0.104-1.639-0.313c-0.573-0.208-1.119-0.461-1.64-0.761
				c-0.521-0.299-0.981-0.611-1.385-0.937s-0.696-0.604-0.878-0.839l-4.058,3.746c0.207,0.234,0.585,0.439,1.131,0.96
				c0.547,0.521,1.171,1.271,1.873,1.271h-0.039c0.988,1,2.042,1.278,3.161,1.616c1.118,0.338,2.275,0.594,3.473,0.594
				c1.326,0,2.556-0.172,3.688-0.602c1.131-0.429,2.106-0.992,2.926-1.734c0.819-0.741,1.464-1.608,1.932-2.623
				c0.469-1.015,0.702-2.088,0.702-3.233C553.74,233.982,553.604,233.123,553.331,232.329z"/>
		</g>
	</g>
	<g>
		<path fill="none" d="M445.092,302.628c-0.768-0.768-1.652-1.372-2.653-1.814c-1.002-0.442-2.063-0.664-3.181-0.664
			c-1.17,0-2.263,0.222-3.277,0.664s-1.899,1.047-2.653,1.814c-0.755,0.768-1.353,1.658-1.795,2.673s-0.663,2.094-0.663,3.238
			s0.221,2.225,0.663,3.238c0.442,1.015,1.04,1.899,1.795,2.653c0.754,0.755,1.645,1.347,2.673,1.775
			c1.027,0.43,2.113,0.645,3.258,0.645s2.218-0.221,3.22-0.664c1.001-0.441,1.879-1.04,2.634-1.795
			c0.754-0.754,1.352-1.632,1.795-2.634c0.441-1.001,0.663-2.074,0.663-3.219s-0.222-2.224-0.663-3.238
			C446.463,304.286,445.858,303.396,445.092,302.628z"/>
		<path fill="none" d="M316.659,302.472c-0.702-0.741-1.528-1.413-2.478-1.842c-0.95-0.43-1.984-0.729-3.103-0.729h-4.183v16h4.183
			c1.118,0,2.152,0.091,3.103-0.325c0.949-0.416,1.775-0.845,2.478-1.587s1.248-1.538,1.639-2.539
			c0.39-1.001,0.585-2.037,0.585-3.182c0-1.145-0.195-2.198-0.585-3.2C317.907,304.066,317.361,303.213,316.659,302.472z"/>
		<path fill="none" d="M519.365,299.901h-5.469v6h5.469c1.379,0,2.394-0.196,3.044-0.807c0.649-0.611,0.976-1.278,0.976-2.111
			c0-0.832-0.326-1.58-0.976-2.165C521.759,300.232,520.744,299.901,519.365,299.901z"/>
		<path fill="none" d="M469.849,299.901h-4.954v6h4.954c1.379,0,2.394-0.196,3.044-0.807s0.976-1.278,0.976-2.111
			c0-0.832-0.325-1.58-0.976-2.165C472.243,300.232,471.228,299.901,469.849,299.901z"/>
	</g>
</g>
</svg>
