<?xml version="1.0" encoding="utf-8"?>
<!-- Generator: Adobe Illustrator 17.0.0, SVG Export Plug-In . SVG Version: 6.00 Build 0)  -->
<!DOCTYPE svg PUBLIC "-//W3C//DTD SVG 1.1//EN" "http://www.w3.org/Graphics/SVG/1.1/DTD/svg11.dtd">
<svg version="1.1" id="Layer_1" xmlns="http://www.w3.org/2000/svg" xmlns:xlink="http://www.w3.org/1999/xlink" x="0px" y="0px"
	 width="141px" height="150.54px" viewBox="0 0 141 150.54" enable-background="new 0 0 141 150.54" xml:space="preserve">
<g>
	<path fill="#FFFFFF" d="M131.83,40.33L71.61,5.73c-1.15-0.66-2.44-0.66-3.59,0L8.36,40.33C7.22,40.99,7,42.22,7,43.54v69.2
		c0,1.32,0.22,2.54,1.36,3.21l59.29,34.59c0.58,0.34,3.53,0.34,4.1,0.01c0.29-0.17,0.58-0.37,0.84-0.6l59.18-34
		c1.14-0.66,2.23-1.89,2.23-3.21v-69.2C134,42.22,132.98,40.99,131.83,40.33z M65,140.91L14,110.6V50.59l51,29.69V140.91z
		 M69.81,73.74L17.23,43.49l52.4-30.27l52.64,30.4L69.81,73.74z M126,110.6l-52,30.32V80.34l52-30.22V110.6z"/>
	<polygon fill="#FF931E" points="122.27,43.62 69.81,73.74 17.23,43.49 69.63,13.22 	"/>
	<polygon fill="#ED1E79" points="65,80.28 65,140.91 14,110.6 14,50.59 	"/>
	<polygon fill="#D9E021" points="126,50.12 126,110.6 74,140.92 74,80.34 	"/>
</g>
</svg>
