<?xml version="1.0" encoding="utf-8"?>
<!-- Generator: Adobe Illustrator 17.0.0, SVG Export Plug-In . SVG Version: 6.00 Build 0)  -->
<!DOCTYPE svg PUBLIC "-//W3C//DTD SVG 1.1//EN" "http://www.w3.org/Graphics/SVG/1.1/DTD/svg11.dtd">
<svg version="1.1" xmlns="http://www.w3.org/2000/svg" xmlns:xlink="http://www.w3.org/1999/xlink" x="0px" y="0px" width="214px"
	 height="109.467px" viewBox="0 0 214 109.467" enable-background="new 0 0 214 109.467" xml:space="preserve">
<g id="Layer_1" display="none">
	<linearGradient id="SVGID_1_" gradientUnits="userSpaceOnUse" x1="197" y1="484.6667" x2="197" y2="-315.3333">
		<stop  offset="0" style="stop-color:#D4145A"/>
		<stop  offset="0.0404" style="stop-color:#CB165E"/>
		<stop  offset="0.2333" style="stop-color:#A71E70"/>
		<stop  offset="0.427" style="stop-color:#8B257F"/>
		<stop  offset="0.6199" style="stop-color:#762989"/>
		<stop  offset="0.8113" style="stop-color:#6A2C8F"/>
		<stop  offset="1" style="stop-color:#662D91"/>
	</linearGradient>
	<rect x="-203" y="-315.333" display="inline" fill="url(#SVGID_1_)" width="800" height="800"/>
</g>
<g id="Layer_2">
	<g>
		<polygon fill="#FF931E" points="-335,46.945 -335,-11.391 -385.524,17.79 -366.632,28.71 		"/>
		<polygon fill="#ED1E79" points="-335,56.644 -354.873,44.949 -389,25.596 -389,88.72 -335,120.781 		"/>
		<polygon fill="#ED1E79" points="-274,93.008 -327,62.189 -327,124.685 -274,156.746 		"/>
		<polygon fill="#D9E021" points="-265,98.303 -265,156.76 -214.217,127.669 		"/>
		<polygon fill="#FF931E" points="-324.172,-18.175 -305.28,-7.255 -269.764,13.219 -214.118,-18.765 -268.633,-50.252 		"/>
		<polygon fill="#ED1E79" points="-274,84.816 -274,20.679 -293.373,8.984 -327,-10.369 -327,52.755 		"/>
		<polygon fill="#FF931E" points="-206.223,-14.287 -261.762,17.79 -242.87,28.71 -206.938,49.424 -150.637,17.818 		"/>
		<path fill="#FFFFFF" d="M-140.912,14.39l-61.903-35.766c-0.099-0.069-0.198-0.139-0.302-0.199l-63.445-36.598
			c-1.213-0.7-2.713-0.7-3.926,0l-62.993,36.598c-0.398,0.23-0.691,0.529-0.915,0.869l-60.739,35.096
			c-1.212,0.7-1.866,1.994-1.866,3.394v0.047l0,0.001l0,0.001V90.98c0,1.399,0.611,2.692,1.821,3.392l60.942,35.347
			c0.196,0.237,0.436,0.446,0.734,0.618l62.937,36.598c0.607,0.351,3.269,0.352,3.875,0.003c0.053-0.031,0.061-0.069,0.112-0.102
			l63.462-36.496c0.28-0.162,0.541-0.358,0.781-0.577l61.38-35.388c1.214-0.7,1.956-1.994,1.956-3.396V17.972v-0.187
			C-139,16.384-139.7,15.091-140.912,14.39z M-327-10.369l33.627,19.353L-274,20.679v64.137l-53-32.061V-10.369z M-265,88.72v-3.89
			V25.596l33.627,19.353L-212,56.644v64.137L-265,88.72z M-206.938,49.424L-242.87,28.71l-18.892-10.919l55.538-32.077
			l55.586,32.105L-206.938,49.424z M-268.633-50.252l54.516,31.487l-55.646,31.985L-305.28-7.255l-18.892-10.919L-268.633-50.252z
			 M-335-11.391v58.336l-31.632-18.236l-18.892-10.919L-335-11.391z M-389,25.596l34.127,19.353L-335,56.644v64.137l-54-32.061
			V25.596z M-327,124.685V62.189l53,30.82v63.738L-327,124.685z M-265,98.303l50.783,29.366L-265,156.76V98.303z M-147,88.715
			l-54,32.08V56.705l54-31.962V88.715z"/>
		<polygon fill="#ED1E79" points="-212,56.644 -231.373,44.949 -265,25.596 -265,84.83 -265,88.72 -212,120.781 		"/>
		<polygon fill="#D9E021" points="-201,120.795 -147,88.715 -147,24.742 -201,56.705 		"/>
	</g>
	<g>
		<path fill="#FFFFFF" d="M110.821,226.179c-1.145-1.209-2.53-2.5-4.155-3.163c-1.626-0.664-3.453-1.349-5.482-1.349H91v28h10.183
			c2.029,0,3.856-0.34,5.482-1.043c1.625-0.702,3.011-1.659,4.155-2.882c1.145-1.222,2.029-2.656,2.653-4.309
			c0.625-1.651,0.937-3.438,0.937-5.364c0-2.028-0.312-3.881-0.937-5.559C112.85,228.832,111.966,227.389,110.821,226.179z"/>
		<polygon fill="#FFFFFF" points="121,249.667 138,249.667 138,243.667 126,243.667 126,238.667 135,238.667 135,232.667 
			126,232.667 126,227.667 138,227.667 138,221.667 121,221.667 		"/>
		<path fill="#FFFFFF" d="M159.068,230.351c-1.235,2.797-2.465,5.41-3.688,8.193l-7.452-16.877h-5.932l12.292,28h2.263l12.174-28
			h-5.931C161.546,224.667,160.303,227.555,159.068,230.351z"/>
		<polygon fill="#FFFFFF" points="173,238.361 173,249.667 191,249.667 191,243.667 179,243.667 179,238.667 187,238.667 
			187,232.667 179.433,232.667 179,232.667 179,227.667 186.67,227.667 191,227.667 191,224.767 191,221.667 173,221.667 		"/>
		<polygon fill="#FFFFFF" points="203,221.667 197,221.667 197,249.667 214,249.667 214,243.667 203,243.667 		"/>
		<path fill="#FFFFFF" d="M238.825,226.433c-1.263-1.223-2.719-2.172-4.37-2.849c-1.652-0.676-3.35-1.015-5.093-1.015
			c-1.977,0-3.798,0.378-5.463,1.132c-1.665,0.755-3.108,1.763-4.331,3.024s-2.179,2.725-2.868,4.39s-1.033,3.395-1.033,5.189
			c0,2.081,0.39,3.961,1.17,5.639s1.814,3.108,3.103,4.292c1.287,1.184,2.751,2.101,4.39,2.751s3.316,0.976,5.033,0.976
			c1.977,0,3.805-0.377,5.482-1.132c1.678-0.754,3.122-1.769,4.331-3.044c1.21-1.273,2.152-2.731,2.829-4.37
			c0.676-1.639,1.015-3.342,1.015-5.111c0-2.003-0.384-3.844-1.151-5.521S240.086,227.656,238.825,226.433z"/>
		<path fill="#FFFFFF" d="M266.881,224.853c-0.768-0.767-1.658-1.726-2.673-2.169s-2.095-1.017-3.239-1.017H249v28h6v-11h5.969
			c1.145,0,2.23,0.081,3.259-0.362c1.027-0.441,1.925-0.889,2.692-1.644c0.767-0.754,1.371-1.576,1.814-2.617
			c0.441-1.04,0.663-2.108,0.663-3.279c0-1.17-0.229-2.244-0.683-3.258C268.259,226.492,267.647,225.621,266.881,224.853z"/>
		<polygon fill="#FFFFFF" points="275,236.638 275,249.667 292,249.667 292,243.667 280,243.667 280,238.667 289,238.667 
			289,232.667 280,232.667 280,227.667 290.892,227.667 292,227.667 292,227.137 292,221.667 275,221.667 		"/>
		<path fill="#FFFFFF" d="M317.586,235.427c0.885-1.365,1.327-2.907,1.327-4.624c0-1.17-0.229-2.263-0.683-3.277
			c-0.456-1.015-1.067-1.905-1.834-2.673c-0.131-0.131-0.271-0.251-0.41-0.373c-0.671-0.59-1.423-1.429-2.263-1.796
			c-1.015-0.442-2.095-1.017-3.239-1.017H299v3.699v24.301h5v-11h4.104l7.414,11h6.633l-8.038-11.226
			C315.544,237.79,316.701,236.792,317.586,235.427z"/>
		<path fill="#FFFFFF" d="M343.435,239.095c-0.273-0.793-0.735-1.535-1.386-2.225c-0.65-0.688-1.509-1.339-2.575-1.95
			s-2.38-1.216-3.94-1.814c-0.547-0.182-1.067-0.377-1.561-0.586c-0.495-0.208-0.931-0.435-1.308-0.683
			c-0.377-0.247-0.677-0.52-0.897-0.819c-0.222-0.299-0.332-0.631-0.332-0.995c0-0.696,0.242-1.243,0.698-1.659
			c0.072-0.066,0.135-0.136,0.219-0.195c0.541-0.379,1.281-0.581,2.198-0.625c0.12-0.006,0.231-0.019,0.357-0.019
			c0.599,0,1.184,0.104,1.756,0.313s1.08,0.429,1.522,0.663c0.52,0.286,1.027,0.599,1.521,0.937l3.355-4.215
			c-0.442-0.39-0.995-0.773-1.658-1.15s-1.372-0.709-2.126-0.995c-0.755-0.286-1.529-0.521-2.322-0.702
			c-0.794-0.182-1.541-0.273-2.243-0.273c-1.302,0-2.491,0.202-3.57,0.604c-0.803,0.3-1.518,0.687-2.148,1.158
			c-0.218,0.163-0.426,0.336-0.623,0.519c-0.658,0.614-1.179,1.33-1.579,2.135c-0.066,0.133-0.137,0.264-0.196,0.402
			c-0.417,0.975-0.624,2.022-0.624,3.141c0,1.093,0.188,2.056,0.565,2.888c0.377,0.833,0.91,1.574,1.6,2.224
			c0.689,0.65,1.502,1.217,2.438,1.697c0.937,0.482,1.951,0.931,3.044,1.347c0.937,0.364,1.717,0.709,2.341,1.034
			c0.625,0.325,1.112,0.631,1.464,0.917c0.351,0.286,0.598,0.553,0.741,0.8c0.143,0.247,0.215,0.475,0.215,0.683
			c0,0.546-0.117,1.002-0.352,1.365c-0.234,0.365-0.533,0.658-0.897,0.879s-0.768,0.384-1.21,0.487
			c-0.442,0.104-0.885,0.156-1.326,0.156c-0.521,0-1.067-0.104-1.639-0.313c-0.573-0.208-1.119-0.461-1.64-0.761
			c-0.521-0.299-0.981-0.611-1.385-0.937s-0.696-0.604-0.878-0.839l-4.058,3.746c0.207,0.234,0.585,0.439,1.131,0.96
			c0.547,0.521,1.171,1.271,1.873,1.271h-0.039c0.988,1,2.042,1.278,3.161,1.616c1.118,0.338,2.275,0.594,3.473,0.594
			c1.326,0,2.556-0.172,3.688-0.602c1.131-0.429,2.106-0.992,2.926-1.734c0.819-0.741,1.464-1.608,1.932-2.623
			c0.469-1.015,0.702-2.088,0.702-3.233C343.844,240.748,343.709,239.889,343.435,239.095z"/>
	</g>
	<g>
		<path fill="none" d="M235.196,266.394c-0.768-0.768-1.652-1.372-2.653-1.814c-1.002-0.442-2.063-0.664-3.181-0.664
			c-1.17,0-2.263,0.222-3.277,0.664s-1.899,1.047-2.653,1.814c-0.755,0.768-1.353,1.658-1.795,2.673s-0.663,2.094-0.663,3.238
			s0.221,2.225,0.663,3.238c0.442,1.015,1.04,1.899,1.795,2.653c0.754,0.755,1.645,1.347,2.673,1.775
			c1.027,0.43,2.113,0.645,3.258,0.645s2.218-0.221,3.22-0.664c1.001-0.441,1.879-1.04,2.634-1.795
			c0.754-0.754,1.352-1.632,1.795-2.634c0.441-1.001,0.663-2.074,0.663-3.219s-0.222-2.224-0.663-3.238
			C236.567,268.052,235.963,267.162,235.196,266.394z"/>
		<path fill="none" d="M106.763,266.238c-0.702-0.741-1.528-1.413-2.478-1.842c-0.95-0.43-1.984-0.729-3.103-0.729H97v16h4.183
			c1.118,0,2.152,0.091,3.103-0.325c0.949-0.416,1.775-0.845,2.478-1.587s1.248-1.538,1.639-2.539
			c0.39-1.001,0.585-2.037,0.585-3.182c0-1.145-0.195-2.198-0.585-3.2C108.011,267.832,107.466,266.979,106.763,266.238z"/>
		<path fill="none" d="M309.469,263.667H304v6h5.469c1.379,0,2.394-0.196,3.044-0.807c0.649-0.611,0.976-1.278,0.976-2.111
			c0-0.832-0.326-1.58-0.976-2.165C311.863,263.997,310.848,263.667,309.469,263.667z"/>
		<path fill="none" d="M259.954,263.667H255v6h4.954c1.379,0,2.394-0.196,3.044-0.807s0.976-1.278,0.976-2.111
			c0-0.832-0.325-1.58-0.976-2.165C262.347,263.997,261.333,263.667,259.954,263.667z"/>
		<path fill="#ED1E79" d="M110.821,262.179c-1.145-1.209-2.53-2.5-4.155-3.163c-1.626-0.664-3.453-1.349-5.482-1.349H91v28h10.183
			c2.029,0,3.856-0.34,5.482-1.043c1.625-0.702,3.011-1.658,4.155-2.882c1.145-1.222,2.029-2.656,2.653-4.309
			c0.625-1.651,0.937-3.438,0.937-5.364c0-2.028-0.312-3.881-0.937-5.559C112.85,264.832,111.966,263.389,110.821,262.179z
			 M108.402,275.29c-0.391,1.001-0.937,1.873-1.639,2.614s-1.528,1.021-2.478,1.437c-0.95,0.416-1.984,0.325-3.103,0.325H97v-16
			h4.183c1.118,0,2.152,0.3,3.103,0.729c0.949,0.429,1.775,1.058,2.478,1.799s1.248,1.635,1.639,2.636
			c0.39,1.002,0.585,2.085,0.585,3.229C108.987,273.206,108.792,274.289,108.402,275.29z"/>
		<polygon fill="#ED1E79" points="121,285.667 138,285.667 138,279.667 126,279.667 126,274.667 135,274.667 135,268.667 
			126,268.667 126,263.667 138,263.667 138,257.667 121,257.667 		"/>
		<path fill="#ED1E79" d="M159.068,266.351c-1.235,2.797-2.465,5.41-3.688,8.193l-7.452-16.877h-5.932l12.292,28h2.263l12.174-28
			h-5.931C161.546,260.667,160.303,263.555,159.068,266.351z"/>
		<path fill="#ED1E79" d="M173,274.361c2-1.744,4.438-3.695,6.433-5.695H179v-5h7.67c1.475-1,2.33-1.92,4.33-2.9v-3.1h-18V274.361z"
			/>
		<path fill="#FF931E" d="M191,263.667v-2.9c-2,0.98-2.855,1.9-4.33,2.9H191z"/>
		<path fill="#FF931E" d="M173,285.667h18v-6h-12v-5h8v-6h-7.567c-1.994,2-4.433,3.951-6.433,5.695V285.667z"/>
		<polygon fill="#FF931E" points="203,257.667 197,257.667 197,285.667 214,285.667 214,279.667 203,279.667 		"/>
		<path fill="#FF931E" d="M238.825,262.433c-1.263-1.223-2.719-2.172-4.37-2.849c-1.652-0.676-3.35-1.015-5.093-1.015
			c-1.977,0-3.798,0.378-5.463,1.132c-1.665,0.755-3.108,1.763-4.331,3.024s-2.179,2.725-2.868,4.39s-1.033,3.395-1.033,5.189
			c0,2.081,0.39,3.961,1.17,5.639s1.814,3.108,3.103,4.292c1.287,1.184,2.751,2.101,4.39,2.751s3.316,0.976,5.033,0.976
			c1.977,0,3.805-0.377,5.482-1.132c1.678-0.754,3.122-1.769,4.331-3.044c1.21-1.273,2.152-2.731,2.829-4.37
			c0.676-1.639,1.015-3.342,1.015-5.111c0-2.003-0.384-3.844-1.151-5.521S240.086,263.656,238.825,262.433z M237.01,275.524
			c-0.443,1.002-1.041,1.88-1.795,2.634c-0.755,0.755-1.633,1.354-2.634,1.795c-1.002,0.443-2.075,0.664-3.22,0.664
			s-2.23-0.215-3.258-0.645c-1.028-0.429-1.919-1.021-2.673-1.775c-0.755-0.754-1.353-1.639-1.795-2.653
			c-0.442-1.014-0.663-2.094-0.663-3.238s0.221-2.224,0.663-3.238s1.04-1.905,1.795-2.673c0.754-0.768,1.639-1.372,2.653-1.814
			s2.107-0.664,3.277-0.664c1.118,0,2.179,0.222,3.181,0.664c1.001,0.442,1.886,1.047,2.653,1.814
			c0.767,0.768,1.371,1.658,1.814,2.673c0.441,1.015,0.663,2.094,0.663,3.238S237.452,274.523,237.01,275.524z"/>
		<path fill="#FF931E" d="M266.881,260.853c-0.768-0.767-1.658-1.726-2.673-2.169s-2.095-1.017-3.239-1.017H249v28h6v-11h5.969
			c1.145,0,2.23,0.081,3.259-0.362c1.027-0.441,1.925-0.889,2.692-1.644c0.767-0.754,1.371-1.576,1.814-2.617
			c0.441-1.04,0.663-2.108,0.663-3.279c0-1.17-0.229-2.244-0.683-3.258C268.259,262.492,267.647,261.621,266.881,260.853z
			 M262.998,268.859c-0.65,0.611-1.665,0.807-3.044,0.807H255v-6h4.954c1.379,0,2.394,0.358,3.044,0.944
			c0.65,0.585,0.976,1.272,0.976,2.104C263.973,267.548,263.648,268.248,262.998,268.859z"/>
		<path fill="#FF931E" d="M275,272.638c1-1.375,3-2.655,5-3.826v-5.146h10.892H292v-0.529v-5.471h-17V272.638z"/>
		<path fill="#D9E021" d="M275,285.667h17v-6h-12v-5h9v-6h-9v0.146c-2,1.17-4,2.451-5,3.826V285.667z"/>
		<path fill="#FF931E" d="M315.986,260.48c-0.671-0.59-1.423-1.429-2.263-1.796c-1.015-0.442-2.095-1.017-3.239-1.017H299v3.699
			c4-0.739,7.687-1.131,11.576-1.131C312.326,260.235,314.276,260.326,315.986,260.48z"/>
		<path fill="#D9E021" d="M317.586,271.427c0.885-1.365,1.327-2.907,1.327-4.624c0-1.17-0.229-2.263-0.683-3.277
			c-0.456-1.015-1.067-1.905-1.834-2.673c-0.131-0.131-0.271-0.251-0.41-0.373c-1.71-0.154-3.66-0.245-5.411-0.245
			c-3.888,0-7.576,0.392-11.576,1.131v24.301h5v-11h4.104l7.414,11h6.633l-8.038-11.226
			C315.544,273.79,316.701,272.792,317.586,271.427z M312.513,268.859c-0.65,0.611-1.665,0.807-3.044,0.807H304v-6h5.469
			c1.379,0,2.394,0.358,3.044,0.944c0.649,0.585,0.976,1.272,0.976,2.104C313.489,267.548,313.163,268.248,312.513,268.859z"/>
		<path fill="#ED1E79" d="M334.909,263.526c0.599,0,1.184,0.104,1.756,0.313s1.08,0.429,1.522,0.663
			c0.52,0.286,1.027,0.599,1.521,0.937l3.355-4.215c-0.442-0.39-0.995-0.773-1.658-1.15s-1.372-0.709-2.126-0.995
			c-0.755-0.286-1.529-0.521-2.322-0.702c-0.794-0.182-1.541-0.273-2.243-0.273c-1.302,0-2.491,0.202-3.57,0.604
			c-0.803,0.3-1.518,0.687-2.148,1.158c1.885,1.18,3.737,2.406,5.555,3.68C334.671,263.539,334.783,263.526,334.909,263.526z"/>
		<path fill="#FF931E" d="M332.353,264.169c0.541-0.379,1.281-0.581,2.198-0.625c-1.818-1.273-3.67-2.5-5.555-3.68
			c-0.218,0.163-0.426,0.336-0.623,0.519c-0.658,0.614-1.179,1.33-1.579,2.135c1.819,0.529,3.6,1.145,5.34,1.845
			C332.207,264.299,332.27,264.228,332.353,264.169z"/>
		<path fill="#D9E021" d="M343.435,275.095c-0.273-0.793-0.735-1.535-1.386-2.225c-0.65-0.688-1.509-1.339-2.575-1.95
			s-2.38-1.216-3.94-1.814c-0.547-0.182-1.067-0.377-1.561-0.586c-0.495-0.208-0.931-0.435-1.308-0.683
			c-0.377-0.247-0.677-0.52-0.897-0.819c-0.222-0.299-0.332-0.631-0.332-0.995c0-0.696,0.242-1.243,0.698-1.659
			c-1.74-0.7-3.521-1.316-5.34-1.845c-0.066,0.133-0.137,0.264-0.196,0.402c-0.417,0.975-0.624,2.022-0.624,3.141
			c0,1.093,0.188,2.056,0.565,2.888c0.377,0.833,0.91,1.574,1.6,2.224c0.689,0.65,1.502,1.217,2.438,1.697
			c0.937,0.482,1.951,0.931,3.044,1.347c0.937,0.364,1.717,0.709,2.341,1.034c0.625,0.325,1.112,0.631,1.464,0.917
			c0.351,0.286,0.598,0.553,0.741,0.8c0.143,0.247,0.215,0.475,0.215,0.683c0,0.546-0.117,1.002-0.352,1.365
			c-0.234,0.365-0.533,0.658-0.897,0.879s-0.768,0.384-1.21,0.487c-0.442,0.104-0.885,0.156-1.326,0.156
			c-0.521,0-1.067-0.104-1.639-0.313c-0.573-0.208-1.119-0.461-1.64-0.761c-0.521-0.299-0.981-0.611-1.385-0.937
			s-0.696-0.604-0.878-0.839l-4.058,3.746c0.207,0.234,0.585,0.439,1.131,0.96c0.547,0.521,1.171,1.271,1.873,1.271h-0.039
			c0.988,1,2.042,1.278,3.161,1.616c1.118,0.338,2.275,0.594,3.473,0.594c1.326,0,2.556-0.172,3.688-0.601
			c1.131-0.429,2.106-0.992,2.926-1.734c0.819-0.741,1.464-1.608,1.932-2.623c0.469-1.015,0.702-2.088,0.702-3.233
			C343.844,276.748,343.709,275.889,343.435,275.095z"/>
	</g>
	<g>
		<g>
			<path fill="#FFFFFF" d="M119.791,207.745H92.159c-1.881,0-3.355-1.239-3.355-2.82v-48.598c0-0.92-1.258-1.02-1.799-1.02
				s-1.8,0.1-1.8,1.02v48.718c0,1.344-1.038,2.7-3.355,2.7H53.598c-2.318,0-3.355-1.296-3.355-2.58v-48.958
				c0-0.744-0.979-0.9-1.8-0.9c-0.821,0-1.799,0.156-1.799,0.9v49.199c0,1.165-0.974,2.34-3.149,2.34H15.244
				c-1.706,0-2.943-1.034-2.943-2.46v-70.078c0-1.402,1.443-2.46,3.356-2.46H42.67c1.748,0,2.706,1.778,3.632,3.497
				c0.265,0.492,0.68,1.262,0.961,1.618c0.223-0.069,0.567-0.241,1.146-0.646c4.289-2.808,10.377-4.47,16.325-4.47
				c6.982,0,12.562,1.557,16.583,4.628c1.083,0.882,1.544,0.892,1.563,0.892c0.239,0,0.976-0.225,1.592-0.673l0.158-0.101
				c4.257-2.347,9.681-4.747,17.633-4.747c11.515,0,20.884,6.271,20.884,13.979v58.198
				C123.147,206.283,122.097,207.745,119.791,207.745z M91.803,204.681c0.076,0.032,0.196,0.064,0.355,0.064h27.632
				c0.16,0,0.277-0.017,0.356-0.036v-57.982c0-5.952-8.19-10.979-17.884-10.979c-7.208,0-12.005,2.076-16.108,4.332
				c-1.028,0.724-2.303,1.188-3.275,1.188c-1.033,0-2.152-0.503-3.421-1.538c-3.449-2.633-8.415-3.982-14.724-3.982
				c-7.983,0-13.227,3.027-14.644,3.955c-1.214,0.849-2.12,1.205-3.09,1.205c-1.593,0-2.441-1.573-3.339-3.239
				c-0.33-0.612-0.864-1.604-1.194-1.92h-26.81c-0.141,0-0.26,0.016-0.356,0.037v68.96h28.194c0.054,0,0.104-0.002,0.149-0.004
				v-48.535c0-2.369,1.884-3.9,4.799-3.9c2.916,0,4.8,1.531,4.8,3.9v48.514c0.093,0.014,0.211,0.024,0.355,0.024h28.251
				c0.153,0,0.27-0.011,0.355-0.023v-48.395c0-2.404,1.929-4.02,4.8-4.02c2.87,0,4.799,1.616,4.799,4.02V204.681z"/>
		</g>
		<g>
			<path fill="#FFFFFF" d="M252.129,207.745c-4.78,0-9.31-0.81-12.755-2.28c-0.879-0.425-1.322-0.607-1.547-0.68
				c-0.323,0.23-0.878,0.789-1.23,1.143c-1.01,1.016-1.807,1.817-2.82,1.817h-25.981c-1.614,0-3.356-0.986-3.356-2.58v-89.757
				c0-1.225,1.038-2.46,3.356-2.46h26.806c1.851,0,3.355,1.211,3.355,2.7v19.951c0.072-0.042,0.146-0.085,0.22-0.128
				c3.148-1.833,7.24-2.724,12.509-2.724c5.866,0,25.008,1.77,25.008,24.539v25.079
				C275.693,203.342,262.879,207.745,252.129,207.745z M237.694,201.745c0.748,0,1.538,0.319,2.923,0.99
				c2.971,1.267,7.19,2.01,11.512,2.01c13.646,0,20.564-7.529,20.564-22.379v-25.079c0-19.44-15.391-21.539-22.008-21.539
				c-4.724,0-8.321,0.758-10.999,2.316c-1.194,0.695-1.793,1.043-2.61,1.043c-1.042,0-2.119-0.92-2.119-2.46v-20.639
				c-0.085-0.031-0.205-0.06-0.355-0.06h-26.806c-0.141,0-0.26,0.01-0.356,0.024v88.709c0.109,0.036,0.24,0.063,0.356,0.063h25.693
				c0.251-0.198,0.682-0.631,0.981-0.933C235.573,202.703,236.526,201.745,237.694,201.745z M240.375,189.385
				c-0.739,0-2.158-0.176-3.06-0.816c-1.944-0.973-2.358-2.468-2.358-3.564v-28.679c0-2.634,2.329-4.62,5.418-4.62
				c2.872,0,4.181,1.959,4.181,3.78v30.119C244.555,188.894,241.936,189.385,240.375,189.385z M240.375,154.707
				c-1.401,0-2.418,0.681-2.418,1.62v28.679c0,0.221,0,0.556,0.783,0.921l0.191,0.089l0.159,0.138
				c0.105,0.06,0.69,0.231,1.284,0.231c1.181,0,1.181-0.181,1.181-0.78v-30.119C241.555,155.273,241.555,154.707,240.375,154.707z"
				/>
		</g>
		<g>
			<path fill="none" d="M411.019,200.278c0.019-0.083,0.043-0.163,0.063-0.245C411.062,200.115,411.038,200.196,411.019,200.278z"/>
			<path fill="none" d="M411.84,197.478c0.122-0.342,0.251-0.681,0.386-1.017C412.091,196.797,411.962,197.136,411.84,197.478z"/>
			<path fill="none" d="M411.56,198.307c-0.021,0.064-0.034,0.132-0.054,0.197c0.06-0.195,0.12-0.389,0.185-0.582
				C411.648,198.05,411.6,198.177,411.56,198.307z"/>
			<path fill="none" d="M410.61,202.493c0.021-0.147,0.039-0.294,0.062-0.44C410.649,202.199,410.631,202.347,410.61,202.493z"/>
			<path fill="none" d="M396.92,196.387c1.65-6.04,4.44-11.54,8.23-16.19C401.3,184.847,398.45,190.347,396.92,196.387z"/>
			<path fill="none" d="M410.401,204.43c0.012-0.174,0.028-0.347,0.044-0.521C410.43,204.082,410.414,204.255,410.401,204.43z"/>
			<path fill="none" d="M415.926,190.066c0.103-0.132,0.212-0.259,0.318-0.389C416.138,189.807,416.03,189.934,415.926,190.066z"/>
			<path fill="none" d="M413.233,194.274c0.061-0.119,0.12-0.241,0.183-0.359C413.353,194.034,413.294,194.155,413.233,194.274z"/>
			<path fill="none" d="M414.453,192.151c0.099-0.155,0.2-0.31,0.303-0.463C414.653,191.841,414.552,191.995,414.453,192.151z"/>
			<path fill="#0071BC" d="M404.89,136.157c0.37-0.17,0.75-0.34,1.12-0.49h-5.36c-0.62,0-1.45,0.6-1.65,1.21l-1.19,2.85l-0.07,0.16
				c0.02-0.01,0.05-0.03,0.07-0.04C400.1,138.497,402.46,137.267,404.89,136.157z"/>
			<path fill="#FFFFFF" d="M373.69,136.157c0.18-0.17,0.37-0.33,0.56-0.49h-15.67c-0.62,0-1.03,0.72-0.83,1.21l5.7,9.93l0.04,0.07
				C366.61,143.047,370.02,139.457,373.69,136.157z"/>
			<path fill="#0071BC" d="M360,203.387l-2.32,3.68c-0.21,0.48,0.07,0.6,0.69,0.6h1.37c-0.01-0.38,0.06-0.76,0.06-1.14
				C359.8,205.477,360,204.427,360,203.387z"/>
			<path fill="#FFFFFF" d="M372.94,163.187l0.06,0.1c0.02-0.02,0.03-0.05,0.05-0.07C373.05,163.207,372.94,163.197,372.94,163.187z"
				/>
			<path fill="#D9E021" d="M415.926,190.066c-0.411,0.524-0.8,1.067-1.171,1.622c-0.102,0.153-0.203,0.308-0.303,0.463
				c-0.367,0.574-0.715,1.161-1.037,1.764c-0.063,0.118-0.122,0.24-0.183,0.359c-0.339,0.66-0.66,1.331-0.943,2.023
				c-0.022,0.054-0.042,0.11-0.064,0.164c-0.135,0.336-0.264,0.674-0.386,1.017c-0.052,0.147-0.101,0.296-0.15,0.444
				c-0.065,0.193-0.125,0.387-0.185,0.582c-0.156,0.503-0.298,1.013-0.423,1.53c-0.02,0.082-0.044,0.163-0.063,0.245
				c-0.136,0.584-0.25,1.176-0.347,1.775c-0.023,0.146-0.041,0.293-0.062,0.44c-0.067,0.468-0.122,0.94-0.165,1.416
				c-0.015,0.173-0.032,0.346-0.044,0.521c-0.043,0.614-0.071,1.232-0.071,1.857c0,0.54,0.02,1.38,0.05,1.38h19.55
				c0.18,0,0.37-0.02,0.54-0.04c0.5-0.09,0.91-0.31,0.92-0.65c0.02-0.06,0.01-0.13-0.02-0.21l-11.67-20.63
				c-0.747,0.635-1.456,1.311-2.129,2.021c-0.463,0.488-0.902,0.998-1.327,1.519C416.138,189.807,416.03,189.934,415.926,190.066z"
				/>
			<path fill="#0071BC" d="M392.87,143.017c0.03-0.02,0.07-0.05,0.1-0.07l-2.56-6.08c-0.21-0.6-0.9-1.2-1.72-1.2h-14.44
				c-0.19,0.16-0.38,0.32-0.56,0.49c-3.67,3.3-7.08,6.89-10.2,10.72l9.43,16.28l0.02,0.03
				C378.29,155.297,385.05,148.457,392.87,143.017z"/>
			<path fill="#662D91" d="M422.91,152.317l8.67-15.33c0.2-0.48-0.41-1.32-1.24-1.32h-24.33c-0.37,0.15-0.75,0.32-1.12,0.49
				c-2.43,1.11-4.79,2.34-7.08,3.69c-0.02,0.01-0.05,0.03-0.07,0.04l-2.66,6.16l-0.41,0.51c-0.21,0-0.35-0.23-0.35-0.35l-1.32-3.19
				v-0.01l-0.03-0.06c-0.03,0.02-0.07,0.05-0.1,0.07c-7.82,5.44-14.58,12.28-19.93,20.17c0,0.01,0.11,0.02,0.11,0.03
				c-0.02,0.02-0.03,0.05-0.05,0.07l4.34,7.51c0.21,0.6,0.34,0.85-0.07,1.45L360,203.377v0.01c0,1.04-0.2,2.09-0.2,3.14
				c0,0.38-0.07,0.76-0.06,1.14h21.28c-0.02-0.38-0.02-0.76-0.02-1.14C381,180.477,398.8,158.567,422.91,152.317z"/>
			<path fill="#ED1E79" d="M422.91,152.317c-24.11,6.25-41.91,28.16-41.91,54.21c0,0.38,0,0.76,0.02,1.14h8.49
				c0.83,0,1.44-0.12,1.65-0.72l3.09-9.36l0.42-0.42c0.2,0,0.41,0.27,0.41,0.51l0.96,2.6c0.24-1.32,0.54-2.62,0.88-3.89
				c1.53-6.04,4.38-11.54,8.23-16.19c0.33-0.41,0.67-0.81,1.04-1.2c0.29-0.36,0.62-0.71,0.97-1.06c1.58-1.69,3.33-3.25,5.22-4.64
				c0.01,0,0.03-0.01,0.04-0.02l0.01,0.02c0.01,0,0.01-0.01,0.02-0.02l-0.02-0.04l-0.24-0.4c-0.2-0.24-0.41-0.71-0.41-0.95
				c0-0.23,0.21-0.59,0.41-0.95L422.91,152.317z"/>
			<path fill="#FF931E" d="M412.38,173.297c-1.89,1.39-3.64,2.95-5.22,4.64c-0.35,0.35-0.68,0.7-0.97,1.06
				c-0.37,0.39-0.71,0.79-1.04,1.2c-3.79,4.65-6.58,10.15-8.23,16.19c-0.34,1.27-0.64,2.57-0.88,3.89c-0.02,0.07-0.03,0.13-0.04,0.2
				v0.02l2.53,6.44c0.2,0.6,0.88,0.73,1.7,0.73h10.15c-0.03,0-0.05-0.84-0.05-1.38c0-0.625,0.029-1.243,0.071-1.857
				c0.012-0.174,0.028-0.347,0.044-0.521c0.042-0.476,0.097-0.948,0.165-1.416c0.021-0.147,0.039-0.294,0.062-0.44
				c0.097-0.599,0.211-1.191,0.347-1.775c0.019-0.083,0.043-0.163,0.063-0.245c0.126-0.516,0.267-1.026,0.423-1.53
				c0.02-0.065,0.034-0.132,0.054-0.197c0.04-0.129,0.088-0.257,0.13-0.385c0.049-0.148,0.098-0.297,0.15-0.444
				c0.122-0.342,0.25-0.681,0.386-1.017c0.022-0.054,0.042-0.11,0.064-0.164c0.283-0.692,0.604-1.362,0.943-2.023
				c0.061-0.12,0.12-0.24,0.183-0.359c0.322-0.604,0.67-1.19,1.037-1.764c0.099-0.156,0.2-0.31,0.303-0.463
				c0.371-0.555,0.759-1.097,1.171-1.622c0.103-0.132,0.212-0.259,0.318-0.389c0.425-0.521,0.864-1.031,1.327-1.519
				c0.028-0.029,0.051-0.062,0.079-0.091c0.33-0.35,0.66-0.68,1-0.99c0.34-0.33,0.68-0.64,1.04-0.94l-7.26-12.84l-0.01-0.02
				C412.41,173.287,412.39,173.297,412.38,173.297z"/>
		</g>
		<g>
			<path fill="none" d="M336.353,180.642c0.011-0.059,0.021-0.118,0.033-0.176c0.037-0.186,0.067-0.375,0.105-0.56
				c0.021-0.107,0.045-0.215,0.067-0.322c0.003-0.015,0.006-0.03,0.009-0.045c-0.106,0.519-0.203,1.041-0.302,1.563
				C336.293,180.948,336.323,180.795,336.353,180.642z"/>
			<path fill="none" d="M338.691,170.974c0.085-0.291,0.167-0.583,0.254-0.873c-0.117,0.391-0.234,0.783-0.347,1.176
				C338.628,171.175,338.659,171.075,338.691,170.974z"/>
			<path fill="none" d="M342.723,159.528c0.044-0.104,0.09-0.208,0.134-0.312c0.045-0.108,0.086-0.218,0.131-0.325
				C342.898,159.102,342.811,159.315,342.723,159.528z"/>
			<path fill="none" d="M343.99,156.607c0.108-0.239,0.222-0.475,0.331-0.713c0.034-0.074,0.065-0.149,0.099-0.222
				C344.276,155.983,344.131,156.294,343.99,156.607z"/>
			<path fill="none" d="M343.233,158.339c0.041-0.096,0.082-0.192,0.123-0.287c-0.107,0.245-0.218,0.488-0.322,0.734
				C343.097,158.636,343.168,158.489,343.233,158.339z"/>
			<path fill="none" d="M337.843,174.024c0.063-0.242,0.129-0.481,0.193-0.722C337.972,173.543,337.906,173.783,337.843,174.024z"/>
			<path fill="none" d="M335.709,184.291c0.035-0.219,0.07-0.438,0.106-0.657c-0.009,0.054-0.019,0.107-0.028,0.161
				C335.759,183.96,335.735,184.126,335.709,184.291z"/>
			<path fill="none" d="M336.353,180.642c0.016-0.082,0.031-0.165,0.048-0.247c-0.005,0.024-0.01,0.047-0.015,0.071
				C336.374,180.524,336.364,180.583,336.353,180.642z"/>
			<path fill="none" d="M335.023,189.292c-0.034,0.302-0.058,0.607-0.089,0.91C334.965,189.899,334.989,189.594,335.023,189.292z"/>
			<path fill="none" d="M337.089,177.115c0.029-0.127,0.056-0.254,0.085-0.382C337.145,176.861,337.118,176.988,337.089,177.115z"/>
			<path fill="none" d="M335.91,183.015c0.01-0.06,0.023-0.12,0.034-0.181c0.005-0.026,0.008-0.053,0.013-0.079
				c-0.026,0.151-0.053,0.301-0.078,0.452C335.889,183.144,335.899,183.079,335.91,183.015z"/>
			<path fill="none" d="M335.435,186.056c-0.005,0.033-0.011,0.066-0.015,0.099c0.006-0.048,0.015-0.097,0.021-0.146
				c0,0,0,0,0-0.001c-0.068,0.476-0.124,0.956-0.185,1.435C335.316,186.981,335.37,186.517,335.435,186.056z"/>
			<path fill="none" d="M353,176.325c-0.15,0.47-0.29,0.94-0.42,1.41c-0.01,0.01-0.135,0.02-0.135,0.03
				c-0.54,1.88-0.445,3.78-1.445,5.7c0,0.001,0,0.001,0,0.001c1-2.895,1.379-5.744,2.335-8.541
				C353.175,175.395,353.14,175.855,353,176.325z"/>
			<path fill="none" d="M350.64,187.315c-0.004,0.026,0.003,0.053,0.002,0.079c0.042-0.32,0.076-0.642,0.122-0.961
				C350.717,186.727,350.678,187.021,350.64,187.315z"/>
			<path fill="none" d="M347.666,149.235c-0.303,0.555-0.608,1.108-0.901,1.668C347.058,150.343,347.363,149.79,347.666,149.235z"/>
			<path fill="none" d="M349.85,145.395c-0.54,0.901-1.066,1.811-1.58,2.728C348.785,147.206,349.31,146.296,349.85,145.395z"/>
			<path fill="none" d="M341.611,162.309c0.007-0.019,0.015-0.038,0.022-0.057c0.16-0.416,0.324-0.831,0.489-1.244
				c-0.198,0.494-0.394,0.988-0.585,1.486C341.562,162.432,341.587,162.371,341.611,162.309z"/>
			<path fill="none" d="M339.917,167.032c-0.168,0.505-0.332,1.011-0.493,1.519C339.584,168.044,339.749,167.537,339.917,167.032z"
				/>
			<path fill="none" d="M318,154.895c-2.27,0-3,1.08-3,2.4v28.56c0,0.88,0.22,1.58,1.02,1.98c0.08,0.05,0.16,0.09,0.25,0.12
				c0.01,0,0.02,0.01,0.03,0.01c0.47,0.19,0.89,0.29,1.62,0.29c2.26,0,3.08-0.96,3.08-2.4v-21.57v-6.99
				C321,155.975,320.06,154.895,318,154.895z"/>
			<path fill="none" d="M340.977,164c-0.183,0.499-0.363,1-0.539,1.503C340.613,165,340.794,164.499,340.977,164z"/>
			<path fill="none" d="M345.84,152.726c-0.168,0.336-0.338,0.67-0.503,1.007c0.029-0.059,0.059-0.117,0.088-0.176
				c0.012-0.024,0.023-0.048,0.035-0.072C345.587,153.232,345.714,152.979,345.84,152.726z"/>
			<path fill="none" stroke="#FFFFFF" stroke-width="4" stroke-linecap="round" stroke-linejoin="round" d="M336.353,180.642
				c0.011-0.059,0.021-0.118,0.033-0.176"/>
			<path fill="#FFFFFF" d="M335.878,183.208c-0.033,0.195-0.06,0.392-0.092,0.588c0.009-0.054,0.019-0.107,0.028-0.161
				c0.044-0.266,0.083-0.534,0.129-0.8c-0.011,0.06-0.023,0.12-0.034,0.181C335.899,183.079,335.889,183.144,335.878,183.208z"/>
			<path fill="#FFFFFF" d="M335.435,186.056c0.002-0.016,0.004-0.031,0.006-0.047c-0.007,0.048-0.015,0.097-0.021,0.146
				C335.425,186.122,335.43,186.089,335.435,186.056z"/>
			<path fill="#FFFFFF" d="M283,154.295v32.63c1.49-16.51,5.47-32.3,11.56-47C287.16,143.205,283,148.225,283,154.295z"/>
			<path fill="#FFFFFF" d="M337.843,174.024c-0.063,0.244-0.12,0.491-0.182,0.736c0.13-0.518,0.262-1.035,0.4-1.549
				c-0.008,0.031-0.017,0.061-0.025,0.091C337.972,173.543,337.906,173.782,337.843,174.024z"/>
			<path fill="#FFFFFF" d="M345.46,153.485c-0.012,0.024-0.023,0.048-0.035,0.072c0.222-0.454,0.452-0.904,0.68-1.354
				c-0.088,0.174-0.178,0.348-0.265,0.523C345.714,152.979,345.587,153.232,345.46,153.485z"/>
			<path fill="#FFFFFF" d="M344.321,155.895c0.119-0.259,0.239-0.517,0.36-0.774c-0.087,0.184-0.175,0.367-0.261,0.552
				C344.386,155.746,344.355,155.821,344.321,155.895z"/>
			<path fill="#FFFFFF" d="M338.497,171.64c0.063-0.222,0.129-0.444,0.194-0.666c-0.031,0.101-0.063,0.201-0.093,0.303
				C338.563,171.397,338.531,171.519,338.497,171.64z"/>
			<path fill="#FFFFFF" d="M342.988,158.891c-0.045,0.107-0.086,0.218-0.131,0.325c0.123-0.293,0.25-0.585,0.376-0.877
				c-0.065,0.15-0.135,0.297-0.199,0.447C343.019,158.821,343.002,158.855,342.988,158.891z"/>
			<path fill="#FFFFFF" d="M337.089,177.115c-0.061,0.266-0.114,0.535-0.173,0.801c0.115-0.521,0.229-1.041,0.351-1.559
				c-0.03,0.126-0.064,0.25-0.093,0.376C337.145,176.861,337.118,176.988,337.089,177.115z"/>
			<path fill="#FFFFFF" d="M341.633,162.253c-0.007,0.019-0.015,0.038-0.022,0.057C341.618,162.29,341.626,162.272,341.633,162.253z
				"/>
			<path fill="#FFFFFF" d="M336.385,180.466c0.005-0.024,0.01-0.047,0.015-0.071c0.053-0.27,0.102-0.542,0.157-0.811
				c-0.022,0.107-0.046,0.215-0.067,0.322C336.452,180.091,336.422,180.279,336.385,180.466z"/>
			<path fill="#D9E021" d="M351.25,183.467c-0.19,0.969-0.35,1.939-0.48,2.918c-0.003,0.016-0.004,0.032-0.007,0.048
				c-0.046,0.319-0.08,0.641-0.122,0.961c-0.007,0.186,0.036,0.378,0.018,0.571c-0.411,3.389-0.647,6.835-0.656,10.33
				c2.416-2.498,3.812-5.412,3.976-8.65c0.01-0.22,0.02-0.44,0.02-0.67v-15.55c-0.19,0.5-0.37,1-0.54,1.5
				C352.504,177.722,351.787,180.571,351.25,183.467z"/>
			<path fill="#0071BC" d="M315,135.755v-0.01c-8.09,0.02-14.87,1.74-20.22,4.07c-0.07,0.03-0.15,0.07-0.22,0.11
				c-6.09,14.7-10.07,30.49-11.56,47v2.05c0,0.43-0.14,0.85-0.11,1.27c0.68,6.6,6.6,11.89,16.11,14.84
				c0.01-1.15,0.06-2.32,0.06-3.48C299.06,177.895,305,155.505,315,135.755z"/>
			<path fill="#662D91" d="M315.42,201.705c0-4.65,0.58-9.22,0.58-13.74v-0.01c0.01-0.04,0.01-0.08,0.02-0.12
				c-0.8-0.4-1.02-1.1-1.02-1.98v-28.56c0-1.32,0.73-2.4,3-2.4c2.06,0,3,1.08,3,2.4v6.99c0.15-0.35,0.33-0.7,0.44-1.05
				c2.88-9.2,6.77-17.94,11.54-26.12c0-0.01,0.01-0.01,0.01-0.02c-4.38-0.92-9.39-1.439-14.8-1.439c-1.01,0-2.03,0.011-3.01,0.011
				H315v0.088c-10,19.75-15.94,42.14-15.94,65.85c0,1.16-0.05,2.33-0.06,3.48c0.12,0.04,0.25,0.08,0.38,0.12
				c0.03,0,0.05,0.05,0.08,0.06c4.65,1.42,10.1,2.47,16.19,2.48c-0.01-0.03-0.01-0.06-0.01-0.09
				C315.54,205.685,315.42,203.705,315.42,201.705z"/>
			<path fill="#ED1E79" d="M334.48,195.965c0.098-1.936,0.257-3.855,0.454-5.763c0.031-0.303,0.055-0.608,0.089-0.91
				c0.069-0.619,0.154-1.233,0.233-1.849c0.062-0.478,0.117-0.958,0.185-1.435c0.082-0.575,0.177-1.146,0.268-1.718
				c0.026-0.165,0.05-0.331,0.077-0.496c0.032-0.196,0.059-0.393,0.092-0.588c0.026-0.151,0.052-0.301,0.078-0.452
				c0.096-0.554,0.203-1.104,0.308-1.655c0.099-0.522,0.195-1.044,0.302-1.563c0.111-0.543,0.231-1.082,0.351-1.622
				c0.059-0.267,0.112-0.535,0.173-0.801c0.029-0.127,0.056-0.255,0.085-0.382c0.029-0.126,0.063-0.25,0.093-0.376
				c0.126-0.534,0.26-1.066,0.394-1.597c0.062-0.245,0.118-0.492,0.182-0.736c0.063-0.241,0.129-0.481,0.193-0.722
				c0.008-0.031,0.017-0.061,0.025-0.091c0.141-0.526,0.288-1.049,0.436-1.571c0.034-0.121,0.066-0.242,0.101-0.363
				c0.113-0.393,0.23-0.784,0.347-1.176c0.156-0.518,0.316-1.035,0.479-1.55c0.161-0.508,0.325-1.014,0.493-1.519
				c0.17-0.512,0.343-1.022,0.521-1.53c0.176-0.503,0.356-1.003,0.539-1.503c0.184-0.503,0.37-1.006,0.561-1.506
				c0.19-0.498,0.387-0.992,0.585-1.486c0.198-0.495,0.396-0.99,0.6-1.481c0.089-0.212,0.175-0.425,0.265-0.637
				c0.015-0.035,0.031-0.069,0.046-0.104c0.105-0.246,0.216-0.489,0.322-0.734c0.21-0.483,0.418-0.966,0.634-1.445
				c0.141-0.313,0.286-0.624,0.43-0.935c0.086-0.185,0.174-0.368,0.261-0.552c0.218-0.463,0.432-0.928,0.656-1.387
				c0.164-0.338,0.335-0.672,0.503-1.007c0.087-0.175,0.177-0.348,0.265-0.523c0.22-0.433,0.435-0.869,0.66-1.299
				c0.293-0.56,0.598-1.114,0.901-1.668c0.202-0.37,0.398-0.744,0.604-1.112c0.514-0.917,1.04-1.827,1.58-2.728
				c0.03-0.04,0.05-0.06,0.07-0.09c-3.52-3.81-9.4-6.63-16.84-8.19c-0.03-0.01-0.06-0.01-0.09-0.02c0,0.01-0.01,0.01-0.01,0.02
				c-4.77,8.18-8.66,16.92-11.54,26.12c-0.11,0.35-0.29,0.7-0.44,1.05v21.57c0,1.44-0.82,2.4-3.08,2.4c-0.73,0-1.15-0.1-1.62-0.29
				c-0.01,0-0.02-0.01-0.03-0.01c-0.09-0.03-0.17-0.07-0.25-0.12c-0.01,0.04-0.01,0.08-0.02,0.12v0.01c0,4.52-0.58,9.09-0.58,13.74
				c0,2,0.12,3.941,0.22,5.911c0,0.03,0,0.051,0.01,0.051h2.51c6.05,0,11.52-0.601,16.26-1.751c-0.01-0.14-0.01-0.25-0.01-0.38
				c0-0.07-0.01-0.14-0.01-0.21c-0.05-1.01-0.07-2.475-0.07-3.725C334.33,199.71,334.38,197.835,334.48,195.965z"/>
			<path fill="#FF931E" d="M350.05,145.435c-0.04-0.04-0.07-0.09-0.11-0.13l-0.01-0.01l-0.01,0.01c-0.02,0.03-0.04,0.05-0.07,0.09
				c-0.54,0.901-1.065,1.811-1.58,2.728c-0.206,0.368-0.402,0.742-0.604,1.112c-0.303,0.555-0.608,1.108-0.901,1.668
				c-0.225,0.43-0.44,0.866-0.66,1.299c-0.228,0.451-0.458,0.9-0.68,1.354c-0.029,0.059-0.059,0.117-0.088,0.176
				c-0.224,0.46-0.438,0.924-0.656,1.387c-0.121,0.258-0.241,0.516-0.36,0.774c-0.11,0.238-0.223,0.474-0.331,0.713
				c-0.216,0.479-0.424,0.962-0.634,1.445c-0.041,0.095-0.082,0.191-0.123,0.287c-0.126,0.292-0.253,0.584-0.376,0.877
				c-0.044,0.104-0.09,0.207-0.134,0.312c-0.205,0.491-0.403,0.986-0.6,1.481c-0.165,0.414-0.329,0.828-0.489,1.244
				c-0.007,0.019-0.015,0.038-0.022,0.057c-0.024,0.062-0.049,0.123-0.073,0.185c-0.191,0.5-0.377,1.002-0.561,1.506
				c-0.183,0.499-0.363,1-0.539,1.503c-0.178,0.508-0.351,1.018-0.521,1.53c-0.168,0.505-0.332,1.011-0.493,1.519
				c-0.163,0.515-0.323,1.031-0.479,1.55c-0.087,0.29-0.169,0.582-0.254,0.873c-0.065,0.222-0.131,0.443-0.194,0.666
				c-0.148,0.523-0.295,1.046-0.436,1.571c-0.138,0.515-0.269,1.032-0.4,1.549c-0.134,0.531-0.268,1.063-0.394,1.597
				c-0.122,0.518-0.236,1.039-0.351,1.559c-0.119,0.54-0.239,1.079-0.351,1.622c-0.003,0.015-0.006,0.03-0.009,0.045
				c-0.055,0.269-0.104,0.541-0.157,0.811c-0.016,0.082-0.032,0.165-0.048,0.247c-0.03,0.153-0.06,0.306-0.089,0.459
				c-0.104,0.551-0.212,1.101-0.308,1.655c-0.005,0.026-0.008,0.053-0.013,0.079c-0.046,0.266-0.085,0.534-0.129,0.8
				c-0.036,0.219-0.071,0.438-0.106,0.657c-0.091,0.572-0.186,1.143-0.268,1.718c0,0,0,0,0,0c-0.002,0.016-0.004,0.031-0.006,0.047
				c-0.065,0.461-0.12,0.925-0.179,1.388c-0.079,0.616-0.164,1.23-0.233,1.849c-0.034,0.302-0.057,0.607-0.089,0.91
				c-0.197,1.908-0.356,3.827-0.454,5.763c-0.1,1.87-0.15,3.75-0.15,5.64c0,1.25,0.02,2.681,0.07,3.691
				c0.01,0.15,0.01,0.371,0.02,0.371h0.01c6.51-1,11.57-3.832,15.57-7.122v-0.01v-0.01v-0.01c0-0.074,0.003-0.147,0.004-0.22
				c0.01-3.494,0.245-6.941,0.656-10.33c0.018-0.193-0.026-0.385-0.018-0.571c0.001-0.026-0.005-0.053-0.002-0.079
				c0.038-0.294,0.077-0.588,0.123-0.882c0.003-0.016-0.121-0.032-0.118-0.048c0.13-0.979,0.355-1.949,0.355-2.918
				c0,0,0-0.001,0-0.002c1-1.92,0.905-3.82,1.445-5.7c0-0.01,0.063-0.02,0.073-0.03c0.13-0.47,0.301-0.94,0.451-1.41
				c0.14-0.47,0.316-0.93,0.476-1.4c0.17-0.5,0.366-1,0.556-1.5v-18.53C354,151.315,352.48,148.125,350.05,145.435z"/>
		</g>
		<g>
			<path fill="#662D91" d="M175.59,134.667h-8.27c-0.82,0-1.32,0.23-1.32,0.83v7.71C168.95,140.107,172.16,137.237,175.59,134.667z"
				/>
			<path fill="#0071BC" d="M131.65,134.667c-1.03,0-1.65,0.35-1.65,1.07v38.39c3.6-14.82,10.69-28.29,20.35-39.46H131.65z"/>
			<path fill="#D9E021" d="M180.67,196.597c0,3.45,0.42,7.07,1.22,10.07h12.45c1.03,0,1.66-0.5,1.66-0.98v-41.28
				C187,171.987,180.67,183.627,180.67,196.597z"/>
			<path fill="#662D91" d="M159,151.687v-16.19c0-0.6-0.34-0.83-1.37-0.83h-7.28c-9.66,11.17-16.75,24.64-20.35,39.46v19.92
				c0,7.08,7.77,11.09,15.27,12.18c-0.4-3.18-0.6-6.41-0.6-9.7C144.67,179.807,149.97,164.337,159,151.687z"/>
			<path fill="#ED1E79" d="M194.13,134.667h-18.54c-3.43,2.57-6.64,5.44-9.59,8.54v38.12c0,1.8-1.85,2.4-3.5,2.4
				c-1.44,0-3.5-0.6-3.5-2.4v-29.64c-9.03,12.65-14.33,28.12-14.33,44.84c0,3.29,0.2,6.52,0.6,9.7c1.4,0.2,2.78,0.3,4.11,0.3
				c7.43,0,10.93-1.03,14.64-3.07c1.24-0.72,1.86-0.79,2.27-0.79h0.05c-0.02-0.11-0.03-0.23-0.04-0.34c-0.2-1.9-0.3-3.84-0.3-5.8
				c0-21.53,12.16-40.23,29.99-49.6c0,0,0.01,0,0.01-0.01v-11.54C196,134.897,195.16,134.667,194.13,134.667z"/>
			<path fill="#FF931E" d="M166,196.527c0,1.96,0.1,3.9,0.3,5.8c0.01,0.11,0.02,0.23,0.04,0.34c1.23,0.08,2.44,4,3.66,4h11.89
				c-0.8-3-1.22-6.62-1.22-10.07c0-12.97,6.33-24.61,15.33-32.19v-17.49c0,0.01-0.01,0.01-0.01,0.01
				C178.16,156.297,166,174.997,166,196.527z"/>
		</g>
	</g>
	<g>
		<path fill="none" d="M40.452,43.75c-0.547,0-1.089,0.077-1.577,0.237c0.507-0.157,1.061-0.234,1.601-0.236
			C40.468,43.752,40.46,43.75,40.452,43.75z"/>
		<path fill="none" d="M45.632,98.667h28.382c1.243,0,1.987-0.56,1.987-1.313V46.387c0-1.825,1.73-2.582,3.345-2.627
			c-0.051-0.001-0.04-0.009-0.092-0.009c-1.657,0-3.253,0.753-3.253,2.636v50.967c0,0.753-0.743,1.313-1.987,1.313H45.632
			c-0.65,0-1.207-0.184-1.538-0.482C44.32,98.512,44.957,98.667,45.632,98.667z"/>
		<path fill="none" d="M35.48,98.667c0.412,0,0.713-0.053,0.955-0.168C36.178,98.587,35.857,98.667,35.48,98.667H7.098
			c-0.226,0-0.434-0.059-0.62-0.113c0.161,0.083,0.353,0.113,0.62,0.113H35.48z"/>
		<path fill="none" d="M113.735,34.312c0.005,0.021,0.01,0.042,0.015,0.063C113.744,34.354,113.74,34.333,113.735,34.312z"/>
		<path fill="#1A1A1A" d="M106.714,26.185c0.605,0.956,6.771,7.068,7.021,8.127c0.005,0.021,0.009,0.042,0.015,0.063
			c0.061,0.268,0.122,0.537,0.158,0.811c0.057,0.382,0.092,0.767,0.092,1.158v60.884c0,0.753-0.624,1.439-1.867,1.439H84.372
			c-0.845,0-1.543-0.449-1.775-1.011l-0.013,0.785c0,0.753,5.93,9.227,6.966,9.227l32.761,1c1.243,0,1.69-0.978,1.69-1.732V42.051
			C124,38.131,110.745,28.565,106.714,26.185z"/>
		<path fill="#1A1A1A" d="M39.002,28.687c0.245,0,0.497-0.056,0.768-0.15c-1.735-2.399-3.48-4.686-4.338-4.853
			C36.719,24.917,37.788,28.687,39.002,28.687z"/>
		<path fill="#1A1A1A" d="M83,46.387c0-1.825-1.804-2.582-3.409-2.627C77.976,43.805,76,44.562,76,46.387v50.967
			c0,0.753-0.743,1.313-1.987,1.313H45.632c-0.674,0-1.312-0.184-1.538-0.511c-0.039-0.035-0.063-0.08-0.096-0.12l-0.011,0.756
			c0,0.753,5.787,8.875,6.823,8.875h28.382c1.243,0,1.809-0.853,1.809-1.606V51.094c0-0.948,1-1.602,2-2.024v-0.228V46.387z"/>
		<path fill="#1A1A1A" d="M44,46.261c0-1.874-1.758-2.503-3.407-2.51c-0.54,0.002-1.221,0.079-1.728,0.236
			C37.876,44.311,37,45,37,46.261V97.73c0,0.32-0.184,0.587-0.634,0.74c-0.242,0.114-0.474,0.197-0.886,0.197H7.098
			c-0.268,0-0.46-0.059-0.62-0.141C6.291,98.472,6.131,98.392,6,98.291v0.318c0,0.628,5.447,9.058,6.276,9.058h28.382
			c1.036,0,1.342-0.727,1.342-1.23V50.968c0-1.047,1-1.698,2-2.076v-0.094V46.261z"/>
		<g>
			<path fill="#FFFFFF" d="M94.523,28.289c6.883,0,11.894,2.882,13.66,5.573l0.051,0.09c0.295,0.466,0.508,0.973,0.64,1.534
				c0.027,0.119,0.06,0.237,0.078,0.356c0.011,0.086,0.048,0.348,0.048,0.502v57.322H88V49.07v-0.228v-2.455
				c0-4.253-3.566-7.443-8.157-7.622c-0.134-0.009-0.331-0.015-0.467-0.015c-4.818,0-8.376,3.212-8.376,7.636v47.28H49V48.892
				v-0.094v-2.537c0-4.401-3.515-7.488-8.399-7.51L40.51,38.75c-1.095,0-2.247,0.163-3.23,0.485C34.084,40.282,32,42.974,32,46.261
				v47.405H11v-65h21.461c0.025,0,0.05-0.093,0.073-0.048c1.02,1.966,2.728,5.163,6.468,5.163c0.759,0,1.51-0.174,2.292-0.434
				c0.143-0.043,0.334-0.129,0.553-0.219c0.738-0.305,1.472-0.739,2.304-1.338c2.512-1.694,7.14-3.495,12.668-3.495
				c5.487,0,9.719,1.138,12.582,3.389c1.912,1.603,3.761,2.381,5.649,2.381c1.673,0,3.592-0.668,5.202-1.799
				C83.673,30.317,87.894,28.289,94.523,28.289 M94.523,23.289c-7.872,0-13.052,2.511-16.988,4.77
				c-0.828,0.628-1.864,1.004-2.485,1.004c-0.622,0-1.45-0.376-2.486-1.255c-3.314-2.636-8.287-4.519-15.745-4.519
				c-6.629,0-12.223,2.134-15.537,4.394c-0.543,0.395-0.969,0.646-1.344,0.801c-0.059,0.024-0.11,0.034-0.167,0.053
				c-0.271,0.095-0.523,0.15-0.768,0.15c-1.214,0-2.283-3.58-3.57-4.814c-0.251-0.241-0.51-0.206-0.78-0.206h-0.484H7.512
				C6.476,23.667,6,23.791,6,24.292v73.312c0,0.286-0.043,0.516,0.176,0.686c0.131,0.102,0.203,0.21,0.39,0.264
				c0.187,0.053,0.307,0.113,0.533,0.113H35.48c0.377,0,0.629-0.08,0.886-0.168C36.816,98.346,37,98.049,37,97.73V46.261
				c0-1.261,0.818-1.95,1.806-2.274c0.488-0.16,1.064-0.237,1.611-0.237c0.008,0,0.15,0.001,0.158,0.001
				C42.225,43.758,44,44.387,44,46.261v2.537v0.094v48.587c0,0.144-0.078,0.269-0.022,0.385c0.031,0.065,0.032,0.115,0.078,0.172
				c0.033,0.04,0.027,0.113,0.066,0.149c0.331,0.298,0.859,0.482,1.509,0.482h28.382c1.243,0,1.987-0.56,1.987-1.313V46.387
				c0-1.883,1.596-2.636,3.253-2.636c0.051,0,0.317,0.007,0.368,0.009C81.227,43.805,83,44.562,83,46.387v2.455v0.228v48.158
				c0,0.139-0.21,0.3-0.157,0.427c0.232,0.563,0.684,1.011,1.529,1.011h27.761c1.243,0,1.867-0.685,1.867-1.439V36.344
				c0-0.391-0.04-0.776-0.091-1.158c-0.036-0.274-0.098-0.542-0.159-0.811c-0.005-0.021-0.01-0.042-0.015-0.063
				c-0.249-1.059-0.671-2.078-1.275-3.034c-0.016-0.026-0.028-0.054-0.044-0.079C109.403,26.522,102.428,23.289,94.523,23.289
				L94.523,23.289z"/>
		</g>
	</g>
	<path fill="#FFFFFF" d="M507.233-50.692c0-0.753,0.621-1.255,1.657-1.255h26.103c1.036,0,1.658,0.376,1.658,1.004v47.954
		c0,1.883,1.864,2.511,3.314,2.511c1.657,0,3.314-0.627,3.314-2.511v-47.954c0-0.627,0.621-1.004,1.45-1.004h26.932
		c1.036,0,1.865,0.376,1.865,0.878v73.563c0,0.502-0.622,0.879-1.658,0.879h-24.445c-1.243,0-2.486-4.394-3.729-4.394
		c-0.414,0-1.035,0.251-2.278,1.004c-3.729,2.134-7.251,3.39-14.709,3.39c-8.494,0-19.474-4.268-19.474-13.056V-50.692z"/>
	<g>
		<path fill="none" d="M166,51.754v27.467c0,0.138-0.572,0.227-1.164,0.237c0.019,0,0.04,0.002,0.059,0.002
			c0.632,0,1.316-0.092,1.687-0.239c1.208-0.48,1.418-1.57,1.418-2.146V49.85C167,50.376,166,51.024,166,51.754z"/>
		<path fill="none" d="M158.436,98.769c0.914-0.345,2.805-3.102,3.777-3.102c-0.004,0-0.008,0-0.011,0
			C161.232,95.667,159.35,98.423,158.436,98.769z"/>
		<path fill="none" d="M199,73.685c0,20.561-11.907,24.981-22.255,24.981c-0.013,0-0.027,0-0.04,0c0.013,0,0.027,0,0.04,0
			c0.008,0,0.016,0,0.024,0C187.127,98.667,199,94.273,199,73.685V47.449c0-3.781-0.531-6.993-1.494-9.74
			c0.904,2.746,1.494,5.959,1.494,9.74V73.685z"/>
		<path fill="none" d="M158.436,98.631c-0.061,0.023-0.118,0.035-0.169,0.035C158.318,98.667,158.375,98.654,158.436,98.631z"/>
		<path fill="none" d="M161,25.857V3.888c0-0.077-0.021-0.154-0.076-0.231C160.949,3.734,161,3.811,161,3.888V25.857
			c0,0.753,0.394,1.004,0.601,1.004c0.005,0,0.001-0.001,0.006-0.001C161.399,26.857,161,26.606,161,25.857z"/>
		<path fill="none" d="M162.637,78.832c0.092,0.084,0.209,0.16,0.353,0.23c-0.13-0.07-0.255-0.146-0.348-0.23
			C161.606,78.33,161,77.577,161,76.447V46.444c0-1.82,1.925-3.157,4.104-3.245c-0.034-0.002-0.063-0.009-0.098-0.01
			c-0.039-0.001-0.051-0.009-0.091-0.009c-2.278,0-3.916,1.381-3.916,3.264v30.002C161,77.577,161.601,78.33,162.637,78.832z"/>
		<path fill="#1A1A1A" d="M181.964,24.065c0.988,1.486,14.838,11.702,15.478,13.644c0.963,2.746,1.559,5.959,1.559,9.74v26.236
			c0,20.588-11.873,24.981-22.231,24.981c-0.008,0-0.016,0-0.024,0c-0.013,0-0.027,0-0.04,0c-4.765,0-9.115-0.879-12.223-2.26
			c-1.233-0.622-1.853-0.873-2.268-0.878c-0.972,0.009-2.863,2.757-3.777,3.102c0,0,0,0,0,0c-0.061,0.023-0.118,0.035-0.169,0.035
			h-26.104c-0.828,0-2.163-0.502-2.163-1.13v0.442c0,1.003,5.752,9.688,6.58,9.688h26.104c0.828,0,2.9-2.984,3.936-2.984
			c0.415,0,1.036,0.328,2.279,0.956c3.107,1.381,7.314,2.298,12.079,2.298c10.358,0,28.023-7.771,28.023-31.943V53.417
			C209,36.733,187.852,24.065,181.964,24.065z"/>
		<path fill="#1A1A1A" d="M161,3.888v21.969c0,0.748,0.389,1,0.597,1.003c0.073-0.001,0.148-0.012,0.225-0.03
			c0.305-0.081,0.606-0.339,1.446-0.847c0.904-0.548,1.733-0.99,2.733-1.356V9.198c0-0.483-3.155-4.061-5.141-5.683
			c0.024,0.047,0.03,0.095,0.045,0.143C160.959,3.734,161,3.811,161,3.888z"/>
		<path fill="#1A1A1A" d="M161,46.444v30.002c0,1.13,0.601,1.883,1.637,2.385c0.093,0.084,0.213,0.16,0.343,0.23
			c0.49,0.237,1.224,0.387,1.856,0.396c0.592-0.011,1.164-0.099,1.164-0.237V51.754c0-0.729,1-1.378,2-1.904v-0.244v-0.257v-3.783
			c0-1.205-0.981-2.28-2.69-2.366C163.13,43.288,161,44.625,161,46.444z"/>
		<g>
			<path fill="#FFFFFF" d="M155.96,7.633v18.224c0,3.758,2.858,6.004,5.621,6.004l0.293-0.001l0.153-0.017
				c0.3-0.023,0.603-0.069,0.904-0.137c1.152-0.262,2.015-0.785,3.107-1.447c0.565-0.342,1.216-0.641,1.993-0.913
				c1.92-0.673,4.283-1,7.224-1c4.039,0,11.402,0.89,15.47,6.834c0.033,0.054,0.067,0.107,0.101,0.157
				c0.751,1.13,1.38,2.454,1.868,3.936c0.782,2.376,1.179,5.126,1.179,8.176v26.236c0,13.619-5.444,19.968-17.127,19.981l-0.075,0
				l-0.01,0c-3.796-0.005-7.446-0.654-10.046-1.784c-1.427-0.717-2.66-1.27-4.069-1.344l-0.099-0.01h-0.244
				c-2.618,0-4.319,1.712-5.683,3.138h-21.221V7.633H155.96 M159.964,83.086c0.259,0.173,0.536,0.331,0.837,0.476
				c1.108,0.536,2.511,0.86,3.874,0.893l0.093,0.004h0.127c1.219,0,2.339-0.2,3.329-0.593c1.312-0.522,4.364-2.229,4.364-6.792
				V49.85v-0.244v-0.257v-3.783c0-3.992-2.95-7.054-7.045-7.348c-0.042-0.004-0.09-0.009-0.141-0.013
				c-0.131-0.012-0.303-0.024-0.507-0.024c-5.011,0-8.936,3.63-8.936,8.264v30.002C155.96,79.274,157.412,81.667,159.964,83.086
				 M159.095,2.633h-26.932c-1.036,0-1.864,0.377-1.864,1.004v93.899c0,0.628,1.036,1.13,1.864,1.13h26.104
				c0.052,0,0.108-0.012,0.169-0.035c0,0,0,0,0,0c0.914-0.346,2.795-3.103,3.766-3.103c0.004,0,0.008,0.001,0.011,0.001
				c0.415,0.004,1.035,0.256,2.268,0.878c3.107,1.381,7.458,2.26,12.223,2.26c0.013,0,0.027-0.001,0.04-0.001
				c10.349-0.011,22.127-4.42,22.127-24.981V47.449c0-3.781-0.526-6.993-1.43-9.74c-0.64-1.942-1.465-3.655-2.454-5.141
				c-0.021-0.031-0.038-0.066-0.059-0.096c-4.676-6.943-12.714-9.125-19.675-9.125c-3.378,0-6.332,0.389-8.877,1.281
				c-1.044,0.366-2.027,0.808-2.931,1.356c-0.84,0.509-1.27,0.767-1.624,0.847c-0.077,0.018-0.151,0.029-0.225,0.03
				c-0.005,0-0.011,0.001-0.016,0.001c-0.207,0-0.621-0.251-0.621-1.004V3.888c0-0.078-0.031-0.154-0.056-0.231
				c-0.015-0.048-0.021-0.096-0.045-0.143c-0.055-0.106-0.126-0.209-0.221-0.303c-0.159-0.159-0.374-0.293-0.621-0.395
				c-0.051-0.021-0.1-0.043-0.154-0.06c-0.051-0.017-0.105-0.029-0.158-0.042h0h0C159.513,2.665,159.31,2.633,159.095,2.633
				L159.095,2.633z M164.896,79.46c-0.019,0-0.04-0.002-0.059-0.002c-0.632-0.009-1.366-0.158-1.856-0.396
				c-0.144-0.07-0.271-0.146-0.363-0.23c-1.036-0.502-1.657-1.255-1.657-2.385V46.444c0-1.883,1.657-3.264,3.936-3.264
				c0.04,0,0.072,0.008,0.111,0.009c0.035,0.001,0.063,0.008,0.098,0.01c1.71,0.086,2.485,1.161,2.485,2.366v3.783v0.257v0.244
				v27.225c0,0.576-0.005,1.665-1.212,2.146C166.006,79.368,165.527,79.46,164.896,79.46L164.896,79.46z"/>
		</g>
	</g>
	<path fill="#FFFFFF" d="M283.053-140.887c0-11.549,14.295-19.458,35.633-19.458c21.339,0,35.633,7.783,35.633,20.085v35.651
		c0,11.675-14.294,19.583-35.633,19.583c-21.131,0-35.633-8.034-35.633-19.583V-140.887z M315.371-107.871
		c0,1.506,1.036,2.511,3.314,2.511c2.279,0,3.314-1.004,3.314-2.511v-29.877c0-1.381-1.242-2.511-3.314-2.511
		c-2.278,0-3.314,1.13-3.314,2.511V-107.871z"/>
	<path fill="#FFFFFF" d="M374.411-122.559c0.415-0.627,0.415-0.879,0.207-1.506l-19.681-35.275
		c-0.207-0.502,0.207-1.004,0.829-1.004h30.246c0.829,0,1.45,0.376,1.657,1.004l3.937,9.541c0,0.125,0.207,0.376,0.414,0.376
		l0.415-0.502l3.936-9.416c0.207-0.627,1.036-1.004,1.657-1.004h29.833c0.828,0,1.45,0.627,1.242,1.13L409.63-123.94
		c-0.207,0.376-0.414,0.753-0.414,1.004s0.207,0.753,0.414,1.004l19.267,35.777c0.207,0.628-0.621,1.13-1.45,1.13h-29.832
		c-0.828,0-1.45-0.376-1.657-1.004l-3.521-9.917c0-0.251-0.208-0.502-0.415-0.502l-0.414,0.502l-3.107,9.917
		c-0.207,0.628-0.829,1.004-1.657,1.004H355.56c-0.622,0-1.036-0.376-0.829-0.879L374.411-122.559z"/>
</g>
</svg>
