<?xml version="1.0" encoding="utf-8"?>
<!-- Generator: Adobe Illustrator 17.0.0, SVG Export Plug-In . SVG Version: 6.00 Build 0)  -->
<!DOCTYPE svg PUBLIC "-//W3C//DTD SVG 1.1//EN" "http://www.w3.org/Graphics/SVG/1.1/DTD/svg11.dtd">
<svg version="1.1" xmlns="http://www.w3.org/2000/svg" xmlns:xlink="http://www.w3.org/1999/xlink" x="0px" y="0px" width="440px"
	 height="109.467px" viewBox="0 0 440 109.467" enable-background="new 0 0 440 109.467" xml:space="preserve">
<g id="Layer_1" display="none">
	<linearGradient id="SVGID_1_" gradientUnits="userSpaceOnUse" x1="198.6667" y1="484.6667" x2="198.6667" y2="-315.3333">
		<stop  offset="0" style="stop-color:#D4145A"/>
		<stop  offset="0.0404" style="stop-color:#CB165E"/>
		<stop  offset="0.2333" style="stop-color:#A71E70"/>
		<stop  offset="0.427" style="stop-color:#8B257F"/>
		<stop  offset="0.6199" style="stop-color:#762989"/>
		<stop  offset="0.8113" style="stop-color:#6A2C8F"/>
		<stop  offset="1" style="stop-color:#662D91"/>
	</linearGradient>
	<rect x="-201.333" y="-315.333" display="inline" fill="url(#SVGID_1_)" width="800" height="800"/>
</g>
<g id="Layer_2">
	<g>
		<polygon fill="#FF931E" points="-333.333,46.945 -333.333,-11.391 -383.857,17.79 -364.965,28.71 		"/>
		<polygon fill="#ED1E79" points="-333.333,56.644 -353.207,44.949 -387.333,25.596 -387.333,88.72 -333.333,120.781 		"/>
		<polygon fill="#ED1E79" points="-272.333,93.008 -325.333,62.189 -325.333,124.685 -272.333,156.746 		"/>
		<polygon fill="#D9E021" points="-263.333,98.303 -263.333,156.76 -212.55,127.669 		"/>
		<polygon fill="#FF931E" points="-322.505,-18.175 -303.613,-7.255 -268.097,13.219 -212.451,-18.765 -266.967,-50.252 		"/>
		<polygon fill="#ED1E79" points="-272.333,84.816 -272.333,20.679 -291.707,8.984 -325.333,-10.369 -325.333,52.755 		"/>
		<polygon fill="#FF931E" points="-204.557,-14.287 -260.095,17.79 -241.203,28.71 -205.271,49.424 -148.971,17.818 		"/>
		<path fill="#FFFFFF" d="M-139.245,14.39l-61.903-35.766c-0.099-0.069-0.198-0.139-0.302-0.199l-63.445-36.598
			c-1.213-0.7-2.713-0.7-3.926,0l-62.993,36.598c-0.398,0.23-0.691,0.529-0.915,0.869l-60.739,35.096
			c-1.212,0.7-1.866,1.994-1.866,3.394v0.047c0,0,0,0,0,0.001c0,0,0,0.001,0,0.001V90.98c0,1.399,0.611,2.692,1.821,3.392
			l60.942,35.347c0.196,0.237,0.436,0.446,0.734,0.618l62.937,36.598c0.607,0.351,3.269,0.352,3.875,0.003
			c0.053-0.031,0.061-0.069,0.112-0.102l63.462-36.496c0.28-0.162,0.541-0.358,0.781-0.577l61.38-35.388
			c1.214-0.7,1.956-1.994,1.956-3.396V17.972v-0.187C-137.333,16.384-138.033,15.091-139.245,14.39z M-325.333-10.369l33.627,19.353
			l19.373,11.695v64.137l-53-32.061V-10.369z M-263.333,88.72v-3.89V25.596l33.627,19.353l19.373,11.695v64.137L-263.333,88.72z
			 M-205.271,49.424l-35.932-20.715l-18.892-10.919l55.538-32.077l55.586,32.105L-205.271,49.424z M-266.967-50.252l54.516,31.487
			l-55.646,31.985l-35.516-20.475l-18.892-10.919L-266.967-50.252z M-333.333-11.391v58.336l-31.632-18.236l-18.892-10.919
			L-333.333-11.391z M-387.333,25.596l34.127,19.353l19.873,11.695v64.137l-54-32.061V25.596z M-325.333,124.685V62.189l53,30.82
			v63.738L-325.333,124.685z M-263.333,98.303l50.783,29.366l-50.783,29.091V98.303z M-145.333,88.715l-54,32.08V56.705l54-31.962
			V88.715z"/>
		<polygon fill="#ED1E79" points="-210.333,56.644 -229.707,44.949 -263.333,25.596 -263.333,84.83 -263.333,88.72 
			-210.333,120.781 		"/>
		<polygon fill="#D9E021" points="-199.333,120.795 -145.333,88.715 -145.333,24.742 -199.333,56.705 		"/>
	</g>
	<g>
		<path fill="#FFFFFF" d="M112.488,226.179c-1.145-1.209-2.53-2.5-4.155-3.163c-1.626-0.664-3.453-1.349-5.482-1.349H92.667v28
			h10.183c2.029,0,3.856-0.34,5.482-1.043c1.625-0.702,3.011-1.659,4.155-2.882c1.145-1.222,2.029-2.656,2.653-4.309
			c0.625-1.651,0.937-3.438,0.937-5.364c0-2.028-0.312-3.881-0.937-5.559C114.517,228.832,113.632,227.389,112.488,226.179z"/>
		<polygon fill="#FFFFFF" points="122.667,249.667 139.667,249.667 139.667,243.667 127.667,243.667 127.667,238.667 
			136.667,238.667 136.667,232.667 127.667,232.667 127.667,227.667 139.667,227.667 139.667,221.667 122.667,221.667 		"/>
		<path fill="#FFFFFF" d="M160.735,230.351c-1.235,2.797-2.465,5.41-3.688,8.193l-7.452-16.877h-5.932l12.292,28h2.263l12.174-28
			h-5.931C163.212,224.667,161.97,227.555,160.735,230.351z"/>
		<polygon fill="#FFFFFF" points="174.667,238.361 174.667,249.667 192.667,249.667 192.667,243.667 180.667,243.667 
			180.667,238.667 188.667,238.667 188.667,232.667 181.099,232.667 180.667,232.667 180.667,227.667 188.337,227.667 
			192.667,227.667 192.667,224.767 192.667,221.667 174.667,221.667 		"/>
		<polygon fill="#FFFFFF" points="204.667,221.667 198.667,221.667 198.667,249.667 215.667,249.667 215.667,243.667 
			204.667,243.667 		"/>
		<path fill="#FFFFFF" d="M240.492,226.433c-1.263-1.223-2.719-2.172-4.37-2.849c-1.652-0.676-3.35-1.015-5.093-1.015
			c-1.977,0-3.798,0.378-5.463,1.132c-1.665,0.755-3.108,1.763-4.331,3.024s-2.179,2.725-2.868,4.39s-1.033,3.395-1.033,5.189
			c0,2.081,0.39,3.961,1.17,5.639s1.814,3.108,3.103,4.292c1.287,1.184,2.751,2.101,4.39,2.751s3.316,0.976,5.033,0.976
			c1.977,0,3.805-0.377,5.482-1.132c1.678-0.754,3.122-1.769,4.331-3.044c1.21-1.273,2.152-2.731,2.829-4.37
			c0.676-1.639,1.015-3.342,1.015-5.111c0-2.003-0.384-3.844-1.151-5.521S241.752,227.656,240.492,226.433z"/>
		<path fill="#FFFFFF" d="M268.547,224.853c-0.768-0.767-1.658-1.726-2.673-2.169s-2.095-1.017-3.239-1.017h-11.968v28h6v-11h5.969
			c1.145,0,2.23,0.081,3.259-0.362c1.027-0.441,1.925-0.889,2.692-1.644c0.767-0.754,1.371-1.576,1.814-2.617
			c0.441-1.04,0.663-2.108,0.663-3.279c0-1.17-0.229-2.244-0.683-3.258C269.925,226.492,269.314,225.621,268.547,224.853z"/>
		<polygon fill="#FFFFFF" points="276.667,236.638 276.667,249.667 293.667,249.667 293.667,243.667 281.667,243.667 
			281.667,238.667 290.667,238.667 290.667,232.667 281.667,232.667 281.667,227.667 292.558,227.667 293.667,227.667 
			293.667,227.137 293.667,221.667 276.667,221.667 		"/>
		<path fill="#FFFFFF" d="M319.252,235.427c0.885-1.365,1.327-2.907,1.327-4.624c0-1.17-0.229-2.263-0.683-3.277
			c-0.456-1.015-1.067-1.905-1.834-2.673c-0.131-0.131-0.271-0.251-0.41-0.373c-0.671-0.59-1.423-1.429-2.263-1.796
			c-1.015-0.442-2.095-1.017-3.239-1.017h-11.484v3.699v24.301h5v-11h4.104l7.414,11h6.633l-8.038-11.226
			C317.21,237.79,318.368,236.792,319.252,235.427z"/>
		<path fill="#FFFFFF" d="M345.102,239.095c-0.273-0.793-0.735-1.535-1.386-2.225c-0.65-0.688-1.509-1.339-2.575-1.95
			s-2.38-1.216-3.94-1.814c-0.547-0.182-1.067-0.377-1.561-0.586c-0.495-0.208-0.931-0.435-1.308-0.683
			c-0.377-0.247-0.677-0.52-0.897-0.819c-0.222-0.299-0.332-0.631-0.332-0.995c0-0.696,0.242-1.243,0.698-1.659
			c0.072-0.066,0.135-0.136,0.219-0.195c0.541-0.379,1.281-0.581,2.198-0.625c0.12-0.006,0.231-0.019,0.357-0.019
			c0.599,0,1.184,0.104,1.756,0.313s1.08,0.429,1.522,0.663c0.52,0.286,1.027,0.599,1.521,0.937l3.355-4.215
			c-0.442-0.39-0.995-0.773-1.658-1.15s-1.372-0.709-2.126-0.995c-0.755-0.286-1.529-0.521-2.322-0.702
			c-0.794-0.182-1.541-0.273-2.243-0.273c-1.302,0-2.491,0.202-3.57,0.604c-0.803,0.3-1.518,0.687-2.148,1.158
			c-0.218,0.163-0.426,0.336-0.623,0.519c-0.658,0.614-1.179,1.33-1.579,2.135c-0.066,0.133-0.137,0.264-0.196,0.402
			c-0.417,0.975-0.624,2.022-0.624,3.141c0,1.093,0.188,2.056,0.565,2.888c0.377,0.833,0.91,1.574,1.6,2.224
			c0.689,0.65,1.502,1.217,2.438,1.697c0.937,0.482,1.951,0.931,3.044,1.347c0.937,0.364,1.717,0.709,2.341,1.034
			c0.625,0.325,1.112,0.631,1.464,0.917c0.351,0.286,0.598,0.553,0.741,0.8c0.143,0.247,0.215,0.475,0.215,0.683
			c0,0.546-0.117,1.002-0.352,1.365c-0.234,0.365-0.533,0.658-0.897,0.879s-0.768,0.384-1.21,0.487
			c-0.442,0.104-0.885,0.156-1.326,0.156c-0.521,0-1.067-0.104-1.639-0.313c-0.573-0.208-1.119-0.461-1.64-0.761
			c-0.521-0.299-0.981-0.611-1.385-0.937s-0.696-0.604-0.878-0.839l-4.058,3.746c0.207,0.234,0.585,0.439,1.131,0.96
			c0.547,0.521,1.171,1.271,1.873,1.271h-0.039c0.988,1,2.042,1.278,3.161,1.616c1.118,0.338,2.275,0.594,3.473,0.594
			c1.326,0,2.556-0.172,3.688-0.602c1.131-0.429,2.106-0.992,2.926-1.734c0.819-0.741,1.464-1.608,1.932-2.623
			c0.469-1.015,0.702-2.088,0.702-3.233C345.511,240.748,345.375,239.889,345.102,239.095z"/>
	</g>
	<g>
		<path fill="none" d="M236.863,266.394c-0.768-0.768-1.652-1.372-2.653-1.814c-1.002-0.442-2.063-0.664-3.181-0.664
			c-1.17,0-2.263,0.222-3.277,0.664s-1.899,1.047-2.653,1.814c-0.755,0.768-1.353,1.658-1.795,2.673s-0.663,2.094-0.663,3.238
			s0.221,2.225,0.663,3.238c0.442,1.015,1.04,1.899,1.795,2.653c0.754,0.755,1.645,1.347,2.673,1.775
			c1.027,0.43,2.113,0.645,3.258,0.645s2.218-0.221,3.22-0.664c1.001-0.441,1.879-1.04,2.634-1.795
			c0.754-0.754,1.352-1.632,1.795-2.634c0.441-1.001,0.663-2.074,0.663-3.219s-0.222-2.224-0.663-3.238
			C238.234,268.052,237.629,267.162,236.863,266.394z"/>
		<path fill="none" d="M108.43,266.238c-0.702-0.741-1.528-1.413-2.478-1.842c-0.95-0.43-1.984-0.729-3.103-0.729h-4.183v16h4.183
			c1.118,0,2.152,0.091,3.103-0.325c0.949-0.416,1.775-0.845,2.478-1.587s1.248-1.538,1.639-2.539
			c0.39-1.001,0.585-2.037,0.585-3.182c0-1.145-0.195-2.198-0.585-3.2C109.678,267.832,109.132,266.979,108.43,266.238z"/>
		<path fill="none" d="M311.136,263.667h-5.469v6h5.469c1.379,0,2.394-0.196,3.044-0.807c0.649-0.611,0.976-1.278,0.976-2.111
			c0-0.832-0.326-1.58-0.976-2.165C313.53,263.997,312.515,263.667,311.136,263.667z"/>
		<path fill="none" d="M261.621,263.667h-4.954v6h4.954c1.379,0,2.394-0.196,3.044-0.807s0.976-1.278,0.976-2.111
			c0-0.832-0.325-1.58-0.976-2.165C264.014,263.997,262.999,263.667,261.621,263.667z"/>
		<path fill="#ED1E79" d="M112.488,262.179c-1.145-1.209-2.53-2.5-4.155-3.163c-1.626-0.664-3.453-1.349-5.482-1.349H92.667v28
			h10.183c2.029,0,3.856-0.34,5.482-1.043c1.625-0.702,3.011-1.658,4.155-2.882c1.145-1.222,2.029-2.656,2.653-4.309
			c0.625-1.651,0.937-3.438,0.937-5.364c0-2.028-0.312-3.881-0.937-5.559C114.517,264.832,113.632,263.389,112.488,262.179z
			 M110.069,275.29c-0.391,1.001-0.937,1.873-1.639,2.614s-1.528,1.021-2.478,1.437c-0.95,0.416-1.984,0.325-3.103,0.325h-4.183v-16
			h4.183c1.118,0,2.152,0.3,3.103,0.729c0.949,0.429,1.775,1.058,2.478,1.799s1.248,1.635,1.639,2.636
			c0.39,1.002,0.585,2.085,0.585,3.229C110.654,273.206,110.458,274.289,110.069,275.29z"/>
		<polygon fill="#ED1E79" points="122.667,285.667 139.667,285.667 139.667,279.667 127.667,279.667 127.667,274.667 
			136.667,274.667 136.667,268.667 127.667,268.667 127.667,263.667 139.667,263.667 139.667,257.667 122.667,257.667 		"/>
		<path fill="#ED1E79" d="M160.735,266.351c-1.235,2.797-2.465,5.41-3.688,8.193l-7.452-16.877h-5.932l12.292,28h2.263l12.174-28
			h-5.931C163.212,260.667,161.97,263.555,160.735,266.351z"/>
		<path fill="#ED1E79" d="M174.667,274.361c2-1.744,4.438-3.695,6.433-5.695h-0.433v-5h7.67c1.475-1,2.33-1.92,4.33-2.9v-3.1h-18
			V274.361z"/>
		<path fill="#FF931E" d="M192.667,263.667v-2.9c-2,0.98-2.855,1.9-4.33,2.9H192.667z"/>
		<path fill="#FF931E" d="M174.667,285.667h18v-6h-12v-5h8v-6h-7.567c-1.994,2-4.433,3.951-6.433,5.695V285.667z"/>
		<polygon fill="#FF931E" points="204.667,257.667 198.667,257.667 198.667,285.667 215.667,285.667 215.667,279.667 
			204.667,279.667 		"/>
		<path fill="#FF931E" d="M240.492,262.433c-1.263-1.223-2.719-2.172-4.37-2.849c-1.652-0.676-3.35-1.015-5.093-1.015
			c-1.977,0-3.798,0.378-5.463,1.132c-1.665,0.755-3.108,1.763-4.331,3.024s-2.179,2.725-2.868,4.39s-1.033,3.395-1.033,5.189
			c0,2.081,0.39,3.961,1.17,5.639s1.814,3.108,3.103,4.292c1.287,1.184,2.751,2.101,4.39,2.751s3.316,0.976,5.033,0.976
			c1.977,0,3.805-0.377,5.482-1.132c1.678-0.754,3.122-1.769,4.331-3.044c1.21-1.273,2.152-2.731,2.829-4.37
			c0.676-1.639,1.015-3.342,1.015-5.111c0-2.003-0.384-3.844-1.151-5.521S241.752,263.656,240.492,262.433z M238.677,275.524
			c-0.443,1.002-1.041,1.88-1.795,2.634c-0.755,0.755-1.633,1.354-2.634,1.795c-1.002,0.443-2.075,0.664-3.22,0.664
			s-2.23-0.215-3.258-0.645c-1.028-0.429-1.919-1.021-2.673-1.775c-0.755-0.754-1.353-1.639-1.795-2.653
			c-0.442-1.014-0.663-2.094-0.663-3.238s0.221-2.224,0.663-3.238s1.04-1.905,1.795-2.673c0.754-0.768,1.639-1.372,2.653-1.814
			s2.107-0.664,3.277-0.664c1.118,0,2.179,0.222,3.181,0.664c1.001,0.442,1.886,1.047,2.653,1.814
			c0.767,0.768,1.371,1.658,1.814,2.673c0.441,1.015,0.663,2.094,0.663,3.238S239.119,274.523,238.677,275.524z"/>
		<path fill="#FF931E" d="M268.547,260.853c-0.768-0.767-1.658-1.726-2.673-2.169s-2.095-1.017-3.239-1.017h-11.968v28h6v-11h5.969
			c1.145,0,2.23,0.081,3.259-0.362c1.027-0.441,1.925-0.889,2.692-1.644c0.767-0.754,1.371-1.576,1.814-2.617
			c0.441-1.04,0.663-2.108,0.663-3.279c0-1.17-0.229-2.244-0.683-3.258C269.925,262.492,269.314,261.621,268.547,260.853z
			 M264.664,268.859c-0.65,0.611-1.665,0.807-3.044,0.807h-4.954v-6h4.954c1.379,0,2.394,0.358,3.044,0.944
			c0.65,0.585,0.976,1.272,0.976,2.104C265.64,267.548,265.315,268.248,264.664,268.859z"/>
		<path fill="#FF931E" d="M276.667,272.638c1-1.375,3-2.655,5-3.826v-5.146h10.892h1.108v-0.529v-5.471h-17V272.638z"/>
		<path fill="#D9E021" d="M276.667,285.667h17v-6h-12v-5h9v-6h-9v0.146c-2,1.17-4,2.451-5,3.826V285.667z"/>
		<path fill="#FF931E" d="M317.653,260.48c-0.671-0.59-1.423-1.429-2.263-1.796c-1.015-0.442-2.095-1.017-3.239-1.017h-11.484v3.699
			c4-0.739,7.687-1.131,11.576-1.131C313.993,260.235,315.942,260.326,317.653,260.48z"/>
		<path fill="#D9E021" d="M319.252,271.427c0.885-1.365,1.327-2.907,1.327-4.624c0-1.17-0.229-2.263-0.683-3.277
			c-0.456-1.015-1.067-1.905-1.834-2.673c-0.131-0.131-0.271-0.251-0.41-0.373c-1.71-0.154-3.66-0.245-5.411-0.245
			c-3.888,0-7.576,0.392-11.576,1.131v24.301h5v-11h4.104l7.414,11h6.633l-8.038-11.226
			C317.21,273.79,318.368,272.792,319.252,271.427z M314.18,268.859c-0.65,0.611-1.665,0.807-3.044,0.807h-5.469v-6h5.469
			c1.379,0,2.394,0.358,3.044,0.944c0.649,0.585,0.976,1.272,0.976,2.104C315.156,267.548,314.829,268.248,314.18,268.859z"/>
		<path fill="#ED1E79" d="M336.576,263.526c0.599,0,1.184,0.104,1.756,0.313s1.08,0.429,1.522,0.663
			c0.52,0.286,1.027,0.599,1.521,0.937l3.355-4.215c-0.442-0.39-0.995-0.773-1.658-1.15s-1.372-0.709-2.126-0.995
			c-0.755-0.286-1.529-0.521-2.322-0.702c-0.794-0.182-1.541-0.273-2.243-0.273c-1.302,0-2.491,0.202-3.57,0.604
			c-0.803,0.3-1.518,0.687-2.148,1.158c1.885,1.18,3.737,2.406,5.555,3.68C336.338,263.539,336.45,263.526,336.576,263.526z"/>
		<path fill="#FF931E" d="M334.02,264.169c0.541-0.379,1.281-0.581,2.198-0.625c-1.818-1.273-3.67-2.5-5.555-3.68
			c-0.218,0.163-0.426,0.336-0.623,0.519c-0.658,0.614-1.179,1.33-1.579,2.135c1.819,0.529,3.6,1.145,5.34,1.845
			C333.873,264.299,333.937,264.228,334.02,264.169z"/>
		<path fill="#D9E021" d="M345.102,275.095c-0.273-0.793-0.735-1.535-1.386-2.225c-0.65-0.688-1.509-1.339-2.575-1.95
			s-2.38-1.216-3.94-1.814c-0.547-0.182-1.067-0.377-1.561-0.586c-0.495-0.208-0.931-0.435-1.308-0.683
			c-0.377-0.247-0.677-0.52-0.897-0.819c-0.222-0.299-0.332-0.631-0.332-0.995c0-0.696,0.242-1.243,0.698-1.659
			c-1.74-0.7-3.521-1.316-5.34-1.845c-0.066,0.133-0.137,0.264-0.196,0.402c-0.417,0.975-0.624,2.022-0.624,3.141
			c0,1.093,0.188,2.056,0.565,2.888c0.377,0.833,0.91,1.574,1.6,2.224c0.689,0.65,1.502,1.217,2.438,1.697
			c0.937,0.482,1.951,0.931,3.044,1.347c0.937,0.364,1.717,0.709,2.341,1.034c0.625,0.325,1.112,0.631,1.464,0.917
			c0.351,0.286,0.598,0.553,0.741,0.8c0.143,0.247,0.215,0.475,0.215,0.683c0,0.546-0.117,1.002-0.352,1.365
			c-0.234,0.365-0.533,0.658-0.897,0.879s-0.768,0.384-1.21,0.487c-0.442,0.104-0.885,0.156-1.326,0.156
			c-0.521,0-1.067-0.104-1.639-0.313c-0.573-0.208-1.119-0.461-1.64-0.761c-0.521-0.299-0.981-0.611-1.385-0.937
			s-0.696-0.604-0.878-0.839l-4.058,3.746c0.207,0.234,0.585,0.439,1.131,0.96c0.547,0.521,1.171,1.271,1.873,1.271h-0.039
			c0.988,1,2.042,1.278,3.161,1.616c1.118,0.338,2.275,0.594,3.473,0.594c1.326,0,2.556-0.172,3.688-0.601
			c1.131-0.429,2.106-0.992,2.926-1.734c0.819-0.741,1.464-1.608,1.932-2.623c0.469-1.015,0.702-2.088,0.702-3.233
			C345.511,276.748,345.375,275.889,345.102,275.095z"/>
	</g>
	<g>
		<g>
			<path fill="#FFFFFF" d="M119.457,100.745H91.826c-1.881,0-3.355-1.239-3.355-2.82V49.327c0-0.92-1.258-1.02-1.799-1.02
				s-1.8,0.1-1.8,1.02v48.718c0,1.344-1.038,2.7-3.355,2.7H53.265c-2.318,0-3.355-1.296-3.355-2.58V49.207
				c0-0.744-0.979-0.9-1.8-0.9c-0.821,0-1.799,0.156-1.799,0.9v49.199c0,1.165-0.974,2.34-3.149,2.34H14.911
				c-1.706,0-2.943-1.034-2.943-2.46V28.207c0-1.402,1.443-2.46,3.356-2.46h27.013c1.748,0,2.706,1.778,3.632,3.497
				c0.265,0.492,0.68,1.262,0.961,1.618c0.223-0.069,0.567-0.241,1.146-0.646c4.289-2.808,10.377-4.47,16.325-4.47
				c6.982,0,12.562,1.557,16.583,4.628c1.083,0.882,1.544,0.892,1.563,0.892c0.239,0,0.976-0.225,1.592-0.673l0.158-0.101
				c4.257-2.347,9.681-4.747,17.633-4.747c11.515,0,20.884,6.271,20.884,13.979v58.198
				C122.814,99.283,121.764,100.745,119.457,100.745z M91.47,97.681c0.076,0.032,0.196,0.064,0.355,0.064h27.632
				c0.16,0,0.277-0.017,0.356-0.036V39.727c0-5.952-8.19-10.979-17.884-10.979c-7.208,0-12.005,2.076-16.108,4.332
				c-1.028,0.724-2.303,1.188-3.275,1.188c-1.033,0-2.152-0.503-3.421-1.538c-3.449-2.633-8.415-3.982-14.724-3.982
				c-7.983,0-13.227,3.027-14.644,3.955c-1.214,0.849-2.12,1.205-3.09,1.205c-1.593,0-2.441-1.573-3.339-3.239
				c-0.33-0.612-0.864-1.604-1.194-1.92h-26.81c-0.141,0-0.26,0.016-0.356,0.037v68.96h28.194c0.054,0,0.104-0.002,0.149-0.004
				V49.207c0-2.369,1.884-3.9,4.799-3.9c2.916,0,4.8,1.531,4.8,3.9v48.514c0.093,0.014,0.211,0.024,0.355,0.024h28.251
				c0.153,0,0.27-0.011,0.355-0.023V49.327c0-2.404,1.929-4.02,4.8-4.02c2.87,0,4.799,1.616,4.799,4.02V97.681z"/>
		</g>
		<g>
			<path fill="#FFFFFF" d="M251.795,100.745c-4.78,0-9.31-0.81-12.755-2.28c-0.879-0.425-1.322-0.607-1.547-0.68
				c-0.323,0.23-0.878,0.789-1.23,1.143c-1.01,1.016-1.807,1.817-2.82,1.817h-25.981c-1.614,0-3.356-0.986-3.356-2.58V8.408
				c0-1.225,1.038-2.46,3.356-2.46h26.806c1.851,0,3.355,1.211,3.355,2.7v19.951c0.072-0.042,0.146-0.085,0.22-0.128
				c3.148-1.833,7.24-2.724,12.509-2.724c5.866,0,25.008,1.77,25.008,24.539v25.079C275.36,96.342,262.545,100.745,251.795,100.745z
				 M237.361,94.745c0.748,0,1.538,0.319,2.923,0.99c2.971,1.267,7.19,2.01,11.512,2.01c13.645,0,20.564-7.529,20.564-22.379V50.287
				c0-19.44-15.391-21.539-22.008-21.539c-4.724,0-8.321,0.758-10.999,2.316c-1.194,0.695-1.793,1.043-2.61,1.043
				c-1.042,0-2.119-0.92-2.119-2.46V9.008c-0.085-0.031-0.205-0.06-0.355-0.06h-26.806c-0.141,0-0.26,0.01-0.356,0.024v88.709
				c0.109,0.036,0.24,0.063,0.356,0.063h25.693c0.251-0.198,0.682-0.631,0.981-0.933C235.24,95.703,236.193,94.745,237.361,94.745z
				 M240.041,82.385c-0.739,0-2.158-0.176-3.06-0.816c-1.944-0.973-2.358-2.468-2.358-3.564V49.327c0-2.634,2.329-4.62,5.418-4.62
				c2.872,0,4.181,1.959,4.181,3.78v30.119C244.222,81.894,241.603,82.385,240.041,82.385z M240.041,47.707
				c-1.401,0-2.418,0.681-2.418,1.62v28.679c0,0.221,0,0.556,0.783,0.921l0.191,0.089l0.159,0.138
				c0.105,0.06,0.69,0.231,1.284,0.231c1.181,0,1.181-0.181,1.181-0.78V48.487C241.222,48.273,241.222,47.707,240.041,47.707z"/>
		</g>
		<g>
			<path fill="none" d="M410.686,93.278c0.019-0.083,0.043-0.163,0.063-0.245C410.729,93.115,410.705,93.196,410.686,93.278z"/>
			<path fill="none" d="M411.507,90.478c0.122-0.342,0.251-0.681,0.386-1.017C411.757,89.797,411.629,90.136,411.507,90.478z"/>
			<path fill="none" d="M411.227,91.307c-0.021,0.064-0.034,0.132-0.054,0.197c0.06-0.195,0.12-0.389,0.185-0.582
				C411.314,91.05,411.267,91.177,411.227,91.307z"/>
			<path fill="none" d="M410.277,95.493c0.021-0.147,0.039-0.294,0.062-0.44C410.315,95.199,410.298,95.347,410.277,95.493z"/>
			<path fill="none" d="M396.587,89.387c1.65-6.04,4.44-11.54,8.23-16.19C400.967,77.847,398.117,83.347,396.587,89.387z"/>
			<path fill="none" d="M410.068,97.43c0.012-0.174,0.028-0.347,0.044-0.521C410.097,97.082,410.08,97.255,410.068,97.43z"/>
			<path fill="none" d="M415.593,83.066c0.103-0.132,0.212-0.259,0.318-0.389C415.805,82.807,415.696,82.934,415.593,83.066z"/>
			<path fill="none" d="M412.9,87.274c0.061-0.119,0.12-0.241,0.183-0.359C413.019,87.034,412.961,87.155,412.9,87.274z"/>
			<path fill="none" d="M414.12,85.151c0.099-0.155,0.2-0.31,0.303-0.463C414.32,84.841,414.219,84.995,414.12,85.151z"/>
			<path fill="#0071BC" d="M404.557,29.157c0.37-0.17,0.75-0.34,1.12-0.49h-5.36c-0.62,0-1.45,0.6-1.65,1.21l-1.19,2.85l-0.07,0.16
				c0.02-0.01,0.05-0.03,0.07-0.04C399.767,31.497,402.127,30.267,404.557,29.157z"/>
			<path fill="#FFFFFF" d="M373.357,29.157c0.18-0.17,0.37-0.33,0.56-0.49h-15.67c-0.62,0-1.03,0.72-0.83,1.21l5.7,9.93l0.04,0.07
				C366.277,36.047,369.687,32.457,373.357,29.157z"/>
			<path fill="#0071BC" d="M359.667,96.387l-2.32,3.68c-0.21,0.48,0.07,0.6,0.69,0.6h1.37c-0.01-0.38,0.06-0.76,0.06-1.14
				C359.467,98.477,359.667,97.427,359.667,96.387z"/>
			<path fill="#FFFFFF" d="M372.607,56.187l0.06,0.1c0.02-0.02,0.03-0.05,0.05-0.07C372.717,56.207,372.607,56.197,372.607,56.187z"
				/>
			<path fill="#D9E021" d="M415.593,83.066c-0.411,0.524-0.8,1.067-1.171,1.622c-0.102,0.153-0.203,0.308-0.303,0.463
				c-0.367,0.574-0.715,1.161-1.037,1.764c-0.063,0.118-0.122,0.24-0.183,0.359c-0.339,0.66-0.66,1.331-0.943,2.023
				c-0.022,0.054-0.042,0.11-0.064,0.164c-0.135,0.336-0.264,0.674-0.386,1.017c-0.052,0.147-0.101,0.296-0.15,0.444
				c-0.065,0.193-0.125,0.387-0.185,0.582c-0.156,0.503-0.298,1.013-0.423,1.53c-0.02,0.082-0.044,0.163-0.063,0.245
				c-0.136,0.584-0.25,1.176-0.347,1.775c-0.023,0.146-0.041,0.293-0.062,0.44c-0.067,0.468-0.122,0.94-0.165,1.416
				c-0.015,0.173-0.032,0.346-0.044,0.521c-0.043,0.614-0.071,1.232-0.071,1.857c0,0.54,0.02,1.38,0.05,1.38h19.55
				c0.18,0,0.37-0.02,0.54-0.04c0.5-0.09,0.91-0.31,0.92-0.65c0.02-0.06,0.01-0.13-0.02-0.21l-11.67-20.63
				c-0.747,0.635-1.456,1.311-2.129,2.021c-0.463,0.488-0.902,0.998-1.327,1.519C415.805,82.806,415.696,82.934,415.593,83.066z"/>
			<path fill="#0071BC" d="M392.537,36.017c0.03-0.02,0.07-0.05,0.1-0.07l-2.56-6.08c-0.21-0.6-0.9-1.2-1.72-1.2h-14.44
				c-0.19,0.16-0.38,0.32-0.56,0.49c-3.67,3.3-7.08,6.89-10.2,10.72l9.43,16.28l0.02,0.03
				C377.957,48.297,384.717,41.457,392.537,36.017z"/>
			<path fill="#662D91" d="M422.577,45.317l8.67-15.33c0.2-0.48-0.41-1.32-1.24-1.32h-24.33c-0.37,0.15-0.75,0.32-1.12,0.49
				c-2.43,1.11-4.79,2.34-7.08,3.69c-0.02,0.01-0.05,0.03-0.07,0.04l-2.66,6.16l-0.41,0.51c-0.21,0-0.35-0.23-0.35-0.35l-1.32-3.19
				v-0.01l-0.03-0.06c-0.03,0.02-0.07,0.05-0.1,0.07c-7.82,5.44-14.58,12.28-19.93,20.17c0,0.01,0.11,0.02,0.11,0.03
				c-0.02,0.02-0.03,0.05-0.05,0.07l4.34,7.51c0.21,0.6,0.34,0.85-0.07,1.45l-17.27,31.13v0.01c0,1.04-0.2,2.09-0.2,3.14
				c0,0.38-0.07,0.76-0.06,1.14h21.28c-0.02-0.38-0.02-0.76-0.02-1.14C380.667,73.477,398.467,51.567,422.577,45.317z"/>
			<path fill="#ED1E79" d="M422.577,45.317c-24.11,6.25-41.91,28.16-41.91,54.21c0,0.38,0,0.76,0.02,1.14h8.49
				c0.83,0,1.44-0.12,1.65-0.72l3.09-9.36l0.42-0.42c0.2,0,0.41,0.27,0.41,0.51l0.96,2.6c0.24-1.32,0.54-2.62,0.88-3.89
				c1.53-6.04,4.38-11.54,8.23-16.19c0.33-0.41,0.67-0.81,1.04-1.2c0.29-0.36,0.62-0.71,0.97-1.06c1.58-1.69,3.33-3.25,5.22-4.64
				c0.01,0,0.03-0.01,0.04-0.02l0.01,0.02c0.01,0,0.01-0.01,0.02-0.02l-0.02-0.04l-0.24-0.4c-0.2-0.24-0.41-0.71-0.41-0.95
				c0-0.23,0.21-0.59,0.41-0.95L422.577,45.317z"/>
			<path fill="#FF931E" d="M412.047,66.297c-1.89,1.39-3.64,2.95-5.22,4.64c-0.35,0.35-0.68,0.7-0.97,1.06
				c-0.37,0.39-0.71,0.79-1.04,1.2c-3.79,4.65-6.58,10.15-8.23,16.19c-0.34,1.27-0.64,2.57-0.88,3.89c-0.02,0.07-0.03,0.13-0.04,0.2
				v0.02l2.53,6.44c0.2,0.6,0.88,0.73,1.7,0.73h10.15c-0.03,0-0.05-0.84-0.05-1.38c0-0.625,0.029-1.243,0.071-1.857
				c0.012-0.174,0.028-0.347,0.044-0.521c0.042-0.476,0.097-0.948,0.165-1.416c0.021-0.147,0.039-0.294,0.062-0.44
				c0.097-0.599,0.211-1.191,0.347-1.775c0.019-0.083,0.043-0.163,0.063-0.245c0.126-0.516,0.267-1.026,0.423-1.53
				c0.02-0.065,0.034-0.132,0.054-0.197c0.04-0.129,0.088-0.257,0.13-0.385c0.049-0.148,0.098-0.297,0.15-0.444
				c0.122-0.342,0.25-0.681,0.386-1.017c0.022-0.054,0.042-0.11,0.064-0.164c0.283-0.692,0.604-1.362,0.943-2.023
				c0.061-0.12,0.12-0.24,0.183-0.359c0.322-0.604,0.67-1.19,1.037-1.764c0.099-0.156,0.2-0.31,0.303-0.463
				c0.371-0.555,0.759-1.097,1.171-1.622c0.103-0.132,0.212-0.259,0.318-0.389c0.425-0.521,0.864-1.031,1.327-1.519
				c0.028-0.029,0.051-0.062,0.079-0.091c0.33-0.35,0.66-0.68,1-0.99c0.34-0.33,0.68-0.64,1.04-0.94l-7.26-12.84l-0.01-0.02
				C412.077,66.287,412.057,66.297,412.047,66.297z"/>
		</g>
		<g>
			<path fill="none" d="M336.019,73.642c0.011-0.059,0.021-0.118,0.033-0.176c0.037-0.186,0.067-0.375,0.105-0.56
				c0.021-0.107,0.045-0.215,0.067-0.322c0.003-0.015,0.006-0.03,0.009-0.045c-0.106,0.519-0.203,1.041-0.302,1.563
				C335.96,73.948,335.99,73.795,336.019,73.642z"/>
			<path fill="none" d="M338.358,63.974c0.085-0.291,0.167-0.583,0.254-0.873c-0.117,0.391-0.234,0.783-0.347,1.176
				C338.294,64.175,338.326,64.075,338.358,63.974z"/>
			<path fill="none" d="M342.39,52.528c0.044-0.104,0.09-0.208,0.134-0.312c0.045-0.108,0.086-0.218,0.131-0.325
				C342.564,52.102,342.478,52.315,342.39,52.528z"/>
			<path fill="none" d="M343.656,49.607c0.108-0.239,0.222-0.475,0.331-0.713c0.034-0.074,0.065-0.149,0.099-0.222
				C343.943,48.983,343.798,49.294,343.656,49.607z"/>
			<path fill="none" d="M342.899,51.339c0.041-0.096,0.082-0.192,0.123-0.287c-0.107,0.245-0.218,0.488-0.322,0.734
				C342.764,51.636,342.835,51.489,342.899,51.339z"/>
			<path fill="none" d="M337.51,67.024c0.063-0.242,0.129-0.481,0.193-0.722C337.638,66.543,337.572,66.783,337.51,67.024z"/>
			<path fill="none" d="M335.376,77.291c0.035-0.219,0.07-0.438,0.106-0.657c-0.009,0.054-0.019,0.107-0.028,0.161
				C335.426,76.96,335.402,77.126,335.376,77.291z"/>
			<path fill="none" d="M336.019,73.642c0.016-0.082,0.031-0.165,0.048-0.247c-0.005,0.024-0.01,0.047-0.015,0.071
				C336.041,73.524,336.03,73.583,336.019,73.642z"/>
			<path fill="none" d="M334.69,82.292c-0.034,0.302-0.058,0.607-0.089,0.91C334.632,82.899,334.656,82.594,334.69,82.292z"/>
			<path fill="none" d="M336.756,70.115c0.029-0.127,0.056-0.254,0.085-0.382C336.812,69.861,336.785,69.988,336.756,70.115z"/>
			<path fill="none" d="M335.577,76.015c0.01-0.06,0.023-0.12,0.034-0.181c0.005-0.026,0.008-0.053,0.013-0.079
				c-0.026,0.151-0.053,0.301-0.078,0.452C335.556,76.144,335.566,76.079,335.577,76.015z"/>
			<path fill="none" d="M335.102,79.056c-0.005,0.033-0.011,0.066-0.015,0.099c0.006-0.048,0.015-0.097,0.021-0.146c0,0,0,0,0-0.001
				c-0.068,0.476-0.124,0.956-0.185,1.435C334.982,79.981,335.036,79.517,335.102,79.056z"/>
			<path fill="none" d="M352.667,69.325c-0.15,0.47-0.29,0.94-0.42,1.41c-0.01,0.01-0.135,0.02-0.135,0.03
				c-0.54,1.88-0.445,3.78-1.445,5.7c0,0.001,0,0.001,0,0.002c1-2.896,1.379-5.745,2.335-8.542
				C352.842,68.395,352.807,68.855,352.667,69.325z"/>
			<path fill="none" d="M350.307,80.315c-0.004,0.026,0.003,0.053,0.002,0.079c0.042-0.32,0.076-0.642,0.122-0.961
				C350.384,79.727,350.345,80.021,350.307,80.315z"/>
			<path fill="none" d="M347.333,42.235c-0.303,0.555-0.608,1.108-0.901,1.668C346.725,43.343,347.03,42.79,347.333,42.235z"/>
			<path fill="none" d="M349.517,38.395c-0.54,0.901-1.066,1.811-1.58,2.728C348.451,40.206,348.977,39.296,349.517,38.395z"/>
			<path fill="none" d="M341.277,55.309c0.007-0.019,0.015-0.038,0.022-0.057c0.16-0.416,0.324-0.831,0.489-1.244
				c-0.198,0.494-0.394,0.988-0.585,1.486C341.228,55.432,341.253,55.371,341.277,55.309z"/>
			<path fill="none" d="M339.583,60.032c-0.168,0.505-0.332,1.011-0.493,1.519C339.251,61.044,339.415,60.537,339.583,60.032z"/>
			<path fill="none" d="M317.667,47.895c-2.27,0-3,1.08-3,2.4v28.56c0,0.88,0.22,1.58,1.02,1.98c0.08,0.05,0.16,0.09,0.25,0.12
				c0.01,0,0.02,0.01,0.03,0.01c0.47,0.19,0.89,0.29,1.62,0.29c2.26,0,3.08-0.96,3.08-2.4v-21.57v-6.99
				C320.667,48.975,319.727,47.895,317.667,47.895z"/>
			<path fill="none" d="M340.643,57c-0.183,0.499-0.363,1-0.539,1.503C340.28,58,340.461,57.499,340.643,57z"/>
			<path fill="none" d="M345.506,45.726c-0.168,0.336-0.338,0.67-0.503,1.007c0.029-0.059,0.059-0.117,0.088-0.176
				c0.012-0.024,0.023-0.048,0.035-0.072C345.253,46.232,345.381,45.979,345.506,45.726z"/>
			<path fill="none" stroke="#FFFFFF" stroke-width="4" stroke-linecap="round" stroke-linejoin="round" d="M336.019,73.642
				c0.011-0.059,0.021-0.118,0.033-0.176"/>
			<path fill="#FFFFFF" d="M335.545,76.208c-0.033,0.195-0.06,0.392-0.092,0.588c0.009-0.054,0.019-0.107,0.028-0.161
				c0.044-0.266,0.083-0.534,0.129-0.8c-0.011,0.06-0.023,0.12-0.034,0.181C335.566,76.079,335.556,76.144,335.545,76.208z"/>
			<path fill="#FFFFFF" d="M335.102,79.056c0.002-0.016,0.004-0.031,0.006-0.047c-0.007,0.048-0.015,0.097-0.021,0.146
				C335.091,79.122,335.097,79.089,335.102,79.056z"/>
			<path fill="#FFFFFF" d="M282.667,47.295v32.63c1.49-16.51,5.47-32.3,11.56-47C286.827,36.205,282.667,41.225,282.667,47.295z"/>
			<path fill="#FFFFFF" d="M337.51,67.024c-0.063,0.244-0.12,0.491-0.182,0.736c0.13-0.518,0.262-1.035,0.4-1.549
				c-0.008,0.031-0.017,0.061-0.025,0.091C337.638,66.543,337.572,66.782,337.51,67.024z"/>
			<path fill="#FFFFFF" d="M345.127,46.485c-0.012,0.024-0.023,0.048-0.035,0.072c0.222-0.454,0.452-0.904,0.68-1.354
				c-0.088,0.174-0.178,0.348-0.265,0.523C345.381,45.979,345.253,46.232,345.127,46.485z"/>
			<path fill="#FFFFFF" d="M343.988,48.895c0.119-0.259,0.239-0.517,0.36-0.774c-0.087,0.184-0.175,0.367-0.261,0.552
				C344.053,48.746,344.022,48.821,343.988,48.895z"/>
			<path fill="#FFFFFF" d="M338.164,64.64c0.063-0.222,0.129-0.444,0.194-0.666c-0.031,0.101-0.063,0.201-0.093,0.303
				C338.23,64.397,338.198,64.519,338.164,64.64z"/>
			<path fill="#FFFFFF" d="M342.654,51.891c-0.045,0.107-0.086,0.218-0.131,0.325c0.123-0.293,0.25-0.585,0.376-0.877
				c-0.065,0.15-0.135,0.297-0.199,0.447C342.685,51.821,342.669,51.856,342.654,51.891z"/>
			<path fill="#FFFFFF" d="M336.756,70.115c-0.061,0.266-0.114,0.535-0.173,0.801c0.115-0.521,0.229-1.041,0.351-1.559
				c-0.03,0.126-0.064,0.25-0.093,0.376C336.812,69.861,336.785,69.988,336.756,70.115z"/>
			<path fill="#FFFFFF" d="M341.3,55.253c-0.007,0.019-0.015,0.038-0.022,0.057C341.285,55.29,341.292,55.272,341.3,55.253z"/>
			<path fill="#FFFFFF" d="M336.052,73.466c0.005-0.024,0.01-0.047,0.015-0.071c0.053-0.27,0.102-0.542,0.157-0.811
				c-0.022,0.107-0.046,0.215-0.067,0.322C336.119,73.091,336.089,73.279,336.052,73.466z"/>
			<path fill="#D9E021" d="M350.916,76.467c-0.19,0.969-0.35,1.939-0.48,2.918c-0.003,0.016-0.004,0.032-0.007,0.048
				c-0.046,0.319-0.08,0.641-0.122,0.961c-0.007,0.186,0.036,0.378,0.018,0.571c-0.411,3.389-0.647,6.835-0.656,10.33
				c2.416-2.498,3.812-5.412,3.976-8.65c0.01-0.22,0.02-0.44,0.02-0.67v-15.55c-0.19,0.5-0.37,1-0.54,1.5
				C352.171,70.722,351.454,73.571,350.916,76.467z"/>
			<path fill="#0071BC" d="M314.667,28.755v-0.01c-8.09,0.02-14.87,1.74-20.22,4.07c-0.07,0.03-0.15,0.07-0.22,0.11
				c-6.09,14.7-10.07,30.49-11.56,47v2.05c0,0.43-0.14,0.85-0.11,1.27c0.68,6.6,6.6,11.89,16.11,14.84
				c0.01-1.15,0.06-2.32,0.06-3.48C298.727,70.895,304.667,48.505,314.667,28.755z"/>
			<path fill="#662D91" d="M315.087,94.705c0-4.65,0.58-9.22,0.58-13.74v-0.01c0.01-0.04,0.01-0.08,0.02-0.12
				c-0.8-0.4-1.02-1.1-1.02-1.98v-28.56c0-1.32,0.73-2.4,3-2.4c2.06,0,3,1.08,3,2.4v6.99c0.15-0.35,0.33-0.7,0.44-1.05
				c2.88-9.2,6.77-17.94,11.54-26.12c0-0.01,0.01-0.01,0.01-0.02c-4.38-0.92-9.39-1.439-14.8-1.439c-1.01,0-2.03,0.011-3.01,0.011
				h-0.18v0.088c-10,19.75-15.94,42.14-15.94,65.85c0,1.16-0.05,2.33-0.06,3.48c0.12,0.04,0.25,0.08,0.38,0.12
				c0.03,0,0.05,0.05,0.08,0.06c4.65,1.42,10.1,2.47,16.19,2.48c-0.01-0.03-0.01-0.06-0.01-0.09
				C315.207,98.685,315.087,96.705,315.087,94.705z"/>
			<path fill="#ED1E79" d="M334.147,88.965c0.098-1.936,0.257-3.855,0.454-5.763c0.031-0.303,0.055-0.608,0.089-0.91
				c0.069-0.619,0.154-1.233,0.233-1.849c0.062-0.478,0.117-0.958,0.185-1.435c0.082-0.575,0.177-1.146,0.268-1.718
				c0.026-0.165,0.05-0.331,0.077-0.496c0.032-0.196,0.059-0.393,0.092-0.588c0.026-0.151,0.052-0.301,0.078-0.452
				c0.096-0.554,0.203-1.104,0.308-1.655c0.099-0.522,0.195-1.044,0.302-1.563c0.111-0.543,0.231-1.082,0.351-1.622
				c0.059-0.267,0.112-0.535,0.173-0.801c0.029-0.127,0.056-0.255,0.085-0.382c0.029-0.126,0.063-0.25,0.093-0.376
				c0.126-0.534,0.26-1.066,0.394-1.597c0.062-0.245,0.118-0.492,0.182-0.736c0.063-0.241,0.129-0.481,0.193-0.722
				c0.008-0.031,0.017-0.061,0.025-0.091c0.141-0.526,0.288-1.049,0.436-1.571c0.034-0.121,0.066-0.242,0.101-0.363
				c0.113-0.393,0.23-0.784,0.347-1.176c0.156-0.518,0.316-1.035,0.479-1.55c0.161-0.508,0.325-1.014,0.493-1.519
				c0.17-0.512,0.343-1.022,0.521-1.53c0.176-0.503,0.356-1.003,0.539-1.503c0.184-0.503,0.37-1.006,0.561-1.506
				c0.19-0.498,0.387-0.992,0.585-1.486c0.198-0.495,0.396-0.99,0.6-1.481c0.089-0.212,0.175-0.425,0.265-0.637
				c0.015-0.035,0.031-0.069,0.046-0.104c0.105-0.246,0.216-0.489,0.322-0.734c0.21-0.483,0.418-0.966,0.634-1.445
				c0.141-0.313,0.286-0.624,0.43-0.935c0.086-0.185,0.174-0.368,0.261-0.552c0.218-0.463,0.432-0.928,0.656-1.387
				c0.164-0.338,0.335-0.672,0.503-1.007c0.087-0.175,0.177-0.348,0.265-0.523c0.22-0.433,0.435-0.869,0.66-1.299
				c0.293-0.56,0.598-1.114,0.901-1.668c0.202-0.37,0.398-0.744,0.604-1.112c0.514-0.917,1.04-1.827,1.58-2.728
				c0.03-0.04,0.05-0.06,0.07-0.09c-3.52-3.81-9.4-6.63-16.84-8.19c-0.03-0.01-0.06-0.01-0.09-0.02c0,0.01-0.01,0.01-0.01,0.02
				c-4.77,8.18-8.66,16.92-11.54,26.12c-0.11,0.35-0.29,0.7-0.44,1.05v21.57c0,1.44-0.82,2.4-3.08,2.4c-0.73,0-1.15-0.1-1.62-0.29
				c-0.01,0-0.02-0.01-0.03-0.01c-0.09-0.03-0.17-0.07-0.25-0.12c-0.01,0.04-0.01,0.08-0.02,0.12v0.01c0,4.52-0.58,9.09-0.58,13.74
				c0,2,0.12,3.941,0.22,5.911c0,0.03,0,0.051,0.01,0.051h2.51c6.05,0,11.52-0.601,16.26-1.751c-0.01-0.14-0.01-0.25-0.01-0.38
				c0-0.07-0.01-0.14-0.01-0.21c-0.05-1.01-0.07-2.475-0.07-3.725C333.997,92.71,334.047,90.835,334.147,88.965z"/>
			<path fill="#FF931E" d="M349.717,38.435c-0.04-0.04-0.07-0.09-0.11-0.13l-0.01-0.01l-0.01,0.01c-0.02,0.03-0.04,0.05-0.07,0.09
				c-0.54,0.901-1.065,1.811-1.58,2.728c-0.206,0.368-0.402,0.742-0.604,1.112c-0.303,0.555-0.608,1.108-0.901,1.668
				c-0.225,0.43-0.44,0.866-0.66,1.299c-0.228,0.451-0.458,0.9-0.68,1.354c-0.029,0.059-0.059,0.117-0.088,0.176
				c-0.224,0.46-0.438,0.924-0.656,1.387c-0.121,0.258-0.241,0.516-0.36,0.774c-0.11,0.238-0.223,0.474-0.331,0.713
				c-0.216,0.479-0.424,0.962-0.634,1.445c-0.041,0.095-0.082,0.191-0.123,0.287c-0.126,0.292-0.253,0.584-0.376,0.877
				c-0.044,0.104-0.09,0.207-0.134,0.312c-0.205,0.491-0.403,0.986-0.6,1.481c-0.165,0.414-0.329,0.828-0.489,1.244
				c-0.007,0.019-0.015,0.038-0.022,0.057c-0.024,0.062-0.049,0.123-0.073,0.185c-0.191,0.5-0.377,1.002-0.561,1.506
				c-0.183,0.499-0.363,1-0.539,1.503c-0.178,0.508-0.351,1.018-0.521,1.53c-0.168,0.505-0.332,1.011-0.493,1.519
				c-0.163,0.515-0.323,1.031-0.479,1.55c-0.087,0.29-0.169,0.582-0.254,0.873c-0.065,0.222-0.131,0.443-0.194,0.666
				c-0.148,0.523-0.295,1.046-0.436,1.571c-0.138,0.515-0.269,1.032-0.4,1.549c-0.134,0.531-0.268,1.063-0.394,1.597
				c-0.122,0.518-0.236,1.039-0.351,1.559c-0.119,0.54-0.239,1.079-0.351,1.622c-0.003,0.015-0.006,0.03-0.009,0.045
				c-0.055,0.269-0.104,0.541-0.157,0.811c-0.016,0.082-0.032,0.165-0.048,0.247c-0.03,0.153-0.06,0.306-0.089,0.459
				c-0.104,0.551-0.212,1.101-0.308,1.655c-0.005,0.026-0.008,0.053-0.013,0.079c-0.046,0.266-0.085,0.534-0.129,0.8
				c-0.036,0.219-0.071,0.438-0.106,0.657c-0.091,0.572-0.186,1.143-0.268,1.718c0,0,0,0,0,0.001
				c-0.002,0.016-0.004,0.031-0.006,0.047c-0.065,0.461-0.12,0.925-0.179,1.388c-0.079,0.616-0.164,1.23-0.233,1.849
				c-0.034,0.302-0.057,0.607-0.089,0.91c-0.197,1.908-0.356,3.827-0.454,5.763c-0.1,1.87-0.15,3.75-0.15,5.64
				c0,1.25,0.02,2.681,0.07,3.691c0.01,0.15,0.01,0.371,0.02,0.371h0.01c6.51-1,11.57-3.832,15.57-7.122v-0.01v-0.01v-0.01
				c0-0.074,0.003-0.147,0.004-0.22c0.01-3.494,0.245-6.941,0.656-10.33c0.018-0.193-0.026-0.385-0.018-0.571
				c0.001-0.026-0.005-0.053-0.002-0.079c0.038-0.294,0.077-0.588,0.123-0.882c0.003-0.016-0.121-0.032-0.118-0.048
				c0.13-0.979,0.355-1.949,0.355-2.918c0-0.001,0-0.001,0-0.002c1-1.92,0.905-3.82,1.445-5.7c0-0.01,0.063-0.02,0.073-0.03
				c0.13-0.47,0.301-0.94,0.451-1.41c0.14-0.47,0.316-0.93,0.476-1.4c0.17-0.5,0.366-1,0.556-1.5v-18.53
				C353.667,44.315,352.147,41.125,349.717,38.435z"/>
		</g>
		<g>
			<path fill="#662D91" d="M175.257,27.667h-8.27c-0.82,0-1.32,0.23-1.32,0.83v7.71C168.617,33.107,171.827,30.237,175.257,27.667z"
				/>
			<path fill="#0071BC" d="M131.317,27.667c-1.03,0-1.65,0.35-1.65,1.07v38.39c3.6-14.82,10.69-28.29,20.35-39.46H131.317z"/>
			<path fill="#D9E021" d="M180.337,89.597c0,3.45,0.42,7.07,1.22,10.07h12.45c1.03,0,1.66-0.5,1.66-0.98v-41.28
				C186.667,64.987,180.337,76.627,180.337,89.597z"/>
			<path fill="#662D91" d="M158.667,44.687v-16.19c0-0.6-0.34-0.83-1.37-0.83h-7.28c-9.66,11.17-16.75,24.64-20.35,39.46v19.92
				c0,7.08,7.77,11.09,15.27,12.18c-0.4-3.18-0.6-6.41-0.6-9.7C144.337,72.807,149.637,57.337,158.667,44.687z"/>
			<path fill="#ED1E79" d="M193.797,27.667h-18.54c-3.43,2.57-6.64,5.44-9.59,8.54v38.12c0,1.8-1.85,2.4-3.5,2.4
				c-1.44,0-3.5-0.6-3.5-2.4v-29.64c-9.03,12.65-14.33,28.12-14.33,44.84c0,3.29,0.2,6.52,0.6,9.7c1.4,0.2,2.78,0.3,4.11,0.3
				c7.43,0,10.93-1.03,14.64-3.07c1.24-0.72,1.86-0.79,2.27-0.79h0.05c-0.02-0.11-0.03-0.23-0.04-0.34c-0.2-1.9-0.3-3.84-0.3-5.8
				c0-21.53,12.16-40.23,29.99-49.6c0,0,0.01,0,0.01-0.01v-11.54C195.667,27.897,194.827,27.667,193.797,27.667z"/>
			<path fill="#FF931E" d="M165.667,89.527c0,1.96,0.1,3.9,0.3,5.8c0.01,0.11,0.02,0.23,0.04,0.34c1.23,0.08,2.44,4,3.66,4h11.89
				c-0.8-3-1.22-6.62-1.22-10.07c0-12.97,6.33-24.61,15.33-32.19v-17.49c0,0.01-0.01,0.01-0.01,0.01
				C177.827,49.297,165.667,67.997,165.667,89.527z"/>
		</g>
	</g>
</g>
</svg>
