<?xml version="1.0" encoding="utf-8"?>
<!-- Generator: Adobe Illustrator 17.0.0, SVG Export Plug-In . SVG Version: 6.00 Build 0)  -->
<!DOCTYPE svg PUBLIC "-//W3C//DTD SVG 1.1//EN" "http://www.w3.org/Graphics/SVG/1.1/DTD/svg11.dtd">
<svg version="1.1" xmlns="http://www.w3.org/2000/svg" xmlns:xlink="http://www.w3.org/1999/xlink" x="0px" y="0px" width="440px"
	 height="109.467px" viewBox="0 0 440 109.467" enable-background="new 0 0 440 109.467" xml:space="preserve">
<g id="Layer_1">
	<linearGradient id="SVGID_1_" gradientUnits="userSpaceOnUse" x1="198.6667" y1="484.6667" x2="198.6667" y2="-315.3333">
		<stop  offset="0" style="stop-color:#D4145A"/>
		<stop  offset="0.0404" style="stop-color:#CB165E"/>
		<stop  offset="0.2333" style="stop-color:#A71E70"/>
		<stop  offset="0.427" style="stop-color:#8B257F"/>
		<stop  offset="0.6199" style="stop-color:#762989"/>
		<stop  offset="0.8113" style="stop-color:#6A2C8F"/>
		<stop  offset="1" style="stop-color:#662D91"/>
	</linearGradient>
	<rect x="-201.333" y="-315.333" fill="url(#SVGID_1_)" width="800" height="800"/>
</g>
<g id="Layer_2">
	<g>
		<polygon fill="#FF931E" points="-333.333,46.945 -333.333,-11.391 -383.857,17.79 -364.965,28.71 		"/>
		<polygon fill="#ED1E79" points="-333.333,56.644 -353.207,44.949 -387.333,25.596 -387.333,88.72 -333.333,120.781 		"/>
		<polygon fill="#ED1E79" points="-272.333,93.008 -325.333,62.189 -325.333,124.685 -272.333,156.746 		"/>
		<polygon fill="#D9E021" points="-263.333,98.303 -263.333,156.76 -212.55,127.669 		"/>
		<polygon fill="#FF931E" points="-322.505,-18.175 -303.613,-7.255 -268.097,13.219 -212.451,-18.765 -266.967,-50.252 		"/>
		<polygon fill="#ED1E79" points="-272.333,84.816 -272.333,20.679 -291.707,8.984 -325.333,-10.369 -325.333,52.755 		"/>
		<polygon fill="#FF931E" points="-204.557,-14.287 -260.095,17.79 -241.203,28.71 -205.271,49.424 -148.971,17.818 		"/>
		<path fill="#FFFFFF" d="M-139.245,14.39l-61.903-35.766c-0.099-0.069-0.198-0.139-0.302-0.199l-63.445-36.598
			c-1.213-0.7-2.713-0.7-3.926,0l-62.993,36.598c-0.398,0.23-0.691,0.529-0.915,0.869l-60.739,35.096
			c-1.212,0.7-1.866,1.994-1.866,3.394v0.047c0,0,0,0,0,0.001c0,0,0,0.001,0,0.001V90.98c0,1.399,0.611,2.692,1.821,3.392
			l60.942,35.347c0.196,0.237,0.436,0.446,0.734,0.618l62.937,36.598c0.607,0.351,3.269,0.352,3.875,0.003
			c0.053-0.031,0.061-0.069,0.112-0.102l63.462-36.496c0.28-0.162,0.541-0.358,0.781-0.577l61.38-35.388
			c1.214-0.7,1.956-1.994,1.956-3.396V17.972v-0.187C-137.333,16.384-138.033,15.091-139.245,14.39z M-325.333-10.369l33.627,19.353
			l19.373,11.695v64.137l-53-32.061V-10.369z M-263.333,88.72v-3.89V25.596l33.627,19.353l19.373,11.695v64.137L-263.333,88.72z
			 M-205.271,49.424l-35.932-20.715l-18.892-10.919l55.538-32.077l55.586,32.105L-205.271,49.424z M-266.967-50.252l54.516,31.487
			l-55.646,31.985l-35.516-20.475l-18.892-10.919L-266.967-50.252z M-333.333-11.391v58.336l-31.632-18.236l-18.892-10.919
			L-333.333-11.391z M-387.333,25.596l34.127,19.353l19.873,11.695v64.137l-54-32.061V25.596z M-325.333,124.685V62.189l53,30.82
			v63.738L-325.333,124.685z M-263.333,98.303l50.783,29.366l-50.783,29.091V98.303z M-145.333,88.715l-54,32.08V56.705l54-31.962
			V88.715z"/>
		<polygon fill="#ED1E79" points="-210.333,56.644 -229.707,44.949 -263.333,25.596 -263.333,84.83 -263.333,88.72 
			-210.333,120.781 		"/>
		<polygon fill="#D9E021" points="-199.333,120.795 -145.333,88.715 -145.333,24.742 -199.333,56.705 		"/>
	</g>
	<g>
		<path fill="#FFFFFF" d="M123.487,101.649H95.855c-1.881,0-3.355-1.239-3.355-2.82V50.231c0-0.92-1.258-1.02-1.799-1.02
			s-1.8,0.1-1.8,1.02v48.718c0,1.344-1.038,2.7-3.355,2.7H57.294c-2.318,0-3.355-1.296-3.355-2.58V50.111c0-0.744-0.979-0.9-1.8-0.9
			c-0.821,0-1.799,0.156-1.799,0.9v49.199c0,1.165-0.974,2.34-3.149,2.34H18.94c-1.706,0-2.943-1.034-2.943-2.46V29.112
			c0-1.402,1.443-2.46,3.356-2.46h27.013c1.748,0,2.706,1.778,3.632,3.497c0.265,0.492,0.68,1.262,0.961,1.618
			c0.223-0.069,0.567-0.241,1.146-0.646c4.289-2.808,10.377-4.47,16.325-4.47c6.982,0,12.562,1.557,16.583,4.628
			c1.083,0.882,1.544,0.892,1.563,0.892c0.239,0,0.976-0.225,1.592-0.673l0.158-0.101c4.257-2.347,9.681-4.747,17.633-4.747
			c11.515,0,20.884,6.271,20.884,13.979v58.198C126.843,100.187,125.793,101.649,123.487,101.649z M95.499,98.585
			c0.076,0.032,0.196,0.064,0.355,0.064h27.632c0.16,0,0.277-0.017,0.356-0.036V40.631c0-5.952-8.19-10.979-17.884-10.979
			c-7.208,0-12.005,2.076-16.108,4.332c-1.028,0.724-2.303,1.188-3.275,1.188c-1.033,0-2.152-0.503-3.421-1.538
			c-3.449-2.633-8.415-3.982-14.724-3.982c-7.983,0-13.227,3.027-14.644,3.955c-1.214,0.849-2.12,1.205-3.09,1.205
			c-1.593,0-2.441-1.573-3.339-3.239c-0.33-0.612-0.864-1.604-1.194-1.92h-26.81c-0.141,0-0.26,0.016-0.356,0.037v68.96h28.194
			c0.054,0,0.104-0.002,0.149-0.004V50.111c0-2.369,1.884-3.9,4.799-3.9c2.916,0,4.8,1.531,4.8,3.9v48.514
			c0.093,0.014,0.211,0.024,0.355,0.024h28.251c0.153,0,0.27-0.011,0.355-0.023V50.231c0-2.404,1.929-4.02,4.8-4.02
			c2.87,0,4.799,1.616,4.799,4.02V98.585z"/>
	</g>
	<path fill="#FFFFFF" d="M133.588,29.352c0-0.72,0.619-1.2,1.649-1.2h25.982c1.031,0,1.649,0.36,1.649,0.96V74.95
		c0,1.8,1.856,2.399,3.3,2.399c1.649,0,3.299-0.6,3.299-2.399V29.112c0-0.6,0.619-0.96,1.443-0.96h26.808
		c1.03,0,1.855,0.36,1.855,0.84v70.317c0,0.48-0.618,0.84-1.649,0.84h-24.333c-1.237,0-2.474-4.2-3.711-4.2
		c-0.413,0-1.031,0.24-2.269,0.96c-3.712,2.04-7.218,3.24-14.641,3.24c-8.455,0-19.384-4.08-19.384-12.479V29.352z"/>
	<g>
		<path fill="#FFFFFF" d="M255.825,101.649c-4.78,0-9.31-0.81-12.755-2.28c-0.879-0.425-1.322-0.607-1.547-0.68
			c-0.323,0.23-0.878,0.789-1.23,1.143c-1.01,1.016-1.807,1.817-2.82,1.817h-25.981c-1.614,0-3.356-0.986-3.356-2.58V9.312
			c0-1.225,1.038-2.46,3.356-2.46h26.806c1.851,0,3.355,1.211,3.355,2.7v19.951c0.072-0.042,0.146-0.085,0.22-0.128
			c3.148-1.833,7.24-2.724,12.509-2.724c5.866,0,25.008,1.77,25.008,24.539V76.27C279.389,97.246,266.575,101.649,255.825,101.649z
			 M241.39,95.649c0.748,0,1.538,0.319,2.923,0.99c2.971,1.267,7.19,2.01,11.512,2.01c13.646,0,20.564-7.529,20.564-22.379V51.191
			c0-19.44-15.391-21.539-22.008-21.539c-4.724,0-8.321,0.758-10.999,2.316c-1.194,0.695-1.793,1.043-2.61,1.043
			c-1.042,0-2.119-0.92-2.119-2.46V9.913c-0.085-0.031-0.205-0.06-0.355-0.06h-26.806c-0.141,0-0.26,0.01-0.356,0.024v88.709
			c0.109,0.036,0.24,0.063,0.356,0.063h25.693c0.251-0.198,0.682-0.631,0.981-0.933C239.269,96.607,240.222,95.649,241.39,95.649z
			 M244.071,83.289c-0.739,0-2.158-0.176-3.06-0.816c-1.944-0.973-2.358-2.468-2.358-3.564V50.231c0-2.634,2.329-4.62,5.418-4.62
			c2.872,0,4.181,1.959,4.181,3.78V79.51C248.251,82.798,245.632,83.289,244.071,83.289z M244.071,48.611
			c-1.401,0-2.418,0.681-2.418,1.62V78.91c0,0.221,0,0.556,0.783,0.921l0.191,0.089l0.159,0.138c0.105,0.06,0.69,0.231,1.284,0.231
			c1.181,0,1.181-0.181,1.181-0.78V49.391C245.251,49.178,245.251,48.611,244.071,48.611z"/>
	</g>
	<path fill="#FFFFFF" d="M283.868,46.751c0-11.04,14.229-18.599,35.468-18.599s35.468,7.439,35.468,19.199V81.43
		c0,11.16-14.229,18.719-35.468,18.719c-21.033,0-35.468-7.68-35.468-18.719V46.751z M316.037,78.31c0,1.439,1.03,2.399,3.299,2.399
		s3.3-0.96,3.3-2.399V49.751c0-1.32-1.237-2.4-3.3-2.4c-2.269,0-3.299,1.08-3.299,2.4V78.31z"/>
	<path fill="#FFFFFF" d="M374.805,64.27c0.412-0.6,0.412-0.84,0.206-1.44l-19.59-33.719c-0.206-0.48,0.206-0.96,0.825-0.96h30.106
		c0.824,0,1.443,0.36,1.649,0.96l3.918,9.12c0,0.12,0.206,0.36,0.412,0.36l0.412-0.48l3.918-9c0.207-0.6,1.031-0.96,1.65-0.96
		h29.693c0.825,0,1.443,0.6,1.237,1.08L409.86,62.951c-0.206,0.36-0.412,0.72-0.412,0.96c0,0.24,0.206,0.72,0.412,0.96
		l19.178,34.198c0.206,0.601-0.619,1.08-1.443,1.08H397.9c-0.824,0-1.443-0.36-1.649-0.96l-3.506-9.479
		c0-0.24-0.206-0.48-0.412-0.48l-0.412,0.48l-3.094,9.479c-0.206,0.6-0.824,0.96-1.649,0.96h-31.137c-0.619,0-1.031-0.36-0.825-0.84
		L374.805,64.27z"/>
	<g>
		<path fill="#FFFFFF" d="M112.488,216.179c-1.145-1.209-2.53-2.5-4.155-3.163c-1.626-0.664-3.453-1.349-5.482-1.349H92.667v28
			h10.183c2.029,0,3.856-0.34,5.482-1.043c1.625-0.702,3.011-1.659,4.155-2.882c1.145-1.222,2.029-2.656,2.653-4.309
			c0.625-1.651,0.937-3.438,0.937-5.364c0-2.028-0.312-3.881-0.937-5.559C114.517,218.832,113.632,217.389,112.488,216.179z"/>
		<polygon fill="#FFFFFF" points="122.667,239.667 139.667,239.667 139.667,233.667 127.667,233.667 127.667,228.667 
			136.667,228.667 136.667,222.667 127.667,222.667 127.667,217.667 139.667,217.667 139.667,211.667 122.667,211.667 		"/>
		<path fill="#FFFFFF" d="M160.735,220.351c-1.235,2.797-2.465,5.41-3.688,8.193l-7.452-16.877h-5.932l12.292,28h2.263l12.174-28
			h-5.931C163.212,214.667,161.97,217.555,160.735,220.351z"/>
		<polygon fill="#FFFFFF" points="174.667,228.361 174.667,239.667 192.667,239.667 192.667,233.667 180.667,233.667 
			180.667,228.667 188.667,228.667 188.667,222.667 181.099,222.667 180.667,222.667 180.667,217.667 188.337,217.667 
			192.667,217.667 192.667,214.767 192.667,211.667 174.667,211.667 		"/>
		<polygon fill="#FFFFFF" points="204.667,211.667 198.667,211.667 198.667,239.667 215.667,239.667 215.667,233.667 
			204.667,233.667 		"/>
		<path fill="#FFFFFF" d="M240.492,216.433c-1.263-1.223-2.719-2.172-4.37-2.849c-1.652-0.676-3.35-1.015-5.093-1.015
			c-1.977,0-3.798,0.378-5.463,1.132c-1.665,0.755-3.108,1.763-4.331,3.024s-2.179,2.725-2.868,4.39s-1.033,3.395-1.033,5.189
			c0,2.081,0.39,3.961,1.17,5.639s1.814,3.108,3.103,4.292c1.287,1.184,2.751,2.101,4.39,2.751s3.316,0.976,5.033,0.976
			c1.977,0,3.805-0.377,5.482-1.132c1.678-0.754,3.122-1.769,4.331-3.044c1.21-1.273,2.152-2.731,2.829-4.37
			c0.676-1.639,1.015-3.342,1.015-5.111c0-2.003-0.384-3.844-1.151-5.521S241.752,217.656,240.492,216.433z"/>
		<path fill="#FFFFFF" d="M268.547,214.853c-0.768-0.767-1.658-1.726-2.673-2.169s-2.095-1.017-3.239-1.017h-11.968v28h6v-11h5.969
			c1.145,0,2.23,0.081,3.259-0.362c1.027-0.441,1.925-0.889,2.692-1.644c0.767-0.754,1.371-1.576,1.814-2.617
			c0.441-1.04,0.663-2.108,0.663-3.279c0-1.17-0.229-2.244-0.683-3.258C269.925,216.492,269.314,215.621,268.547,214.853z"/>
		<polygon fill="#FFFFFF" points="276.667,226.638 276.667,239.667 293.667,239.667 293.667,233.667 281.667,233.667 
			281.667,228.667 290.667,228.667 290.667,222.667 281.667,222.667 281.667,217.667 292.558,217.667 293.667,217.667 
			293.667,217.137 293.667,211.667 276.667,211.667 		"/>
		<path fill="#FFFFFF" d="M319.252,225.427c0.885-1.365,1.327-2.907,1.327-4.624c0-1.17-0.229-2.263-0.683-3.277
			c-0.456-1.015-1.067-1.905-1.834-2.673c-0.131-0.131-0.271-0.251-0.41-0.373c-0.671-0.59-1.423-1.429-2.263-1.796
			c-1.015-0.442-2.095-1.017-3.239-1.017h-11.484v3.699v24.301h5v-11h4.104l7.414,11h6.633l-8.038-11.226
			C317.21,227.79,318.368,226.792,319.252,225.427z"/>
		<path fill="#FFFFFF" d="M345.102,229.095c-0.273-0.793-0.735-1.535-1.386-2.225c-0.65-0.688-1.509-1.339-2.575-1.95
			s-2.38-1.216-3.94-1.814c-0.547-0.182-1.067-0.377-1.561-0.586c-0.495-0.208-0.931-0.435-1.308-0.683
			c-0.377-0.247-0.677-0.52-0.897-0.819c-0.222-0.299-0.332-0.631-0.332-0.995c0-0.696,0.242-1.243,0.698-1.659
			c0.072-0.066,0.135-0.136,0.219-0.195c0.541-0.379,1.281-0.581,2.198-0.625c0.12-0.006,0.231-0.019,0.357-0.019
			c0.599,0,1.184,0.104,1.756,0.313s1.08,0.429,1.522,0.663c0.52,0.286,1.027,0.599,1.521,0.937l3.355-4.215
			c-0.442-0.39-0.995-0.773-1.658-1.15s-1.372-0.709-2.126-0.995c-0.755-0.286-1.529-0.521-2.322-0.702
			c-0.794-0.182-1.541-0.273-2.243-0.273c-1.302,0-2.491,0.202-3.57,0.604c-0.803,0.3-1.518,0.687-2.148,1.158
			c-0.218,0.163-0.426,0.336-0.623,0.519c-0.658,0.614-1.179,1.33-1.579,2.135c-0.066,0.133-0.137,0.264-0.196,0.402
			c-0.417,0.975-0.624,2.022-0.624,3.141c0,1.093,0.188,2.056,0.565,2.888c0.377,0.833,0.91,1.574,1.6,2.224
			c0.689,0.65,1.502,1.217,2.438,1.697c0.937,0.482,1.951,0.931,3.044,1.347c0.937,0.364,1.717,0.709,2.341,1.034
			c0.625,0.325,1.112,0.631,1.464,0.917c0.351,0.286,0.598,0.553,0.741,0.8c0.143,0.247,0.215,0.475,0.215,0.683
			c0,0.546-0.117,1.002-0.352,1.365c-0.234,0.365-0.533,0.658-0.897,0.879s-0.768,0.384-1.21,0.487
			c-0.442,0.104-0.885,0.156-1.326,0.156c-0.521,0-1.067-0.104-1.639-0.313c-0.573-0.208-1.119-0.461-1.64-0.761
			c-0.521-0.299-0.981-0.611-1.385-0.937s-0.696-0.604-0.878-0.839l-4.058,3.746c0.207,0.234,0.585,0.439,1.131,0.96
			c0.547,0.521,1.171,1.271,1.873,1.271h-0.039c0.988,1,2.042,1.278,3.161,1.616c1.118,0.338,2.275,0.594,3.473,0.594
			c1.326,0,2.556-0.172,3.688-0.602c1.131-0.429,2.106-0.992,2.926-1.734c0.819-0.741,1.464-1.608,1.932-2.623
			c0.469-1.015,0.702-2.088,0.702-3.233C345.511,230.748,345.375,229.889,345.102,229.095z"/>
	</g>
	<g>
		<path fill="none" d="M236.863,256.394c-0.768-0.768-1.652-1.372-2.653-1.814c-1.002-0.442-2.063-0.664-3.181-0.664
			c-1.17,0-2.263,0.222-3.277,0.664s-1.899,1.047-2.653,1.814c-0.755,0.768-1.353,1.658-1.795,2.673s-0.663,2.094-0.663,3.238
			s0.221,2.225,0.663,3.238c0.442,1.015,1.04,1.899,1.795,2.653c0.754,0.755,1.645,1.347,2.673,1.775
			c1.027,0.43,2.113,0.645,3.258,0.645s2.218-0.221,3.22-0.664c1.001-0.441,1.879-1.04,2.634-1.795
			c0.754-0.754,1.352-1.632,1.795-2.634c0.441-1.001,0.663-2.074,0.663-3.219s-0.222-2.224-0.663-3.238
			C238.234,258.052,237.629,257.162,236.863,256.394z"/>
		<path fill="none" d="M108.43,256.238c-0.702-0.741-1.528-1.413-2.478-1.842c-0.95-0.43-1.984-0.729-3.103-0.729h-4.183v16h4.183
			c1.118,0,2.152,0.091,3.103-0.325c0.949-0.416,1.775-0.845,2.478-1.587s1.248-1.538,1.639-2.539
			c0.39-1.001,0.585-2.037,0.585-3.182c0-1.145-0.195-2.198-0.585-3.2C109.678,257.832,109.132,256.979,108.43,256.238z"/>
		<path fill="none" d="M311.136,253.667h-5.469v6h5.469c1.379,0,2.394-0.196,3.044-0.807c0.649-0.611,0.976-1.278,0.976-2.111
			c0-0.832-0.326-1.58-0.976-2.165C313.53,253.998,312.515,253.667,311.136,253.667z"/>
		<path fill="none" d="M261.621,253.667h-4.954v6h4.954c1.379,0,2.394-0.196,3.044-0.807s0.976-1.278,0.976-2.111
			c0-0.832-0.325-1.58-0.976-2.165C264.014,253.998,262.999,253.667,261.621,253.667z"/>
		<path fill="#ED1E79" d="M112.488,252.179c-1.145-1.209-2.53-2.5-4.155-3.163c-1.626-0.664-3.453-1.349-5.482-1.349H92.667v28
			h10.183c2.029,0,3.856-0.34,5.482-1.043c1.625-0.702,3.011-1.658,4.155-2.882c1.145-1.222,2.029-2.656,2.653-4.309
			c0.625-1.651,0.937-3.438,0.937-5.364c0-2.028-0.312-3.881-0.937-5.559C114.517,254.832,113.632,253.389,112.488,252.179z
			 M110.069,265.29c-0.391,1.001-0.937,1.873-1.639,2.614s-1.528,1.021-2.478,1.437c-0.95,0.416-1.984,0.325-3.103,0.325h-4.183v-16
			h4.183c1.118,0,2.152,0.3,3.103,0.729c0.949,0.429,1.775,1.058,2.478,1.799c0.702,0.741,1.248,1.635,1.639,2.636
			c0.39,1.002,0.585,2.085,0.585,3.229C110.654,263.206,110.458,264.289,110.069,265.29z"/>
		<polygon fill="#ED1E79" points="122.667,275.667 139.667,275.667 139.667,269.667 127.667,269.667 127.667,264.667 
			136.667,264.667 136.667,258.667 127.667,258.667 127.667,253.667 139.667,253.667 139.667,247.667 122.667,247.667 		"/>
		<path fill="#ED1E79" d="M160.735,256.351c-1.235,2.797-2.465,5.41-3.688,8.193l-7.452-16.877h-5.932l12.292,28h2.263l12.174-28
			h-5.931C163.212,250.667,161.97,253.555,160.735,256.351z"/>
		<path fill="#ED1E79" d="M174.667,264.361c2-1.744,4.438-3.695,6.433-5.695h-0.433v-5h7.67c1.475-1,2.33-1.92,4.33-2.9v-3.1h-18
			V264.361z"/>
		<path fill="#FF931E" d="M192.667,253.667v-2.9c-2,0.98-2.855,1.9-4.33,2.9H192.667z"/>
		<path fill="#FF931E" d="M174.667,275.667h18v-6h-12v-5h8v-6h-7.567c-1.994,2-4.433,3.951-6.433,5.695V275.667z"/>
		<polygon fill="#FF931E" points="204.667,247.667 198.667,247.667 198.667,275.667 215.667,275.667 215.667,269.667 
			204.667,269.667 		"/>
		<path fill="#FF931E" d="M240.492,252.433c-1.263-1.223-2.719-2.172-4.37-2.849c-1.652-0.676-3.35-1.015-5.093-1.015
			c-1.977,0-3.798,0.378-5.463,1.132c-1.665,0.755-3.108,1.763-4.331,3.024s-2.179,2.725-2.868,4.39
			c-0.689,1.665-1.033,3.395-1.033,5.189c0,2.081,0.39,3.961,1.17,5.639s1.814,3.108,3.103,4.292
			c1.287,1.184,2.751,2.101,4.39,2.751s3.316,0.976,5.033,0.976c1.977,0,3.805-0.377,5.482-1.132
			c1.678-0.754,3.122-1.769,4.331-3.044c1.21-1.273,2.152-2.731,2.829-4.37c0.676-1.639,1.015-3.342,1.015-5.111
			c0-2.003-0.384-3.844-1.151-5.521C242.767,255.106,241.752,253.656,240.492,252.433z M238.677,265.524
			c-0.443,1.002-1.041,1.88-1.795,2.634c-0.755,0.755-1.633,1.354-2.634,1.795c-1.002,0.443-2.075,0.664-3.22,0.664
			s-2.23-0.215-3.258-0.645c-1.028-0.429-1.919-1.021-2.673-1.775c-0.755-0.754-1.353-1.639-1.795-2.653
			c-0.442-1.014-0.663-2.094-0.663-3.238s0.221-2.224,0.663-3.238s1.04-1.905,1.795-2.673c0.754-0.768,1.639-1.372,2.653-1.814
			s2.107-0.664,3.277-0.664c1.118,0,2.179,0.222,3.181,0.664c1.001,0.442,1.886,1.047,2.653,1.814
			c0.767,0.768,1.371,1.658,1.814,2.673c0.441,1.015,0.663,2.094,0.663,3.238S239.119,264.523,238.677,265.524z"/>
		<path fill="#FF931E" d="M268.547,250.853c-0.768-0.767-1.658-1.726-2.673-2.169s-2.095-1.017-3.239-1.017h-11.968v28h6v-11h5.969
			c1.145,0,2.23,0.081,3.259-0.362c1.027-0.441,1.925-0.889,2.692-1.644c0.767-0.754,1.371-1.576,1.814-2.617
			c0.441-1.04,0.663-2.108,0.663-3.279c0-1.17-0.229-2.244-0.683-3.258C269.925,252.492,269.314,251.621,268.547,250.853z
			 M264.664,258.859c-0.65,0.611-1.665,0.807-3.044,0.807h-4.954v-6h4.954c1.379,0,2.394,0.358,3.044,0.944
			c0.65,0.585,0.976,1.272,0.976,2.104C265.64,257.548,265.315,258.248,264.664,258.859z"/>
		<path fill="#FF931E" d="M276.667,262.638c1-1.375,3-2.655,5-3.826v-5.146h10.892h1.108v-0.529v-5.471h-17V262.638z"/>
		<path fill="#D9E021" d="M276.667,275.667h17v-6h-12v-5h9v-6h-9v0.146c-2,1.17-4,2.451-5,3.826V275.667z"/>
		<path fill="#FF931E" d="M317.653,250.48c-0.671-0.59-1.423-1.429-2.263-1.796c-1.015-0.442-2.095-1.017-3.239-1.017h-11.484v3.699
			c4-0.739,7.687-1.131,11.576-1.131C313.993,250.235,315.942,250.326,317.653,250.48z"/>
		<path fill="#D9E021" d="M319.252,261.427c0.885-1.365,1.327-2.907,1.327-4.624c0-1.17-0.229-2.263-0.683-3.277
			c-0.456-1.015-1.067-1.905-1.834-2.673c-0.131-0.131-0.271-0.251-0.41-0.373c-1.71-0.154-3.66-0.245-5.411-0.245
			c-3.888,0-7.576,0.392-11.576,1.131v24.301h5v-11h4.104l7.414,11h6.633l-8.038-11.226
			C317.21,263.79,318.368,262.792,319.252,261.427z M314.18,258.859c-0.65,0.611-1.665,0.807-3.044,0.807h-5.469v-6h5.469
			c1.379,0,2.394,0.358,3.044,0.944c0.649,0.585,0.976,1.272,0.976,2.104C315.156,257.548,314.829,258.248,314.18,258.859z"/>
		<path fill="#ED1E79" d="M336.576,253.526c0.599,0,1.184,0.104,1.756,0.313s1.08,0.429,1.522,0.663
			c0.52,0.286,1.027,0.599,1.521,0.937l3.355-4.215c-0.442-0.39-0.995-0.773-1.658-1.15s-1.372-0.709-2.126-0.995
			c-0.755-0.286-1.529-0.521-2.322-0.702c-0.794-0.182-1.541-0.273-2.243-0.273c-1.302,0-2.491,0.202-3.57,0.604
			c-0.803,0.3-1.518,0.687-2.148,1.158c1.885,1.18,3.737,2.406,5.555,3.68C336.338,253.539,336.45,253.526,336.576,253.526z"/>
		<path fill="#FF931E" d="M334.02,254.169c0.541-0.379,1.281-0.581,2.198-0.625c-1.818-1.273-3.67-2.5-5.555-3.68
			c-0.218,0.163-0.426,0.336-0.623,0.519c-0.658,0.614-1.179,1.33-1.579,2.135c1.819,0.529,3.6,1.145,5.34,1.845
			C333.873,254.299,333.937,254.228,334.02,254.169z"/>
		<path fill="#D9E021" d="M345.102,265.095c-0.273-0.793-0.735-1.535-1.386-2.225c-0.65-0.688-1.509-1.339-2.575-1.95
			s-2.38-1.216-3.94-1.814c-0.547-0.182-1.067-0.377-1.561-0.586c-0.495-0.208-0.931-0.435-1.308-0.683
			c-0.377-0.247-0.677-0.52-0.897-0.819c-0.222-0.299-0.332-0.631-0.332-0.995c0-0.696,0.242-1.243,0.698-1.659
			c-1.74-0.7-3.521-1.316-5.34-1.845c-0.066,0.133-0.137,0.264-0.196,0.402c-0.417,0.975-0.624,2.022-0.624,3.141
			c0,1.093,0.188,2.056,0.565,2.888c0.377,0.833,0.91,1.574,1.6,2.224c0.689,0.65,1.502,1.217,2.438,1.697
			c0.937,0.482,1.951,0.931,3.044,1.347c0.937,0.364,1.717,0.709,2.341,1.034c0.625,0.325,1.112,0.631,1.464,0.917
			c0.351,0.286,0.598,0.553,0.741,0.8c0.143,0.247,0.215,0.475,0.215,0.683c0,0.546-0.117,1.002-0.352,1.365
			c-0.234,0.365-0.533,0.658-0.897,0.879s-0.768,0.384-1.21,0.487c-0.442,0.104-0.885,0.156-1.326,0.156
			c-0.521,0-1.067-0.104-1.639-0.313c-0.573-0.208-1.119-0.461-1.64-0.761c-0.521-0.299-0.981-0.611-1.385-0.937
			s-0.696-0.604-0.878-0.839l-4.058,3.746c0.207,0.234,0.585,0.439,1.131,0.96c0.547,0.521,1.171,1.271,1.873,1.271h-0.039
			c0.988,1,2.042,1.278,3.161,1.616c1.118,0.338,2.275,0.594,3.473,0.594c1.326,0,2.556-0.172,3.688-0.601
			c1.131-0.429,2.106-0.992,2.926-1.734c0.819-0.741,1.464-1.608,1.932-2.623c0.469-1.015,0.702-2.088,0.702-3.233
			C345.511,266.748,345.375,265.889,345.102,265.095z"/>
	</g>
</g>
</svg>
