<?xml version="1.0" encoding="utf-8"?>
<!-- Generator: Adobe Illustrator 17.0.0, SVG Export Plug-In . SVG Version: 6.00 Build 0)  -->
<!DOCTYPE svg PUBLIC "-//W3C//DTD SVG 1.1//EN" "http://www.w3.org/Graphics/SVG/1.1/DTD/svg11.dtd">
<svg version="1.1" xmlns="http://www.w3.org/2000/svg" xmlns:xlink="http://www.w3.org/1999/xlink" x="0px" y="0px" width="223.5px"
	 height="131.301px" viewBox="0 0 223.5 131.301" enable-background="new 0 0 223.5 131.301" xml:space="preserve">
<g id="Layer_1" display="none">
	<linearGradient id="SVGID_1_" gradientUnits="userSpaceOnUse" x1="197" y1="506.5" x2="197" y2="-293.5">
		<stop  offset="0" style="stop-color:#D4145A"/>
		<stop  offset="0.0404" style="stop-color:#CB165E"/>
		<stop  offset="0.2333" style="stop-color:#A71E70"/>
		<stop  offset="0.427" style="stop-color:#8B257F"/>
		<stop  offset="0.6199" style="stop-color:#762989"/>
		<stop  offset="0.8113" style="stop-color:#6A2C8F"/>
		<stop  offset="1" style="stop-color:#662D91"/>
	</linearGradient>
	<rect x="-203" y="-293.5" display="inline" fill="url(#SVGID_1_)" width="800" height="800"/>
</g>
<g id="Layer_2">
	<g>
		<polygon fill="#FF931E" points="-335,68.779 -335,10.442 -385.524,39.623 -366.632,50.543 		"/>
		<polygon fill="#ED1E79" points="-335,78.477 -354.873,66.782 -389,47.429 -389,110.553 -335,142.614 		"/>
		<polygon fill="#ED1E79" points="-274,114.841 -327,84.022 -327,146.518 -274,178.579 		"/>
		<polygon fill="#D9E021" points="-265,120.137 -265,178.593 -214.217,149.502 		"/>
		<polygon fill="#FF931E" points="-324.172,3.659 -305.28,14.578 -269.764,35.053 -214.118,3.068 -268.633,-28.419 		"/>
		<polygon fill="#ED1E79" points="-274,106.649 -274,42.512 -293.373,30.817 -327,11.464 -327,74.588 		"/>
		<polygon fill="#FF931E" points="-206.223,7.546 -261.762,39.623 -242.87,50.543 -206.938,71.258 -150.637,39.651 		"/>
		<path fill="#FFFFFF" d="M-140.912,36.224l-61.903-35.766c-0.099-0.069-0.198-0.139-0.302-0.199l-63.445-36.598
			c-1.213-0.7-2.713-0.7-3.926,0L-333.48,0.259c-0.398,0.23-0.691,0.529-0.915,0.869l-60.739,35.096
			c-1.212,0.7-1.866,1.994-1.866,3.394v0.047l0,0.001l0,0.001v73.148c0,1.399,0.611,2.692,1.821,3.392l60.942,35.347
			c0.196,0.237,0.436,0.446,0.734,0.618l62.937,36.598c0.607,0.351,3.269,0.352,3.875,0.003c0.053-0.031,0.061-0.069,0.112-0.102
			l63.462-36.496c0.28-0.162,0.541-0.358,0.781-0.577l61.38-35.388c1.214-0.7,1.956-1.994,1.956-3.396V39.805v-0.187
			C-139,38.218-139.7,36.924-140.912,36.224z M-327,11.464l33.627,19.353L-274,42.512v64.137l-53-32.061V11.464z M-265,110.553
			v-3.89V47.429l33.627,19.353L-212,78.477v64.137L-265,110.553z M-206.938,71.258l-35.932-20.715l-18.892-10.919l55.538-32.077
			l55.586,32.105L-206.938,71.258z M-268.633-28.419l54.516,31.487l-55.646,31.985l-35.516-20.475l-18.892-10.919L-268.633-28.419z
			 M-335,10.442v58.336l-31.632-18.236l-18.892-10.919L-335,10.442z M-389,47.429l34.127,19.353L-335,78.477v64.137l-54-32.061
			V47.429z M-327,146.518V84.022l53,30.82v63.738L-327,146.518z M-265,120.137l50.783,29.366L-265,178.593V120.137z M-147,110.549
			l-54,32.08V78.538l54-31.962V110.549z"/>
		<polygon fill="#ED1E79" points="-212,78.477 -231.373,66.782 -265,47.429 -265,106.663 -265,110.553 -212,142.614 		"/>
		<polygon fill="#D9E021" points="-201,142.628 -147,110.549 -147,46.575 -201,78.538 		"/>
	</g>
	<g>
		<path fill="#FFFFFF" d="M110.821,248.012c-1.145-1.209-2.53-2.5-4.155-3.163c-1.626-0.664-3.453-1.349-5.482-1.349H91v28h10.183
			c2.029,0,3.856-0.34,5.482-1.043c1.625-0.702,3.011-1.659,4.155-2.882c1.145-1.222,2.029-2.656,2.653-4.309
			c0.625-1.651,0.937-3.438,0.937-5.364c0-2.028-0.312-3.881-0.937-5.559C112.85,250.665,111.966,249.222,110.821,248.012z"/>
		<polygon fill="#FFFFFF" points="121,271.5 138,271.5 138,265.5 126,265.5 126,260.5 135,260.5 135,254.5 126,254.5 126,249.5 
			138,249.5 138,243.5 121,243.5 		"/>
		<path fill="#FFFFFF" d="M159.068,252.184c-1.235,2.797-2.465,5.41-3.688,8.193l-7.452-16.877h-5.932l12.292,28h2.263l12.174-28
			h-5.931C161.546,246.5,160.303,249.389,159.068,252.184z"/>
		<polygon fill="#FFFFFF" points="173,260.195 173,271.5 191,271.5 191,265.5 179,265.5 179,260.5 187,260.5 187,254.5 
			179.433,254.5 179,254.5 179,249.5 186.67,249.5 191,249.5 191,246.6 191,243.5 173,243.5 		"/>
		<polygon fill="#FFFFFF" points="203,243.5 197,243.5 197,271.5 214,271.5 214,265.5 203,265.5 		"/>
		<path fill="#FFFFFF" d="M238.825,248.266c-1.263-1.223-2.719-2.172-4.37-2.849c-1.652-0.676-3.35-1.015-5.093-1.015
			c-1.977,0-3.798,0.378-5.463,1.132c-1.665,0.755-3.108,1.763-4.331,3.024s-2.179,2.725-2.868,4.39s-1.033,3.395-1.033,5.189
			c0,2.081,0.39,3.961,1.17,5.639s1.814,3.108,3.103,4.292c1.287,1.184,2.751,2.101,4.39,2.751s3.316,0.976,5.033,0.976
			c1.977,0,3.805-0.377,5.482-1.132c1.678-0.754,3.122-1.769,4.331-3.044c1.21-1.273,2.152-2.731,2.829-4.37
			c0.676-1.639,1.015-3.342,1.015-5.111c0-2.003-0.384-3.844-1.151-5.521S240.086,249.489,238.825,248.266z"/>
		<path fill="#FFFFFF" d="M266.881,246.686c-0.768-0.767-1.658-1.726-2.673-2.169s-2.095-1.017-3.239-1.017H249v28h6v-11h5.969
			c1.145,0,2.23,0.081,3.259-0.362c1.027-0.441,1.925-0.889,2.692-1.644c0.767-0.754,1.371-1.576,1.814-2.617
			c0.441-1.04,0.663-2.108,0.663-3.279c0-1.17-0.229-2.244-0.683-3.258C268.259,248.326,267.647,247.454,266.881,246.686z"/>
		<polygon fill="#FFFFFF" points="275,258.471 275,271.5 292,271.5 292,265.5 280,265.5 280,260.5 289,260.5 289,254.5 280,254.5 
			280,249.5 290.892,249.5 292,249.5 292,248.971 292,243.5 275,243.5 		"/>
		<path fill="#FFFFFF" d="M317.586,257.26c0.885-1.365,1.327-2.907,1.327-4.624c0-1.17-0.229-2.263-0.683-3.277
			c-0.456-1.015-1.067-1.905-1.834-2.673c-0.131-0.131-0.271-0.251-0.41-0.373c-0.671-0.59-1.423-1.429-2.263-1.796
			c-1.015-0.442-2.095-1.017-3.239-1.017H299v3.699V271.5h5v-11h4.104l7.414,11h6.633l-8.038-11.226
			C315.544,259.623,316.701,258.626,317.586,257.26z"/>
		<path fill="#FFFFFF" d="M343.435,260.928c-0.273-0.793-0.735-1.535-1.386-2.225c-0.65-0.688-1.509-1.339-2.575-1.95
			s-2.38-1.216-3.94-1.814c-0.547-0.182-1.067-0.377-1.561-0.586c-0.495-0.208-0.931-0.435-1.308-0.683
			c-0.377-0.247-0.677-0.52-0.897-0.819c-0.222-0.299-0.332-0.631-0.332-0.995c0-0.696,0.242-1.243,0.698-1.659
			c0.072-0.066,0.135-0.136,0.219-0.195c0.541-0.379,1.281-0.581,2.198-0.625c0.12-0.006,0.231-0.019,0.357-0.019
			c0.599,0,1.184,0.104,1.756,0.313s1.08,0.429,1.522,0.663c0.52,0.286,1.027,0.599,1.521,0.937l3.355-4.215
			c-0.442-0.39-0.995-0.773-1.658-1.15s-1.372-0.709-2.126-0.995c-0.755-0.286-1.529-0.521-2.322-0.702
			c-0.794-0.182-1.541-0.273-2.243-0.273c-1.302,0-2.491,0.202-3.57,0.604c-0.803,0.3-1.518,0.687-2.148,1.158
			c-0.218,0.163-0.426,0.336-0.623,0.519c-0.658,0.614-1.179,1.33-1.579,2.135c-0.066,0.133-0.137,0.264-0.196,0.402
			c-0.417,0.975-0.624,2.022-0.624,3.141c0,1.093,0.188,2.056,0.565,2.888c0.377,0.833,0.91,1.574,1.6,2.224
			c0.689,0.65,1.502,1.217,2.438,1.697c0.937,0.482,1.951,0.931,3.044,1.347c0.937,0.364,1.717,0.709,2.341,1.034
			c0.625,0.325,1.112,0.631,1.464,0.917c0.351,0.286,0.598,0.553,0.741,0.8c0.143,0.247,0.215,0.475,0.215,0.683
			c0,0.546-0.117,1.002-0.352,1.365c-0.234,0.365-0.533,0.658-0.897,0.879s-0.768,0.384-1.21,0.487
			c-0.442,0.104-0.885,0.156-1.326,0.156c-0.521,0-1.067-0.104-1.639-0.313c-0.573-0.208-1.119-0.461-1.64-0.761
			c-0.521-0.299-0.981-0.611-1.385-0.937s-0.696-0.604-0.878-0.839l-4.058,3.746c0.207,0.234,0.585,0.439,1.131,0.96
			c0.547,0.521,1.171,1.271,1.873,1.271h-0.039c0.988,1,2.042,1.278,3.161,1.616c1.118,0.338,2.275,0.594,3.473,0.594
			c1.326,0,2.556-0.172,3.688-0.602c1.131-0.429,2.106-0.992,2.926-1.734c0.819-0.741,1.464-1.608,1.932-2.623
			c0.469-1.015,0.702-2.088,0.702-3.233C343.844,262.581,343.709,261.722,343.435,260.928z"/>
	</g>
	<g>
		<path fill="none" d="M235.196,288.227c-0.768-0.768-1.652-1.372-2.653-1.814c-1.002-0.442-2.063-0.664-3.181-0.664
			c-1.17,0-2.263,0.222-3.277,0.664s-1.899,1.047-2.653,1.814c-0.755,0.768-1.353,1.658-1.795,2.673s-0.663,2.094-0.663,3.238
			s0.221,2.225,0.663,3.238c0.442,1.015,1.04,1.899,1.795,2.653c0.754,0.755,1.645,1.347,2.673,1.775
			c1.027,0.43,2.113,0.645,3.258,0.645s2.218-0.221,3.22-0.664c1.001-0.441,1.879-1.04,2.634-1.795
			c0.754-0.754,1.352-1.632,1.795-2.634c0.441-1.001,0.663-2.074,0.663-3.219s-0.222-2.224-0.663-3.238
			C236.567,289.885,235.963,288.995,235.196,288.227z"/>
		<path fill="none" d="M106.763,288.071c-0.702-0.741-1.528-1.413-2.478-1.842c-0.95-0.43-1.984-0.729-3.103-0.729H97v16h4.183
			c1.118,0,2.152,0.091,3.103-0.325c0.949-0.416,1.775-0.846,2.478-1.587s1.248-1.538,1.639-2.539
			c0.39-1.001,0.585-2.037,0.585-3.182c0-1.145-0.195-2.198-0.585-3.2C108.011,289.666,107.466,288.812,106.763,288.071z"/>
		<path fill="none" d="M309.469,285.5H304v6h5.469c1.379,0,2.394-0.196,3.044-0.807c0.649-0.611,0.976-1.278,0.976-2.111
			c0-0.832-0.326-1.58-0.976-2.165C311.863,285.831,310.848,285.5,309.469,285.5z"/>
		<path fill="none" d="M259.954,285.5H255v6h4.954c1.379,0,2.394-0.196,3.044-0.807s0.976-1.278,0.976-2.111
			c0-0.832-0.325-1.58-0.976-2.165C262.347,285.831,261.333,285.5,259.954,285.5z"/>
		<path fill="#ED1E79" d="M110.821,284.012c-1.145-1.209-2.53-2.5-4.155-3.163c-1.626-0.664-3.453-1.349-5.482-1.349H91v28h10.183
			c2.029,0,3.856-0.34,5.482-1.043c1.625-0.702,3.011-1.659,4.155-2.882c1.145-1.222,2.029-2.656,2.653-4.309
			c0.625-1.651,0.937-3.438,0.937-5.364c0-2.028-0.312-3.881-0.937-5.559C112.85,286.665,111.966,285.222,110.821,284.012z
			 M108.402,297.124c-0.391,1.001-0.937,1.873-1.639,2.614s-1.528,1.021-2.478,1.437c-0.95,0.416-1.984,0.325-3.103,0.325H97v-16
			h4.183c1.118,0,2.152,0.3,3.103,0.729c0.949,0.429,1.775,1.058,2.478,1.799s1.248,1.635,1.639,2.636
			c0.39,1.002,0.585,2.085,0.585,3.229C108.987,295.039,108.792,296.123,108.402,297.124z"/>
		<polygon fill="#ED1E79" points="121,307.5 138,307.5 138,301.5 126,301.5 126,296.5 135,296.5 135,290.5 126,290.5 126,285.5 
			138,285.5 138,279.5 121,279.5 		"/>
		<path fill="#ED1E79" d="M159.068,288.184c-1.235,2.797-2.465,5.41-3.688,8.193l-7.452-16.877h-5.932l12.292,28h2.263l12.174-28
			h-5.931C161.546,282.5,160.303,285.389,159.068,288.184z"/>
		<path fill="#ED1E79" d="M173,296.195c2-1.744,4.438-3.695,6.433-5.695H179v-5h7.67c1.475-1,2.33-1.92,4.33-2.9v-3.1h-18V296.195z"
			/>
		<path fill="#FF931E" d="M191,285.5v-2.9c-2,0.98-2.855,1.9-4.33,2.9H191z"/>
		<path fill="#FF931E" d="M173,307.5h18v-6h-12v-5h8v-6h-7.567c-1.994,2-4.433,3.951-6.433,5.695V307.5z"/>
		<polygon fill="#FF931E" points="203,279.5 197,279.5 197,307.5 214,307.5 214,301.5 203,301.5 		"/>
		<path fill="#FF931E" d="M238.825,284.266c-1.263-1.223-2.719-2.172-4.37-2.849c-1.652-0.676-3.35-1.015-5.093-1.015
			c-1.977,0-3.798,0.378-5.463,1.132c-1.665,0.755-3.108,1.763-4.331,3.024s-2.179,2.725-2.868,4.39s-1.033,3.395-1.033,5.189
			c0,2.081,0.39,3.961,1.17,5.639s1.814,3.108,3.103,4.292c1.287,1.184,2.751,2.101,4.39,2.751s3.316,0.976,5.033,0.976
			c1.977,0,3.805-0.377,5.482-1.132c1.678-0.754,3.122-1.769,4.331-3.044c1.21-1.273,2.152-2.731,2.829-4.37
			c0.676-1.639,1.015-3.342,1.015-5.111c0-2.003-0.384-3.844-1.151-5.521S240.086,285.489,238.825,284.266z M237.01,297.357
			c-0.443,1.002-1.041,1.88-1.795,2.634c-0.755,0.755-1.633,1.354-2.634,1.795c-1.002,0.443-2.075,0.664-3.22,0.664
			s-2.23-0.215-3.258-0.645c-1.028-0.429-1.919-1.021-2.673-1.775c-0.755-0.754-1.353-1.639-1.795-2.653
			c-0.442-1.014-0.663-2.094-0.663-3.238s0.221-2.224,0.663-3.238s1.04-1.905,1.795-2.673c0.754-0.768,1.639-1.372,2.653-1.814
			s2.107-0.664,3.277-0.664c1.118,0,2.179,0.222,3.181,0.664c1.001,0.442,1.886,1.047,2.653,1.814
			c0.767,0.768,1.371,1.658,1.814,2.673c0.441,1.015,0.663,2.094,0.663,3.238S237.452,296.356,237.01,297.357z"/>
		<path fill="#FF931E" d="M266.881,282.686c-0.768-0.767-1.658-1.726-2.673-2.169s-2.095-1.017-3.239-1.017H249v28h6v-11h5.969
			c1.145,0,2.23,0.081,3.259-0.362c1.027-0.441,1.925-0.889,2.692-1.644c0.767-0.754,1.371-1.576,1.814-2.617
			c0.441-1.04,0.663-2.108,0.663-3.279c0-1.17-0.229-2.244-0.683-3.258C268.259,284.326,267.647,283.454,266.881,282.686z
			 M262.998,290.693c-0.65,0.611-1.665,0.807-3.044,0.807H255v-6h4.954c1.379,0,2.394,0.358,3.044,0.944
			c0.65,0.585,0.976,1.272,0.976,2.104C263.973,289.381,263.648,290.081,262.998,290.693z"/>
		<path fill="#FF931E" d="M275,294.471c1-1.375,3-2.655,5-3.826V285.5h10.892H292v-0.529V279.5h-17V294.471z"/>
		<path fill="#D9E021" d="M275,307.5h17v-6h-12v-5h9v-6h-9v0.146c-2,1.17-4,2.451-5,3.826V307.5z"/>
		<path fill="#FF931E" d="M315.986,282.313c-0.671-0.59-1.423-1.429-2.263-1.796c-1.015-0.442-2.095-1.017-3.239-1.017H299v3.699
			c4-0.739,7.687-1.131,11.576-1.131C312.326,282.068,314.276,282.159,315.986,282.313z"/>
		<path fill="#D9E021" d="M317.586,293.26c0.885-1.365,1.327-2.907,1.327-4.624c0-1.17-0.229-2.263-0.683-3.277
			c-0.456-1.015-1.067-1.905-1.834-2.673c-0.131-0.131-0.271-0.251-0.41-0.373c-1.71-0.154-3.66-0.245-5.411-0.245
			c-3.888,0-7.576,0.392-11.576,1.131V307.5h5v-11h4.104l7.414,11h6.633l-8.038-11.226
			C315.544,295.623,316.701,294.626,317.586,293.26z M312.513,290.693c-0.65,0.611-1.665,0.807-3.044,0.807H304v-6h5.469
			c1.379,0,2.394,0.358,3.044,0.944c0.649,0.585,0.976,1.272,0.976,2.104C313.489,289.381,313.163,290.081,312.513,290.693z"/>
		<path fill="#ED1E79" d="M334.909,285.359c0.599,0,1.184,0.104,1.756,0.313s1.08,0.429,1.522,0.663
			c0.52,0.286,1.027,0.599,1.521,0.937l3.355-4.215c-0.442-0.39-0.995-0.773-1.658-1.15s-1.372-0.709-2.126-0.995
			c-0.755-0.286-1.529-0.521-2.322-0.702c-0.794-0.182-1.541-0.273-2.243-0.273c-1.302,0-2.491,0.202-3.57,0.604
			c-0.803,0.3-1.518,0.687-2.148,1.158c1.885,1.18,3.737,2.406,5.555,3.68C334.671,285.372,334.783,285.359,334.909,285.359z"/>
		<path fill="#FF931E" d="M332.353,286.003c0.541-0.379,1.281-0.581,2.198-0.625c-1.818-1.273-3.67-2.5-5.555-3.68
			c-0.218,0.163-0.426,0.336-0.623,0.519c-0.658,0.614-1.179,1.33-1.579,2.135c1.819,0.529,3.6,1.145,5.34,1.845
			C332.207,286.132,332.27,286.061,332.353,286.003z"/>
		<path fill="#D9E021" d="M343.435,296.928c-0.273-0.793-0.735-1.535-1.386-2.225c-0.65-0.688-1.509-1.339-2.575-1.95
			s-2.38-1.216-3.94-1.814c-0.547-0.182-1.067-0.377-1.561-0.586c-0.495-0.208-0.931-0.435-1.308-0.683
			c-0.377-0.247-0.677-0.52-0.897-0.819c-0.222-0.299-0.332-0.631-0.332-0.995c0-0.696,0.242-1.243,0.698-1.659
			c-1.74-0.7-3.521-1.316-5.34-1.845c-0.066,0.133-0.137,0.264-0.196,0.402c-0.417,0.975-0.624,2.022-0.624,3.141
			c0,1.093,0.188,2.056,0.565,2.888c0.377,0.833,0.91,1.574,1.6,2.224c0.689,0.65,1.502,1.217,2.438,1.697
			c0.937,0.482,1.951,0.931,3.044,1.347c0.937,0.364,1.717,0.709,2.341,1.034c0.625,0.325,1.112,0.631,1.464,0.917
			c0.351,0.286,0.598,0.553,0.741,0.8c0.143,0.247,0.215,0.475,0.215,0.683c0,0.546-0.117,1.002-0.352,1.365
			c-0.234,0.365-0.533,0.658-0.897,0.879s-0.768,0.384-1.21,0.487c-0.442,0.104-0.885,0.156-1.326,0.156
			c-0.521,0-1.067-0.104-1.639-0.313c-0.573-0.208-1.119-0.461-1.64-0.761c-0.521-0.299-0.981-0.611-1.385-0.937
			s-0.696-0.604-0.878-0.839l-4.058,3.746c0.207,0.234,0.585,0.439,1.131,0.96c0.547,0.521,1.171,1.271,1.873,1.271h-0.039
			c0.988,1,2.042,1.278,3.161,1.616c1.118,0.338,2.275,0.594,3.473,0.594c1.326,0,2.556-0.172,3.688-0.601
			c1.131-0.429,2.106-0.992,2.926-1.734c0.819-0.741,1.464-1.608,1.932-2.623c0.469-1.015,0.702-2.088,0.702-3.233
			C343.844,298.581,343.709,297.722,343.435,296.928z"/>
	</g>
	<g>
		<g>
			<path fill="#FFFFFF" d="M119.791,229.578H92.159c-1.881,0-3.355-1.239-3.355-2.82V178.16c0-0.92-1.258-1.02-1.799-1.02
				s-1.8,0.1-1.8,1.02v48.718c0,1.344-1.038,2.7-3.355,2.7H53.598c-2.318,0-3.355-1.296-3.355-2.58V178.04
				c0-0.744-0.979-0.9-1.8-0.9c-0.821,0-1.799,0.156-1.799,0.9v49.199c0,1.165-0.974,2.34-3.149,2.34H15.244
				c-1.706,0-2.943-1.034-2.943-2.46v-70.078c0-1.402,1.443-2.46,3.356-2.46H42.67c1.748,0,2.706,1.778,3.632,3.497
				c0.265,0.492,0.68,1.262,0.961,1.618c0.223-0.069,0.567-0.241,1.146-0.646c4.289-2.808,10.377-4.47,16.325-4.47
				c6.982,0,12.562,1.557,16.583,4.628c1.083,0.882,1.544,0.892,1.563,0.892c0.239,0,0.976-0.225,1.592-0.673l0.158-0.101
				c4.257-2.347,9.681-4.747,17.633-4.747c11.515,0,20.884,6.271,20.884,13.979v58.198
				C123.147,228.117,122.097,229.578,119.791,229.578z M91.803,226.514c0.076,0.032,0.196,0.064,0.355,0.064h27.632
				c0.16,0,0.277-0.017,0.356-0.036V168.56c0-5.952-8.19-10.979-17.884-10.979c-7.208,0-12.005,2.076-16.108,4.332
				c-1.028,0.724-2.303,1.188-3.275,1.188c-1.033,0-2.152-0.503-3.421-1.538c-3.449-2.633-8.415-3.982-14.724-3.982
				c-7.983,0-13.227,3.027-14.644,3.955c-1.214,0.849-2.12,1.205-3.09,1.205c-1.593,0-2.441-1.573-3.339-3.239
				c-0.33-0.612-0.864-1.604-1.194-1.92h-26.81c-0.141,0-0.26,0.016-0.356,0.037v68.96h28.194c0.054,0,0.104-0.002,0.149-0.004
				V178.04c0-2.369,1.884-3.9,4.799-3.9c2.916,0,4.8,1.531,4.8,3.9v48.514c0.093,0.014,0.211,0.024,0.355,0.024h28.251
				c0.153,0,0.27-0.011,0.355-0.023V178.16c0-2.404,1.929-4.02,4.8-4.02c2.87,0,4.799,1.616,4.799,4.02V226.514z"/>
		</g>
		<g>
			<path fill="#FFFFFF" d="M252.129,229.578c-4.78,0-9.31-0.81-12.755-2.28c-0.879-0.425-1.322-0.607-1.547-0.68
				c-0.323,0.23-0.878,0.789-1.23,1.143c-1.01,1.016-1.807,1.817-2.82,1.817h-25.981c-1.614,0-3.356-0.986-3.356-2.58v-89.757
				c0-1.225,1.038-2.46,3.356-2.46h26.806c1.851,0,3.355,1.211,3.355,2.7v19.951c0.072-0.042,0.146-0.085,0.22-0.128
				c3.148-1.833,7.24-2.724,12.509-2.724c5.866,0,25.008,1.77,25.008,24.539v25.079
				C275.693,225.175,262.879,229.578,252.129,229.578z M237.694,223.578c0.748,0,1.538,0.319,2.923,0.99
				c2.971,1.267,7.19,2.01,11.512,2.01c13.646,0,20.564-7.529,20.564-22.379V179.12c0-19.44-15.391-21.539-22.008-21.539
				c-4.724,0-8.321,0.758-10.999,2.316c-1.194,0.695-1.793,1.043-2.61,1.043c-1.042,0-2.119-0.92-2.119-2.46v-20.639
				c-0.085-0.031-0.205-0.06-0.355-0.06h-26.806c-0.141,0-0.26,0.01-0.356,0.024v88.709c0.109,0.036,0.24,0.063,0.356,0.063h25.693
				c0.251-0.198,0.682-0.631,0.981-0.933C235.573,224.536,236.526,223.578,237.694,223.578z M240.375,211.219
				c-0.739,0-2.158-0.176-3.06-0.816c-1.944-0.973-2.358-2.468-2.358-3.564V178.16c0-2.634,2.329-4.62,5.418-4.62
				c2.872,0,4.181,1.959,4.181,3.78v30.119C244.555,210.727,241.936,211.219,240.375,211.219z M240.375,176.54
				c-1.401,0-2.418,0.681-2.418,1.62v28.679c0,0.221,0,0.556,0.783,0.921l0.191,0.089l0.159,0.138
				c0.105,0.06,0.69,0.231,1.284,0.231c1.181,0,1.181-0.181,1.181-0.78V177.32C241.555,177.107,241.555,176.54,240.375,176.54z"/>
		</g>
		<g>
			<path fill="none" d="M411.019,222.112c0.019-0.083,0.043-0.163,0.063-0.245C411.062,221.949,411.038,222.029,411.019,222.112z"/>
			<path fill="none" d="M411.84,219.311c0.122-0.342,0.251-0.681,0.386-1.017C412.091,218.631,411.962,218.97,411.84,219.311z"/>
			<path fill="none" d="M411.56,220.14c-0.021,0.064-0.034,0.132-0.054,0.197c0.06-0.195,0.12-0.389,0.185-0.582
				C411.648,219.883,411.6,220.011,411.56,220.14z"/>
			<path fill="none" d="M410.61,224.327c0.021-0.147,0.039-0.294,0.062-0.44C410.649,224.032,410.631,224.18,410.61,224.327z"/>
			<path fill="none" d="M396.92,218.22c1.65-6.04,4.44-11.54,8.23-16.19C401.3,206.68,398.45,212.18,396.92,218.22z"/>
			<path fill="none" d="M410.401,226.263c0.012-0.174,0.028-0.347,0.044-0.521C410.43,225.916,410.414,226.089,410.401,226.263z"/>
			<path fill="none" d="M415.926,211.899c0.103-0.132,0.212-0.259,0.318-0.389C416.138,211.64,416.03,211.767,415.926,211.899z"/>
			<path fill="none" d="M413.233,216.107c0.061-0.119,0.12-0.241,0.183-0.359C413.353,215.867,413.294,215.988,413.233,216.107z"/>
			<path fill="none" d="M414.453,213.984c0.099-0.155,0.2-0.31,0.303-0.463C414.653,213.674,414.552,213.828,414.453,213.984z"/>
			<path fill="#0071BC" d="M404.89,157.99c0.37-0.17,0.75-0.34,1.12-0.49h-5.36c-0.62,0-1.45,0.6-1.65,1.21l-1.19,2.85l-0.07,0.16
				c0.02-0.01,0.05-0.03,0.07-0.04C400.1,160.33,402.46,159.1,404.89,157.99z"/>
			<path fill="#FFFFFF" d="M373.69,157.99c0.18-0.17,0.37-0.33,0.56-0.49h-15.67c-0.62,0-1.03,0.72-0.83,1.21l5.7,9.93l0.04,0.07
				C366.61,164.88,370.02,161.29,373.69,157.99z"/>
			<path fill="#0071BC" d="M360,225.22l-2.32,3.68c-0.21,0.48,0.07,0.6,0.69,0.6h1.37c-0.01-0.38,0.06-0.76,0.06-1.14
				C359.8,227.31,360,226.26,360,225.22z"/>
			<path fill="#FFFFFF" d="M372.94,185.02l0.06,0.1c0.02-0.02,0.03-0.05,0.05-0.07C373.05,185.04,372.94,185.03,372.94,185.02z"/>
			<path fill="#D9E021" d="M415.926,211.899c-0.411,0.524-0.8,1.067-1.171,1.622c-0.102,0.153-0.203,0.308-0.303,0.463
				c-0.367,0.574-0.715,1.161-1.037,1.764c-0.063,0.118-0.122,0.24-0.183,0.359c-0.339,0.66-0.66,1.331-0.943,2.023
				c-0.022,0.054-0.042,0.11-0.064,0.164c-0.135,0.336-0.264,0.674-0.386,1.017c-0.052,0.147-0.101,0.296-0.15,0.444
				c-0.065,0.193-0.125,0.387-0.185,0.582c-0.156,0.503-0.298,1.013-0.423,1.53c-0.02,0.082-0.044,0.163-0.063,0.245
				c-0.136,0.584-0.25,1.176-0.347,1.775c-0.023,0.146-0.041,0.293-0.062,0.44c-0.067,0.468-0.122,0.94-0.165,1.416
				c-0.015,0.173-0.032,0.346-0.044,0.521c-0.043,0.614-0.071,1.232-0.071,1.857c0,0.54,0.02,1.38,0.05,1.38h19.55
				c0.18,0,0.37-0.02,0.54-0.04c0.5-0.09,0.91-0.31,0.92-0.65c0.02-0.06,0.01-0.13-0.02-0.21l-11.67-20.63
				c-0.747,0.635-1.456,1.311-2.129,2.021c-0.463,0.488-0.902,0.998-1.327,1.519C416.138,211.64,416.03,211.767,415.926,211.899z"/>
			<path fill="#0071BC" d="M392.87,164.85c0.03-0.02,0.07-0.05,0.1-0.07l-2.56-6.08c-0.21-0.6-0.9-1.2-1.72-1.2h-14.44
				c-0.19,0.16-0.38,0.32-0.56,0.49c-3.67,3.3-7.08,6.89-10.2,10.72l9.43,16.28l0.02,0.03
				C378.29,177.13,385.05,170.29,392.87,164.85z"/>
			<path fill="#662D91" d="M422.91,174.15l8.67-15.33c0.2-0.48-0.41-1.32-1.24-1.32h-24.33c-0.37,0.15-0.75,0.32-1.12,0.49
				c-2.43,1.11-4.79,2.34-7.08,3.69c-0.02,0.01-0.05,0.03-0.07,0.04l-2.66,6.16l-0.41,0.51c-0.21,0-0.35-0.23-0.35-0.35l-1.32-3.19
				v-0.01l-0.03-0.06c-0.03,0.02-0.07,0.05-0.1,0.07c-7.82,5.44-14.58,12.28-19.93,20.17c0,0.01,0.11,0.02,0.11,0.03
				c-0.02,0.02-0.03,0.05-0.05,0.07l4.34,7.51c0.21,0.6,0.34,0.85-0.07,1.45L360,225.21v0.01c0,1.04-0.2,2.09-0.2,3.14
				c0,0.38-0.07,0.76-0.06,1.14h21.28c-0.02-0.38-0.02-0.76-0.02-1.14C381,202.31,398.8,180.4,422.91,174.15z"/>
			<path fill="#ED1E79" d="M422.91,174.15C398.8,180.4,381,202.31,381,228.36c0,0.38,0,0.76,0.02,1.14h8.49
				c0.83,0,1.44-0.12,1.65-0.72l3.09-9.36l0.42-0.42c0.2,0,0.41,0.27,0.41,0.51l0.96,2.6c0.24-1.32,0.54-2.62,0.88-3.89
				c1.53-6.04,4.38-11.54,8.23-16.19c0.33-0.41,0.67-0.81,1.04-1.2c0.29-0.36,0.62-0.71,0.97-1.06c1.58-1.69,3.33-3.25,5.22-4.64
				c0.01,0,0.03-0.01,0.04-0.02l0.01,0.02c0.01,0,0.01-0.01,0.02-0.02l-0.02-0.04l-0.24-0.4c-0.2-0.24-0.41-0.71-0.41-0.95
				c0-0.23,0.21-0.59,0.41-0.95L422.91,174.15z"/>
			<path fill="#FF931E" d="M412.38,195.13c-1.89,1.39-3.64,2.95-5.22,4.64c-0.35,0.35-0.68,0.7-0.97,1.06
				c-0.37,0.39-0.71,0.79-1.04,1.2c-3.79,4.65-6.58,10.15-8.23,16.19c-0.34,1.27-0.64,2.57-0.88,3.89c-0.02,0.07-0.03,0.13-0.04,0.2
				v0.02l2.53,6.44c0.2,0.6,0.88,0.73,1.7,0.73h10.15c-0.03,0-0.05-0.84-0.05-1.38c0-0.625,0.029-1.243,0.071-1.857
				c0.012-0.174,0.028-0.347,0.044-0.521c0.042-0.476,0.097-0.948,0.165-1.416c0.021-0.147,0.039-0.294,0.062-0.44
				c0.097-0.599,0.211-1.191,0.347-1.775c0.019-0.083,0.043-0.163,0.063-0.245c0.126-0.516,0.267-1.026,0.423-1.53
				c0.02-0.065,0.034-0.132,0.054-0.197c0.04-0.129,0.088-0.257,0.13-0.385c0.049-0.148,0.098-0.297,0.15-0.444
				c0.122-0.342,0.25-0.681,0.386-1.017c0.022-0.054,0.042-0.11,0.064-0.164c0.283-0.692,0.604-1.362,0.943-2.023
				c0.061-0.12,0.12-0.24,0.183-0.359c0.322-0.604,0.67-1.19,1.037-1.764c0.099-0.156,0.2-0.31,0.303-0.463
				c0.371-0.555,0.759-1.097,1.171-1.622c0.103-0.132,0.212-0.259,0.318-0.389c0.425-0.521,0.864-1.031,1.327-1.519
				c0.028-0.029,0.051-0.062,0.079-0.091c0.33-0.35,0.66-0.68,1-0.99c0.34-0.33,0.68-0.64,1.04-0.94l-7.26-12.84l-0.01-0.02
				C412.41,195.12,412.39,195.13,412.38,195.13z"/>
		</g>
		<g>
			<path fill="none" d="M336.353,202.475c0.011-0.059,0.021-0.118,0.033-0.176c0.037-0.186,0.067-0.375,0.105-0.56
				c0.021-0.107,0.045-0.215,0.067-0.322c0.003-0.015,0.006-0.03,0.009-0.045c-0.106,0.519-0.203,1.041-0.302,1.563
				C336.293,202.781,336.323,202.628,336.353,202.475z"/>
			<path fill="none" d="M338.691,192.807c0.085-0.291,0.167-0.583,0.254-0.873c-0.117,0.391-0.234,0.783-0.347,1.176
				C338.628,193.009,338.659,192.908,338.691,192.807z"/>
			<path fill="none" d="M342.723,181.361c0.044-0.104,0.09-0.208,0.134-0.312c0.045-0.108,0.086-0.218,0.131-0.325
				C342.898,180.935,342.811,181.149,342.723,181.361z"/>
			<path fill="none" d="M343.99,178.44c0.108-0.239,0.222-0.475,0.331-0.713c0.034-0.074,0.065-0.149,0.099-0.222
				C344.276,177.817,344.131,178.128,343.99,178.44z"/>
			<path fill="none" d="M343.233,180.172c0.041-0.096,0.082-0.192,0.123-0.287c-0.107,0.245-0.218,0.488-0.322,0.734
				C343.097,180.469,343.168,180.322,343.233,180.172z"/>
			<path fill="none" d="M337.843,195.857c0.063-0.242,0.129-0.481,0.193-0.722C337.972,195.376,337.906,195.616,337.843,195.857z"/>
			<path fill="none" d="M335.709,206.124c0.035-0.219,0.07-0.438,0.106-0.657c-0.009,0.054-0.019,0.107-0.028,0.161
				C335.759,205.794,335.735,205.959,335.709,206.124z"/>
			<path fill="none" d="M336.353,202.475c0.016-0.082,0.031-0.165,0.048-0.247c-0.005,0.024-0.01,0.047-0.015,0.071
				C336.374,202.357,336.364,202.416,336.353,202.475z"/>
			<path fill="none" d="M335.023,211.126c-0.034,0.302-0.058,0.607-0.089,0.91C334.965,211.733,334.989,211.428,335.023,211.126z"/>
			<path fill="none" d="M337.089,198.949c0.029-0.127,0.056-0.254,0.085-0.382C337.145,198.694,337.118,198.822,337.089,198.949z"/>
			<path fill="none" d="M335.91,204.848c0.01-0.06,0.023-0.12,0.034-0.181c0.005-0.026,0.008-0.053,0.013-0.079
				c-0.026,0.151-0.053,0.301-0.078,0.452C335.889,204.977,335.899,204.912,335.91,204.848z"/>
			<path fill="none" d="M335.435,207.89c-0.005,0.033-0.011,0.066-0.015,0.099c0.006-0.048,0.015-0.097,0.021-0.146c0,0,0,0,0-0.001
				c-0.068,0.476-0.124,0.956-0.185,1.435C335.316,208.815,335.37,208.35,335.435,207.89z"/>
			<path fill="none" d="M353,198.158c-0.15,0.47-0.29,0.94-0.42,1.41c-0.01,0.01-0.135,0.02-0.135,0.03
				c-0.54,1.88-0.445,3.78-1.445,5.7c0,0.001,0,0.001,0,0.001c1-2.895,1.379-5.744,2.335-8.541
				C353.175,197.228,353.14,197.688,353,198.158z"/>
			<path fill="none" d="M350.64,209.148c-0.004,0.026,0.003,0.053,0.002,0.079c0.042-0.32,0.076-0.642,0.122-0.961
				C350.717,208.561,350.678,208.854,350.64,209.148z"/>
			<path fill="none" d="M347.666,171.068c-0.303,0.555-0.608,1.108-0.901,1.668C347.058,172.177,347.363,171.623,347.666,171.068z"
				/>
			<path fill="none" d="M349.85,167.228c-0.54,0.901-1.066,1.811-1.58,2.728C348.785,169.039,349.31,168.129,349.85,167.228z"/>
			<path fill="none" d="M341.611,184.143c0.007-0.019,0.015-0.038,0.022-0.057c0.16-0.416,0.324-0.831,0.489-1.244
				c-0.198,0.494-0.394,0.988-0.585,1.486C341.562,184.266,341.587,184.205,341.611,184.143z"/>
			<path fill="none" d="M339.917,188.866c-0.168,0.505-0.332,1.011-0.493,1.519C339.584,189.877,339.749,189.37,339.917,188.866z"/>
			<path fill="none" d="M318,176.728c-2.27,0-3,1.08-3,2.4v28.56c0,0.88,0.22,1.58,1.02,1.98c0.08,0.05,0.16,0.09,0.25,0.12
				c0.01,0,0.02,0.01,0.03,0.01c0.47,0.19,0.89,0.29,1.62,0.29c2.26,0,3.08-0.96,3.08-2.4v-21.57v-6.99
				C321,177.808,320.06,176.728,318,176.728z"/>
			<path fill="none" d="M340.977,185.833c-0.183,0.499-0.363,1-0.539,1.503C340.613,186.833,340.794,186.333,340.977,185.833z"/>
			<path fill="none" d="M345.84,174.559c-0.168,0.336-0.338,0.67-0.503,1.007c0.029-0.059,0.059-0.117,0.088-0.176
				c0.012-0.024,0.023-0.048,0.035-0.072C345.587,175.065,345.714,174.812,345.84,174.559z"/>
			<path fill="none" stroke="#FFFFFF" stroke-width="4" stroke-linecap="round" stroke-linejoin="round" d="M336.353,202.475
				c0.011-0.059,0.021-0.118,0.033-0.176"/>
			<path fill="#FFFFFF" d="M335.878,205.041c-0.033,0.195-0.06,0.392-0.092,0.588c0.009-0.054,0.019-0.107,0.028-0.161
				c0.044-0.266,0.083-0.534,0.129-0.8c-0.011,0.06-0.023,0.12-0.034,0.181C335.899,204.912,335.889,204.977,335.878,205.041z"/>
			<path fill="#FFFFFF" d="M335.435,207.89c0.002-0.016,0.004-0.031,0.006-0.047c-0.007,0.048-0.015,0.097-0.021,0.146
				C335.425,207.955,335.43,207.923,335.435,207.89z"/>
			<path fill="#FFFFFF" d="M283,176.128v32.63c1.49-16.51,5.47-32.3,11.56-47C287.16,165.038,283,170.058,283,176.128z"/>
			<path fill="#FFFFFF" d="M337.843,195.857c-0.063,0.244-0.12,0.491-0.182,0.736c0.13-0.518,0.262-1.035,0.4-1.549
				c-0.008,0.031-0.017,0.061-0.025,0.091C337.972,195.376,337.906,195.615,337.843,195.857z"/>
			<path fill="#FFFFFF" d="M345.46,175.318c-0.012,0.024-0.023,0.048-0.035,0.072c0.222-0.454,0.452-0.904,0.68-1.354
				c-0.088,0.174-0.178,0.348-0.265,0.523C345.714,174.812,345.587,175.065,345.46,175.318z"/>
			<path fill="#FFFFFF" d="M344.321,177.728c0.119-0.259,0.239-0.517,0.36-0.774c-0.087,0.184-0.175,0.367-0.261,0.552
				C344.386,177.579,344.355,177.654,344.321,177.728z"/>
			<path fill="#FFFFFF" d="M338.497,193.473c0.063-0.222,0.129-0.444,0.194-0.666c-0.031,0.101-0.063,0.201-0.093,0.303
				C338.563,193.231,338.531,193.352,338.497,193.473z"/>
			<path fill="#FFFFFF" d="M342.988,180.724c-0.045,0.107-0.086,0.218-0.131,0.325c0.123-0.293,0.25-0.585,0.376-0.877
				c-0.065,0.15-0.135,0.297-0.199,0.447C343.019,180.654,343.002,180.689,342.988,180.724z"/>
			<path fill="#FFFFFF" d="M337.089,198.949c-0.061,0.266-0.114,0.535-0.173,0.801c0.115-0.521,0.229-1.041,0.351-1.559
				c-0.03,0.126-0.064,0.25-0.093,0.376C337.145,198.695,337.118,198.822,337.089,198.949z"/>
			<path fill="#FFFFFF" d="M341.633,184.086c-0.007,0.019-0.015,0.038-0.022,0.057C341.618,184.124,341.626,184.105,341.633,184.086
				z"/>
			<path fill="#FFFFFF" d="M336.385,202.299c0.005-0.024,0.01-0.047,0.015-0.071c0.053-0.27,0.102-0.542,0.157-0.811
				c-0.022,0.107-0.046,0.215-0.067,0.322C336.452,201.924,336.422,202.113,336.385,202.299z"/>
			<path fill="#D9E021" d="M351.25,205.3c-0.19,0.969-0.35,1.939-0.48,2.918c-0.003,0.016-0.004,0.032-0.007,0.048
				c-0.046,0.319-0.08,0.641-0.122,0.961c-0.007,0.186,0.036,0.378,0.018,0.571c-0.411,3.389-0.647,6.835-0.656,10.33
				c2.416-2.498,3.812-5.412,3.976-8.65c0.01-0.22,0.02-0.44,0.02-0.67v-15.55c-0.19,0.5-0.37,1-0.54,1.5
				C352.504,199.555,351.787,202.405,351.25,205.3z"/>
			<path fill="#0071BC" d="M315,157.588v-0.01c-8.09,0.02-14.87,1.74-20.22,4.07c-0.07,0.03-0.15,0.07-0.22,0.11
				c-6.09,14.7-10.07,30.49-11.56,47v2.05c0,0.43-0.14,0.85-0.11,1.27c0.68,6.6,6.6,11.89,16.11,14.84
				c0.01-1.15,0.06-2.32,0.06-3.48C299.06,199.728,305,177.338,315,157.588z"/>
			<path fill="#662D91" d="M315.42,223.538c0-4.65,0.58-9.22,0.58-13.74v-0.01c0.01-0.04,0.01-0.08,0.02-0.12
				c-0.8-0.4-1.02-1.1-1.02-1.98v-28.56c0-1.32,0.73-2.4,3-2.4c2.06,0,3,1.08,3,2.4v6.99c0.15-0.35,0.33-0.7,0.44-1.05
				c2.88-9.2,6.77-17.94,11.54-26.12c0-0.01,0.01-0.01,0.01-0.02c-4.38-0.92-9.39-1.439-14.8-1.439c-1.01,0-2.03,0.011-3.01,0.011
				H315v0.088c-10,19.75-15.94,42.14-15.94,65.85c0,1.16-0.05,2.33-0.06,3.48c0.12,0.04,0.25,0.08,0.38,0.12
				c0.03,0,0.05,0.05,0.08,0.06c4.65,1.42,10.1,2.47,16.19,2.48c-0.01-0.03-0.01-0.06-0.01-0.09
				C315.54,227.518,315.42,225.538,315.42,223.538z"/>
			<path fill="#ED1E79" d="M334.48,217.798c0.098-1.936,0.257-3.855,0.454-5.763c0.031-0.303,0.055-0.608,0.089-0.91
				c0.069-0.619,0.154-1.233,0.233-1.849c0.062-0.478,0.117-0.958,0.185-1.435c0.082-0.575,0.177-1.146,0.268-1.718
				c0.026-0.165,0.05-0.331,0.077-0.496c0.032-0.196,0.059-0.393,0.092-0.588c0.026-0.151,0.052-0.301,0.078-0.452
				c0.096-0.554,0.203-1.104,0.308-1.655c0.099-0.522,0.195-1.044,0.302-1.563c0.111-0.543,0.231-1.082,0.351-1.622
				c0.059-0.267,0.112-0.535,0.173-0.801c0.029-0.127,0.056-0.255,0.085-0.382c0.029-0.126,0.063-0.25,0.093-0.376
				c0.126-0.534,0.26-1.066,0.394-1.597c0.062-0.245,0.118-0.492,0.182-0.736c0.063-0.241,0.129-0.481,0.193-0.722
				c0.008-0.031,0.017-0.061,0.025-0.091c0.141-0.526,0.288-1.049,0.436-1.571c0.034-0.121,0.066-0.242,0.101-0.363
				c0.113-0.393,0.23-0.784,0.347-1.176c0.156-0.518,0.316-1.035,0.479-1.55c0.161-0.508,0.325-1.014,0.493-1.519
				c0.17-0.512,0.343-1.022,0.521-1.53c0.176-0.503,0.356-1.003,0.539-1.503c0.184-0.503,0.37-1.006,0.561-1.506
				c0.19-0.498,0.387-0.992,0.585-1.486c0.198-0.495,0.396-0.99,0.6-1.481c0.089-0.212,0.175-0.425,0.265-0.637
				c0.015-0.035,0.031-0.069,0.046-0.104c0.105-0.246,0.216-0.489,0.322-0.734c0.21-0.483,0.418-0.966,0.634-1.445
				c0.141-0.313,0.286-0.624,0.43-0.935c0.086-0.185,0.174-0.368,0.261-0.552c0.218-0.463,0.432-0.928,0.656-1.387
				c0.164-0.338,0.335-0.672,0.503-1.007c0.087-0.175,0.177-0.348,0.265-0.523c0.22-0.433,0.435-0.869,0.66-1.299
				c0.293-0.56,0.598-1.114,0.901-1.668c0.202-0.37,0.398-0.744,0.604-1.112c0.514-0.917,1.04-1.827,1.58-2.728
				c0.03-0.04,0.05-0.06,0.07-0.09c-3.52-3.81-9.4-6.63-16.84-8.19c-0.03-0.01-0.06-0.01-0.09-0.02c0,0.01-0.01,0.01-0.01,0.02
				c-4.77,8.18-8.66,16.92-11.54,26.12c-0.11,0.35-0.29,0.7-0.44,1.05v21.57c0,1.44-0.82,2.4-3.08,2.4c-0.73,0-1.15-0.1-1.62-0.29
				c-0.01,0-0.02-0.01-0.03-0.01c-0.09-0.03-0.17-0.07-0.25-0.12c-0.01,0.04-0.01,0.08-0.02,0.12v0.01c0,4.52-0.58,9.09-0.58,13.74
				c0,2,0.12,3.941,0.22,5.911c0,0.03,0,0.051,0.01,0.051h2.51c6.05,0,11.52-0.601,16.26-1.751c-0.01-0.14-0.01-0.25-0.01-0.38
				c0-0.07-0.01-0.14-0.01-0.21c-0.05-1.01-0.07-2.475-0.07-3.725C334.33,221.543,334.38,219.668,334.48,217.798z"/>
			<path fill="#FF931E" d="M350.05,167.268c-0.04-0.04-0.07-0.09-0.11-0.13l-0.01-0.01l-0.01,0.01c-0.02,0.03-0.04,0.05-0.07,0.09
				c-0.54,0.901-1.065,1.811-1.58,2.728c-0.206,0.368-0.402,0.742-0.604,1.112c-0.303,0.555-0.608,1.108-0.901,1.668
				c-0.225,0.43-0.44,0.866-0.66,1.299c-0.228,0.451-0.458,0.9-0.68,1.354c-0.029,0.059-0.059,0.117-0.088,0.176
				c-0.224,0.46-0.438,0.924-0.656,1.387c-0.121,0.258-0.241,0.516-0.36,0.774c-0.11,0.238-0.223,0.474-0.331,0.713
				c-0.216,0.479-0.424,0.962-0.634,1.445c-0.041,0.095-0.082,0.191-0.123,0.287c-0.126,0.292-0.253,0.584-0.376,0.877
				c-0.044,0.104-0.09,0.207-0.134,0.312c-0.205,0.491-0.403,0.986-0.6,1.481c-0.165,0.414-0.329,0.828-0.489,1.244
				c-0.007,0.019-0.015,0.038-0.022,0.057c-0.024,0.062-0.049,0.123-0.073,0.185c-0.191,0.5-0.377,1.002-0.561,1.506
				c-0.183,0.499-0.363,1-0.539,1.503c-0.178,0.508-0.351,1.018-0.521,1.53c-0.168,0.505-0.332,1.011-0.493,1.519
				c-0.163,0.515-0.323,1.031-0.479,1.55c-0.087,0.29-0.169,0.582-0.254,0.873c-0.065,0.222-0.131,0.443-0.194,0.666
				c-0.148,0.523-0.295,1.046-0.436,1.571c-0.138,0.515-0.269,1.032-0.4,1.549c-0.134,0.531-0.268,1.063-0.394,1.597
				c-0.122,0.518-0.236,1.039-0.351,1.559c-0.119,0.54-0.239,1.079-0.351,1.622c-0.003,0.015-0.006,0.03-0.009,0.045
				c-0.055,0.269-0.104,0.541-0.157,0.811c-0.016,0.082-0.032,0.165-0.048,0.247c-0.03,0.153-0.06,0.306-0.089,0.459
				c-0.104,0.551-0.212,1.101-0.308,1.655c-0.005,0.026-0.008,0.053-0.013,0.079c-0.046,0.266-0.085,0.534-0.129,0.8
				c-0.036,0.219-0.071,0.438-0.106,0.657c-0.091,0.572-0.186,1.143-0.268,1.718c0,0,0,0,0,0c-0.002,0.016-0.004,0.031-0.006,0.047
				c-0.065,0.461-0.12,0.925-0.179,1.388c-0.079,0.616-0.164,1.23-0.233,1.849c-0.034,0.302-0.057,0.607-0.089,0.91
				c-0.197,1.908-0.356,3.827-0.454,5.763c-0.1,1.87-0.15,3.75-0.15,5.64c0,1.25,0.02,2.681,0.07,3.691
				c0.01,0.15,0.01,0.371,0.02,0.371h0.01c6.51-1,11.57-3.832,15.57-7.122v-0.01v-0.01v-0.01c0-0.074,0.003-0.147,0.004-0.22
				c0.01-3.494,0.245-6.941,0.656-10.33c0.018-0.193-0.026-0.385-0.018-0.571c0.001-0.026-0.005-0.053-0.002-0.079
				c0.038-0.294,0.077-0.588,0.123-0.882c0.003-0.016-0.121-0.032-0.118-0.048c0.13-0.979,0.355-1.949,0.355-2.918
				c0,0,0-0.001,0-0.002c1-1.92,0.905-3.82,1.445-5.7c0-0.01,0.063-0.02,0.073-0.03c0.13-0.47,0.301-0.94,0.451-1.41
				c0.14-0.47,0.316-0.93,0.476-1.4c0.17-0.5,0.366-1,0.556-1.5v-18.53C354,173.148,352.48,169.958,350.05,167.268z"/>
		</g>
		<g>
			<path fill="#662D91" d="M175.59,156.5h-8.27c-0.82,0-1.32,0.23-1.32,0.83v7.71C168.95,161.94,172.16,159.07,175.59,156.5z"/>
			<path fill="#0071BC" d="M131.65,156.5c-1.03,0-1.65,0.35-1.65,1.07v38.39c3.6-14.82,10.69-28.29,20.35-39.46H131.65z"/>
			<path fill="#D9E021" d="M180.67,218.43c0,3.45,0.42,7.07,1.22,10.07h12.45c1.03,0,1.66-0.5,1.66-0.98v-41.28
				C187,193.82,180.67,205.46,180.67,218.43z"/>
			<path fill="#662D91" d="M159,173.52v-16.19c0-0.6-0.34-0.83-1.37-0.83h-7.28c-9.66,11.17-16.75,24.64-20.35,39.46v19.92
				c0,7.08,7.77,11.09,15.27,12.18c-0.4-3.18-0.6-6.41-0.6-9.7C144.67,201.64,149.97,186.17,159,173.52z"/>
			<path fill="#ED1E79" d="M194.13,156.5h-18.54c-3.43,2.57-6.64,5.44-9.59,8.54v38.12c0,1.8-1.85,2.4-3.5,2.4
				c-1.44,0-3.5-0.6-3.5-2.4v-29.64c-9.03,12.65-14.33,28.12-14.33,44.84c0,3.29,0.2,6.52,0.6,9.7c1.4,0.2,2.78,0.3,4.11,0.3
				c7.43,0,10.93-1.03,14.64-3.07c1.24-0.72,1.86-0.79,2.27-0.79h0.05c-0.02-0.11-0.03-0.23-0.04-0.34c-0.2-1.9-0.3-3.84-0.3-5.8
				c0-21.53,12.16-40.23,29.99-49.6c0,0,0.01,0,0.01-0.01v-11.54C196,156.73,195.16,156.5,194.13,156.5z"/>
			<path fill="#FF931E" d="M166,218.36c0,1.96,0.1,3.9,0.3,5.8c0.01,0.11,0.02,0.23,0.04,0.34c1.23,0.08,2.44,4,3.66,4h11.89
				c-0.8-3-1.22-6.62-1.22-10.07c0-12.97,6.33-24.61,15.33-32.19v-17.49c0,0.01-0.01,0.01-0.01,0.01
				C178.16,178.13,166,196.83,166,218.36z"/>
		</g>
	</g>
	<g>
		<path fill="none" d="M81,113.741v0.261c0.338,0.294,0.815,0.498,1.372,0.498h1.167c-0.217,0-0.296-0.066-0.483-0.066
			C81.802,114.434,81.269,114.124,81,113.741z"/>
		<path fill="none" d="M42,113.757v0.115c0.031,0.039,0.055,0.082,0.093,0.117c0.004,0.006,0.015,0.005,0.02,0.01
			c-0.025-0.038-0.029-0.095-0.057-0.13C42.025,113.832,42.013,113.795,42,113.757z"/>
		<path fill="none" d="M38.418,59.584c-0.073,0-0.146,0.013-0.22,0.016c0.133-0.008,0.263-0.013,0.385-0.014
			c-0.002,0-0.005,0-0.007,0C38.567,59.585,38.426,59.584,38.418,59.584z"/>
		<path fill="none" d="M36.557,59.916c0.114-0.034,0.22-0.067,0.307-0.096c0.369-0.115,0.83-0.185,1.262-0.216
			c-0.456,0.023-0.918,0.085-1.32,0.216C36.721,59.849,36.64,59.883,36.557,59.916z"/>
		<path fill="none" d="M38.51,51.584c0.075,0,0.211,0.001,0.288,0.003C45.246,51.702,50,56.093,50,62.095v2.537v0.094V106.5h16
			V62.22c0-6.064,4.926-10.636,11.376-10.636c0.188,0,0.437,0.007,0.624,0.018C84.242,51.86,89,56.3,89,62.22v2.683
			c0,13.31-0.462,31.597-0.438,41.597H104V39.234c0-0.026-0.007-0.052-0.01-0.077c-0.012-0.057-0.027-0.115-0.041-0.172
			c-0.052-0.221-0.131-0.408-0.25-0.596c-0.028-0.044-0.056-0.09-0.084-0.137c-1.404-2.021-5.711-4.13-11.092-4.13
			c-5.825,0-9.604,1.782-12.671,3.519c-2.097,1.44-4.544,2.259-6.803,2.259c-2.572,0-5.106-1.023-7.536-3.046
			c-2.322-1.808-5.92-2.72-10.696-2.72c-4.828,0-8.808,1.528-10.956,2.965c-1.009,0.723-1.924,1.267-2.869,1.658
			c-0.317,0.131-0.59,0.269-0.8,0.333c-1.061,0.348-2.135,0.619-3.191,0.619c-4.511,0-6.948-3.209-8.326-5.209H12v72h15V62.095
			c0-4.559,2.943-8.436,7.347-9.877C35.632,51.797,37.098,51.584,38.51,51.584z"/>
		<path fill="#CCCCCC" d="M104.714,29.018c0.002,0.003,0.007,0.01,0.01,0.013c0.051,0.028,0.101,0.057,0.152,0.085
			C104.823,29.084,104.764,29.048,104.714,29.018z"/>
		<path fill="#CCCCCC" d="M107.802,31.117c1.046,0.887,1.935,1.862,2.613,2.915c0.017,0.026,0.028,0.053,0.044,0.079
			c0.605,0.956,1.026,1.974,1.275,3.034c0.005,0.021,0.01,0.042,0.015,0.063c0.061,0.268,0.122,0.537,0.159,0.811
			c0.051,0.382,0.091,0.767,0.091,1.158v73.884c0,0.695-0.531,1.367-0.672,1.367c-0.012,0-0.023,0.071-0.028,0.071h-1.167H83.539
			h-1.167c-0.556,0-1.034-0.205-1.372-0.498v-0.261c-0.064-0.091-0.118-0.185-0.157-0.281C80.79,113.332,81,64.903,81,64.903V62.22
			c0-1.825-1.773-2.582-3.378-2.627c-0.051-0.001-0.317-0.009-0.368-0.009c-1.657,0-3.253,0.753-3.253,2.636v50.967
			c0,0.753-0.743,1.313-1.987,1.313H43.632c-0.65,0-1.178-0.184-1.509-0.482c-0.005-0.005-0.006-0.013-0.009-0.019
			c-0.005-0.005-0.016-0.004-0.02-0.01c-0.038-0.035-0.062-0.078-0.093-0.117v-0.115c-0.006-0.019-0.012-0.038-0.022-0.059
			c-0.056-0.116,0.022-0.242,0.022-0.385V64.726v-0.094v-2.537c0-1.871-1.77-2.501-3.418-2.509
			c-0.122,0.001-0.252,0.006-0.385,0.014c-0.024,0.001-0.047,0.004-0.071,0.005c-0.432,0.031-0.892,0.102-1.262,0.216
			c-0.087,0.029-0.194,0.061-0.307,0.096C35.685,60.271,35,60.942,35,62.095v51.469c0,0.32-0.184,0.616-0.634,0.769
			c-0.257,0.088-0.509,0.168-0.886,0.168h-2H5.098c-0.268,0-0.46-0.059-0.62-0.141c-0.187-0.053-0.347-0.133-0.478-0.235v0.318
			c0,0.628,7.447,12.058,8.276,12.058h28.382c1.036,0,1.342-0.727,1.342-1.23v-10.584c0.287,1.12,7.793,11.814,8.809,11.814h28.382
			c1.243,0,1.809-0.853,1.809-1.606v-9.752c1.641,2.833,7.656,11.358,8.549,11.358h32.761c1.243,0,1.69-0.978,1.69-1.732V58.25
			C124,45.382,113.713,35.543,107.802,31.117z"/>
		<path fill="#CCCCCC" d="M37.002,31.52c0.245,0,0.497-0.056,0.768-0.15c0.056-0.02,0.108-0.029,0.167-0.053
			c0.375-0.155,0.801-0.406,1.344-0.801c0.267-0.182,0.573-0.361,0.87-0.541c-1.856-2.211-5.895-3.298-6.719-3.458
			c0.363,0.348,0.743,1.023,1.129,1.808C35.385,29.793,36.159,31.52,37.002,31.52z"/>
		<path fill="#FFFFFF" d="M33.48,114.5c0.377,0,0.629-0.08,0.886-0.168c0.449-0.153,0.634-0.45,0.634-0.769V62.095
			c0-1.152,0.685-1.823,1.557-2.178c0.082-0.033,0.164-0.068,0.249-0.096c0.402-0.132,0.864-0.194,1.32-0.216
			c0.024-0.001,0.048-0.004,0.071-0.005c0.073-0.003,0.147-0.058,0.22-0.058c0.008,0,0.15-0.041,0.158-0.041
			c0.002,0,0.005,0,0.007,0C40.23,59.5,42,60.223,42,62.095v2.537v0.094v48.587c0,0.144-0.078,0.269-0.022,0.385
			c0.01,0.022,0.016,0.04,0.022,0.059c0.013,0.038,0.025,0.074,0.056,0.112c0.028,0.034,0.032,0.091,0.057,0.13
			c0.004,0.006,0.004,0.014,0.009,0.019c0.331,0.298,0.859,0.482,1.509,0.482h28.382c1.243,0,1.987-0.56,1.987-1.313V62.22
			c0-1.883,1.596-2.636,3.253-2.636c0.051,0,0.317,0.007,0.368,0.009C79.227,59.638,81,60.395,81,62.22v2.683
			c0,0-0.21,48.429-0.157,48.556c0.04,0.096,0.093,0.19,0.157,0.281c0.269,0.383,0.802,0.693,2.055,0.693
			c0.188,0,0.266,0.066,0.483,0.066h26.594h1.167c0.006,0,0.017-0.071,0.028-0.071c0.142,0,0.672-0.672,0.672-1.367V39.178
			c0-0.391-0.04-0.776-0.091-1.158c-0.036-0.274-0.098-0.542-0.159-0.811c-0.005-0.021-0.01-0.042-0.015-0.063
			c-0.249-1.059-0.671-2.078-1.275-3.034c-0.016-0.026-0.028-0.054-0.044-0.079c-0.679-1.053-1.567-2.029-2.613-2.915
			c-0.868-0.736-1.849-1.406-2.926-2.001c-0.051-0.028-0.101-0.057-0.152-0.085c-3.365-1.821-7.624-2.909-12.201-2.909
			c-7.872,0-13.052,2.511-16.988,4.77c-0.828,0.628-1.864,1.004-2.485,1.004c-0.622,0-1.45-0.376-2.486-1.255
			c-3.314-2.636-8.287-4.519-15.745-4.519c-6.094,0-11.29,1.806-14.667,3.853c-0.297,0.18-0.602,0.358-0.87,0.541
			c-0.543,0.395-0.969,0.646-1.344,0.801c-0.059,0.024-0.11,0.034-0.167,0.053c-0.271,0.095-0.523,0.15-0.768,0.15
			c-0.843,0-1.616-1.727-2.442-3.195c-0.363-0.646-0.736-1.242-1.129-1.619c-0.251-0.241-0.51-0.206-0.78-0.206h-0.484H5.512
			C4.476,26.5,4,26.624,4,27.126v86.312c0,0.286-0.043,0.516,0.176,0.686c0.131,0.102,0.203,0.21,0.39,0.264
			c0.187,0.053,0.307,0.113,0.533,0.113H31.48H33.48z M27,62.095V106.5H12v-72h16.675c1.378,2,3.815,5.209,8.326,5.209
			c1.056,0,2.13-0.272,3.191-0.619c0.209-0.063,0.482-0.201,0.8-0.333c0.945-0.391,1.86-0.935,2.869-1.658
			c2.148-1.437,6.128-2.965,10.956-2.965c4.776,0,8.374,0.911,10.696,2.72c2.43,2.023,4.964,3.046,7.536,3.046
			c2.259,0,4.706-0.818,6.803-2.259c3.066-1.736,6.846-3.519,12.671-3.519c5.381,0,9.687,2.109,11.092,4.13
			c0.028,0.047,0.057,0.093,0.084,0.137c0.119,0.188,0.198,0.376,0.25,0.596c0.013,0.057,0.028,0.115,0.041,0.172
			c0.003,0.026,0.01,0.051,0.01,0.077V106.5H88.562C88.538,96.5,89,78.213,89,64.903V62.22c0-5.92-4.758-10.36-11-10.618
			c-0.187-0.012-0.436-0.018-0.624-0.018C70.926,51.584,66,56.156,66,62.22v44.28H50V64.726v-0.094v-2.537
			c0-6.002-4.754-10.392-11.201-10.507c-0.077-0.002-0.213-0.003-0.288-0.003c-1.413,0-2.878,0.213-4.163,0.634
			C29.943,53.659,27,57.536,27,62.095z"/>
	</g>
	<path fill="#FFFFFF" d="M507.233-28.859c0-0.753,0.621-1.255,1.657-1.255h26.103c1.036,0,1.658,0.376,1.658,1.004v47.954
		c0,1.883,1.864,2.511,3.314,2.511c1.657,0,3.314-0.627,3.314-2.511V-29.11c0-0.627,0.621-1.004,1.45-1.004h26.932
		c1.036,0,1.865,0.376,1.865,0.878v73.563c0,0.502-0.622,0.879-1.658,0.879h-24.445c-1.243,0-2.486-4.394-3.729-4.394
		c-0.414,0-1.035,0.251-2.278,1.004c-3.729,2.134-7.251,3.39-14.709,3.39c-8.494,0-19.474-4.268-19.474-13.056V-28.859z"/>
	<g>
		<path fill="none" d="M170.267,29.816c-0.84,0.509-1.141,0.767-1.446,0.847c0.354-0.081,0.784-0.339,1.624-0.847
			c0.032-0.02,0.068-0.034,0.101-0.053C170.429,29.764,170.33,29.778,170.267,29.816z"/>
		<path fill="none" d="M169.637,85.666c0.092,0.084,0.209,0.16,0.353,0.23c0.49,0.237,1.219,0.387,1.851,0.396
			c0.019,0,0.038,0.002,0.057,0.002c0.632,0,1.315-0.092,1.685-0.239c1.208-0.48,1.417-1.57,1.417-2.146V64.683V64.44v-0.257v-3.783
			c0-1.205-0.981-2.28-2.69-2.366c-0.034-0.002-0.165-0.009-0.2-0.01c-0.039-0.001-0.103-0.009-0.142-0.009
			c-2.278,0-3.967,1.381-3.967,3.264V83.28C168,84.41,168.601,85.164,169.637,85.666z"/>
		<path fill="none" d="M168.968,110.41c0.084-0.019,0.172-0.047,0.246-0.048l0,0c-0.004,0-0.008-0.001-0.011-0.001
			C169.129,110.362,169.05,110.382,168.968,110.41z"/>
		<path fill="none" d="M169.202,102.5h0.392l0.206-0.049c1.905,0.124,3.499,0.788,5.08,1.578c2.198,0.938,5.449,1.47,8.756,1.47
			h0.008h0.1c7.354,0,16.255-3.125,16.255-17.927V56.337c0-8.041-3.544-13.901-4.611-15.505c-0.037-0.056-0.106-0.113-0.143-0.172
			c-3.302-4.764-9.542-5.479-12.976-5.479c-2.562,0-4.666,0.28-6.24,0.831c-0.57,0.2-1.055,0.417-1.434,0.647
			c-1.219,0.739-2.373,1.437-3.999,1.807c-0.43,0.098-0.866,0.068-1.3,0.103L169.03,38.5h-0.449c-4.834,0-8.581-3.761-8.581-8.81
			V14.5h-15v91h17.268C163.798,104.032,166.03,102.5,169.202,102.5z M160,61.278c0-6.316,5.223-11.264,11.916-11.264
			c0.25,0,0.488,0.011,0.741,0.034c0.053,0.004,0.307,0.009,0.36,0.014c5.6,0.428,9.983,4.821,9.983,10.337v3.783v0.257v0.244
			v19.225c0,6.58-4.993,9.099-6.461,9.683c-1.345,0.535-3.043,0.909-4.644,0.909h-0.202l-0.139-0.11
			c-1.122-0.033-3.099-0.293-5.061-1.243c-0.379-0.184-0.72-0.412-1.062-0.634C162.002,90.561,160,87.148,160,83.28V61.278z"/>
		<path fill="none" d="M168,29.69V7.722c0-0.077-0.021-0.154-0.076-0.231C167.949,7.568,168,7.644,168,7.722V29.69
			c0,0.753,0.394,1.004,0.601,1.004c0.005,0,0.001-0.001,0.006-0.001C168.399,30.69,168,30.439,168,29.69z"/>
		<path fill="#CCCCCC" d="M188.964,27.899L188.964,27.899c4.949,1.111,9.751,3.634,12.965,8.406
			c0.021,0.031,0.101,0.065,0.122,0.096c0.988,1.486,5.95,9.099,5.95,19.935v31.236c0,20.561-13.907,25.927-24.255,25.927
			c-0.013,0-0.027,0-0.04,0c-4.765,0-9.115-0.879-12.223-2.26c-1.232-0.622-1.853-0.873-2.268-0.878h0l0,0
			c-0.074,0.001-0.162,0.028-0.246,0.048c-1.014,0.356-2.686,2.734-3.531,3.054c0,0,0,0-0.001,0
			c-0.061,0.023-0.118,0.035-0.169,0.035h-26.104c-0.769,0-1.707-0.435-1.838-1c-0.01,0-0.026,0-0.026,0c0,1,8.453,13,9.281,13
			h26.104c0.828,0,2.9-2.984,3.936-2.984c0.415,0,1.036,0.328,2.279,0.956c3.107,1.381,7.314,2.298,12.079,2.298
			C201.335,125.771,219,116,219,91.828V59.702C219,43.019,194.852,27.899,188.964,27.899z"/>
		<path fill="#CCCCCC" d="M168,7.722V29.69c0,0.748,0.389,1,0.597,1.003c0.073-0.001,0.148-0.012,0.225-0.03
			c0.305-0.081,0.606-0.339,1.446-0.847c0.063-0.038,0.162-0.052,0.279-0.053c0.877-0.521,1.823-0.95,2.83-1.302
			c1.688-0.591,3.572-0.943,5.623-1.125V17.031c0-0.483-9.155-8.061-11.141-9.683c0.024,0.047,0.03,0.095,0.045,0.143
			C167.959,7.567,168,7.644,168,7.722z"/>
		<path fill="#FFFFFF" d="M165.431,92.487c0.342,0.222,0.694,0.425,1.072,0.608c1.962,0.95,3.934,1.262,5.056,1.294l0.134,0.11
			h0.202c1.6,0,3.299-0.374,4.644-0.909c1.467-0.584,6.461-3.103,6.461-9.683V64.683V64.44v-0.257v-3.783
			c0-5.516-4.388-9.909-9.988-10.337c-0.053-0.005-0.209-0.01-0.262-0.014c-0.253-0.023-0.532-0.034-0.782-0.034
			c-6.693,0-11.967,4.948-11.967,11.264V83.28C160,87.148,162.002,90.535,165.431,92.487z M168,61.278
			c0-1.883,1.637-3.264,3.916-3.264c0.04,0,0.062,0.008,0.101,0.009c0.035,0.001,0.264,0.008,0.298,0.01
			c1.71,0.086,2.685,1.161,2.685,2.366v3.783v0.257v0.244v19.225c0,0.576-0.21,1.665-1.418,2.146
			c-0.37,0.147-0.952,0.239-1.584,0.239c-0.019,0-0.091-0.002-0.111-0.002c-0.632-0.009-1.391-0.158-1.882-0.396
			c-0.144-0.07-0.264-0.146-0.356-0.23c-1.036-0.502-1.65-1.255-1.65-2.385V61.278z"/>
		<path fill="#FFFFFF" d="M139.163,113.5h26.104c0.052,0,0.108-0.012,0.169-0.035c0,0,0,0,0.001,0
			c0.845-0.32,2.517-2.629,3.531-2.985c0.082-0.029,0.161,0.02,0.234,0.02c0.004,0-0.202,0-0.202,0v-0.069
			c1,0.004,1.142,0.221,2.375,0.843c3.107,1.381,7.565,2.225,12.33,2.225c0.013,0,0.027-0.001,0.04-0.001
			C194.093,113.488,208,108.134,208,87.573V56.337c0-10.837-4.962-18.449-5.95-19.935c-0.021-0.031-0.07-0.066-0.09-0.096
			c-3.214-4.772-8.032-7.295-12.981-8.406c-2.251-0.505-4.541-0.719-6.717-0.719c-1.139,0-2.215,0.063-3.258,0.155
			c-2.051,0.182-3.938,0.534-5.625,1.125c-1.007,0.353-1.954,0.781-2.831,1.302c-0.032,0.019-0.069,0.034-0.101,0.053
			c-0.84,0.509-1.27,0.767-1.624,0.847c-0.077,0.018-0.152,0.029-0.225,0.03c-0.005,0,0.009,0.001,0.004,0.001
			c-0.207,0-0.601-0.251-0.601-1.004V7.722c0-0.078-0.051-0.154-0.076-0.231c-0.015-0.048-0.031-0.096-0.055-0.143
			c-0.055-0.106-0.131-0.209-0.226-0.303c-0.159-0.159-0.377-0.293-0.624-0.395c-0.051-0.021-0.102-0.066-0.155-0.084
			c-0.051-0.017,0.042-0.066-0.011-0.066H167v0.064c0-0.049-0.69-0.064-0.905-0.064h-26.932C138.127,6.5,137,6.843,137,7.471V112.37
			c0,0.045,0.166,0.087,0.176,0.13C137.306,113.065,138.394,113.5,139.163,113.5z M145,14.5h15v15.19c0,5.049,3.747,8.81,8.581,8.81
			h0.449l0.266,0.068c0.434-0.035,0.869-0.054,1.299-0.152c1.626-0.37,2.778-1.044,3.997-1.783c0.379-0.23,0.86-0.435,1.43-0.635
			c1.574-0.551,3.671-0.825,6.232-0.825c3.434,0,9.659,0.718,12.961,5.483c0.037,0.059,0.137,0.118,0.174,0.174
			c1.067,1.604,4.611,7.466,4.611,15.507v31.236c0,14.802-8.902,17.927-16.255,17.927h-0.1h-0.008c-3.307,0-6.558-0.567-8.756-1.505
			c-1.581-0.79-3.175-1.42-5.08-1.544l-0.206,0.049h-0.392c-3.173,0-5.404,1.532-6.934,3H145V14.5z"/>
	</g>
	<path fill="#FFFFFF" d="M283.053-119.054c0-11.549,14.295-19.458,35.633-19.458c21.339,0,35.633,7.783,35.633,20.085v35.651
		c0,11.675-14.294,19.583-35.633,19.583c-21.131,0-35.633-8.034-35.633-19.583V-119.054z M315.371-86.038
		c0,1.506,1.036,2.511,3.314,2.511c2.279,0,3.314-1.004,3.314-2.511v-29.877c0-1.381-1.242-2.511-3.314-2.511
		c-2.278,0-3.314,1.13-3.314,2.511V-86.038z"/>
	<path fill="#FFFFFF" d="M374.411-100.725c0.415-0.627,0.415-0.879,0.207-1.506l-19.681-35.275
		c-0.207-0.502,0.207-1.004,0.829-1.004h30.246c0.829,0,1.45,0.376,1.657,1.004l3.937,9.541c0,0.125,0.207,0.376,0.414,0.376
		l0.415-0.502l3.936-9.416c0.207-0.627,1.036-1.004,1.657-1.004h29.833c0.828,0,1.45,0.627,1.242,1.13l-19.474,35.275
		c-0.207,0.376-0.414,0.753-0.414,1.004s0.207,0.753,0.414,1.004l19.267,35.777c0.207,0.628-0.621,1.13-1.45,1.13h-29.832
		c-0.828,0-1.45-0.376-1.657-1.004l-3.521-9.917c0-0.251-0.208-0.502-0.415-0.502l-0.414,0.502l-3.107,9.917
		c-0.207,0.628-0.829,1.004-1.657,1.004H355.56c-0.622,0-1.036-0.376-0.829-0.879L374.411-100.725z"/>
</g>
</svg>
