<?xml version="1.0" encoding="utf-8"?>
<!-- Generator: Adobe Illustrator 17.0.0, SVG Export Plug-In . SVG Version: 6.00 Build 0)  -->
<!DOCTYPE svg PUBLIC "-//W3C//DTD SVG 1.1//EN" "http://www.w3.org/Graphics/SVG/1.1/DTD/svg11.dtd">
<svg version="1.1" id="Layer_1" xmlns="http://www.w3.org/2000/svg" xmlns:xlink="http://www.w3.org/1999/xlink" x="0px" y="0px"
	 width="114.25px" height="124.75px" viewBox="0 0 114.25 124.75" enable-background="new 0 0 114.25 124.75" xml:space="preserve">
<g>
	<polygon fill="#FFFFFF" points="57.262,24.395 76.561,13.312 57.136,2.092 37.818,13.249 41.396,15.319 	"/>
	<path fill="#FFFFFF" d="M56,35.64v-8.799L37,15.93v8.802l9.299,5.367C46.722,30.343,47,30.794,47,31.283v0.065v9.51L56,35.64z"/>
	<path fill="#FFFFFF" d="M78,15.71L59,26.862v8.87l9,5.109v-9.542c0,0,0,0,0,0s0,0,0,0v-0.016c0-0.489,0.09-0.94,0.513-1.184
		L78,24.598V15.71z"/>
	<path fill="#FFFFFF" d="M81,65.289v8.742l10.262,5.87l19.3-11.083l-7.615-4.398l-10.37,5.951c-0.167,0.161-0.356,0.304-0.532,0.405
		c-0.211,0.122-0.718,0.183-0.954,0.183c-0.237,0-0.473-0.061-0.685-0.184L81,65.289z"/>
	<path fill="#FFFFFF" d="M71.334,81.049l8.81,5.049C80.567,86.343,81,86.794,81,87.283v0.065v12.08l9,5.299V82.348l-10.46-6.007
		L71.334,81.049z"/>
	<polygon fill="#FFFFFF" points="112,71.217 93,82.369 93,104.731 112,93.538 	"/>
	<path fill="#FFFFFF" d="M34,73.939v-8.846l-9.473,5.458c-0.094,0.087-0.197,0.163-0.306,0.225
		c-0.211,0.122-0.541,0.183-0.777,0.183c-0.236,0-0.511-0.061-0.723-0.184c-0.046-0.027-0.084-0.064-0.127-0.096l-10.867-6.287
		L4.131,68.78l18.237,10.528l1.14,0.656L34,73.939z"/>
	<polygon fill="#FFFFFF" points="22,104.726 22,82.348 3,71.346 3,93.54 	"/>
	<path fill="#FFFFFF" d="M34,87.283c0-0.489,0.09-0.94,0.513-1.184l8.677-5.031l-8.011-4.673L25,82.369v22.362l9-5.302v-12.13
		c0,0,0,0,0,0s0,0,0,0V87.283z"/>
	<polygon fill="#FFFFFF" points="91.262,42.395 110.561,31.312 91.136,20.092 71.818,31.249 75.396,33.319 	"/>
	<path fill="#FFFFFF" d="M71,42.858l9.144,5.24C80.567,48.343,81,48.794,81,49.283v0.065v12.573l9,5.299V44.841L71,33.93V42.858z"/>
	<polygon fill="#FFFFFF" points="112,56.032 112,33.71 93,44.862 93,67.225 	"/>
	<polygon fill="#FFFFFF" points="23.508,42.458 42.916,31.312 23.49,20.092 4.131,31.274 22.368,41.802 	"/>
	<polygon fill="#FFFFFF" points="22,44.841 3,33.839 3,56.033 22,67.22 	"/>
	<path fill="#FFFFFF" d="M34,49.283c0-0.489,0.09-0.94,0.513-1.184L44,42.598V33.71L25,44.862v22.362l9-5.302V49.299c0,0,0,0,0,0
		s0,0,0,0V49.283z"/>
	<path fill="#FFFFFF" d="M57.262,98.395l19.3-11.083l-8.044-4.646l-9.941,5.705c-0.167,0.161-0.356,0.304-0.532,0.405
		c-0.211,0.122-0.718,0.183-0.954,0.183c-0.237,0-0.473-0.061-0.685-0.184l-10.562-6.161l-8.025,4.635l3.577,2.069L57.262,98.395z"
		/>
	<polygon fill="#FFFFFF" points="37,112.033 56,123.22 56,100.841 37,89.93 	"/>
	<polygon fill="#FFFFFF" points="78,89.71 59,100.862 59,123.225 78,112.032 	"/>
	<polygon fill="#FFFFFF" points="57.262,60.395 76.561,49.312 57.136,38.092 37.818,49.249 41.396,51.319 	"/>
	<polygon fill="#FFFFFF" points="37,74.033 56,85.22 56,62.841 37,51.93 	"/>
	<polygon fill="#FFFFFF" points="78,51.71 59,62.862 59,85.225 78,74.032 	"/>
</g>
</svg>
