<?xml version="1.0" encoding="utf-8"?>
<!-- Generator: Adobe Illustrator 17.0.0, SVG Export Plug-In . SVG Version: 6.00 Build 0)  -->
<!DOCTYPE svg PUBLIC "-//W3C//DTD SVG 1.1//EN" "http://www.w3.org/Graphics/SVG/1.1/DTD/svg11.dtd">
<svg version="1.1" id="Layer_1" xmlns="http://www.w3.org/2000/svg" xmlns:xlink="http://www.w3.org/1999/xlink" x="0px" y="0px"
	 width="293.5px" height="141.264px" viewBox="0 0 293.5 141.264" enable-background="new 0 0 293.5 141.264" xml:space="preserve">
<g>
	<g>
		<path fill="#333333" d="M204.886,50c6.207,0,11.517,2.501,15.933,7.503c4.385,4.971,6.577,10.976,6.577,18.016v26.539h-10.514
			V75.519c0-4.137-1.174-7.672-3.52-10.606c-2.347-2.933-5.172-4.4-8.476-4.4c-3.335,0-6.176,1.467-8.522,4.4
			c-2.347,2.934-3.52,6.469-3.52,10.606v26.539h-10.513V75.519c0-4.137-1.174-7.672-3.52-10.606c-2.347-2.933-5.187-4.4-8.522-4.4
			c-3.304,0-6.129,1.467-8.475,4.4c-2.347,2.934-3.52,6.469-3.52,10.606v26.539h-10.513l-0.155-26.899
			c0,0-0.452-25.159,22.664-25.159c7.009,0,12.768,3.057,17.276,9.17C192.103,53.056,197.877,50,204.886,50z"/>
		<path fill="#333333" d="M227.395,102.558h-10.514c-0.276,0-0.5-0.224-0.5-0.5V75.519c0-4-1.147-7.464-3.411-10.293
			c-2.236-2.795-4.957-4.213-8.085-4.213c-3.16,0-5.896,1.417-8.131,4.213c-2.263,2.828-3.41,6.292-3.41,10.293v26.539
			c0,0.276-0.224,0.5-0.5,0.5H182.33c-0.276,0-0.5-0.224-0.5-0.5V75.519c0-4-1.147-7.464-3.411-10.293
			c-2.236-2.795-4.972-4.213-8.131-4.213c-3.129,0-5.849,1.417-8.085,4.213c-2.264,2.829-3.411,6.292-3.411,10.293v26.539
			c0,0.276-0.224,0.5-0.5,0.5h-10.513c-0.275,0-0.499-0.222-0.5-0.497l-0.154-26.899c-0.009-0.485-0.131-12.104,7.236-19.604
			c3.948-4.02,9.307-6.058,15.928-6.058c6.938,0,12.747,2.974,17.277,8.842c4.56-5.868,10.384-8.842,17.32-8.842
			c6.327,0,11.813,2.581,16.308,7.672c4.447,5.043,6.702,11.215,6.702,18.347v26.539
			C227.895,102.334,227.672,102.558,227.395,102.558z M217.382,101.558h9.514V75.519c0-6.881-2.171-12.831-6.452-17.686
			c-4.296-4.866-9.53-7.333-15.558-7.333c-6.809,0-12.501,3.017-16.92,8.968c-0.094,0.127-0.243,0.202-0.401,0.202h-0.001
			c-0.158,0-0.307-0.076-0.401-0.203c-4.387-5.95-10.064-8.967-16.873-8.967c-6.34,0-11.457,1.936-15.21,5.754
			c-7.072,7.195-6.956,18.78-6.954,18.896l0.151,26.408h9.516V75.519c0-4.234,1.221-7.907,3.63-10.918
			c2.436-3.044,5.418-4.588,8.866-4.588c3.478,0,6.477,1.543,8.913,4.588c2.408,3.012,3.629,6.685,3.629,10.918v26.039h9.514V75.519
			c0-4.234,1.221-7.907,3.629-10.918c2.436-3.044,5.434-4.588,8.913-4.588c3.448,0,6.431,1.543,8.867,4.588
			c2.408,3.012,3.629,6.685,3.629,10.918V101.558z"/>
	</g>
	<g>
		<path fill="#333333" d="M263.244,50.694c7.04,0,13.076,2.547,18.109,7.642c5.002,5.064,7.503,11.193,7.503,18.387
			c0,7.163-2.501,13.278-7.503,18.34c-5.032,5.127-11.069,7.688-18.109,7.688c-5.497,0-10.468-1.651-14.914-4.956
			c0,0-10.745-7.727-10.745-22.638c0-17.993,0-40.721,0-40.721h10.745v21.12C252.776,52.315,257.746,50.694,263.244,50.694z
			 M263.244,92.007c4.075,0,7.564-1.497,10.467-4.492c2.933-2.995,4.4-6.592,4.4-10.792c0-4.23-1.467-7.842-4.4-10.838
			c-2.903-2.994-6.392-4.492-10.467-4.492c-4.139,0-7.658,1.498-10.56,4.492c-2.903,2.996-4.354,6.609-4.354,10.838
			c0,4.2,1.451,7.797,4.354,10.792C255.585,90.51,259.105,92.007,263.244,92.007z"/>
		<path fill="#333333" d="M263.244,103.252c-5.582,0-10.7-1.7-15.212-5.054c-0.104-0.074-10.948-8.046-10.948-23.04V34.437
			c0-0.276,0.224-0.5,0.5-0.5h10.746c0.276,0,0.5,0.224,0.5,0.5v20.158c4.316-2.921,9.16-4.4,14.414-4.4
			c7.146,0,13.358,2.621,18.464,7.79c5.075,5.139,7.648,11.443,7.648,18.739c0,7.267-2.573,13.555-7.648,18.691
			C276.604,100.615,270.391,103.252,263.244,103.252z M238.084,34.937v40.221c0,14.487,10.432,22.157,10.538,22.232
			c4.342,3.228,9.26,4.861,14.622,4.861c6.869,0,12.842-2.536,17.752-7.539c4.884-4.943,7.36-10.995,7.36-17.989
			c0-7.023-2.477-13.092-7.359-18.036c-4.911-4.972-10.884-7.493-17.753-7.493c-5.362,0-10.281,1.604-14.619,4.767
			c-0.153,0.112-0.354,0.127-0.521,0.042c-0.168-0.085-0.273-0.258-0.273-0.446v-20.62H238.084z M263.244,92.507
			c-4.26,0-7.934-1.563-10.919-4.645c-2.982-3.077-4.495-6.824-4.495-11.139c0-4.345,1.513-8.108,4.495-11.187
			c2.986-3.082,6.66-4.644,10.919-4.644c4.195,0,7.838,1.563,10.826,4.644c3.012,3.076,4.54,6.841,4.54,11.187
			c0,4.315-1.528,8.063-4.542,11.141C271.082,90.944,267.44,92.507,263.244,92.507z M263.244,61.893c-3.979,0-7.41,1.46-10.2,4.339
			c-2.796,2.886-4.214,6.415-4.214,10.491c0,4.045,1.418,7.559,4.214,10.443c2.789,2.88,6.222,4.34,10.2,4.34
			c3.915,0,7.316-1.46,10.107-4.34c2.827-2.886,4.259-6.398,4.259-10.443c0-4.075-1.433-7.604-4.257-10.489
			C270.559,63.354,267.159,61.893,263.244,61.893z"/>
	</g>
</g>
<g>
	<polygon fill="none" points="32,50.007 8.531,36.477 8.522,36.482 32,50.026 	"/>
	<polygon fill="none" points="51.453,26.942 63.775,34.05 63.792,34.04 50.215,26.213 	"/>
	<path fill="none" d="M4.384,35.662c0.376-0.382,0.741-0.675,0.999-0.768c-0.017-0.005-0.032-0.014-0.049-0.018
		C5.092,34.939,4.74,35.249,4.384,35.662z"/>
	<polygon fill="none" points="29.517,53.963 19.936,48.239 5,39.701 29.497,53.974 	"/>
	<path fill="none" d="M123.874,34.944c-0.333-0.193-0.436-0.269-0.583-0.233C123.453,34.726,123.621,34.798,123.874,34.944z"/>
	<path fill="none" d="M3.902,35.138c0.146-0.084,0.298-0.162,0.455-0.228c-0.198,0.056-0.391,0.128-0.564,0.228
		c-0.542,0.313-0.977,0.819-1.025,1.715C2.827,35.956,3.36,35.451,3.902,35.138z"/>
	<polygon fill="none" points="28.168,87.157 11.112,77.195 5,73.701 31,88.85 	"/>
	<path fill="#FFFFFF" d="M124.026,70.264c0.041-0.259,0.116-0.504,0.136-0.72c0.04-0.238,0.019-0.442-0.163-0.602V36.553
		c0-0.098,0.011-0.194,0.026-0.289c0.041-0.259,0.116-0.504,0.136-0.72c0.047-0.28,0.024-0.518-0.265-0.685L94.493,17.544
		c-0.15-0.087-0.301-0.148-0.452-0.189L65.493,0.544c-0.574-0.331-1.154-0.331-1.728,0L34.248,17.35
		c-0.161,0.041-0.322,0.101-0.482,0.194L3.354,34.859C2.781,35.19,2,35.802,2,36.465V37v33.465V71v0.095v34
		c0,0.662,0.843,1.273,1.416,1.605l28.122,16.427c-0.15-0.193-0.43-0.401-0.506-0.616c0.039,0.065,0.11,0.13,0.195,0.194
		c0.289,0.413,0.798,0.769,1.188,0.995l28.122,16.427c-0.15-0.193-0.43-0.401-0.506-0.616c0.127,0.215,0.606,0.423,0.756,0.616
		c0.285,0.368,0.98,0.683,1.337,0.889c0.287,0.166,1.181,0.249,1.501,0.249c0.32,0,0.54-0.083,0.827-0.248l28.534-16.799
		c0.256,0.031,0.501,0.047,0.639,0.047c0.32,0,0.54-0.083,0.827-0.248l29.41-17.315c0.574-0.331,0.136-0.944,0.136-1.607V72.592
		c0.348-0.347,0-0.9,0-1.497v-0.541C124,70.455,124.011,70.359,124.026,70.264z M90,85.194v1.829L64,102.2V73.701v-1.823l26-15.122
		V85.194z M60,102.194L34,87.025V56.701l1,0.583v-0.011l13.936,7.966l10.012,5.982l-0.013,0.008L60,71.85V102.194z M63.811,38.295
		l26.26,15.164l-0.059,0.036l-26.258,15.1L61,67.007v0.019L37.522,53.482l0.009-0.005L63.811,38.295z M120.012,36.495l-26.258,15.1
		L91,50.007v0.019l-10.547-6.085l-1.237-0.729l-11.561-6.808l26.157-15.11l26.26,15.164L120.012,36.495z M19.936,48.239l9.581,5.724
		l-0.019,0.011L31,54.85v30.344L5,70.025V39.701L19.936,48.239z M120,70.023L94,85.2V54.878l26-15.122V70.023z M63.792,34.04
		l-0.018,0.01l-12.322-7.108l-1.237-0.729l-11.561-6.808l26.157-15.11l25.431,14.686L63.792,34.04z M5.383,34.894
		c-0.258,0.093-0.623,0.386-0.999,0.768c0.356-0.413,0.708-0.723,0.95-0.786C5.351,34.88,5.366,34.889,5.383,34.894z M34,90.701
		l1,0.583v-0.011l5.112,2.922l17.056,9.962l1.78,1.064l-0.013,0.008L60,105.85v30.344l-26-15.169V90.701z M123.874,34.944
		c-0.253-0.146-0.421-0.218-0.583-0.233C123.438,34.675,123.541,34.751,123.874,34.944z M8.531,36.477l26.281-15.182l25.431,14.686
		L33.792,51.04L32,50.007v0.019L8.522,36.482L8.531,36.477z M3.793,35.138c0.173-0.1,0.366-0.173,0.564-0.228
		c-0.156,0.066-0.309,0.145-0.455,0.228c-0.542,0.313-1.075,0.819-1.134,1.715C2.816,35.956,3.251,35.451,3.793,35.138z M5,73.701
		l6.112,3.494l17.056,9.962L31,88.85v30.344L5,104.025V73.701z M64,136.2V107.21c0.149-0.041,0.293-0.101,0.453-0.193L90,91.976
		v27.218v1.829L64,136.2z M94,119.2V90.21c0.149-0.041,0.293-0.101,0.453-0.193L120,74.976v29.047L94,119.2z"/>
	<path fill="#FF3333" d="M94.453,90.016c-0.161,0.093-0.305,0.153-0.453,0.193V119.2l26-15.177V74.976L94.453,90.016z"/>
	<polygon fill="#0099FF" points="38.655,19.405 50.215,26.213 63.792,34.04 90.242,18.981 64.811,4.295 	"/>
	<polygon fill="#FF3333" points="80.453,43.942 91,50.026 91,50.007 79.215,43.213 	"/>
	<polygon fill="#0099FF" points="93.811,21.295 67.655,36.405 79.215,43.213 91,50.007 93.754,51.595 120.012,36.495 
		120.071,36.459 	"/>
	<polygon fill="#FF3333" points="94,54.878 94,85.2 120,70.023 120,39.756 	"/>
	<polygon fill="#FFCC66" points="31,88.85 5,73.701 5,104.025 31,119.194 	"/>
	<polygon fill="#FF3333" points="58.948,105.221 57.168,104.157 40.112,94.195 35,91.273 35,91.284 58.935,105.229 	"/>
	<polygon fill="#FFCC66" points="60,136.194 60,105.85 58.935,105.229 35,91.284 34,90.701 34,121.025 	"/>
	<path fill="#FF3333" d="M90,121.023v-1.829V91.976l-25.547,15.04c-0.161,0.093-0.305,0.153-0.453,0.193V136.2L90,121.023z"/>
	<polygon fill="#0099FF" points="33.792,51.04 60.242,35.981 34.811,21.295 8.531,36.477 32,50.007 	"/>
	<polygon fill="#FFCC66" points="5,70.025 31,85.194 31,54.85 29.497,53.974 5,39.701 	"/>
	<polygon fill="#FF3333" points="37.522,53.482 61,67.026 61,67.007 37.531,53.477 	"/>
	<polygon fill="#FF3333" points="58.935,71.229 58.948,71.221 48.936,65.239 35,57.273 35,57.284 	"/>
	<polygon fill="#0099FF" points="37.531,53.477 61,67.007 63.754,68.595 90.012,53.495 90.071,53.459 63.811,38.295 	"/>
	<polygon fill="#FFCC66" points="60,71.85 58.935,71.229 35,57.284 34,56.701 34,87.025 60,102.194 	"/>
	<polygon fill="#FF3333" points="90,56.756 64,71.878 64,73.701 64,102.2 90,87.023 90,85.194 	"/>
</g>
</svg>
