<?xml version="1.0" encoding="utf-8"?>
<!-- Generator: Adobe Illustrator 17.0.0, SVG Export Plug-In . SVG Version: 6.00 Build 0)  -->
<!DOCTYPE svg PUBLIC "-//W3C//DTD SVG 1.1//EN" "http://www.w3.org/Graphics/SVG/1.1/DTD/svg11.dtd">
<svg version="1.1" id="Layer_1" xmlns="http://www.w3.org/2000/svg" xmlns:xlink="http://www.w3.org/1999/xlink" x="0px" y="0px"
	 width="416px" height="141.577px" viewBox="0 0 416 141.577" enable-background="new 0 0 416 141.577" xml:space="preserve">
<g>
	<polygon fill="none" points="30,50.32 6.531,36.79 6.522,36.795 30,50.34 	"/>
	<polygon fill="none" points="49.453,27.255 61.775,34.363 61.792,34.353 48.215,26.526 	"/>
	<path fill="none" d="M2.384,35.975c0.376-0.382,0.741-0.675,0.999-0.768c-0.017-0.005-0.032-0.014-0.049-0.018
		C3.092,35.253,2.74,35.562,2.384,35.975z"/>
	<polygon fill="none" points="27.517,54.277 17.936,48.552 3,40.014 27.497,54.287 	"/>
	<path fill="none" d="M121.874,35.257c-0.333-0.193-0.436-0.269-0.583-0.233C121.453,35.039,121.621,35.111,121.874,35.257z"/>
	<path fill="none" d="M1.902,35.451c0.146-0.084,0.298-0.162,0.455-0.228c-0.198,0.056-0.391,0.128-0.564,0.228
		c-0.542,0.313-0.977,0.819-1.025,1.715C0.827,36.27,1.36,35.764,1.902,35.451z"/>
	<polygon fill="none" points="26.168,87.471 9.112,77.508 3,74.014 29,89.163 	"/>
	<path fill="#FF3333" d="M92.453,90.329c-0.161,0.093-0.305,0.153-0.453,0.193v28.991l26-15.177V75.289L92.453,90.329z"/>
	<polygon fill="#0099FF" points="36.655,19.719 48.215,26.526 61.792,34.353 88.242,19.294 62.811,4.608 	"/>
	<polygon fill="#FF3333" points="78.453,44.255 89,50.34 89,50.32 77.215,43.526 	"/>
	<polygon fill="#0099FF" points="91.811,21.608 65.655,36.719 77.215,43.526 89,50.32 91.754,51.908 118.012,36.808 118.071,36.773 
			"/>
	<polygon fill="#FF3333" points="92,55.192 92,85.514 118,70.336 118,40.07 	"/>
	<polygon fill="#FFCC66" points="29,89.163 3,74.014 3,104.338 29,119.507 	"/>
	<polygon fill="#FF3333" points="56.948,105.534 55.168,104.471 38.112,94.508 33,91.586 33,91.597 56.935,105.542 	"/>
	<polygon fill="#FFCC66" points="58,136.507 58,106.163 56.935,105.542 33,91.597 32,91.014 32,121.338 	"/>
	<path fill="#FF3333" d="M88,121.336v-1.829V92.289l-25.547,15.04c-0.161,0.093-0.305,0.153-0.453,0.193v28.991L88,121.336z"/>
	<polygon fill="#0099FF" points="31.792,51.353 58.242,36.294 32.811,21.608 6.531,36.79 30,50.32 	"/>
	<polygon fill="#FFCC66" points="3,70.338 29,85.507 29,55.163 27.497,54.287 3,40.014 	"/>
	<polygon fill="#FF3333" points="35.522,53.795 59,67.34 59,67.32 35.531,53.79 	"/>
	<polygon fill="#FF3333" points="56.935,71.542 56.948,71.534 46.936,65.552 33,57.586 33,57.597 	"/>
	<polygon fill="#0099FF" points="35.531,53.79 59,67.32 61.754,68.908 88.012,53.808 88.071,53.773 61.811,38.608 	"/>
	<polygon fill="#FFCC66" points="58,72.163 56.935,71.542 33,57.597 32,57.014 32,87.338 58,102.507 	"/>
	<polygon fill="#FF3333" points="88,57.07 62,72.192 62,74.014 62,102.514 88,87.336 88,85.507 	"/>
</g>
<g>
	<g>
		<path fill="#333333" stroke="#333333" stroke-linecap="round" stroke-miterlimit="10" d="M179.944,33.393
			c5.75,0,10.653,2.32,14.71,6.961c4.057,4.641,6.086,10.245,6.086,16.812v24.167h-7.005V57.167c0-4.612-1.342-8.566-4.027-11.865
			c-2.686-3.269-5.94-4.903-9.763-4.903c-3.795,0-7.034,1.634-9.719,4.903c-2.686,3.298-4.028,7.253-4.028,11.865v24.167h-7.005
			V57.167c0-4.612-1.357-8.566-4.071-11.865c-2.686-3.269-5.926-4.903-9.719-4.903c-3.795,0-7.049,1.634-9.763,4.903
			c-2.686,3.269-4.028,7.209-4.028,11.821v24.211h-7.005c0,0,0-11.236,0-24.082s7.005-17.86,7.005-17.86
			c3.94-3.998,8.537-5.998,13.791-5.998c3.531,0,6.844,0.963,9.938,2.89c2.977,1.898,5.429,4.466,7.355,7.705
			c1.897-3.24,4.334-5.808,7.311-7.705C173.099,34.357,176.412,33.393,179.944,33.393z"/>
		<path fill="#333333" stroke="#333333" stroke-linecap="round" stroke-miterlimit="10" d="M244.521,75.774
			c-3.941,3.999-8.537,5.998-13.791,5.998c-5.72,0-10.624-2.32-14.71-6.961c-4.057-4.641-6.086-10.244-6.086-16.812V33.7h7.005
			v24.299c0,4.641,1.342,8.596,4.028,11.864c2.714,3.269,5.968,4.904,9.762,4.904c3.795,0,7.034-1.634,9.719-4.904
			c2.715-3.268,4.072-7.209,4.072-11.82V33.832h7.005c0,0,0,13.675,0,24.053C251.526,69.591,244.521,75.774,244.521,75.774z"/>
		<path fill="#333333" stroke="#333333" stroke-linecap="round" stroke-miterlimit="10" d="M285.019,33.35
			c6.538,0,12.142,2.364,16.812,7.093c4.641,4.728,6.961,10.449,6.961,17.162c0,6.655-2.32,12.347-6.961,17.075
			c-4.67,4.758-10.274,7.136-16.812,7.136c-6.509,0-12.084-2.32-16.724-6.961c0,0-7.137-6.718-7.137-17.349
			c0-14.364,0-40.092,0-40.092h7.137v22.898C272.935,35.67,278.51,33.35,285.019,33.35z M285.019,74.635
			c4.582,0,8.508-1.664,11.777-4.991c3.24-3.327,4.859-7.34,4.859-12.04c0-4.698-1.62-8.741-4.859-12.127
			c-3.27-3.327-7.195-4.991-11.777-4.991c-4.612,0-8.552,1.663-11.821,4.991c-3.269,3.387-4.903,7.429-4.903,12.127
			c0,4.7,1.634,8.712,4.903,12.04C276.466,72.971,280.407,74.635,285.019,74.635z"/>
		<path fill="#333333" stroke="#333333" stroke-linecap="round" stroke-miterlimit="10" d="M337.907,33.35
			c6.537,0,12.142,2.364,16.812,7.093c4.641,4.758,6.962,10.478,6.962,17.162c0,6.655-2.32,12.362-6.962,17.119
			c-4.67,4.728-10.274,7.092-16.812,7.092c-6.597,0-12.23-2.364-16.899-7.092c-4.641-4.757-6.962-10.464-6.962-17.119
			c0-6.684,2.32-12.404,6.962-17.162C325.677,35.714,331.31,33.35,337.907,33.35z M337.907,74.679c4.582,0,8.508-1.678,11.777-5.035
			c3.24-3.327,4.859-7.34,4.859-12.04c0-4.698-1.62-8.727-4.859-12.084c-3.269-3.356-7.195-5.034-11.777-5.034
			c-4.612,0-8.552,1.678-11.821,5.034c-3.269,3.357-4.903,7.385-4.903,12.084c0,4.7,1.634,8.712,4.903,12.04
			C329.354,73.001,333.295,74.679,337.907,74.679z"/>
		<path fill="#333333" stroke="#333333" stroke-linecap="round" stroke-miterlimit="10" d="M372.975,33.832l15.367,19.658
			l15.28-19.658h8.887l-19.044,24.517l18.213,22.985h-8.888l-14.448-18.126l-14.448,18.126h-8.931l18.257-22.985l-19.133-24.517
			H372.975z"/>
	</g>
	<g>
		<path fill="#333333" d="M267.811,102.637v-8.824h2.75c0,0,0,11.329,0,15.447c0,4.118-2.75,6.688-2.75,6.688
			c-1.788,1.788-3.931,2.683-6.428,2.683c-2.531,0-4.696-0.916-6.495-2.75c-1.788-1.822-2.683-4.015-2.683-6.58
			c0-2.587,0.894-4.791,2.683-6.614c1.8-1.822,3.965-2.733,6.495-2.733C263.88,99.955,266.022,100.849,267.811,102.637z
			 M265.921,113.941c1.26-1.282,1.89-2.829,1.89-4.64c0-1.811-0.63-3.369-1.89-4.673c-1.248-1.282-2.762-1.923-4.538-1.923
			c-1.766,0-3.285,0.641-4.555,1.923c-1.248,1.305-1.873,2.863-1.873,4.673c0,1.811,0.624,3.357,1.873,4.64
			c1.271,1.282,2.789,1.923,4.555,1.923C263.16,115.865,264.673,115.223,265.921,113.941z"/>
		<path fill="#333333" d="M282.877,99.955c2.519,0,4.679,0.911,6.479,2.733c1.788,1.834,2.683,4.038,2.683,6.614v1.383h-15.471
			c0.315,1.496,1.057,2.733,2.227,3.712c1.181,0.99,2.542,1.485,4.083,1.485c1.192,0,2.3-0.315,3.324-0.945
			c1.012-0.641,1.8-1.507,2.362-2.598l2.463,1.248c-0.799,1.564-1.929,2.795-3.391,3.695c-1.451,0.9-3.037,1.35-4.758,1.35
			c-2.542,0-4.713-0.911-6.512-2.733c-1.788-1.833-2.683-4.032-2.683-6.597c0-2.576,0.894-4.78,2.683-6.614
			C278.164,100.866,280.335,99.955,282.877,99.955z M289.153,107.918c-0.315-1.496-1.057-2.733-2.227-3.712
			c-1.181-1.001-2.531-1.502-4.049-1.502c-1.541,0-2.902,0.501-4.083,1.502c-1.17,0.979-1.912,2.216-2.227,3.712H289.153z"/>
		<path fill="#333333" d="M296.087,100.14l6.124,14.324l6.124-14.324h2.936l-7.828,18.305h-2.48l-7.811-18.305H296.087"/>
		<path fill="#333333" d="M321.749,99.955c2.519,0,4.679,0.911,6.479,2.733c1.788,1.834,2.683,4.038,2.683,6.614v1.383h-15.471
			c0.315,1.496,1.057,2.733,2.227,3.712c1.181,0.99,2.542,1.485,4.083,1.485c1.192,0,2.3-0.315,3.324-0.945
			c1.012-0.641,1.8-1.507,2.362-2.598l2.463,1.248c-0.799,1.564-1.929,2.795-3.391,3.695c-1.451,0.9-3.037,1.35-4.758,1.35
			c-2.542,0-4.713-0.911-6.512-2.733c-1.788-1.833-2.683-4.032-2.683-6.597c0-2.576,0.894-4.78,2.683-6.614
			C317.036,100.866,319.207,99.955,321.749,99.955z M328.025,107.918c-0.315-1.496-1.057-2.733-2.227-3.712
			c-1.181-1.001-2.531-1.502-4.049-1.502c-1.541,0-2.902,0.501-4.083,1.502c-1.17,0.979-1.912,2.216-2.227,3.712H328.025z"/>
		<path fill="#333333" d="M334.2,93.814h2.699v24.632H334.2V93.814z"/>
		<path fill="#333333" d="M349.215,99.955c2.519,0,4.679,0.911,6.479,2.733c1.788,1.834,2.683,4.038,2.683,6.614
			c0,2.564-0.894,4.763-2.683,6.597c-1.8,1.822-3.959,2.733-6.479,2.733c-2.542,0-4.713-0.911-6.512-2.733
			c-1.788-1.833-2.683-4.032-2.683-6.597c0-2.576,0.894-4.78,2.683-6.614C344.502,100.866,346.673,99.955,349.215,99.955z
			 M349.215,115.881c1.766,0,3.278-0.647,4.538-1.94c1.248-1.282,1.873-2.829,1.873-4.64c0-1.811-0.624-3.363-1.873-4.657
			c-1.26-1.293-2.773-1.94-4.538-1.94c-1.777,0-3.296,0.647-4.555,1.94c-1.26,1.294-1.89,2.846-1.89,4.657
			c0,1.811,0.63,3.357,1.89,4.64C345.92,115.235,347.438,115.881,349.215,115.881z"/>
		<path fill="#333333" d="M370.355,99.904c2.519,0,4.679,0.917,6.479,2.75c1.788,1.822,2.683,4.021,2.683,6.597
			c0,2.576-0.894,4.775-2.683,6.597c-1.8,1.822-3.959,2.733-6.479,2.733c-2.508,0-4.656-0.888-6.445-2.666v8.857h-2.75
			c0,0,0-11.078,0-15.512c0-4.434,2.75-6.657,2.75-6.657C365.699,100.804,367.847,99.904,370.355,99.904z M370.355,115.831
			c1.766,0,3.278-0.641,4.538-1.923c1.248-1.293,1.873-2.846,1.873-4.657c0-1.811-0.624-3.363-1.873-4.657
			c-1.26-1.282-2.773-1.923-4.538-1.923c-1.777,0-3.296,0.641-4.555,1.923c-1.26,1.282-1.89,2.829-1.89,4.64v0.017
			c0,1.811,0.63,3.363,1.89,4.657C367.059,115.19,368.578,115.831,370.355,115.831z"/>
		<path fill="#333333" d="M391.073,99.955c2.519,0,4.679,0.911,6.479,2.733c1.788,1.834,2.683,4.038,2.683,6.614v1.383h-15.471
			c0.315,1.496,1.057,2.733,2.227,3.712c1.181,0.99,2.542,1.485,4.083,1.485c1.192,0,2.3-0.315,3.324-0.945
			c1.012-0.641,1.799-1.507,2.362-2.598l2.463,1.248c-0.799,1.564-1.929,2.795-3.391,3.695c-1.451,0.9-3.037,1.35-4.758,1.35
			c-2.542,0-4.713-0.911-6.512-2.733c-1.788-1.833-2.683-4.032-2.683-6.597c0-2.576,0.894-4.78,2.683-6.614
			C386.36,100.866,388.531,99.955,391.073,99.955z M397.349,107.918c-0.315-1.496-1.057-2.733-2.227-3.712
			c-1.181-1.001-2.531-1.502-4.049-1.502c-1.541,0-2.902,0.501-4.083,1.502c-1.17,0.979-1.912,2.216-2.227,3.712H397.349z"/>
		<path fill="#333333" d="M405.616,102.84c1.608-1.856,3.78-2.699,5.973-2.699h0.169v2.699h-0.169c-1.575,0-2.919,0.63-4.032,1.89
			c-1.114,1.485-1.67,3.116-1.67,4.893v8.824h-2.699c0,0,0-5.183,0-8.811C403.187,105.114,405.616,102.84,405.616,102.84z"/>
	</g>
</g>
</svg>
