<?xml version="1.0" encoding="utf-8"?>
<!-- Generator: Adobe Illustrator 17.0.0, SVG Export Plug-In . SVG Version: 6.00 Build 0)  -->
<!DOCTYPE svg PUBLIC "-//W3C//DTD SVG 1.1//EN" "http://www.w3.org/Graphics/SVG/1.1/DTD/svg11.dtd">
<svg version="1.1" id="Layer_1" xmlns="http://www.w3.org/2000/svg" xmlns:xlink="http://www.w3.org/1999/xlink" x="0px" y="0px"
	 width="416px" height="141.577px" viewBox="0 0 416 141.577" enable-background="new 0 0 416 141.577" xml:space="preserve">
<g>
	<polygon fill="none" points="30,50.847 6.531,37.317 6.522,37.322 30,50.866 	"/>
	<polygon fill="none" points="49.453,27.781 61.775,34.89 61.792,34.88 48.215,27.053 	"/>
	<path fill="none" d="M2.384,36.502c0.376-0.382,0.741-0.675,0.999-0.768c-0.017-0.005-0.032-0.014-0.049-0.018
		C3.092,35.779,2.74,36.089,2.384,36.502z"/>
	<polygon fill="none" points="27.517,54.803 17.936,49.079 3,40.541 27.497,54.814 	"/>
	<path fill="none" d="M121.874,35.784c-0.333-0.193-0.436-0.269-0.583-0.233C121.453,35.566,121.621,35.638,121.874,35.784z"/>
	<path fill="none" d="M1.902,35.978c0.146-0.084,0.298-0.162,0.455-0.228c-0.198,0.056-0.391,0.128-0.564,0.228
		c-0.542,0.313-0.977,0.819-1.025,1.715C0.827,36.796,1.36,36.29,1.902,35.978z"/>
	<polygon fill="none" points="26.168,87.997 9.112,78.035 3,74.541 29,89.689 	"/>
	<path fill="#FF3333" d="M92.453,90.856c-0.161,0.093-0.305,0.153-0.453,0.193v28.991l26-15.177V75.816L92.453,90.856z"/>
	<polygon fill="#0099FF" points="36.655,20.245 48.215,27.053 61.792,34.88 88.242,19.821 62.811,5.135 	"/>
	<polygon fill="#FF3333" points="78.453,44.781 89,50.866 89,50.847 77.215,44.053 	"/>
	<polygon fill="#0099FF" points="91.811,22.135 65.655,37.245 77.215,44.053 89,50.847 91.754,52.434 118.012,37.335 
		118.071,37.299 	"/>
	<polygon fill="#FF3333" points="92,55.718 92,86.04 118,70.863 118,40.596 	"/>
	<polygon fill="#FFCC66" points="29,89.689 3,74.541 3,104.865 29,120.034 	"/>
	<polygon fill="#FF3333" points="56.948,106.061 55.168,104.997 38.112,95.035 33,92.113 33,92.124 56.935,106.069 	"/>
	<polygon fill="#FFCC66" points="58,137.034 58,106.689 56.935,106.069 33,92.124 32,91.541 32,121.865 	"/>
	<path fill="#FF3333" d="M88,121.863v-1.829V92.816l-25.547,15.04c-0.161,0.093-0.305,0.153-0.453,0.193v28.991L88,121.863z"/>
	<polygon fill="#0099FF" points="31.792,51.88 58.242,36.821 32.811,22.135 6.531,37.317 30,50.847 	"/>
	<polygon fill="#FFCC66" points="3,70.865 29,86.034 29,55.689 27.497,54.814 3,40.541 	"/>
	<polygon fill="#FF3333" points="35.522,54.322 59,67.866 59,67.847 35.531,54.317 	"/>
	<polygon fill="#FF3333" points="56.935,72.069 56.948,72.061 46.936,66.079 33,58.113 33,58.124 	"/>
	<polygon fill="#0099FF" points="35.531,54.317 59,67.847 61.754,69.434 88.012,54.335 88.071,54.299 61.811,39.135 	"/>
	<polygon fill="#FFCC66" points="58,72.689 56.935,72.069 33,58.124 32,57.541 32,87.865 58,103.034 	"/>
	<polygon fill="#FF3333" points="88,57.596 62,72.718 62,74.541 62,103.04 88,87.863 88,86.034 	"/>
</g>
<g>
	<g>
		<path fill="#333333" stroke="#333333" stroke-linecap="round" stroke-miterlimit="10" d="M179.944,54.867
			c5.75,0,10.653,2.32,14.71,6.961c4.057,4.641,6.086,10.245,6.086,16.812v24.167h-7.005V78.64c0-4.612-1.342-8.566-4.027-11.865
			c-2.686-3.269-5.94-4.903-9.763-4.903c-3.795,0-7.034,1.634-9.719,4.903c-2.686,3.298-4.028,7.253-4.028,11.865v24.167h-7.005
			V78.64c0-4.612-1.357-8.566-4.071-11.865c-2.686-3.269-5.926-4.903-9.719-4.903c-3.795,0-7.049,1.634-9.763,4.903
			c-2.686,3.269-4.028,7.209-4.028,11.821v24.211h-7.005c0,0,0-11.236,0-24.082s7.005-17.86,7.005-17.86
			c3.94-3.998,8.537-5.998,13.791-5.998c3.531,0,6.844,0.963,9.938,2.89c2.977,1.898,5.429,4.466,7.355,7.705
			c1.897-3.24,4.334-5.808,7.311-7.705C173.099,55.83,176.412,54.867,179.944,54.867z"/>
		<path fill="#333333" stroke="#333333" stroke-linecap="round" stroke-miterlimit="10" d="M244.521,97.247
			c-3.941,3.999-8.537,5.998-13.791,5.998c-5.72,0-10.624-2.32-14.71-6.961c-4.057-4.641-6.086-10.244-6.086-16.812V55.173h7.005
			v24.299c0,4.641,1.342,8.596,4.028,11.864c2.714,3.269,5.968,4.904,9.762,4.904c3.795,0,7.034-1.634,9.719-4.904
			c2.715-3.268,4.072-7.209,4.072-11.82V55.305h7.005c0,0,0,13.675,0,24.053C251.526,91.065,244.521,97.247,244.521,97.247z"/>
		<path fill="#333333" stroke="#333333" stroke-linecap="round" stroke-miterlimit="10" d="M285.019,54.823
			c6.538,0,12.142,2.364,16.812,7.093c4.641,4.728,6.961,10.449,6.961,17.162c0,6.655-2.32,12.347-6.961,17.075
			c-4.67,4.758-10.274,7.136-16.812,7.136c-6.509,0-12.084-2.32-16.724-6.961c0,0-7.137-6.718-7.137-17.349
			c0-14.364,0-40.092,0-40.092h7.137v22.898C272.935,57.143,278.51,54.823,285.019,54.823z M285.019,96.109
			c4.582,0,8.508-1.664,11.777-4.991c3.24-3.327,4.859-7.34,4.859-12.04c0-4.698-1.62-8.741-4.859-12.127
			c-3.27-3.327-7.195-4.991-11.777-4.991c-4.612,0-8.552,1.663-11.821,4.991c-3.269,3.387-4.903,7.429-4.903,12.127
			c0,4.7,1.634,8.712,4.903,12.04C276.466,94.445,280.407,96.109,285.019,96.109z"/>
		<path fill="#333333" stroke="#333333" stroke-linecap="round" stroke-miterlimit="10" d="M337.907,54.823
			c6.537,0,12.142,2.364,16.812,7.093c4.641,4.758,6.962,10.478,6.962,17.162c0,6.655-2.32,12.362-6.962,17.119
			c-4.67,4.728-10.274,7.092-16.812,7.092c-6.597,0-12.23-2.364-16.899-7.092c-4.641-4.757-6.962-10.464-6.962-17.119
			c0-6.684,2.32-12.404,6.962-17.162C325.677,57.187,331.31,54.823,337.907,54.823z M337.907,96.153
			c4.582,0,8.508-1.678,11.777-5.035c3.24-3.327,4.859-7.34,4.859-12.04c0-4.698-1.62-8.727-4.859-12.084
			c-3.269-3.356-7.195-5.034-11.777-5.034c-4.612,0-8.552,1.678-11.821,5.034c-3.269,3.357-4.903,7.385-4.903,12.084
			c0,4.7,1.634,8.712,4.903,12.04C329.354,94.474,333.295,96.153,337.907,96.153z"/>
		<path fill="#333333" stroke="#333333" stroke-linecap="round" stroke-miterlimit="10" d="M372.975,55.305l15.367,19.658
			l15.28-19.658h8.887l-19.044,24.517l18.213,22.985h-8.888l-14.448-18.126l-14.448,18.126h-8.931l18.257-22.985l-19.133-24.517
			H372.975z"/>
	</g>
</g>
</svg>
