<?xml version="1.0" encoding="utf-8"?>
<!-- Generator: Adobe Illustrator 17.0.0, SVG Export Plug-In . SVG Version: 6.00 Build 0)  -->
<!DOCTYPE svg PUBLIC "-//W3C//DTD SVG 1.1//EN" "http://www.w3.org/Graphics/SVG/1.1/DTD/svg11.dtd">
<svg version="1.1" id="Layer_1" xmlns="http://www.w3.org/2000/svg" xmlns:xlink="http://www.w3.org/1999/xlink" x="0px" y="0px"
	 width="290.333px" height="141.577px" viewBox="0 0 290.333 141.577" enable-background="new 0 0 290.333 141.577"
	 xml:space="preserve">
<g>
	<polygon fill="none" points="30,50.847 6.531,37.317 6.522,37.322 30,50.866 	"/>
	<polygon fill="none" points="49.453,27.781 61.775,34.89 61.792,34.88 48.215,27.053 	"/>
	<path fill="none" d="M2.384,36.502c0.376-0.382,0.741-0.675,0.999-0.768c-0.017-0.005-0.032-0.014-0.049-0.018
		C3.092,35.779,2.74,36.089,2.384,36.502z"/>
	<polygon fill="none" points="27.517,54.803 17.936,49.079 3,40.541 27.497,54.814 	"/>
	<path fill="none" d="M121.874,35.784c-0.333-0.193-0.436-0.269-0.583-0.233C121.453,35.566,121.621,35.638,121.874,35.784z"/>
	<path fill="none" d="M1.902,35.978c0.146-0.084,0.298-0.162,0.455-0.228c-0.198,0.056-0.391,0.128-0.564,0.228
		c-0.542,0.313-0.977,0.819-1.025,1.715C0.827,36.796,1.36,36.29,1.902,35.978z"/>
	<polygon fill="none" points="26.168,87.997 9.112,78.035 3,74.541 29,89.689 	"/>
	<path fill="#FF3333" d="M92.453,90.856c-0.161,0.093-0.305,0.153-0.453,0.193v28.991l26-15.177V75.816L92.453,90.856z"/>
	<polygon fill="#0099FF" points="36.655,20.245 48.215,27.053 61.792,34.88 88.242,19.821 62.811,5.135 	"/>
	<polygon fill="#FF3333" points="78.453,44.781 89,50.866 89,50.847 77.215,44.053 	"/>
	<polygon fill="#0099FF" points="91.811,22.135 65.655,37.245 77.215,44.053 89,50.847 91.754,52.434 118.012,37.335 
		118.071,37.299 	"/>
	<polygon fill="#FF3333" points="92,55.718 92,86.04 118,70.863 118,40.596 	"/>
	<polygon fill="#FFCC66" points="29,89.689 3,74.541 3,104.865 29,120.034 	"/>
	<polygon fill="#FF3333" points="56.948,106.061 55.168,104.997 38.112,95.035 33,92.113 33,92.124 56.935,106.069 	"/>
	<polygon fill="#FFCC66" points="58,137.034 58,106.689 56.935,106.069 33,92.124 32,91.541 32,121.865 	"/>
	<path fill="#FF3333" d="M88,121.863v-1.829V92.816l-25.547,15.04c-0.161,0.093-0.305,0.153-0.453,0.193v28.991L88,121.863z"/>
	<polygon fill="#0099FF" points="31.792,51.88 58.242,36.821 32.811,22.135 6.531,37.317 30,50.847 	"/>
	<polygon fill="#FFCC66" points="3,70.865 29,86.034 29,55.689 27.497,54.814 3,40.541 	"/>
	<polygon fill="#FF3333" points="35.522,54.322 59,67.866 59,67.847 35.531,54.317 	"/>
	<polygon fill="#FF3333" points="56.935,72.069 56.948,72.061 46.936,66.079 33,58.113 33,58.124 	"/>
	<polygon fill="#0099FF" points="35.531,54.317 59,67.847 61.754,69.434 88.012,54.335 88.071,54.299 61.811,39.135 	"/>
	<polygon fill="#FFCC66" points="58,72.689 56.935,72.069 33,58.124 32,57.541 32,87.865 58,103.034 	"/>
	<polygon fill="#FF3333" points="88,57.596 62,72.718 62,74.541 62,103.04 88,87.863 88,86.034 	"/>
</g>
<g>
	<g>
		<path fill="#333333" d="M197.467,48.514c6.459,0,11.986,2.603,16.581,7.809c4.563,5.174,6.845,11.423,6.845,18.75v27.62h-10.942
			v-27.62c0-4.305-1.221-7.985-3.663-11.038c-2.442-3.052-5.383-4.579-8.821-4.579c-3.47,0-6.427,1.527-8.869,4.579
			c-2.442,3.053-3.663,6.733-3.663,11.038v27.62h-10.941v-27.62c0-4.305-1.222-7.985-3.664-11.038
			c-2.442-3.052-5.399-4.579-8.869-4.579c-3.439,0-6.379,1.527-8.82,4.579c-2.443,3.053-3.664,6.733-3.664,11.038v27.62h-10.941
			l-0.161-27.994c0,0-0.47-26.184,23.587-26.184c7.294,0,13.287,3.181,17.979,9.544C184.164,51.695,190.173,48.514,197.467,48.514z"
			/>
		<path fill="#333333" d="M220.894,103.212h-10.942c-0.288,0-0.52-0.233-0.52-0.52v-27.62c0-4.163-1.194-7.768-3.55-10.712
			c-2.327-2.909-5.158-4.384-8.415-4.384c-3.288,0-6.136,1.475-8.462,4.384c-2.355,2.943-3.549,6.548-3.549,10.712v27.62
			c0,0.288-0.233,0.52-0.52,0.52h-10.942c-0.288,0-0.52-0.233-0.52-0.52v-27.62c0-4.163-1.194-7.768-3.55-10.712
			c-2.327-2.909-5.175-4.384-8.462-4.384c-3.256,0-6.087,1.475-8.414,4.384c-2.356,2.944-3.55,6.548-3.55,10.712v27.62
			c0,0.288-0.233,0.52-0.52,0.52h-10.941c-0.286,0-0.519-0.231-0.52-0.517L137.354,74.7c-0.009-0.505-0.136-12.596,7.531-20.402
			c4.109-4.183,9.686-6.304,16.576-6.304c7.22,0,13.266,3.095,17.98,9.202c4.746-6.107,10.807-9.202,18.026-9.202
			c6.584,0,12.295,2.686,16.972,7.984c4.628,5.248,6.975,11.672,6.975,19.094v27.62C221.414,102.98,221.181,103.212,220.894,103.212
			z M210.472,102.172h9.901V75.072c0-7.161-2.259-13.354-6.715-18.406c-4.471-5.064-9.918-7.632-16.191-7.632
			c-7.086,0-13.011,3.14-17.609,9.333c-0.098,0.133-0.253,0.21-0.418,0.21c0,0-0.001,0-0.001,0c-0.165-0.001-0.32-0.079-0.418-0.211
			c-4.566-6.192-10.474-9.332-17.56-9.332c-6.598,0-11.924,2.015-15.829,5.988c-7.36,7.488-7.239,19.545-7.237,19.665l0.158,27.484
			h9.904V75.072c0-4.407,1.271-8.229,3.778-11.363c2.535-3.168,5.639-4.775,9.227-4.775c3.62,0,6.74,1.606,9.276,4.775
			c2.506,3.134,3.777,6.957,3.777,11.363v27.099h9.901V75.072c0-4.407,1.271-8.229,3.777-11.363
			c2.535-3.168,5.655-4.775,9.276-4.775c3.588,0,6.693,1.606,9.228,4.775c2.506,3.134,3.777,6.957,3.777,11.363V102.172z"/>
	</g>
	<g>
		<path fill="#333333" d="M258.202,49.237c7.326,0,13.609,2.651,18.846,7.953c5.206,5.271,7.809,11.648,7.809,19.136
			c0,7.455-2.603,13.818-7.809,19.087c-5.237,5.336-11.52,8.002-18.846,8.002c-5.721,0-10.894-1.718-15.522-5.157
			c0,0-11.183-8.042-11.183-23.56c0-18.725,0-42.38,0-42.38h11.183v21.98C247.307,50.924,252.48,49.237,258.202,49.237z
			 M258.202,92.232c4.241,0,7.872-1.558,10.893-4.675c3.053-3.117,4.579-6.861,4.579-11.231c0-4.402-1.526-8.162-4.579-11.28
			c-3.021-3.116-6.652-4.675-10.893-4.675c-4.307,0-7.97,1.559-10.99,4.675c-3.021,3.118-4.532,6.878-4.532,11.28
			c0,4.371,1.511,8.114,4.532,11.231C250.232,90.674,253.894,92.232,258.202,92.232z"/>
		<path fill="#333333" d="M258.202,103.935c-5.809,0-11.136-1.769-15.831-5.26c-0.108-0.077-11.394-8.374-11.394-23.978V32.318
			c0-0.288,0.233-0.52,0.52-0.52h11.183c0.288,0,0.52,0.233,0.52,0.52v20.979c4.492-3.04,9.533-4.58,15.001-4.58
			c7.438,0,13.902,2.728,19.216,8.107c5.282,5.348,7.96,11.909,7.96,19.502c0,7.563-2.678,14.107-7.96,19.453
			C272.106,101.191,265.64,103.935,258.202,103.935z M232.017,32.838v41.859c0,15.077,10.857,23.059,10.967,23.138
			c4.519,3.359,9.637,5.059,15.217,5.059c7.149,0,13.365-2.639,18.475-7.846c5.083-5.145,7.66-11.443,7.66-18.722
			c0-7.309-2.577-13.625-7.659-18.771c-5.111-5.175-11.327-7.798-18.476-7.798c-5.581,0-10.7,1.669-15.214,4.961
			c-0.16,0.117-0.369,0.133-0.543,0.044c-0.175-0.089-0.285-0.268-0.285-0.464v-21.46H232.017z M258.202,92.752
			c-4.433,0-8.257-1.626-11.364-4.834c-3.104-3.202-4.678-7.102-4.678-11.592c0-4.522,1.574-8.439,4.678-11.642
			c3.108-3.207,6.931-4.833,11.364-4.833c4.366,0,8.157,1.626,11.267,4.833c3.134,3.201,4.725,7.119,4.725,11.642
			c0,4.491-1.591,8.392-4.727,11.594C266.36,91.126,262.569,92.752,258.202,92.752z M258.202,60.892
			c-4.141,0-7.712,1.52-10.616,4.516c-2.91,3.003-4.385,6.676-4.385,10.918c0,4.21,1.476,7.866,4.385,10.869
			c2.903,2.997,6.475,4.517,10.616,4.517c4.074,0,7.614-1.519,10.519-4.517c2.942-3.003,4.432-6.659,4.432-10.869
			c0-4.241-1.491-7.914-4.43-10.916C265.815,62.412,262.276,60.892,258.202,60.892z"/>
	</g>
</g>
</svg>
