<?xml version="1.0" encoding="utf-8"?>
<!-- Generator: Adobe Illustrator 17.0.0, SVG Export Plug-In . SVG Version: 6.00 Build 0)  -->
<!DOCTYPE svg PUBLIC "-//W3C//DTD SVG 1.1//EN" "http://www.w3.org/Graphics/SVG/1.1/DTD/svg11.dtd">
<svg version="1.1" id="Layer_1" xmlns="http://www.w3.org/2000/svg" xmlns:xlink="http://www.w3.org/1999/xlink" x="0px" y="0px"
	 width="280.5px" height="126.25px" viewBox="0 0 280.5 126.25" enable-background="new 0 0 280.5 126.25" xml:space="preserve">
<g>
	<polygon fill="#FFFFFF" points="38,195.847 14.531,182.317 14.522,182.322 38,195.866 	"/>
	<polygon fill="#FFFFFF" points="57.453,172.781 69.775,179.89 69.792,179.88 56.215,172.053 	"/>
	<path fill="#FFFFFF" d="M10.384,181.502c0.376-0.382,0.741-0.675,0.999-0.768c-0.017-0.005-0.032-0.014-0.049-0.018
		C11.092,180.779,10.74,181.089,10.384,181.502z"/>
	<polygon fill="#FFFFFF" points="35.517,199.803 25.936,194.079 11,185.541 35.497,199.814 	"/>
	<path fill="#FFFFFF" d="M129.874,180.784c-0.333-0.193-0.436-0.269-0.583-0.233C129.453,180.566,129.621,180.638,129.874,180.784z"
		/>
	<path fill="#FFFFFF" d="M9.902,180.978c0.146-0.084,0.298-0.162,0.455-0.228c-0.198,0.056-0.391,0.128-0.564,0.228
		c-0.542,0.313-0.977,0.819-1.025,1.715C8.827,181.796,9.36,181.29,9.902,180.978z"/>
	<polygon fill="#FFFFFF" points="34.168,232.997 17.112,223.035 11,219.541 37,234.689 	"/>
	<path fill="#FFFFFF" d="M100.453,235.856c-0.161,0.093-0.305,0.153-0.453,0.193v28.991l26-15.177v-29.047L100.453,235.856z"/>
	<polygon fill="#FFFFFF" points="44.655,165.245 56.215,172.053 69.792,179.88 96.242,164.821 70.811,150.135 	"/>
	<polygon fill="#FFFFFF" points="86.453,189.781 97,195.866 97,195.847 85.215,189.053 	"/>
	<polygon fill="#FFFFFF" points="99.811,167.135 73.655,182.245 85.215,189.053 97,195.847 99.754,197.434 126.012,182.335 
		126.071,182.299 	"/>
	<polygon fill="#FFFFFF" points="100,200.718 100,231.04 126,215.863 126,185.596 	"/>
	<polygon fill="#FFFFFF" points="37,234.689 11,219.541 11,249.865 37,265.034 	"/>
	<polygon fill="#FFFFFF" points="64.948,251.061 63.168,249.997 46.112,240.035 41,237.113 41,237.124 64.935,251.069 	"/>
	<polygon fill="#FFFFFF" points="66,282.034 66,251.689 64.935,251.069 41,237.124 40,236.541 40,266.865 	"/>
	<path fill="#FFFFFF" d="M96,266.863v-1.829v-27.218l-25.547,15.04c-0.161,0.093-0.305,0.153-0.453,0.193v28.991L96,266.863z"/>
	<polygon fill="#FFFFFF" points="39.792,196.88 66.242,181.821 40.811,167.135 14.531,182.317 38,195.847 	"/>
	<polygon fill="#FFFFFF" points="11,215.865 37,231.034 37,200.689 35.497,199.814 11,185.541 	"/>
	<polygon fill="#FFFFFF" points="43.522,199.322 67,212.866 67,212.847 43.531,199.317 	"/>
	<polygon fill="#FFFFFF" points="64.935,217.069 64.948,217.061 54.936,211.079 41,203.113 41,203.124 	"/>
	<polygon fill="#FFFFFF" points="43.531,199.317 67,212.847 69.754,214.434 96.012,199.335 96.071,199.299 69.811,184.135 	"/>
	<polygon fill="#FFFFFF" points="66,217.689 64.935,217.069 41,203.124 40,202.541 40,232.865 66,248.034 	"/>
	<polygon fill="#FFFFFF" points="96,202.596 70,217.718 70,219.541 70,248.04 96,232.863 96,231.034 	"/>
</g>
<g>
	<g>
		<path fill="#FFFFFF" d="M205.467,193.514c6.459,0,11.986,2.603,16.581,7.809c4.563,5.174,6.845,11.423,6.845,18.75v27.62h-10.942
			v-27.62c0-4.305-1.221-7.985-3.663-11.038c-2.442-3.052-5.383-4.579-8.821-4.579c-3.47,0-6.427,1.527-8.869,4.579
			c-2.442,3.053-3.663,6.733-3.663,11.038v27.62h-10.941v-27.62c0-4.305-1.222-7.985-3.664-11.038
			c-2.442-3.052-5.399-4.579-8.869-4.579c-3.439,0-6.379,1.527-8.82,4.579c-2.443,3.053-3.664,6.733-3.664,11.038v27.62h-10.941
			l-0.161-27.994c0,0-0.47-26.184,23.587-26.184c7.294,0,13.287,3.181,17.979,9.544
			C192.164,196.695,198.173,193.514,205.467,193.514z"/>
		<path fill="#FFFFFF" d="M228.894,248.212h-10.942c-0.288,0-0.52-0.233-0.52-0.52v-27.62c0-4.163-1.194-7.768-3.55-10.712
			c-2.327-2.909-5.158-4.384-8.415-4.384c-3.288,0-6.136,1.475-8.462,4.384c-2.355,2.943-3.549,6.548-3.549,10.712v27.62
			c0,0.288-0.233,0.52-0.52,0.52h-10.942c-0.288,0-0.52-0.233-0.52-0.52v-27.62c0-4.163-1.194-7.768-3.55-10.712
			c-2.327-2.909-5.175-4.384-8.462-4.384c-3.256,0-6.087,1.475-8.414,4.384c-2.356,2.944-3.55,6.548-3.55,10.712v27.62
			c0,0.288-0.233,0.52-0.52,0.52h-10.941c-0.286,0-0.519-0.231-0.52-0.517l-0.161-27.995c-0.009-0.505-0.136-12.596,7.531-20.402
			c4.109-4.183,9.686-6.304,16.576-6.304c7.22,0,13.266,3.095,17.98,9.202c4.746-6.107,10.807-9.202,18.026-9.202
			c6.584,0,12.295,2.686,16.972,7.984c4.628,5.248,6.975,11.672,6.975,19.094v27.62C229.414,247.98,229.181,248.212,228.894,248.212
			z M218.472,247.172h9.901v-27.099c0-7.161-2.259-13.354-6.715-18.406c-4.471-5.064-9.918-7.632-16.191-7.632
			c-7.086,0-13.011,3.14-17.609,9.333c-0.098,0.133-0.253,0.21-0.418,0.21c0,0-0.001,0-0.001,0c-0.165-0.001-0.32-0.079-0.418-0.211
			c-4.566-6.193-10.474-9.332-17.56-9.332c-6.598,0-11.924,2.015-15.829,5.988c-7.36,7.488-7.239,19.545-7.237,19.665l0.158,27.484
			h9.904v-27.099c0-4.407,1.271-8.229,3.778-11.363c2.535-3.168,5.639-4.775,9.227-4.775c3.62,0,6.74,1.606,9.276,4.775
			c2.506,3.134,3.777,6.957,3.777,11.363v27.099h9.901v-27.099c0-4.407,1.271-8.229,3.777-11.363
			c2.535-3.168,5.655-4.775,9.276-4.775c3.588,0,6.693,1.606,9.228,4.775c2.506,3.134,3.777,6.957,3.777,11.363V247.172z"/>
	</g>
	<g>
		<path fill="#FFFFFF" d="M266.202,194.237c7.326,0,13.609,2.651,18.846,7.953c5.206,5.271,7.809,11.648,7.809,19.136
			c0,7.455-2.603,13.818-7.809,19.087c-5.237,5.336-11.52,8.002-18.846,8.002c-5.721,0-10.894-1.718-15.522-5.157
			c0,0-11.183-8.042-11.183-23.56c0-18.725,0-42.38,0-42.38h11.183v21.98C255.307,195.924,260.48,194.237,266.202,194.237z
			 M266.202,237.232c4.241,0,7.872-1.558,10.893-4.675c3.053-3.117,4.579-6.861,4.579-11.231c0-4.402-1.526-8.162-4.579-11.28
			c-3.021-3.116-6.652-4.675-10.893-4.675c-4.307,0-7.97,1.559-10.99,4.675c-3.021,3.118-4.532,6.878-4.532,11.28
			c0,4.371,1.511,8.114,4.532,11.231C258.232,235.674,261.894,237.232,266.202,237.232z"/>
		<path fill="#FFFFFF" d="M266.202,248.935c-5.809,0-11.136-1.769-15.831-5.26c-0.108-0.077-11.394-8.374-11.394-23.978v-42.379
			c0-0.288,0.233-0.52,0.52-0.52h11.183c0.288,0,0.52,0.233,0.52,0.52v20.979c4.492-3.04,9.533-4.58,15.001-4.58
			c7.438,0,13.902,2.728,19.216,8.107c5.282,5.348,7.96,11.909,7.96,19.502c0,7.563-2.678,14.107-7.96,19.453
			C280.106,246.191,273.64,248.935,266.202,248.935z M240.017,177.838v41.859c0,15.077,10.857,23.059,10.967,23.138
			c4.519,3.359,9.637,5.059,15.217,5.059c7.149,0,13.365-2.639,18.475-7.846c5.083-5.145,7.66-11.443,7.66-18.722
			c0-7.309-2.577-13.625-7.659-18.771c-5.111-5.175-11.327-7.798-18.476-7.798c-5.581,0-10.7,1.669-15.214,4.961
			c-0.16,0.117-0.369,0.133-0.543,0.044c-0.175-0.089-0.285-0.268-0.285-0.464v-21.46H240.017z M266.202,237.752
			c-4.433,0-8.257-1.626-11.364-4.834c-3.104-3.202-4.678-7.102-4.678-11.592c0-4.522,1.574-8.439,4.678-11.642
			c3.108-3.207,6.931-4.833,11.364-4.833c4.366,0,8.157,1.626,11.267,4.833c3.134,3.201,4.725,7.119,4.725,11.642
			c0,4.491-1.591,8.392-4.727,11.594C274.36,236.126,270.569,237.752,266.202,237.752z M266.202,205.892
			c-4.141,0-7.712,1.52-10.616,4.516c-2.91,3.003-4.385,6.676-4.385,10.918c0,4.21,1.476,7.866,4.385,10.869
			c2.903,2.997,6.475,4.517,10.616,4.517c4.074,0,7.614-1.519,10.519-4.517c2.942-3.003,4.432-6.659,4.432-10.869
			c0-4.241-1.491-7.914-4.43-10.916C273.815,207.412,270.276,205.892,266.202,205.892z"/>
	</g>
</g>
<g>
	<g>
		<path fill="#333333" d="M189.967,37.142c6.459,0,11.986,2.603,16.581,7.809c4.563,5.174,6.845,11.423,6.845,18.75v27.62h-10.942
			V63.7c0-4.305-1.221-7.985-3.663-11.038c-2.442-3.052-5.383-4.579-8.821-4.579c-3.47,0-6.427,1.527-8.869,4.579
			c-2.442,3.053-3.663,6.733-3.663,11.038v27.62h-10.941V63.7c0-4.305-1.222-7.985-3.664-11.038
			c-2.442-3.052-5.399-4.579-8.869-4.579c-3.439,0-6.379,1.527-8.82,4.579c-2.443,3.053-3.664,6.733-3.664,11.038v27.62h-10.941
			l-0.161-27.994c0,0-0.47-26.184,23.587-26.184c7.294,0,13.287,3.181,17.979,9.544C176.664,40.323,182.673,37.142,189.967,37.142z"
			/>
		<path fill="#333333" d="M213.394,91.84h-10.942c-0.288,0-0.52-0.233-0.52-0.52V63.7c0-4.163-1.194-7.768-3.55-10.712
			c-2.327-2.909-5.158-4.384-8.415-4.384c-3.288,0-6.136,1.475-8.462,4.384c-2.355,2.943-3.549,6.548-3.549,10.712v27.62
			c0,0.288-0.233,0.52-0.52,0.52h-10.942c-0.288,0-0.52-0.233-0.52-0.52V63.7c0-4.163-1.194-7.768-3.55-10.712
			c-2.327-2.909-5.175-4.384-8.462-4.384c-3.256,0-6.087,1.475-8.414,4.384c-2.356,2.944-3.55,6.548-3.55,10.712v27.62
			c0,0.288-0.233,0.52-0.52,0.52h-10.941c-0.286,0-0.519-0.231-0.52-0.517l-0.161-27.995c-0.009-0.505-0.136-12.596,7.531-20.402
			c4.109-4.183,9.686-6.304,16.576-6.304c7.22,0,13.266,3.095,17.98,9.202c4.746-6.107,10.807-9.202,18.026-9.202
			c6.584,0,12.295,2.686,16.972,7.984c4.628,5.248,6.975,11.672,6.975,19.094v27.62C213.914,91.607,213.681,91.84,213.394,91.84z
			 M202.972,90.799h9.901V63.7c0-7.161-2.259-13.354-6.715-18.406c-4.471-5.064-9.918-7.632-16.191-7.632
			c-7.086,0-13.011,3.14-17.609,9.333c-0.098,0.133-0.253,0.21-0.418,0.21c0,0-0.001,0-0.001,0c-0.165-0.001-0.32-0.079-0.418-0.211
			c-4.566-6.192-10.474-9.332-17.56-9.332c-6.598,0-11.924,2.015-15.829,5.988c-7.36,7.488-7.239,19.545-7.237,19.665l0.158,27.484
			h9.904V63.7c0-4.407,1.271-8.229,3.778-11.363c2.535-3.168,5.639-4.775,9.227-4.775c3.62,0,6.74,1.606,9.276,4.775
			c2.506,3.134,3.777,6.957,3.777,11.363v27.099h9.901V63.7c0-4.407,1.271-8.229,3.777-11.363c2.535-3.168,5.655-4.775,9.276-4.775
			c3.588,0,6.693,1.606,9.228,4.775c2.506,3.134,3.777,6.957,3.777,11.363V90.799z"/>
	</g>
	<g>
		<path fill="#333333" d="M250.702,37.865c7.326,0,13.609,2.651,18.846,7.953c5.206,5.271,7.809,11.648,7.809,19.136
			c0,7.455-2.603,13.818-7.809,19.087c-5.237,5.336-11.52,8.002-18.846,8.002c-5.721,0-10.894-1.718-15.522-5.157
			c0,0-11.183-8.042-11.183-23.56c0-18.725,0-42.38,0-42.38h11.183v21.98C239.807,39.552,244.98,37.865,250.702,37.865z
			 M250.702,80.86c4.241,0,7.872-1.558,10.893-4.675c3.053-3.117,4.579-6.861,4.579-11.231c0-4.402-1.526-8.162-4.579-11.28
			c-3.021-3.116-6.652-4.675-10.893-4.675c-4.307,0-7.97,1.559-10.99,4.675c-3.021,3.118-4.532,6.878-4.532,11.28
			c0,4.371,1.511,8.114,4.532,11.231C242.732,79.302,246.394,80.86,250.702,80.86z"/>
		<path fill="#333333" d="M250.702,92.563c-5.809,0-11.136-1.769-15.831-5.26c-0.108-0.077-11.394-8.374-11.394-23.978V20.946
			c0-0.288,0.233-0.52,0.52-0.52h11.183c0.288,0,0.52,0.233,0.52,0.52v20.979c4.492-3.04,9.533-4.58,15.001-4.58
			c7.438,0,13.902,2.728,19.216,8.107c5.282,5.348,7.96,11.909,7.96,19.502c0,7.563-2.678,14.107-7.96,19.453
			C264.606,89.819,258.14,92.563,250.702,92.563z M224.517,21.466v41.859c0,15.077,10.857,23.059,10.967,23.138
			c4.519,3.359,9.637,5.059,15.217,5.059c7.149,0,13.365-2.639,18.475-7.846c5.083-5.145,7.66-11.443,7.66-18.722
			c0-7.309-2.577-13.625-7.659-18.771c-5.111-5.175-11.327-7.798-18.476-7.798c-5.581,0-10.7,1.669-15.214,4.961
			c-0.16,0.117-0.369,0.133-0.543,0.044c-0.175-0.089-0.285-0.268-0.285-0.464v-21.46H224.517z M250.702,81.38
			c-4.433,0-8.257-1.626-11.364-4.834c-3.104-3.202-4.678-7.102-4.678-11.592c0-4.522,1.574-8.439,4.678-11.642
			c3.108-3.207,6.931-4.833,11.364-4.833c4.366,0,8.157,1.626,11.267,4.833c3.134,3.201,4.725,7.119,4.725,11.642
			c0,4.491-1.591,8.392-4.727,11.594C258.86,79.754,255.069,81.38,250.702,81.38z M250.702,49.52c-4.141,0-7.712,1.52-10.616,4.516
			c-2.91,3.003-4.385,6.676-4.385,10.918c0,4.21,1.476,7.866,4.385,10.869c2.903,2.997,6.475,4.517,10.616,4.517
			c4.074,0,7.614-1.519,10.519-4.517c2.942-3.003,4.432-6.659,4.432-10.869c0-4.241-1.491-7.914-4.43-10.916
			C258.315,51.04,254.776,49.52,250.702,49.52z"/>
	</g>
</g>
<g>
	<polygon fill="#0099FF" points="57.262,24.395 76.561,13.312 57.136,2.092 37.818,13.249 41.396,15.319 	"/>
	<path fill="#FFCC66" d="M56,35.64v-8.799L37,15.93v8.802l9.299,5.367C46.722,30.343,47,30.794,47,31.283v0.065v9.51L56,35.64z"/>
	<path fill="#FF3333" d="M78,15.71L59,26.862v8.87l9,5.109v-9.542c0,0,0,0,0,0s0,0,0,0v-0.016c0-0.489,0.09-0.94,0.513-1.184
		L78,24.598V15.71z"/>
	<path fill="#0099FF" d="M81,65.289v8.742l10.262,5.87l19.3-11.083l-7.615-4.398l-10.37,5.951c-0.167,0.161-0.356,0.304-0.532,0.405
		c-0.211,0.122-0.718,0.183-0.954,0.183c-0.237,0-0.473-0.061-0.685-0.184L81,65.289z"/>
	<path fill="#FFCC66" d="M71.334,81.049l8.81,5.049C80.567,86.343,81,86.794,81,87.283v0.065v12.08l9,5.299V82.348l-10.46-6.007
		L71.334,81.049z"/>
	<polygon fill="#FF3333" points="112,71.217 93,82.369 93,104.731 112,93.538 	"/>
	<path fill="#0099FF" d="M34,73.939v-8.846l-9.473,5.458c-0.094,0.087-0.197,0.163-0.306,0.225
		c-0.211,0.122-0.541,0.183-0.777,0.183c-0.236,0-0.511-0.061-0.723-0.184c-0.046-0.027-0.084-0.064-0.127-0.096l-10.867-6.287
		L4.131,68.78l18.237,10.528l1.14,0.656L34,73.939z"/>
	<polygon fill="#FFCC66" points="22,104.726 22,82.348 3,71.346 3,93.54 	"/>
	<path fill="#FF3333" d="M34,87.283c0-0.489,0.09-0.94,0.513-1.184l8.677-5.031l-8.011-4.673L25,82.369v22.362l9-5.302v-12.13
		c0,0,0,0,0,0s0,0,0,0V87.283z"/>
	<polygon fill="#0099FF" points="91.262,42.395 110.561,31.312 91.136,20.092 71.818,31.249 75.396,33.319 	"/>
	<path fill="#FFCC66" d="M71,42.858l9.144,5.24C80.567,48.343,81,48.794,81,49.283v0.065v12.573l9,5.299V44.841L71,33.93V42.858z"/>
	<polygon fill="#FF3333" points="112,56.032 112,33.71 93,44.862 93,67.225 	"/>
	<polygon fill="#0099FF" points="23.508,42.458 42.916,31.312 23.49,20.092 4.131,31.274 22.368,41.802 	"/>
	<polygon fill="#FFCC66" points="22,44.841 3,33.839 3,56.033 22,67.22 	"/>
	<path fill="#FF3333" d="M34,49.283c0-0.489,0.09-0.94,0.513-1.184L44,42.598V33.71L25,44.862v22.362l9-5.302V49.299c0,0,0,0,0,0
		s0,0,0,0V49.283z"/>
	<path fill="#0099FF" d="M57.262,98.395l19.3-11.083l-8.044-4.646l-9.941,5.705c-0.167,0.161-0.356,0.304-0.532,0.405
		c-0.211,0.122-0.718,0.183-0.954,0.183c-0.237,0-0.473-0.061-0.685-0.184l-10.562-6.161l-8.025,4.635l3.577,2.069L57.262,98.395z"
		/>
	<polygon fill="#FFCC66" points="37,112.033 56,123.22 56,100.841 37,89.93 	"/>
	<polygon fill="#FF3333" points="78,89.71 59,100.862 59,123.225 78,112.032 	"/>
	<polygon fill="#0099FF" points="57.262,60.395 76.561,49.312 57.136,38.092 37.818,49.249 41.396,51.319 	"/>
	<polygon fill="#FFCC66" points="37,74.033 56,85.22 56,62.841 37,51.93 	"/>
	<polygon fill="#FF3333" points="78,51.71 59,62.862 59,85.225 78,74.032 	"/>
</g>
</svg>
